<?xml version="1.0" encoding="utf-8"?>
<!-- Generator: Adobe Illustrator 21.1.0, SVG Export Plug-In . SVG Version: 6.00 Build 0)  -->
<svg version="1.1" id="Layer_1" xmlns="http://www.w3.org/2000/svg" xmlns:xlink="http://www.w3.org/1999/xlink" x="0px" y="0px"
	 viewBox="0 0 326.5 326.5" style="enable-background:new 0 0 326.5 326.5;" xml:space="preserve">
<style type="text/css">
	.st0{fill:#33A5DE;}
	.st1{fill:#51C4FC;}
	.st2{fill:#939598;}
</style>
<path class="st0" d="M129.3,261c-53.9-18.7-82.5-77.8-63.8-131.7c18.7-53.9,77.8-82.5,131.7-63.8s82.5,77.8,63.8,131.7
	C242.2,251.1,183.2,279.7,129.3,261z M196.3,68C143.8,49.7,86.2,77.6,68,130.1c-18.3,52.5,9.6,110.1,62.2,128.4
	s110.1-9.6,128.4-62.2C276.8,143.8,248.9,86.2,196.3,68z"/>
<path class="st0" d="M125.3,272.3c-60.2-20.9-92.1-86.8-71.2-147c20.9-60.2,86.8-92.1,147-71.2s92.1,86.8,71.2,147
	C251.4,261.3,185.5,293.2,125.3,272.3z M200.3,56.6C141.5,36.2,77,67.4,56.6,126.2C36.2,185,67.4,249.4,126.2,269.9
	c58.8,20.4,123.3-10.8,143.7-69.6C290.3,141.5,259.1,77,200.3,56.6z"/>
<g>
	<path class="st0" d="M117,118.1c4,1.4,6.6,3.3,7.6,5.8c1.1,2.5,0.9,5.7-0.4,9.5l-0.8,2.4c-1,2.8-2.2,4.8-3.6,6.2
		c-1.5,1.4-3.5,2-6,1.9c2.3,1.6,3.6,3.5,4,5.8c0.4,2.3,0.1,4.9-0.9,7.7l-1.5,4.4c-1.4,3.9-3.3,6.5-6,8c-2.6,1.4-6,1.4-10,0
		l-11.9-4.1l17.9-51.6L117,118.1z M108,139.6c2.3,0.8,4.2,0.9,5.7,0.4c1.5-0.5,2.7-2.2,3.6-4.9l1.1-3c0.8-2.3,1-4.2,0.5-5.6
		c-0.5-1.4-1.7-2.5-3.8-3.2l-5.7-2l-5.8,16.7L108,139.6z M101.2,164.6c4.1,1.4,6.9-0.2,8.6-4.9l1.6-4.6c1-2.9,1.1-5.1,0.4-6.6
		c-0.8-1.5-2.4-2.7-4.9-3.6l-5-1.7l-6.7,19.3L101.2,164.6z"/>
	<path class="st0" d="M133,156.4l-4.8,4l-6,17.3l-5.8-2l17.9-51.6l5.8,2l-8.7,24.9l22.4-20.2l5.8,2l-21.2,19l3.7,32.8l-5.9-2.1
		L133,156.4z"/>
	<path class="st0" d="M146.6,186.3l17.9-51.6l5.8,2L154.2,183l14.8,5.1l-1.8,5.2L146.6,186.3z"/>
	<path class="st0" d="M182.5,178l0.6-36.9l6,2.1l-0.8,28.2l16.9-22.6l5.5,1.9L188.1,180l-6.4,18.5l-5.7-2L182.5,178z"/>
	<path class="st0" d="M201.9,205.5l-5.2-1.8l17.9-51.6l7.3,2.5l-1,41.5l13-37.3l5.1,1.8l-17.9,51.6l-6-2.1l1.3-46.3L201.9,205.5z"/>
</g>
<polygon class="st0" points="83.6,126.9 83.4,133 89.1,134.9 83.3,136.6 83.2,142.7 79.8,137.7 74,139.5 77.7,134.7 74.2,129.7 
	79.9,131.8 "/>
<polygon class="st0" points="247.7,183.9 247.5,190 253.3,192 247.4,193.7 247.3,199.8 243.9,194.7 238.1,196.6 241.8,191.7 
	238.3,186.8 244,188.8 "/>
<path class="st0" d="M62.1,78.8"/>
<g>
	<g>
		<path class="st0" d="M161.2,106.6c-0.1,0.1-0.3,0.3-0.4,0.4c-0.1,0.1-0.2,0.2-0.4,0.4l0,0c-0.7,0.6-1.3,1.2-2.1,1.6
			c-0.9,0.4-1.8,0.6-2.9,0.2c-0.3-0.1-0.6-0.2-0.8-0.4c-0.4-0.3-0.7-0.7-1-1.1c-0.5,0.3-1,0.6-1.5,0.9c-2,1-4,1.3-6,0.7
			c-0.6-0.2-1.1-0.5-1.5-0.8c-1.1-0.8-1.6-1.9-1.7-3.1c-0.1-1.1,0.1-2.4,0.6-3.6c0.8-2.3,2.3-4.7,3.3-5.9c0.3-0.4,0.7-0.9,1.2-1.5
			c-0.6-0.1-1.1-0.3-1.7-0.5c-0.1,0-0.2-0.1-0.3-0.1c-1.2-0.5-2.3-1.3-3-2.2c-0.7-1-1-2.2-0.5-3.6l0,0l0-0.1l0,0
			c0.3-0.7,0.6-1.2,1.1-1.6l0,0c0.4-0.4,0.9-0.7,1.6-1c0.3-0.1,0.7,0,0.8,0.3c0.1,0.3,0,0.7-0.3,0.8c-0.5,0.2-0.9,0.5-1.3,0.8l0,0
			c-0.3,0.3-0.5,0.7-0.8,1.2l0,0.1c-0.3,0.9-0.1,1.8,0.4,2.4c0.5,0.8,1.4,1.3,2.4,1.8c0.1,0,0.2,0.1,0.3,0.1
			c0.7,0.3,1.5,0.4,2.3,0.6c0.9-0.9,2-1.8,3.2-2.4c1.7-1,3.5-1.5,5.1-0.9c0.4,0.1,0.7,0.3,0.9,0.6c0,0,0,0,0,0
			c0.2,0.3,0.2,0.7,0.1,1c-0.2,0.7-0.8,1.2-1.3,1.5c-0.5,0.3-1,0.6-1.2,0.6c-1.5,0.6-3.1,0.9-4.7,0.9c-0.5,0-1.1,0-1.6-0.1
			c-0.7,0.7-1.4,1.4-1.8,2c-0.9,1.2-2.3,3.4-3.1,5.6c-0.4,1.1-0.6,2.1-0.5,3.1c0.1,0.9,0.5,1.6,1.2,2.2c0.3,0.2,0.7,0.4,1.2,0.6
			c1.6,0.6,3.3,0.2,5-0.6c0.6-0.3,1.1-0.6,1.7-1c0-0.4,0-0.9,0.2-1.4c0.1-0.4,0.4-0.9,0.7-1.3c0.2-0.3,0.6-0.4,0.9-0.2
			c0.3,0.2,0.4,0.6,0.2,0.9c-0.2,0.3-0.3,0.5-0.4,0.8c1-0.9,2-1.8,2.9-2.9c1.6-1.8,3.1-4.2,3.9-6.3c0.5-1.2,0.7-2.4,0.6-3.4
			c-0.1-0.9-0.5-1.6-1.4-2.1l0,0c-0.5-0.3-1.2-0.5-2.1-0.5c-0.3,0-0.6-0.3-0.6-0.7c0-0.3,0.3-0.6,0.7-0.6c1.1,0.1,1.9,0.3,2.6,0.7
			l0,0c1.2,0.7,1.9,1.7,2.1,3c0.1,1.2-0.1,2.6-0.6,4c-0.8,2.3-2.5,4.8-4.1,6.7c-1.2,1.4-2.6,2.7-4,3.8c0.1,0.4,0.4,0.6,0.7,0.8
			c0.2,0.1,0.3,0.2,0.5,0.2c0.7,0.2,1.3,0.1,1.9-0.1c0.6-0.3,1.2-0.8,1.8-1.3l0,0c0.1-0.1,0.2-0.2,0.3-0.3c0.1-0.2,0.2-0.3,0.4-0.4
			c0.2-0.2,0.6-0.3,0.9,0C161.4,105.9,161.4,106.3,161.2,106.6z M150.9,93.3c0.1,0,0.2,0,0.3,0c1.5,0,2.9-0.3,4.2-0.8
			c0.2-0.1,0.6-0.3,1-0.5c0.4-0.2,0.7-0.5,0.8-0.9c0,0,0,0,0,0l0,0l0,0c0,0-0.1-0.1-0.2-0.1c-1.2-0.4-2.7,0-4.1,0.8
			C152.2,92.3,151.5,92.8,150.9,93.3z"/>
		<path class="st0" d="M171.6,110.1L171.6,110.1c-1.9,2.1-4.7,5-7.2,4.1l0,0c-0.8-0.3-1.2-0.8-1.3-1.4c-0.1-0.6-0.1-1.1,0.1-1.7
			l0-0.1c0.2-0.5,0.5-1,0.9-1.6c0.4-0.6,0.9-1.3,1.5-2c0.5-0.7,0.8-1.1,1.1-1.4c0.3-0.4,0.6-0.8,1-1.3l-0.4-0.3
			c-0.7-0.6-1.6-1.2-2.3-1.9c-0.2,0.2-0.4,0.4-0.5,0.6l0,0l-4,4.2c-0.2,0.3-0.6,0.3-0.9,0c-0.2-0.2-0.3-0.6,0-0.9l4-4.1
			c0.2-0.2,0.4-0.5,0.6-0.7c-0.7-1-1-2-0.5-3.2c0.2-0.4,0.5-0.7,0.9-0.9c0,0,0,0,0,0c0.4-0.2,0.9-0.2,1.3,0c0.2,0.1,0.3,0.1,0.5,0.2
			l0,0c0.4,0.3,0.6,0.6,0.6,1c0.1,0.4,0,0.7-0.1,1.1c-0.1,0.3-0.3,0.5-0.4,0.8c-0.2,0.3-0.4,0.6-0.6,0.9c0.7,0.7,1.5,1.3,2.2,1.9
			c0.4,0.3,0.7,0.5,1,0.7c0.3,0.2,0.3,0.6,0.1,0.9l0,0c-0.6,0.8-0.9,1.1-1.4,1.7c-0.3,0.4-0.6,0.8-1.1,1.4c-0.5,0.7-1,1.3-1.4,1.9
			c-0.4,0.6-0.6,1-0.8,1.4l0,0.1c-0.1,0.3-0.2,0.7-0.1,1c0.1,0.2,0.2,0.4,0.5,0.5c1.8,0.6,4.2-2,5.8-3.7l0.1-0.1
			c0.2-0.3,0.6-0.3,0.9,0C171.8,109.5,171.9,109.9,171.6,110.1z M165.7,99.5c0.1-0.2,0.1-0.3,0.1-0.5c0-0.1-0.1-0.2-0.1-0.2l0,0
			c-0.1,0-0.1-0.1-0.1-0.1c-0.1,0-0.3,0-0.4,0l0,0c-0.1,0.1-0.2,0.2-0.3,0.3c-0.2,0.5-0.1,1,0.2,1.6c0.2-0.2,0.3-0.4,0.5-0.6
			C165.5,99.8,165.6,99.6,165.7,99.5z"/>
		<path class="st0" d="M176.8,111.9c-0.9,1-2,2.2-3.2,3c-1.3,1-2.7,1.6-4.1,1.1l0,0c-0.8-0.3-1.2-0.8-1.3-1.4
			c-0.1-0.6-0.1-1.1,0.1-1.7l0-0.1c0.2-0.5,0.5-1,0.9-1.6c0.4-0.6,0.9-1.3,1.5-2c0.2-0.3,0.6-0.8,1.2-1.5c0.6-0.8,1.3-1.6,2-2.4
			c0.1-0.1,0.2-0.3,0.5-0.6l0.9-1.1c0.2-0.3,0.6-0.3,0.9-0.1c0.3,0.2,0.3,0.6,0.1,0.9l-0.9,1.2l-0.5,0.6c-0.8,1-1.5,1.9-2,2.5
			c-0.5,0.6-0.9,1.1-1.2,1.5c-0.6,0.7-1,1.3-1.4,1.9c-0.4,0.6-0.6,1-0.8,1.4l0,0.1c-0.1,0.3-0.2,0.7-0.1,1c0.1,0.2,0.2,0.4,0.5,0.5
			l0,0c0.8,0.3,1.9-0.2,2.9-0.9c1.1-0.8,2.2-2,3-2.9c0.2-0.3,0.7-0.3,0.9,0C177.1,111.2,177.1,111.7,176.8,111.9z M177.1,101
			c0.2-0.5,0.8-0.8,1.3-0.6c0.5,0.2,0.8,0.8,0.6,1.3c-0.2,0.5-0.8,0.8-1.3,0.6C177.2,102.1,176.9,101.5,177.1,101z"/>
		<path class="st0" d="M188.5,116c-1.7,1.8-3.2,3.1-4.8,3.8c-1.6,0.8-3.1,1.2-4.6,1.3c-0.6,0.1-1.1,0.1-1.7,0l-0.7,0.9
			c-0.8,1-1.6,2-2.5,2.7c-1,0.8-2.2,1.1-3.5,0.7c-0.2-0.1-0.4-0.1-0.6-0.2c-0.9-0.4-1.4-1-1.7-1.6c-0.3-0.7-0.3-1.4-0.1-2.1
			c0-0.1,0.1-0.3,0.2-0.4c1.1-2.4,3.2-2,6-1.6c0.8,0.1,1.5,0.2,2.4,0.3c0.6-0.7,1.1-1.4,1.7-2.1c-1.1,0.5-2.2,0.8-3.2,0.4
			c-0.8-0.3-1.3-0.9-1.4-1.6c-0.2-0.7,0-1.5,0.3-2.4c0.6-1.6,2.5-4.4,4.7-6.3c1.6-1.4,3.5-2.2,5.1-1.7c0.1,0,0.2,0.1,0.3,0.1
			c0.7,0.3,1.3,0.9,1.6,1.7c0.1,0.2,0.2,0.5,0.2,0.7c0.3-0.4,0.6-0.7,0.8-1l0,0l0,0c0.2-0.3,0.6-0.3,0.9-0.1
			c0.3,0.2,0.3,0.6,0.1,0.9l0,0l0,0c-1,1.1-2.7,3.3-4,4.8c-0.9,1.1-1.8,2.3-3,3.7c-0.8,1-1.6,2-2.4,3c0.2,0,0.4,0,0.6,0
			c1.3-0.1,2.6-0.4,4-1.1c1.4-0.7,2.9-1.8,4.4-3.6c0.2-0.3,0.6-0.3,0.9,0C188.7,115.3,188.8,115.7,188.5,116z M176,121
			c-0.6-0.1-1.1-0.2-1.7-0.2c-2.2-0.4-4-0.6-4.7,0.9c0,0.1-0.1,0.2-0.1,0.3c-0.1,0.4-0.1,0.8,0,1.2c0.2,0.4,0.5,0.7,1.1,1
			c0.1,0.1,0.3,0.1,0.5,0.2c0.9,0.3,1.7,0,2.4-0.5c0.8-0.6,1.6-1.6,2.3-2.5L176,121z M183.4,111.6c0.4-0.5,0.9-1,1.2-1.4
			c0-0.1,0-0.1,0.1-0.2c0.2-0.7,0.2-1.3,0-1.7c-0.2-0.4-0.5-0.8-0.9-1c0,0-0.1-0.1-0.1-0.1c-1.1-0.4-2.5,0.4-3.8,1.5
			c-2,1.7-3.8,4.3-4.3,5.7c-0.3,0.7-0.4,1.2-0.3,1.7c0.1,0.3,0.3,0.5,0.7,0.7C178.1,117.7,181.2,114.1,183.4,111.6z"/>
		<path class="st0" d="M193.7,117.8c-0.9,1-2,2.2-3.2,3c-1.3,1-2.7,1.6-4.1,1.1l0,0c-0.8-0.3-1.2-0.8-1.3-1.4
			c-0.1-0.6-0.1-1.1,0.1-1.7l0-0.1c0.2-0.5,0.5-1,0.9-1.6c0.4-0.6,0.9-1.3,1.5-2c0.2-0.3,0.6-0.8,1.2-1.5c0.6-0.8,1.3-1.6,2-2.4
			c0.1-0.1,0.2-0.3,0.5-0.6l0.9-1.1c0.2-0.3,0.6-0.3,0.9-0.1c0.3,0.2,0.3,0.6,0.1,0.9l-0.9,1.2l-0.5,0.6c-0.8,1-1.5,1.9-2,2.5
			c-0.5,0.6-0.9,1.1-1.2,1.5c-0.6,0.7-1,1.3-1.4,1.9c-0.4,0.6-0.6,1-0.8,1.4l0,0.1c-0.1,0.3-0.2,0.7-0.1,1c0.1,0.2,0.2,0.4,0.5,0.5
			l0,0c0.8,0.3,1.9-0.2,2.9-0.9c1.1-0.8,2.2-2,3-2.9c0.2-0.3,0.7-0.3,0.9,0C194,117.1,194,117.5,193.7,117.8z M194,106.9
			c0.2-0.5,0.8-0.8,1.3-0.6s0.8,0.8,0.6,1.3c-0.2,0.5-0.8,0.8-1.3,0.6S193.8,107.4,194,106.9z"/>
		<path class="st0" d="M205,121.7L205,121.7c-2,2.1-4.7,5-7.2,4.1l0,0c-0.8-0.3-1.2-0.8-1.3-1.4c-0.1-0.6-0.1-1.1,0.1-1.7l0-0.1
			c0.2-0.6,0.6-1.2,1-1.8c0.4-0.6,0.9-1.2,1.4-1.8c0.1-0.2,0.2-0.3,0.4-0.5c0.8-0.9,1.9-2.3,2.3-3.4c0.3-0.8,0.1-1.6-1-2
			c-0.7-0.2-1.7,0.1-2.7,0.8c-1.5,1-3.1,2.5-4.2,3.8c-1.9,2.3-3.5,4.4-3.9,4.9c-0.2,0.3-0.6,0.3-0.9,0.1c-0.3-0.2-0.3-0.6-0.1-0.9
			c0.4-0.5,2-2.6,3.9-4.9c0,0,0,0,0-0.1c0,0,0,0,0,0c0,0,0,0,0.1-0.1c1.4-1.7,3-3.7,4.6-5.6c0.2-0.3,0.6-0.3,0.9-0.1
			c0.3,0.2,0.3,0.6,0.1,0.9c-0.2,0.2-0.3,0.3-0.4,0.5c1.1-0.6,2.2-0.8,3.1-0.5c2,0.7,2.3,2.1,1.7,3.6c-0.5,1.4-1.7,2.9-2.5,3.8
			c-0.2,0.2-0.3,0.3-0.4,0.5c-0.5,0.6-0.9,1.2-1.3,1.7c-0.4,0.5-0.7,1.1-0.9,1.5l0,0.1c-0.1,0.3-0.2,0.7-0.1,1
			c0.1,0.2,0.2,0.4,0.5,0.5l0,0c1.8,0.6,4.2-2,5.8-3.7l0.1-0.1c0.2-0.3,0.6-0.3,0.9,0C205.2,121.1,205.3,121.5,205,121.7z"/>
		<path class="st0" d="M216.4,125.7L216.4,125.7c-2,2.1-4.7,5-7.2,4.1l0,0c-0.8-0.3-1.2-0.8-1.3-1.4c-0.1-0.6-0.1-1.1,0.1-1.7l0,0
			c-1.4,1.1-3,1.6-4.4,1.1c-0.8-0.3-1.3-0.8-1.4-1.6c-0.2-0.7-0.1-1.5,0.3-2.4c0.6-1.6,2.5-4.4,4.7-6.3c1.6-1.4,3.4-2.2,5.1-1.7
			c0.1,0,0.2,0.1,0.3,0.1c0.7,0.3,1.3,0.9,1.6,1.7c0.1,0.2,0.1,0.4,0.2,0.7c0.3-0.4,0.7-0.8,0.9-1.1c0.2-0.2,0.6-0.3,0.9-0.1
			c0.3,0.2,0.3,0.6,0.1,0.9c-0.6,0.7-1.6,2-2.7,3.3c-0.7,0.9-1.5,1.8-2,2.5c-0.6,0.7-1,1.3-1.4,1.9c-0.4,0.6-0.7,1-0.8,1.4l0,0.1
			c-0.1,0.3-0.2,0.7-0.1,1c0.1,0.2,0.2,0.4,0.6,0.5c1.8,0.6,4.2-2,5.8-3.7l0.1-0.1c0.2-0.3,0.6-0.3,0.9,0
			C216.6,125,216.7,125.4,216.4,125.7z M211.6,121.3c0.5-0.5,0.9-1,1.2-1.4c0.1-0.1,0.1-0.1,0.1-0.2c0.2-0.7,0.2-1.3,0-1.7
			c-0.2-0.4-0.5-0.8-0.9-1c0,0-0.1-0.1-0.2-0.1c-1.1-0.4-2.5,0.4-3.8,1.5c-2,1.7-3.8,4.3-4.3,5.7c-0.2,0.7-0.3,1.2-0.2,1.7
			c0.1,0.3,0.3,0.5,0.6,0.7C206.3,127.5,209.4,123.8,211.6,121.3z"/>
		<path class="st0" d="M222.3,127.7c-1,1.1-2,1.9-2.8,2.6c-0.9,0.7-1.7,1.1-2.5,1.4c-0.4,0.1-0.8,0.1-1.3,0.1
			c-0.4,0-0.9-0.1-1.3-0.2l0,0c-0.6-0.2-1-0.6-1.3-1.1c-0.2-0.5-0.2-1.2,0-2l0,0l0-0.1c0.2-0.5,0.5-1,0.9-1.6c0.4-0.6,0.9-1.3,1.5-2
			c1.5-2,3.2-4,4.8-6.1l1.3-1.6l0.3-0.4c0.3-0.4,0.8-1,1.4-1.8c0.2-0.3,0.6-0.3,0.9-0.1c0.3,0.2,0.3,0.6,0.1,0.9
			c-0.5,0.6-1.1,1.3-1.4,1.8c-0.1,0.2-0.2,0.3-0.3,0.5l-1.3,1.6c-1.6,2-3.2,4-4.8,6.1c-0.5,0.7-1,1.4-1.4,2c-0.4,0.5-0.7,1-0.8,1.4
			l0,0.1c-0.2,0.5-0.2,0.8,0,1c0.1,0.2,0.3,0.4,0.5,0.5l0,0c0.3,0.1,0.6,0.1,0.9,0.1c0.3,0,0.6,0,0.9-0.1c0.7-0.2,1.3-0.6,2.1-1.2
			c0.8-0.6,1.7-1.4,2.7-2.5c0.2-0.2,0.7-0.2,0.9,0C222.5,127.1,222.6,127.5,222.3,127.7z"/>
	</g>
</g>
<g>
	<g>
		<path class="st0" d="M95.9,186.6c0.3,0.2,0.4,0.5,0.3,0.8c-0.1,0.2-0.1,0.4-0.2,0.6c-0.2,0.7-0.1,1.4,0.2,2
			c0.3,0.6,0.9,1.1,1.6,1.5c0.3,0.1,0.5,0.2,0.8,0.3c2.6,0.7,6.1-0.4,8.9-1.2c0.6-0.2,1.2-0.4,1.8-0.5c0.3-0.1,0.6,0.1,0.7,0.4
			c0.1,0.2,0,0.4-0.1,0.5l-3.4,4.4c1.6-1.1,3.3-2,4.8-2.5c0.5-0.2,1.1-0.2,1.6-0.2c0.6,0,1.1,0.1,1.6,0.2c2.6,0.9,2.9,2.7,2.2,4.8
			c-0.8,2.3-2.9,5-4.7,7.3l-0.2,0.2c-0.4,0.4-0.9,1.1-1.5,1.9c-2.2,2.7-5.4,6.6-5.9,8l0,0.1c-0.2,0.7-0.4,1.4-0.2,2
			c0.1,0.5,0.5,1,1.2,1.2l0,0c0.3,0.1,0.5,0.5,0.4,0.7c-0.1,0.3-0.5,0.5-0.8,0.4l-0.1,0c-1.2-0.4-1.7-1.1-2-2
			c-0.2-0.8-0.1-1.7,0.2-2.6l0-0.1c0.6-1.6,3.9-5.6,6.1-8.3c0.6-0.8,1.2-1.4,1.5-1.9l0.2-0.2c1.8-2.3,3.8-4.9,4.5-6.9
			c0.5-1.5,0.2-2.7-1.5-3.3c-0.4-0.1-0.8-0.2-1.2-0.2c-0.4,0-0.9,0.1-1.3,0.2c-2.3,0.7-5.2,2.7-7.6,4.5l-4.4,5.7
			c-0.2,0.2-0.3,0.4-0.5,0.7c-1.3,1.8-3.5,4.8-5.8,4l0,0c-0.4-0.2-0.7-0.4-0.9-0.8c-0.1-0.4-0.2-0.8,0-1.3l0,0l0,0l0,0
			c0.8-2,4.9-4.8,6.2-5.7c0.2-0.1,0.3-0.2,0.3-0.2c0.4-0.3,1-0.8,1.7-1.4c0.7-0.5,1.5-1.2,2.4-1.8l4.6-6.1c-3,0.9-6.6,2-9.5,1.2
			c-0.4-0.1-0.7-0.2-1-0.4c-1-0.5-1.7-1.2-2.2-2.1c-0.4-0.8-0.5-1.8-0.3-2.9c0.1-0.3,0.2-0.5,0.3-0.8
			C95.2,186.6,95.6,186.5,95.9,186.6z M100.3,201.6c-0.2,0.2-0.4,0.3-0.5,0.4c-0.1,0.1-0.2,0.1-0.4,0.3c-1.2,0.8-5.2,3.5-5.8,5.1
			l0,0.1c-0.1,0.2-0.1,0.4,0,0.5c0,0.1,0.1,0.1,0.2,0.2l0,0c1.4,0.5,3.2-2,4.4-3.6c0.2-0.3,0.4-0.5,0.5-0.7L100.3,201.6z"/>
		<path class="st0" d="M123.6,213c-1.9,2-3.7,3-5.5,3.5c-1.8,0.4-3.4,0.2-4.7-0.4l-0.1,0l0,0c-1-0.4-1.8-1-2.2-1.9
			c-0.5-0.9-0.5-2-0.1-3.2l0-0.1l0,0c0.3-0.7,0.7-1.5,1.2-2.2c0,0,0,0,0,0c0.4-0.5,0.8-1.1,1.3-1.6c1.2-1.2,2.5-2.3,3.8-3
			c0.6-0.3,1.2-0.4,1.7-0.5c0.6-0.1,1.1-0.1,1.6,0.1c0.7,0.2,1.1,0.5,1.4,1c0.4,0.4,0.5,1,0.4,1.5c0,0.5-0.3,1-0.6,1.4
			c-0.5,0.7-1.2,1.2-2.1,1.5c-1,0.4-2.1,0.6-3.1,0.6c-1.5,0.1-2.9,0.1-3.6,0c-0.4,0.6-0.7,1.1-0.9,1.7l0,0.1c-0.3,0.9-0.3,1.6,0,2.2
			c0.3,0.6,0.8,1,1.6,1.3l0.1,0c1.2,0.4,2.6,0.7,4,0.3c1.5-0.3,3.1-1.3,4.8-3.1c0.2-0.2,0.6-0.3,0.9,0
			C123.8,212.4,123.8,212.8,123.6,213z M114,208.4c0.7,0,1.6,0,2.6-0.1c0.9-0.1,2-0.2,2.8-0.6c0.6-0.2,1.1-0.6,1.5-1.1
			c0.2-0.3,0.3-0.5,0.3-0.8c0-0.2,0-0.4-0.2-0.6c-0.1-0.2-0.4-0.4-0.8-0.5c-0.3-0.1-0.7-0.1-1.1-0.1c-0.4,0.1-0.9,0.2-1.3,0.4
			c-1.1,0.6-2.4,1.6-3.4,2.7C114.4,208.1,114.2,208.3,114,208.4z"/>
		<path class="st0" d="M138.5,218.2c-0.1,0.2-0.3,0.3-0.4,0.5c-0.1,0.1-0.3,0.3-0.4,0.4c-0.7,0.6-1.3,1.2-2.1,1.6
			c-0.9,0.4-1.8,0.5-2.9,0.2c-0.3-0.1-0.5-0.2-0.8-0.4c-0.4-0.3-0.7-0.6-1-1.1c-0.2,0.1-0.4,0.3-0.6,0.4c-1.3,0.9-2.6,1.3-3.7,1
			c0,0-0.1,0-0.1,0c-0.8-0.3-1.2-0.8-1.3-1.4c-0.1-0.4-0.1-0.9,0-1.3c-1.2,0.9-2.5,1.4-3.8,0.9l0,0c-0.8-0.3-1.2-0.8-1.3-1.4
			c-0.1-0.6-0.1-1.1,0.1-1.7l0-0.1c0.2-0.5,0.5-1,0.9-1.6c0.4-0.6,0.9-1.3,1.5-2c0.3-0.3,0.9-1.1,1.6-2c0.9-1.2,2-2.5,3.1-3.7
			c0.2-0.3,0.6-0.3,0.9-0.1c0.3,0.2,0.3,0.6,0.1,0.9c-1.2,1.4-2.3,2.8-3,3.8c-0.7,0.9-1.3,1.6-1.6,2c-0.6,0.7-1,1.3-1.4,1.9
			c-0.4,0.6-0.6,1-0.8,1.4l0,0.1c-0.1,0.3-0.2,0.7-0.1,1c0.1,0.2,0.2,0.4,0.6,0.5c1.8,0.6,4.2-2,5.8-3.7l0,0c0,0,0,0,0-0.1
			c0.3-0.3,0.9-1.1,1.6-2c1-1.2,2-2.5,3.1-3.7c0.2-0.3,0.6-0.3,0.9-0.1c0.3,0.2,0.3,0.6,0.1,0.9c-1.2,1.4-2.3,2.8-3.1,3.7
			c-0.7,0.9-1.3,1.6-1.6,2c0,0,0,0,0,0c0,0.1-0.1,0.1-0.1,0.1c-0.5,0.6-1,1.2-1.3,1.8c-0.4,0.6-0.6,1-0.8,1.4l0,0.1
			c-0.1,0.3-0.2,0.7-0.1,1c0.1,0.2,0.2,0.4,0.5,0.5l0.1,0c0.7,0.2,1.6-0.1,2.6-0.8c0.3-0.2,0.6-0.5,0.9-0.7c0-0.4,0.1-0.9,0.2-1.4
			c0.1-0.4,0.4-0.9,0.7-1.3c0.2-0.3,0.6-0.4,0.9-0.2c0.3,0.2,0.4,0.6,0.2,0.9c-0.2,0.2-0.3,0.4-0.4,0.6c0.4-0.3,0.8-0.7,1.2-1.1
			c1-1,2-1.9,2.9-2.8c0.9-0.9,1.8-1.8,2.5-2.5c0.2-0.2,0.7-0.2,0.9,0c0.3,0.2,0.2,0.7,0,0.9c-0.8,0.8-1.6,1.6-2.5,2.5
			c-0.9,0.9-1.9,1.8-3,2.8c-0.8,0.7-1.5,1.4-2.3,2.1c0.1,0.3,0.4,0.6,0.7,0.8c0.1,0.1,0.3,0.2,0.5,0.2c0.7,0.2,1.3,0.1,1.9-0.1
			c0.6-0.3,1.3-0.8,1.8-1.3c0.1-0.1,0.2-0.2,0.4-0.4c0.1-0.1,0.2-0.3,0.4-0.4c0.2-0.3,0.6-0.3,0.9,0
			C138.8,217.5,138.8,218,138.5,218.2z"/>
		<path class="st0" d="M164.8,227.4c-1.6,1.8-3.2,3.1-4.8,3.8c-1.5,0.8-3.1,1.2-4.5,1.2c-0.6,0-1.2,0-1.7,0l-0.7,0.9
			c-0.8,1-1.5,2-2.5,2.7c-1,0.8-2.2,1.1-3.6,0.7c-0.2-0.1-0.4-0.1-0.6-0.2c-0.9-0.4-1.4-1-1.7-1.6c-0.3-0.7-0.3-1.4-0.1-2.1
			c0-0.1,0.1-0.3,0.2-0.4c1.1-2.4,3.2-2,6-1.6c0.7,0.1,1.6,0.3,2.4,0.3c0.9-1.1,2-2.5,3.1-3.9c-1.8,1.1-3.6,1.6-5.5,0.9l-0.1,0
			c-1.2-0.4-1.8-1.2-2-2.1c-0.2-0.8-0.1-1.8,0.2-2.7l0,0l0.1-0.1c0.4-1.2,2-3.5,3.7-6c1.4-1.9,2.9-3.9,4.1-5.4
			c-0.6-0.1-1.2-0.2-1.9-0.3c-4-0.7-8.4-1.5-9.9,1.4c0,0.1-0.1,0.2-0.1,0.3c-0.2,0.6-0.3,1.3-0.1,1.8c0.2,0.6,0.6,1,1.2,1.4
			c0.1,0.1,0.2,0.1,0.3,0.1c0.3,0.1,0.5,0.5,0.4,0.8c-0.1,0.3-0.5,0.5-0.8,0.3c-0.1,0-0.3-0.1-0.4-0.2c-0.9-0.5-1.5-1.2-1.8-2.1
			c-0.3-0.8-0.2-1.8,0.1-2.7c0-0.1,0.1-0.3,0.2-0.4c1.9-3.7,6.8-2.8,11.2-2c0.9,0.2,1.8,0.3,2.6,0.4c0.2-0.3,0.5-0.5,0.6-0.7
			c0.5-0.5,1.1-0.9,1.6-1.2c0.6-0.3,1.3-0.4,2-0.3c0.1,0,0.3,0.1,0.5,0.2c0.2,0.1,0.5,0.3,0.6,0.5c0.2,0.3,0.3,0.6,0.3,0.9
			c0,0,0,0.1,0,0.1c0,0.1,0,0.2-0.1,0.3c-0.8,1.6-2.7,1.8-5,1.6c-1.3,1.5-3,3.7-4.6,5.9c-1.7,2.4-3.2,4.7-3.6,5.7l0,0.1
			c-0.2,0.7-0.4,1.4-0.2,2c0.1,0.5,0.5,1,1.2,1.2l0.1,0c1.7,0.6,3.4-0.1,5.1-1.3c1.8-1.2,3.5-3.1,5.1-4.7c0.5-0.6,1.1-1.4,1.8-2.2
			c1.6-2,3.5-4.3,5.4-6.6c0.2-0.3,0.6-0.3,0.9-0.1c0.3,0.2,0.3,0.6,0.1,0.9c-2,2.5-4,4.9-5.4,6.6c-0.7,0.8-1.3,1.6-1.8,2.2
			c0,0,0,0,0,0c-0.4,0.5-0.8,0.9-1,1.2l0,0c-0.8,1.1-1.6,2-2.3,2.9c-1.4,1.8-3,3.7-4.2,5.2c0.2,0,0.4,0,0.6,0c1.3,0,2.7-0.4,4.1-1.1
			c1.4-0.7,2.9-1.9,4.4-3.6c0.2-0.3,0.6-0.3,0.9,0C165,226.7,165,227.1,164.8,227.4z M152.3,232.4c-0.6-0.1-1.2-0.1-1.7-0.2
			c-2.3-0.4-4-0.6-4.7,0.9c-0.1,0.1-0.1,0.2-0.1,0.2c-0.1,0.4-0.1,0.8,0,1.2c0.2,0.4,0.5,0.7,1.1,1c0.1,0.1,0.3,0.1,0.5,0.2
			c0.9,0.3,1.7,0,2.4-0.5c0.8-0.6,1.6-1.6,2.3-2.5L152.3,232.4z M159.4,210.9c1.4,0.1,2.4-0.1,2.9-0.9c0,0-0.1-0.1-0.2-0.2l0,0
			c-0.1,0-0.1,0-0.2-0.1c-0.4-0.1-0.8,0-1.1,0.2C160.2,210.2,159.8,210.5,159.4,210.9z"/>
		<path class="st0" d="M175.9,231.2c-0.2,0.2-0.3,0.3-0.4,0.5c-0.1,0.1-0.3,0.3-0.4,0.4c-0.7,0.6-1.3,1.2-2.1,1.6
			c-0.9,0.4-1.8,0.5-2.9,0.2c-0.3-0.1-0.5-0.2-0.8-0.4c-0.4-0.3-0.7-0.7-1-1.1c-1.5,1.1-3.4,1.7-4.7,1.2c-4.6-1.6,1.1-8.4,3.6-10.4
			c1.6-1.4,3.5-2.2,5-1.6l0,0c0.8,0.3,1.5,0.9,1.8,1.7c0.3,0.7,0.3,1.5-0.1,2.5c-0.6,1.8-2.5,4.1-4.5,5.8c0.1,0.3,0.4,0.6,0.7,0.8
			c0.1,0.1,0.3,0.2,0.5,0.2c0.7,0.2,1.3,0.1,1.9-0.1c0.6-0.3,1.3-0.8,1.8-1.3c0.1-0.1,0.2-0.2,0.4-0.4c0.1-0.1,0.2-0.3,0.4-0.4
			c0.2-0.3,0.6-0.3,0.9,0C176.1,230.5,176.1,230.9,175.9,231.2z M169.9,229c-0.2,0.2-0.3,0.4-0.4,0.6c1.4-1.4,2.6-3.1,3.1-4.4
			c0.3-0.7,0.3-1.2,0.1-1.6c-0.2-0.4-0.6-0.8-1.1-1c-1.1-0.4-2.5,0.3-3.8,1.4c-1.7,1.4-6.8,7.3-4,8.2c1,0.4,2.6-0.4,4-1.4
			c0-0.5,0.1-0.9,0.2-1.4c0.1-0.4,0.4-0.9,0.7-1.3c0.2-0.3,0.6-0.4,0.9-0.2C170.1,228.4,170.1,228.7,169.9,229z"/>
		<path class="st0" d="M186.3,234.8L186.3,234.8c-1.9,2.1-4.7,5-7.2,4.1l0,0c-0.8-0.3-1.2-0.8-1.3-1.4c-0.1-0.6-0.1-1.1,0.1-1.7
			l0-0.1c0.2-0.5,0.5-1,0.9-1.6c0.4-0.6,0.9-1.3,1.5-2c0.5-0.7,0.8-1.1,1.1-1.4c0.3-0.4,0.6-0.8,1-1.3l-0.4-0.3
			c-0.7-0.6-1.6-1.2-2.3-1.9c-0.2,0.2-0.4,0.4-0.5,0.6l0,0l-4,4.2c-0.2,0.3-0.6,0.3-0.9,0c-0.2-0.2-0.3-0.6,0-0.9l4-4.1
			c0.2-0.2,0.4-0.5,0.6-0.7c-0.7-1-1-2-0.5-3.2c0.2-0.4,0.5-0.7,0.9-0.9c0,0,0,0,0,0c0.4-0.2,0.9-0.2,1.3,0c0.2,0.1,0.3,0.1,0.5,0.2
			l0,0c0.4,0.3,0.6,0.6,0.6,1c0.1,0.4,0,0.7-0.1,1.1c-0.1,0.3-0.3,0.5-0.4,0.8c-0.2,0.3-0.4,0.6-0.6,0.9c0.7,0.7,1.5,1.3,2.2,1.9
			c0.4,0.3,0.7,0.5,1,0.7c0.3,0.2,0.3,0.6,0.1,0.9l0,0c-0.6,0.8-0.9,1.1-1.4,1.7c-0.3,0.4-0.6,0.8-1.1,1.4c-0.5,0.7-1,1.3-1.4,1.9
			c-0.4,0.6-0.6,1-0.8,1.4l0,0.1c-0.1,0.3-0.2,0.7-0.1,1c0.1,0.2,0.2,0.4,0.5,0.5c1.8,0.6,4.2-2,5.8-3.7l0.1-0.1
			c0.2-0.3,0.6-0.3,0.9,0C186.5,234.2,186.5,234.6,186.3,234.8z M180.3,224.2c0.1-0.2,0.1-0.3,0.1-0.5c0-0.1-0.1-0.2-0.1-0.2l0,0
			c-0.1,0-0.1-0.1-0.1-0.1c-0.1,0-0.3,0-0.4,0l0,0c-0.1,0.1-0.2,0.2-0.3,0.3c-0.2,0.5-0.1,1,0.2,1.6c0.2-0.2,0.3-0.4,0.5-0.6
			C180.2,224.5,180.3,224.3,180.3,224.2z"/>
		<path class="st0" d="M190.4,229.9c-0.6,0.7-2.3,2.8-4,4.9c-1.6,1.9-3.2,4-3.9,4.9c-0.2,0.3-0.6,0.3-0.9,0.1
			c-0.3-0.2-0.3-0.6-0.1-0.9c0.6-0.8,2.3-2.9,3.9-4.9l0,0c1.7-2.1,3.4-4.2,4-4.9l0,0c0.6-0.7,0.8-1,1.1-1.3c0.5-0.6,0.9-1.1,1.1-1.5
			l0.3-0.4c0.3-0.4,0.8-1,1.4-1.8c0.2-0.3,0.6-0.3,0.9-0.1c0.3,0.2,0.3,0.6,0.1,0.9c-0.5,0.6-1,1.3-1.4,1.7
			c-0.1,0.1-0.2,0.3-0.3,0.4c-0.5,0.7-0.9,1.1-1.2,1.5L190.4,229.9L190.4,229.9z M197.5,238.7c-0.9,1-2,2.2-3.2,3
			c-1.3,1-2.7,1.6-4,1.1c-0.7-0.2-1-0.6-1.3-1.1c-0.2-0.6-0.2-1.2-0.1-1.7l0,0c0.2-0.6,0.5-1.2,0.8-1.8c0.3-0.5,0.5-1.1,0.7-1.6
			c0.2-0.7,0.2-1.4-0.8-1.7c-0.2-0.1-0.5-0.1-0.7,0c-0.1,0-0.2,0-0.3,0.1l-0.5,0.2c-0.2,0.1-0.4,0.1-0.5,0c0,0,0,0-0.1,0
			c0,0,0,0,0,0c0,0,0,0,0,0c0,0,0,0,0,0s0,0,0,0c0,0-0.1-0.1-0.1-0.2c-0.1-0.3,0-0.7,0.3-0.8c0.2-0.1,0.4-0.2,0.6-0.2l8.3-3.6
			c0.3-0.1,0.7,0,0.8,0.4c0.1,0.3,0,0.7-0.3,0.8l-6.2,2.7c1.2,0.7,1.3,1.8,0.9,3c-0.2,0.6-0.5,1.2-0.8,1.8c-0.3,0.6-0.5,1.1-0.7,1.6
			l0,0c-0.1,0.3-0.1,0.7,0,0.9c0.1,0.2,0.2,0.3,0.5,0.4c0.8,0.3,1.9-0.2,2.9-0.9c1.1-0.8,2.2-2,3.1-2.9c0.2-0.3,0.6-0.3,0.9,0
			C197.8,238.1,197.8,238.5,197.5,238.7z"/>
	</g>
</g>
<g>
	<defs>
		<path id="SVGID_1_" d="M129.5,260.4c-53.6-18.6-82-77.3-63.4-130.9c18.6-53.6,77.3-82,130.9-63.4c53.6,18.6,82,77.3,63.4,130.9
			C241.7,250.5,183,279,129.5,260.4z M196.6,67.3C143.7,49,85.7,77,67.3,129.9C49,182.8,77,240.8,129.9,259.1
			c52.9,18.4,110.8-9.7,129.2-62.6C277.5,143.7,249.4,85.7,196.6,67.3z"/>
	</defs>
	<use xlink:href="#SVGID_1_"  style="overflow:visible;fill:#33A5DE;"/>
	<clipPath id="SVGID_2_">
		<use xlink:href="#SVGID_1_"  style="overflow:visible;"/>
	</clipPath>
</g>
<g>
	<path class="st0" d="M196.6,67.2c-0.3-0.1-0.4-0.4-0.3-0.6l2.3-6.8c0.1-0.3,0.4-0.4,0.6-0.3c0.3,0.1,0.4,0.4,0.3,0.6l-2.3,6.8
		C197.1,67.1,196.9,67.3,196.6,67.2z"/>
	<path class="st0" d="M191.5,65.6c-0.2-0.1-0.4-0.3-0.3-0.6l2-6.9c0.1-0.3,0.3-0.4,0.6-0.3c0.2,0.1,0.4,0.3,0.3,0.6l-2,6.9
		C192.1,65.5,191.8,65.7,191.5,65.6C191.5,65.6,191.5,65.6,191.5,65.6z"/>
	<path class="st0" d="M186.3,64.2c-0.2-0.1-0.4-0.3-0.3-0.6l1.6-7c0.1-0.3,0.3-0.4,0.6-0.4c0.3,0.1,0.4,0.3,0.4,0.6l-1.6,7
		C186.9,64.1,186.7,64.3,186.3,64.2C186.4,64.2,186.4,64.2,186.3,64.2z"/>
	<path class="st0" d="M181.1,63.1c-0.2-0.1-0.4-0.3-0.3-0.5l1.3-7c0-0.3,0.3-0.4,0.6-0.4c0.3,0.1,0.4,0.3,0.4,0.6l-1.3,7
		C181.7,63,181.4,63.2,181.1,63.1C181.2,63.2,181.1,63.1,181.1,63.1z"/>
	<path class="st0" d="M175.8,62.3c-0.2-0.1-0.4-0.3-0.3-0.5l0.9-7.1c0-0.3,0.3-0.5,0.5-0.4c0.3,0,0.5,0.3,0.4,0.5l-0.9,7.1
		c0,0.3-0.3,0.5-0.5,0.4C175.9,62.3,175.8,62.3,175.8,62.3z"/>
	<path class="st0" d="M170.5,61.8c-0.2-0.1-0.3-0.3-0.3-0.5l0.5-7.1c0-0.3,0.3-0.5,0.5-0.5c0.3,0,0.5,0.3,0.5,0.5l-0.5,7.1
		c0,0.3-0.3,0.5-0.5,0.5C170.6,61.8,170.5,61.8,170.5,61.8z"/>
	<path class="st0" d="M165.2,61.6c-0.2-0.1-0.3-0.3-0.3-0.5l0.1-7.2c0-0.3,0.2-0.5,0.5-0.5c0.3,0,0.5,0.2,0.5,0.5l-0.1,7.2
		c0,0.3-0.2,0.5-0.5,0.5C165.2,61.6,165.2,61.6,165.2,61.6z"/>
	<path class="st0" d="M159.8,61.6c-0.2-0.1-0.3-0.2-0.3-0.4l-0.2-7.2c0-0.3,0.2-0.5,0.5-0.5c0.3,0,0.5,0.2,0.5,0.5l0.2,7.2
		c0,0.3-0.2,0.5-0.5,0.5C159.9,61.6,159.9,61.6,159.8,61.6z"/>
	<path class="st0" d="M154.5,61.9c-0.2-0.1-0.3-0.2-0.3-0.4l-0.6-7.1c0-0.3,0.2-0.5,0.4-0.5c0.3,0,0.5,0.2,0.5,0.4l0.6,7.1
		c0,0.3-0.2,0.5-0.4,0.5C154.6,61.9,154.5,61.9,154.5,61.9z"/>
	<path class="st0" d="M149.1,62.5c-0.2-0.1-0.3-0.2-0.3-0.4l-1-7.1c0-0.3,0.1-0.5,0.4-0.6c0.3,0,0.5,0.2,0.6,0.4l1,7.1
		c0,0.3-0.1,0.5-0.4,0.6C149.3,62.5,149.2,62.5,149.1,62.5z"/>
	<path class="st0" d="M143.9,63.4c-0.2-0.1-0.3-0.2-0.3-0.4l-1.3-7c-0.1-0.3,0.1-0.5,0.4-0.6c0.3-0.1,0.5,0.1,0.6,0.4l1.3,7
		c0.1,0.3-0.1,0.5-0.4,0.6C144,63.4,143.9,63.4,143.9,63.4z"/>
	<path class="st0" d="M138.6,64.5c-0.2-0.1-0.3-0.2-0.3-0.3l-1.7-6.9c-0.1-0.3,0.1-0.5,0.4-0.6c0.3-0.1,0.5,0.1,0.6,0.4l1.7,6.9
		c0.1,0.3-0.1,0.5-0.4,0.6C138.8,64.5,138.7,64.5,138.6,64.5z"/>
	<path class="st0" d="M133.5,65.9c-0.1,0-0.3-0.2-0.3-0.3l-2.1-6.9c-0.1-0.3,0.1-0.5,0.3-0.6c0.3-0.1,0.5,0.1,0.6,0.3l2.1,6.9
		c0.1,0.3-0.1,0.5-0.3,0.6C133.7,65.9,133.6,65.9,133.5,65.9z"/>
	<path class="st0" d="M128.4,67.6c-0.1,0-0.2-0.2-0.3-0.3l-2.4-6.7c-0.1-0.3,0-0.5,0.3-0.6c0.3-0.1,0.5,0,0.6,0.3L129,67
		c0.1,0.3,0,0.5-0.3,0.6C128.6,67.6,128.5,67.6,128.4,67.6z"/>
	<path class="st0" d="M123.4,69.5c-0.1,0-0.2-0.1-0.3-0.3l-2.8-6.6c-0.1-0.2,0-0.5,0.3-0.6c0.2-0.1,0.5,0,0.6,0.3l2.8,6.6
		c0.1,0.2,0,0.5-0.3,0.6C123.7,69.6,123.5,69.6,123.4,69.5z"/>
	<path class="st0" d="M118.6,71.7c-0.1,0-0.2-0.1-0.3-0.2l-3.1-6.4c-0.1-0.2,0-0.5,0.2-0.7c0.2-0.1,0.5,0,0.7,0.2l3.1,6.4
		c0.1,0.2,0,0.5-0.2,0.7C118.8,71.8,118.7,71.8,118.6,71.7z"/>
	<path class="st0" d="M113.8,74.2c-0.1,0-0.2-0.1-0.3-0.2l-3.5-6.3c-0.1-0.2,0-0.5,0.2-0.7c0.2-0.1,0.5,0,0.7,0.2l3.5,6.3
		c0.1,0.2,0,0.5-0.2,0.7C114.1,74.2,113.9,74.2,113.8,74.2z"/>
	<path class="st0" d="M109.2,76.9c-0.1,0-0.2-0.1-0.3-0.2l-3.8-6.1c-0.1-0.2-0.1-0.5,0.2-0.7c0.2-0.1,0.5-0.1,0.7,0.2l3.8,6.1
		c0.1,0.2,0.1,0.5-0.2,0.7C109.5,76.9,109.3,76.9,109.2,76.9z"/>
	<path class="st0" d="M104.7,79.8c-0.1,0-0.2-0.1-0.2-0.2l-4.1-5.9c-0.2-0.2-0.1-0.5,0.1-0.7c0.2-0.2,0.5-0.1,0.7,0.1l4.1,5.9
		c0.2,0.2,0.1,0.5-0.1,0.7C105,79.9,104.9,79.9,104.7,79.8z"/>
	<path class="st0" d="M100.4,83c-0.1,0-0.2-0.1-0.2-0.2l-4.4-5.7c-0.2-0.2-0.1-0.5,0.1-0.7c0.2-0.2,0.5-0.1,0.7,0.1l4.4,5.7
		c0.2,0.2,0.1,0.5-0.1,0.7C100.7,83,100.6,83.1,100.4,83z"/>
	<path class="st0" d="M96.3,86.4c-0.1,0-0.2-0.1-0.2-0.1l-4.7-5.4c-0.2-0.2-0.2-0.5,0.1-0.7c0.2-0.2,0.5-0.2,0.7,0.1l4.7,5.4
		c0.2,0.2,0.2,0.5-0.1,0.7C96.6,86.4,96.4,86.5,96.3,86.4z"/>
	<path class="st0" d="M92.3,90c-0.1,0-0.1-0.1-0.2-0.1l-5-5.2c-0.2-0.2-0.2-0.5,0-0.7c0.2-0.2,0.5-0.2,0.7,0l5,5.2
		c0.2,0.2,0.2,0.5,0,0.7C92.7,90,92.5,90.1,92.3,90z"/>
	<path class="st0" d="M88.6,93.8c-0.1,0-0.1-0.1-0.2-0.1l-5.2-4.9c-0.2-0.2-0.2-0.5,0-0.7c0.2-0.2,0.5-0.2,0.7,0L89,93
		c0.2,0.2,0.2,0.5,0,0.7C88.9,93.8,88.7,93.9,88.6,93.8z"/>
	<path class="st0" d="M85,97.8c-0.1,0-0.1,0-0.2-0.1l-5.5-4.6c-0.2-0.2-0.2-0.5-0.1-0.7c0.2-0.2,0.5-0.2,0.7-0.1l5.5,4.6
		c0.2,0.2,0.2,0.5,0.1,0.7C85.4,97.8,85.2,97.9,85,97.8z"/>
	<path class="st0" d="M81.7,102c0,0-0.1,0-0.1-0.1l-5.7-4.3c-0.2-0.2-0.3-0.5-0.1-0.7c0.2-0.2,0.5-0.3,0.7-0.1l5.7,4.3
		c0.2,0.2,0.3,0.5,0.1,0.7C82.1,102,81.9,102,81.7,102z"/>
	<path class="st0" d="M78.5,106.3c0,0-0.1,0-0.1-0.1l-5.9-4c-0.2-0.2-0.3-0.5-0.1-0.7c0.2-0.2,0.5-0.3,0.7-0.1l5.9,4
		c0.2,0.2,0.3,0.5,0.1,0.7C79,106.3,78.7,106.4,78.5,106.3z"/>
	<path class="st0" d="M75.7,110.8C75.6,110.8,75.6,110.8,75.7,110.8l-6.2-3.7c-0.2-0.1-0.3-0.4-0.2-0.7s0.4-0.3,0.7-0.2l6.1,3.7
		c0.2,0.1,0.3,0.4,0.2,0.7C76.1,110.8,75.9,110.9,75.7,110.8z"/>
	<path class="st0" d="M73,115.5C73,115.5,73,115.5,73,115.5l-6.4-3.4c-0.2-0.1-0.3-0.4-0.2-0.7c0.1-0.2,0.4-0.3,0.7-0.2l6.3,3.4
		c0.2,0.1,0.3,0.4,0.2,0.7C73.5,115.5,73.2,115.6,73,115.5z"/>
	<path class="st0" d="M70.6,120.3C70.6,120.3,70.6,120.2,70.6,120.3l-6.5-3.1c-0.2-0.1-0.3-0.4-0.2-0.6c0.1-0.2,0.4-0.4,0.6-0.2
		l6.5,3c0.2,0.1,0.3,0.4,0.2,0.6C71.1,120.2,70.8,120.3,70.6,120.3z"/>
	<path class="st0" d="M68.5,125.2C68.4,125.2,68.4,125.2,68.5,125.2l-6.7-2.7c-0.2-0.1-0.4-0.4-0.3-0.6c0.1-0.2,0.4-0.4,0.6-0.3
		l6.6,2.7c0.2,0.1,0.4,0.4,0.3,0.6C69,125.1,68.7,125.2,68.5,125.2z"/>
	<path class="st0" d="M66.6,130.2L66.6,130.2l-6.8-2.4c-0.3-0.1-0.4-0.4-0.3-0.6c0.1-0.3,0.4-0.4,0.6-0.3l0,0l6.8,2.4
		c0.3,0.1,0.4,0.4,0.3,0.6C67.1,130.1,66.8,130.3,66.6,130.2z"/>
	<path class="st0" d="M58.1,133.3c-0.2-0.1-0.4-0.3-0.3-0.6c0.1-0.3,0.3-0.4,0.6-0.3l6.9,2c0.3,0.1,0.4,0.3,0.3,0.6
		c-0.1,0.3-0.3,0.4-0.6,0.3L58.1,133.3C58.1,133.3,58.1,133.3,58.1,133.3z"/>
	<path class="st0" d="M56.6,138.8c-0.2-0.1-0.4-0.3-0.3-0.6c0.1-0.3,0.3-0.4,0.6-0.4l7,1.6c0.3,0.1,0.4,0.3,0.4,0.6
		c-0.1,0.3-0.3,0.4-0.6,0.4L56.6,138.8C56.7,138.8,56.6,138.8,56.6,138.8z"/>
	<path class="st0" d="M55.5,144.4c-0.2-0.1-0.4-0.3-0.3-0.5c0-0.3,0.3-0.4,0.6-0.4l7,1.3c0.3,0.1,0.4,0.3,0.4,0.6
		c0,0.3-0.3,0.4-0.6,0.4L55.5,144.4C55.5,144.4,55.5,144.4,55.5,144.4z"/>
	<path class="st0" d="M54.6,150.1c-0.2-0.1-0.4-0.3-0.3-0.5c0-0.3,0.3-0.5,0.5-0.4l7.1,0.9c0.3,0,0.5,0.3,0.4,0.5
		c0,0.3-0.3,0.5-0.5,0.4L54.6,150.1C54.7,150.1,54.6,150.1,54.6,150.1z"/>
	<path class="st0" d="M54,155.8c-0.2-0.1-0.3-0.3-0.3-0.5c0-0.3,0.3-0.5,0.5-0.5l7.1,0.5c0.3,0,0.5,0.3,0.5,0.5
		c0,0.3-0.3,0.5-0.5,0.5l-7.1-0.5C54.1,155.8,54.1,155.8,54,155.8z"/>
	<path class="st0" d="M53.8,161.5c-0.2-0.1-0.3-0.3-0.3-0.5c0-0.3,0.2-0.5,0.5-0.5l7.2,0.1c0.3,0,0.5,0.2,0.5,0.5
		c0,0.3-0.2,0.5-0.5,0.5l-7.2-0.1C53.9,161.5,53.8,161.5,53.8,161.5z"/>
	<path class="st0" d="M53.8,167.2c-0.2-0.1-0.3-0.2-0.3-0.4c0-0.3,0.2-0.5,0.5-0.5l7.2-0.2c0.3,0,0.5,0.2,0.5,0.5
		c0,0.3-0.2,0.5-0.5,0.5l-7.2,0.2C53.9,167.2,53.9,167.2,53.8,167.2z"/>
	<path class="st0" d="M54.1,172.9c-0.2-0.1-0.3-0.2-0.3-0.4c0-0.3,0.2-0.5,0.4-0.5l7.1-0.6c0.3,0,0.5,0.2,0.5,0.4
		c0,0.3-0.2,0.5-0.4,0.5l-7.1,0.6C54.3,172.9,54.2,172.9,54.1,172.9z"/>
	<path class="st0" d="M54.8,178.6c-0.2-0.1-0.3-0.2-0.3-0.4c0-0.3,0.2-0.5,0.4-0.5l7.1-1c0.3,0,0.5,0.1,0.5,0.4
		c0,0.3-0.2,0.5-0.4,0.5l-7.1,1C54.9,178.6,54.8,178.6,54.8,178.6z"/>
	<path class="st0" d="M55.7,184.3c-0.2-0.1-0.3-0.2-0.3-0.4c-0.1-0.3,0.1-0.5,0.4-0.6l7-1.3c0.3-0.1,0.5,0.1,0.6,0.4
		c0.1,0.3-0.1,0.5-0.4,0.6l-7,1.3C55.9,184.3,55.8,184.3,55.7,184.3z"/>
	<path class="st0" d="M56.9,189.8c-0.2-0.1-0.3-0.2-0.3-0.3c-0.1-0.3,0.1-0.5,0.4-0.6l7-1.7c0.3-0.1,0.5,0.1,0.6,0.4
		c0.1,0.3-0.1,0.5-0.4,0.6l-7,1.7C57.1,189.9,57,189.9,56.9,189.8z"/>
	<path class="st0" d="M58.4,195.4c-0.1,0-0.3-0.2-0.3-0.3c-0.1-0.3,0.1-0.5,0.3-0.6l6.9-2.1c0.3-0.1,0.5,0.1,0.6,0.3
		c0.1,0.3-0.1,0.5-0.3,0.6l-6.9,2.1C58.6,195.4,58.5,195.4,58.4,195.4z"/>
	<path class="st0" d="M60.2,200.8c-0.1,0-0.2-0.2-0.3-0.3c-0.1-0.3,0-0.5,0.3-0.6l6.7-2.4c0.3-0.1,0.5,0,0.6,0.3
		c0.1,0.3,0,0.5-0.3,0.6l-6.7,2.4C60.4,200.8,60.3,200.8,60.2,200.8z"/>
	<path class="st0" d="M62.3,206.1c-0.1,0-0.2-0.1-0.3-0.3c-0.1-0.2,0-0.5,0.3-0.6l6.6-2.8c0.2-0.1,0.5,0,0.6,0.3
		c0.1,0.2,0,0.5-0.3,0.6l-6.6,2.8C62.5,206.2,62.4,206.2,62.3,206.1z"/>
	<path class="st0" d="M64.7,211.3c-0.1,0-0.2-0.1-0.3-0.2c-0.1-0.2,0-0.5,0.2-0.7l6.4-3.1c0.2-0.1,0.5,0,0.7,0.2
		c0.1,0.2,0,0.5-0.2,0.7l-6.4,3.1C64.9,211.4,64.8,211.4,64.7,211.3z"/>
	<path class="st0" d="M67.3,216.4c-0.1,0-0.2-0.1-0.3-0.2c-0.1-0.2,0-0.5,0.2-0.7l6.3-3.5c0.2-0.1,0.5,0,0.7,0.2
		c0.1,0.2,0,0.5-0.2,0.7l-6.3,3.5C67.6,216.5,67.4,216.5,67.3,216.4z"/>
	<path class="st0" d="M70.2,221.4c-0.1,0-0.2-0.1-0.3-0.2c-0.1-0.2-0.1-0.5,0.2-0.7l6.1-3.8c0.2-0.1,0.5-0.1,0.7,0.2
		c0.1,0.2,0.1,0.5-0.2,0.7l-6.1,3.8C70.5,221.4,70.3,221.4,70.2,221.4z"/>
	<path class="st0" d="M73.3,226.1c-0.1,0-0.2-0.1-0.2-0.2c-0.2-0.2-0.1-0.5,0.1-0.7l5.9-4.1c0.2-0.2,0.5-0.1,0.7,0.1
		c0.2,0.2,0.1,0.5-0.1,0.7l-5.9,4.1C73.6,226.2,73.5,226.2,73.3,226.1z"/>
	<path class="st0" d="M76.7,230.8c-0.1,0-0.2-0.1-0.2-0.2c-0.2-0.2-0.1-0.5,0.1-0.7l5.7-4.4c0.2-0.2,0.5-0.1,0.7,0.1
		c0.2,0.2,0.1,0.5-0.1,0.7l-5.7,4.4C77.1,230.8,76.9,230.8,76.7,230.8z"/>
	<path class="st0" d="M80.4,235.2c-0.1,0-0.2-0.1-0.2-0.1c-0.2-0.2-0.2-0.5,0.1-0.7l5.4-4.7c0.2-0.2,0.5-0.2,0.7,0.1
		c0.2,0.2,0.2,0.5-0.1,0.7l-5.4,4.7C80.7,235.2,80.5,235.2,80.4,235.2z"/>
	<path class="st0" d="M84.2,239.4c-0.1,0-0.1-0.1-0.2-0.1c-0.2-0.2-0.2-0.5,0-0.7l5.2-5c0.2-0.2,0.5-0.2,0.7,0
		c0.2,0.2,0.2,0.5,0,0.7l-5.2,5C84.6,239.4,84.4,239.5,84.2,239.4z"/>
	<path class="st0" d="M88.3,243.4c-0.1,0-0.1-0.1-0.2-0.1c-0.2-0.2-0.2-0.5,0-0.7l4.9-5.2c0.2-0.2,0.5-0.2,0.7,0
		c0.2,0.2,0.2,0.5,0,0.7l-4.9,5.2C88.7,243.5,88.5,243.5,88.3,243.4z"/>
	<path class="st0" d="M92.6,247.2c-0.1,0-0.1,0-0.2-0.1c-0.2-0.2-0.2-0.5-0.1-0.7L97,241c0.2-0.2,0.5-0.2,0.7-0.1
		c0.2,0.2,0.2,0.5,0.1,0.7l-4.6,5.5C93,247.3,92.7,247.3,92.6,247.2z"/>
	<path class="st0" d="M97,250.8c0,0-0.1,0-0.1-0.1c-0.2-0.2-0.3-0.5-0.1-0.7l4.3-5.7c0.2-0.2,0.5-0.3,0.7-0.1
		c0.2,0.2,0.3,0.5,0.1,0.7l-4.3,5.7C97.4,250.8,97.2,250.9,97,250.8z"/>
	<path class="st0" d="M101.7,254.2c0,0-0.1,0-0.1-0.1c-0.2-0.2-0.3-0.5-0.1-0.7l4-5.9c0.2-0.2,0.5-0.3,0.7-0.1
		c0.2,0.2,0.3,0.5,0.1,0.7l-4,5.9C102.1,254.2,101.9,254.2,101.7,254.2z"/>
	<path class="st0" d="M106.5,257.2C106.5,257.2,106.4,257.2,106.5,257.2c-0.3-0.2-0.4-0.5-0.3-0.7l3.7-6.1c0.1-0.2,0.4-0.3,0.7-0.2
		c0.2,0.1,0.3,0.4,0.2,0.7l-3.7,6.1C107,257.2,106.7,257.3,106.5,257.2z"/>
	<path class="st0" d="M111.5,260.1C111.4,260.1,111.4,260.1,111.5,260.1c-0.3-0.2-0.4-0.5-0.3-0.7l3.4-6.3c0.1-0.2,0.4-0.3,0.7-0.2
		c0.2,0.1,0.3,0.4,0.2,0.7l-3.4,6.3C111.9,260.1,111.7,260.2,111.5,260.1z"/>
	<path class="st0" d="M116.6,262.7C116.6,262.6,116.6,262.6,116.6,262.7c-0.3-0.1-0.4-0.4-0.3-0.7l3-6.5c0.1-0.2,0.4-0.4,0.6-0.2
		c0.2,0.1,0.3,0.4,0.2,0.6l-3,6.5C117.1,262.6,116.8,262.7,116.6,262.7z"/>
	<path class="st0" d="M121.8,264.9C121.8,264.9,121.8,264.9,121.8,264.9c-0.3-0.1-0.4-0.4-0.3-0.6l2.7-6.6c0.1-0.2,0.4-0.4,0.6-0.3
		c0.2,0.1,0.4,0.4,0.3,0.6l-2.7,6.6C122.3,264.9,122.1,265,121.8,264.9z"/>
	<path class="st0" d="M127.2,267L127.2,267c-0.3-0.1-0.4-0.4-0.3-0.6l2.4-6.8c0.1-0.3,0.4-0.4,0.6-0.3l0,0c0.3,0.1,0.4,0.4,0.3,0.6
		l-2.4,6.8C127.7,266.9,127.4,267.1,127.2,267z"/>
	<path class="st0" d="M132.6,268.7c-0.2-0.1-0.4-0.3-0.3-0.6l2-6.9c0.1-0.3,0.3-0.4,0.6-0.3c0.3,0.1,0.4,0.3,0.3,0.6l-2,6.9
		C133.2,268.6,132.9,268.8,132.6,268.7C132.7,268.7,132.6,268.7,132.6,268.7z"/>
	<path class="st0" d="M138.2,270.2c-0.2-0.1-0.4-0.3-0.3-0.6l1.6-7c0.1-0.3,0.3-0.4,0.6-0.4c0.3,0.1,0.4,0.3,0.4,0.6l-1.6,7
		C138.7,270.1,138.5,270.2,138.2,270.2C138.2,270.2,138.2,270.2,138.2,270.2z"/>
	<path class="st0" d="M143.8,271.3c-0.2-0.1-0.4-0.3-0.3-0.5l1.3-7c0-0.3,0.3-0.4,0.6-0.4c0.3,0,0.4,0.3,0.4,0.6l-1.3,7
		C144.4,271.2,144.1,271.4,143.8,271.3C143.8,271.3,143.8,271.3,143.8,271.3z"/>
	<path class="st0" d="M149.4,272.2c-0.2-0.1-0.4-0.3-0.3-0.5l0.9-7.1c0-0.3,0.3-0.5,0.5-0.4c0.3,0,0.5,0.3,0.4,0.5l-0.9,7.1
		C150,272,149.8,272.2,149.4,272.2C149.5,272.2,149.5,272.2,149.4,272.2z"/>
	<path class="st0" d="M155.1,272.7c-0.2-0.1-0.3-0.3-0.3-0.5l0.5-7.1c0-0.3,0.3-0.5,0.5-0.5c0.3,0,0.5,0.3,0.5,0.5l-0.5,7.1
		c0,0.3-0.3,0.5-0.5,0.5C155.2,272.8,155.2,272.8,155.1,272.7z"/>
	<path class="st0" d="M160.9,273c-0.2-0.1-0.3-0.3-0.3-0.5l0.1-7.2c0-0.3,0.2-0.5,0.5-0.5c0.3,0,0.5,0.2,0.5,0.5l-0.1,7.2
		c0,0.3-0.2,0.5-0.5,0.5C160.9,273,160.9,273,160.9,273z"/>
	<path class="st0" d="M166.6,273c-0.2-0.1-0.3-0.2-0.3-0.4l-0.2-7.2c0-0.3,0.2-0.5,0.5-0.5c0.3,0,0.5,0.2,0.5,0.5l0.2,7.2
		c0,0.3-0.2,0.5-0.5,0.5C166.7,273,166.6,273,166.6,273z"/>
	<path class="st0" d="M172.3,272.6c-0.2-0.1-0.3-0.2-0.3-0.4l-0.6-7.1c0-0.3,0.2-0.5,0.4-0.5c0.3,0,0.5,0.2,0.5,0.4l0.6,7.1
		c0,0.3-0.2,0.5-0.4,0.5C172.4,272.7,172.4,272.7,172.3,272.6z"/>
	<path class="st0" d="M178,272c-0.2-0.1-0.3-0.2-0.3-0.4l-1-7.1c0-0.3,0.2-0.5,0.4-0.5c0.3,0,0.5,0.1,0.5,0.4l1,7.1
		c0,0.3-0.2,0.5-0.4,0.5C178.1,272,178,272,178,272z"/>
	<path class="st0" d="M183.6,271.1c-0.2-0.1-0.3-0.2-0.3-0.4l-1.3-7c-0.1-0.3,0.1-0.5,0.4-0.6c0.3-0.1,0.5,0.1,0.6,0.4l1.3,7
		c0.1,0.3-0.1,0.5-0.4,0.6C183.8,271.1,183.7,271.1,183.6,271.1z"/>
	<path class="st0" d="M189.2,269.9c-0.2-0.1-0.3-0.2-0.3-0.3l-1.7-7c-0.1-0.3,0.1-0.5,0.4-0.6c0.3-0.1,0.5,0.1,0.6,0.4l1.7,7
		c0.1,0.3-0.1,0.5-0.4,0.6C189.4,269.9,189.3,269.9,189.2,269.9z"/>
	<path class="st0" d="M194.7,268.3c-0.1,0-0.3-0.2-0.3-0.3l-2.1-6.9c-0.1-0.3,0.1-0.5,0.3-0.6c0.3-0.1,0.5,0.1,0.6,0.3l2.1,6.9
		c0.1,0.3-0.1,0.5-0.3,0.6C194.9,268.4,194.8,268.4,194.7,268.3z"/>
	<path class="st0" d="M200.2,266.5c-0.1,0-0.2-0.2-0.3-0.3l-2.4-6.7c-0.1-0.3,0-0.5,0.3-0.6c0.3-0.1,0.5,0,0.6,0.3l2.4,6.7
		c0.1,0.3,0,0.5-0.3,0.6C200.4,266.6,200.3,266.6,200.2,266.5z"/>
	<path class="st0" d="M205.5,264.5c-0.1,0-0.2-0.1-0.3-0.3l-2.8-6.6c-0.1-0.2,0-0.5,0.3-0.6c0.2-0.1,0.5,0,0.6,0.3l2.8,6.6
		c0.1,0.2,0,0.5-0.3,0.6C205.7,264.5,205.6,264.5,205.5,264.5z"/>
	<path class="st0" d="M210.7,262.1c-0.1,0-0.2-0.1-0.3-0.2l-3.1-6.4c-0.1-0.2,0-0.5,0.2-0.7c0.2-0.1,0.5,0,0.7,0.2l3.1,6.4
		c0.1,0.2,0,0.5-0.2,0.7C211,262.1,210.8,262.1,210.7,262.1z"/>
	<path class="st0" d="M215.8,259.5c-0.1,0-0.2-0.1-0.3-0.2l-3.5-6.3c-0.1-0.2,0-0.5,0.2-0.7c0.2-0.1,0.5,0,0.7,0.2l3.5,6.3
		c0.1,0.2,0,0.5-0.2,0.7C216.1,259.5,215.9,259.5,215.8,259.5z"/>
	<path class="st0" d="M220.7,256.6c-0.1,0-0.2-0.1-0.3-0.2l-3.8-6.1c-0.1-0.2-0.1-0.5,0.2-0.7c0.2-0.1,0.5-0.1,0.7,0.2l3.8,6.1
		c0.1,0.2,0.1,0.5-0.2,0.7C221,256.6,220.9,256.6,220.7,256.6z"/>
	<path class="st0" d="M225.5,253.4c-0.1,0-0.2-0.1-0.2-0.2l-4.1-5.9c-0.2-0.2-0.1-0.5,0.1-0.7c0.2-0.2,0.5-0.1,0.7,0.1l4.1,5.9
		c0.2,0.2,0.1,0.5-0.1,0.7C225.8,253.5,225.7,253.5,225.5,253.4z"/>
	<path class="st0" d="M230.1,250c-0.1,0-0.2-0.1-0.2-0.2l-4.4-5.7c-0.2-0.2-0.1-0.5,0.1-0.7c0.2-0.2,0.5-0.1,0.7,0.1l4.4,5.7
		c0.2,0.2,0.1,0.5-0.1,0.7C230.5,250.1,230.3,250.1,230.1,250z"/>
	<path class="st0" d="M234.6,246.4c-0.1,0-0.2-0.1-0.2-0.1l-4.7-5.4c-0.2-0.2-0.2-0.5,0.1-0.7c0.2-0.2,0.5-0.2,0.7,0.1l4.7,5.4
		c0.2,0.2,0.2,0.5-0.1,0.7C234.9,246.4,234.7,246.5,234.6,246.4z"/>
	<path class="st0" d="M238.8,242.6c-0.1,0-0.1-0.1-0.2-0.1l-5-5.2c-0.2-0.2-0.2-0.5,0-0.7c0.2-0.2,0.5-0.2,0.7,0l5,5.2
		c0.2,0.2,0.2,0.5,0,0.7C239.2,242.6,239,242.6,238.8,242.6z"/>
	<path class="st0" d="M242.8,238.5c-0.1,0-0.1-0.1-0.2-0.1l-5.2-4.9c-0.2-0.2-0.2-0.5,0-0.7c0.2-0.2,0.5-0.2,0.7,0l5.2,4.9
		c0.2,0.2,0.2,0.5,0,0.7C243.2,238.5,243,238.6,242.8,238.5z"/>
	<path class="st0" d="M246.6,234.2c-0.1,0-0.1,0-0.2-0.1l-5.5-4.6c-0.2-0.2-0.2-0.5-0.1-0.7c0.2-0.2,0.5-0.2,0.7-0.1l5.5,4.6
		c0.2,0.2,0.2,0.5,0.1,0.7C247,234.2,246.8,234.3,246.6,234.2z"/>
	<path class="st0" d="M250.2,229.7c0,0-0.1,0-0.1-0.1l-5.7-4.3c-0.2-0.2-0.3-0.5-0.1-0.7c0.2-0.2,0.5-0.3,0.7-0.1l5.7,4.3
		c0.2,0.2,0.3,0.5,0.1,0.7C250.6,229.8,250.4,229.8,250.2,229.7z"/>
	<path class="st0" d="M253.5,225.1c0,0-0.1,0-0.1-0.1l-5.9-4c-0.2-0.2-0.3-0.5-0.1-0.7c0.2-0.2,0.5-0.3,0.7-0.1l5.9,4
		c0.2,0.2,0.3,0.5,0.1,0.7C254,225.1,253.7,225.2,253.5,225.1z"/>
	<path class="st0" d="M256.6,220.3C256.6,220.3,256.6,220.3,256.6,220.3l-6.2-3.8c-0.2-0.1-0.3-0.4-0.2-0.7c0.1-0.2,0.4-0.3,0.7-0.2
		l6.1,3.7c0.2,0.1,0.3,0.4,0.2,0.7C257.1,220.3,256.8,220.4,256.6,220.3z"/>
	<path class="st0" d="M259.5,215.3C259.4,215.3,259.4,215.3,259.5,215.3l-6.4-3.4c-0.2-0.1-0.3-0.4-0.2-0.7c0.1-0.2,0.4-0.3,0.7-0.2
		l6.3,3.4c0.2,0.1,0.3,0.4,0.2,0.7C259.9,215.3,259.7,215.4,259.5,215.3z"/>
	<path class="st0" d="M262,210.2C262,210.2,262,210.2,262,210.2l-6.5-3.1c-0.2-0.1-0.3-0.4-0.2-0.6c0.1-0.2,0.4-0.3,0.6-0.2l6.5,3
		c0.2,0.1,0.3,0.4,0.2,0.6C262.5,210.2,262.3,210.3,262,210.2z"/>
	<path class="st0" d="M264.3,204.9C264.3,204.9,264.3,204.9,264.3,204.9l-6.7-2.7c-0.2-0.1-0.4-0.4-0.3-0.6c0.1-0.2,0.4-0.4,0.6-0.3
		l6.6,2.7c0.2,0.1,0.4,0.4,0.3,0.6C264.8,204.9,264.6,205,264.3,204.9z"/>
	<path class="st0" d="M266.3,199.6L266.3,199.6l-6.8-2.4c-0.3-0.1-0.4-0.4-0.3-0.6c0.1-0.3,0.4-0.4,0.6-0.3l0,0l6.8,2.4
		c0.3,0.1,0.4,0.4,0.3,0.6C266.9,199.5,266.6,199.7,266.3,199.6z"/>
	<path class="st0" d="M261.2,192.1c-0.2-0.1-0.4-0.3-0.3-0.6c0.1-0.3,0.3-0.4,0.6-0.3l6.9,2c0.3,0.1,0.4,0.3,0.3,0.6
		c-0.1,0.3-0.3,0.4-0.6,0.3L261.2,192.1C261.2,192.1,261.2,192.1,261.2,192.1z"/>
	<path class="st0" d="M262.6,187c-0.2-0.1-0.4-0.3-0.3-0.6c0.1-0.3,0.3-0.4,0.6-0.4l7,1.6c0.3,0.1,0.4,0.3,0.4,0.6
		c-0.1,0.3-0.3,0.4-0.6,0.4L262.6,187C262.6,187,262.6,187,262.6,187z"/>
	<path class="st0" d="M263.6,181.7c-0.2-0.1-0.4-0.3-0.3-0.5c0-0.3,0.3-0.4,0.6-0.4l7,1.3c0.3,0.1,0.4,0.3,0.4,0.6
		c0,0.3-0.3,0.4-0.6,0.4L263.6,181.7C263.7,181.7,263.7,181.7,263.6,181.7z"/>
	<path class="st0" d="M264.4,176.4c-0.2-0.1-0.4-0.3-0.3-0.5c0-0.3,0.3-0.5,0.5-0.4l7.1,0.9c0.3,0,0.5,0.3,0.4,0.5
		c0,0.3-0.3,0.5-0.5,0.4l-7.1-0.9C264.5,176.5,264.5,176.5,264.4,176.4z"/>
	<path class="st0" d="M265,171.1c-0.2-0.1-0.3-0.3-0.3-0.5c0-0.3,0.3-0.5,0.5-0.5l7.1,0.5c0.3,0,0.5,0.3,0.5,0.5
		c0,0.3-0.3,0.5-0.5,0.5l-7.1-0.5C265.1,171.1,265,171.1,265,171.1z"/>
	<path class="st0" d="M265.2,165.8c-0.2-0.1-0.3-0.3-0.3-0.5c0-0.3,0.2-0.5,0.5-0.5l7.2,0.1c0.3,0,0.5,0.2,0.5,0.5
		c0,0.3-0.2,0.5-0.5,0.5l-7.2-0.1C265.3,165.8,265.3,165.8,265.2,165.8z"/>
	<path class="st0" d="M265.2,160.4c-0.2-0.1-0.3-0.2-0.3-0.4c0-0.3,0.2-0.5,0.5-0.5l7.2-0.2c0.3,0,0.5,0.2,0.5,0.5
		c0,0.3-0.2,0.5-0.5,0.5l-7.2,0.2C265.3,160.5,265.2,160.4,265.2,160.4z"/>
	<path class="st0" d="M264.9,155.1c-0.2-0.1-0.3-0.2-0.3-0.4c0-0.3,0.2-0.5,0.4-0.5l7.1-0.6c0.3,0,0.5,0.2,0.5,0.4
		c0,0.3-0.2,0.5-0.4,0.5l-7.1,0.6C265,155.1,264.9,155.1,264.9,155.1z"/>
	<path class="st0" d="M264.3,149.8c-0.2-0.1-0.3-0.2-0.3-0.4c0-0.3,0.2-0.5,0.4-0.6l7.1-1c0.3,0,0.5,0.2,0.6,0.4
		c0,0.3-0.2,0.5-0.4,0.6l-7.1,1C264.4,149.8,264.4,149.8,264.3,149.8z"/>
	<path class="st0" d="M263.4,144.5c-0.2-0.1-0.3-0.2-0.3-0.4c-0.1-0.3,0.1-0.5,0.4-0.6l7-1.3c0.3-0.1,0.5,0.1,0.6,0.4
		c0.1,0.3-0.1,0.5-0.4,0.6l-7,1.3C263.6,144.5,263.5,144.5,263.4,144.5z"/>
	<path class="st0" d="M262.3,139.3c-0.2-0.1-0.3-0.2-0.3-0.3c-0.1-0.3,0.1-0.5,0.4-0.6l7-1.7c0.3-0.1,0.5,0.1,0.6,0.4
		c0.1,0.3-0.1,0.5-0.4,0.6l-7,1.7C262.5,139.3,262.4,139.3,262.3,139.3z"/>
	<path class="st0" d="M260.9,134.1c-0.1,0-0.3-0.2-0.3-0.3c-0.1-0.3,0.1-0.5,0.3-0.6l6.9-2.1c0.3-0.1,0.5,0.1,0.6,0.3
		c0.1,0.3-0.1,0.5-0.3,0.6l-6.9,2.1C261.1,134.1,261,134.1,260.9,134.1z"/>
	<path class="st0" d="M259.2,129c-0.1,0-0.2-0.2-0.3-0.3c-0.1-0.3,0-0.5,0.3-0.6l6.7-2.4c0.3-0.1,0.5,0,0.6,0.3
		c0.1,0.3,0,0.5-0.3,0.6l-6.7,2.4C259.4,129.1,259.3,129.1,259.2,129z"/>
	<path class="st0" d="M257.2,124c-0.1,0-0.2-0.1-0.3-0.3c-0.1-0.2,0-0.5,0.3-0.6l6.6-2.8c0.2-0.1,0.5,0,0.6,0.3
		c0.1,0.2,0,0.5-0.3,0.6l-6.6,2.8C257.5,124.1,257.3,124.1,257.2,124z"/>
	<path class="st0" d="M255,119.2c-0.1,0-0.2-0.1-0.3-0.2c-0.1-0.2,0-0.5,0.2-0.7l6.4-3.1c0.2-0.1,0.5,0,0.7,0.2
		c0.1,0.2,0,0.5-0.2,0.7l-6.4,3.1C255.3,119.2,255.1,119.2,255,119.2z"/>
	<path class="st0" d="M252.6,114.4c-0.1,0-0.2-0.1-0.3-0.2c-0.1-0.2,0-0.5,0.2-0.7l6.3-3.5c0.2-0.1,0.5,0,0.7,0.2
		c0.1,0.2,0,0.5-0.2,0.7l-6.3,3.5C252.8,114.5,252.7,114.5,252.6,114.4z"/>
	<path class="st0" d="M249.9,109.8c-0.1,0-0.2-0.1-0.3-0.2c-0.1-0.2-0.1-0.5,0.2-0.7l6.1-3.8c0.2-0.1,0.5-0.1,0.7,0.2
		c0.1,0.2,0.1,0.5-0.2,0.7l-6.1,3.8C250.2,109.8,250,109.9,249.9,109.8z"/>
	<path class="st0" d="M246.9,105.3c-0.1,0-0.2-0.1-0.2-0.2c-0.2-0.2-0.1-0.5,0.1-0.7l5.9-4.1c0.2-0.2,0.5-0.1,0.7,0.1
		c0.2,0.2,0.1,0.5-0.1,0.7l-5.9,4.1C247.2,105.4,247.1,105.4,246.9,105.3z"/>
	<path class="st0" d="M243.8,101c-0.1,0-0.2-0.1-0.2-0.2c-0.2-0.2-0.1-0.5,0.1-0.7l5.7-4.4c0.2-0.2,0.5-0.1,0.7,0.1
		c0.2,0.2,0.1,0.5-0.1,0.7l-5.7,4.4C244.1,101.1,243.9,101.1,243.8,101z"/>
	<path class="st0" d="M240.4,96.9c-0.1,0-0.2-0.1-0.2-0.1c-0.2-0.2-0.2-0.5,0.1-0.7l5.4-4.7c0.2-0.2,0.5-0.2,0.7,0.1
		c0.2,0.2,0.2,0.5-0.1,0.7l-5.4,4.7C240.7,96.9,240.5,96.9,240.4,96.9z"/>
	<path class="st0" d="M236.8,92.9c-0.1,0-0.1-0.1-0.2-0.1c-0.2-0.2-0.2-0.5,0-0.7l5.2-5c0.2-0.2,0.5-0.2,0.7,0
		c0.2,0.2,0.2,0.5,0,0.7l-5.2,5C237.1,93,236.9,93,236.8,92.9z"/>
	<path class="st0" d="M233,89.2c-0.1,0-0.1-0.1-0.2-0.1c-0.2-0.2-0.2-0.5,0-0.7l4.9-5.2c0.2-0.2,0.5-0.2,0.7,0
		c0.2,0.2,0.2,0.5,0,0.7l-4.9,5.2C233.3,89.2,233.1,89.2,233,89.2z"/>
	<path class="st0" d="M229,85.6c-0.1,0-0.1,0-0.2-0.1c-0.2-0.2-0.2-0.5-0.1-0.7l4.6-5.5c0.2-0.2,0.5-0.2,0.7-0.1
		c0.2,0.2,0.2,0.5,0.1,0.7l-4.6,5.5C229.4,85.6,229.2,85.7,229,85.6z"/>
	<path class="st0" d="M224.8,82.3c0,0-0.1,0-0.1-0.1c-0.2-0.2-0.3-0.5-0.1-0.7l4.3-5.7c0.2-0.2,0.5-0.3,0.7-0.1
		c0.2,0.2,0.3,0.5,0.1,0.7l-4.3,5.7C225.2,82.3,225,82.3,224.8,82.3z"/>
	<path class="st0" d="M220.4,79.2c0,0-0.1,0-0.1-0.1c-0.2-0.2-0.3-0.5-0.1-0.7l4-5.9c0.2-0.2,0.5-0.3,0.7-0.1
		c0.2,0.2,0.3,0.5,0.1,0.7l-4,5.9C220.9,79.2,220.7,79.2,220.4,79.2z"/>
	<path class="st0" d="M215.9,76.3C215.9,76.3,215.9,76.2,215.9,76.3c-0.3-0.2-0.4-0.5-0.3-0.7l3.7-6.1c0.1-0.2,0.4-0.3,0.7-0.2
		c0.2,0.1,0.3,0.4,0.2,0.7l-3.7,6.1C216.4,76.3,216.2,76.3,215.9,76.3z"/>
	<path class="st0" d="M211.3,73.6C211.3,73.6,211.2,73.6,211.3,73.6c-0.3-0.2-0.4-0.5-0.3-0.7l3.4-6.3c0.1-0.2,0.4-0.3,0.7-0.2
		c0.2,0.1,0.3,0.4,0.2,0.7l-3.4,6.3C211.8,73.6,211.5,73.7,211.3,73.6z"/>
	<path class="st0" d="M206.5,71.2C206.5,71.2,206.5,71.2,206.5,71.2c-0.3-0.1-0.4-0.4-0.3-0.7l3-6.5c0.1-0.2,0.4-0.3,0.6-0.2
		c0.2,0.1,0.3,0.4,0.2,0.6l-3,6.5C207,71.2,206.7,71.3,206.5,71.2z"/>
	<path class="st0" d="M201.6,69.1C201.6,69.1,201.6,69.1,201.6,69.1c-0.3-0.1-0.4-0.4-0.3-0.6l2.7-6.6c0.1-0.3,0.4-0.4,0.6-0.3
		c0.3,0.1,0.4,0.4,0.3,0.6l-2.7,6.6C202.1,69,201.9,69.2,201.6,69.1z"/>
</g>
<g>
	<path class="st0" d="M183.7,63.6c-0.2-0.1-0.4-0.3-0.3-0.6l1.4-7c0.1-0.3,0.3-0.4,0.6-0.4c0.3,0,0.4,0.3,0.4,0.6l-1.4,7
		C184.3,63.5,184.1,63.7,183.7,63.6C183.8,63.7,183.7,63.6,183.7,63.6z"/>
	<path class="st0" d="M178.5,62.7c-0.2-0.1-0.4-0.3-0.3-0.5l1.1-7.1c0-0.3,0.3-0.4,0.6-0.4c0.3,0,0.4,0.3,0.4,0.6l-1.1,7.1
		C179.1,62.6,178.8,62.8,178.5,62.7C178.5,62.7,178.5,62.7,178.5,62.7z"/>
	<path class="st0" d="M173.2,62c-0.2-0.1-0.3-0.3-0.3-0.5l0.7-7.1c0-0.3,0.3-0.5,0.5-0.4c0.3,0,0.5,0.3,0.4,0.5l-0.7,7.1
		c0,0.3-0.3,0.5-0.5,0.4C173.2,62.1,173.2,62,173.2,62z"/>
	<path class="st0" d="M167.8,61.6c-0.2-0.1-0.3-0.3-0.3-0.5l0.3-7.2c0-0.3,0.2-0.5,0.5-0.5c0.3,0,0.5,0.2,0.5,0.5l-0.3,7.2
		c0,0.3-0.2,0.5-0.5,0.5C167.9,61.7,167.9,61.7,167.8,61.6z"/>
	<path class="st0" d="M162.5,61.5c-0.2-0.1-0.3-0.2-0.3-0.5l0-7.2c0-0.3,0.2-0.5,0.5-0.5c0.3,0,0.5,0.2,0.5,0.5l0,7.2
		c0,0.3-0.2,0.5-0.5,0.5C162.6,61.6,162.5,61.6,162.5,61.5z"/>
	<path class="st0" d="M157.1,61.7c-0.2-0.1-0.3-0.2-0.3-0.4l-0.4-7.1c0-0.3,0.2-0.5,0.5-0.5c0.3,0,0.5,0.2,0.5,0.5l0.4,7.1
		c0,0.3-0.2,0.5-0.5,0.5C157.3,61.7,157.2,61.7,157.1,61.7z"/>
	<path class="st0" d="M151.8,62.2c-0.2-0.1-0.3-0.2-0.3-0.4l-0.8-7.1c0-0.3,0.2-0.5,0.4-0.5c0.3,0,0.5,0.2,0.5,0.4l0.8,7.1
		c0,0.3-0.2,0.5-0.4,0.5C151.9,62.2,151.9,62.2,151.8,62.2z"/>
	<path class="st0" d="M146.5,62.9c-0.2-0.1-0.3-0.2-0.3-0.4l-1.2-7.1c0-0.3,0.1-0.5,0.4-0.6c0.3,0,0.5,0.1,0.6,0.4l1.2,7.1
		c0,0.3-0.1,0.5-0.4,0.6C146.7,62.9,146.6,62.9,146.5,62.9z"/>
	<path class="st0" d="M141.2,63.9c-0.2-0.1-0.3-0.2-0.3-0.4l-1.5-7c-0.1-0.3,0.1-0.5,0.4-0.6c0.3-0.1,0.5,0.1,0.6,0.4l1.5,7
		c0.1,0.3-0.1,0.5-0.4,0.6C141.4,63.9,141.3,63.9,141.2,63.9z"/>
	<path class="st0" d="M136.1,65.2c-0.1-0.1-0.3-0.2-0.3-0.3l-1.9-6.9c-0.1-0.3,0.1-0.5,0.3-0.6c0.3-0.1,0.5,0.1,0.6,0.3l1.9,6.9
		c0.1,0.3-0.1,0.5-0.3,0.6C136.2,65.2,136.1,65.2,136.1,65.2z"/>
	<path class="st0" d="M130.9,66.7c-0.1,0-0.3-0.2-0.3-0.3l-2.3-6.8c-0.1-0.3,0.1-0.5,0.3-0.6c0.3-0.1,0.5,0.1,0.6,0.3l2.3,6.8
		c0.1,0.3-0.1,0.5-0.3,0.6C131.1,66.8,131,66.8,130.9,66.7z"/>
	<path class="st0" d="M125.9,68.5c-0.1,0-0.2-0.1-0.3-0.3l-2.6-6.7c-0.1-0.3,0-0.5,0.3-0.6c0.3-0.1,0.5,0,0.6,0.3l2.6,6.7
		c0.1,0.3,0,0.5-0.3,0.6C126.1,68.6,126,68.6,125.9,68.5z"/>
	<path class="st0" d="M121,70.6c-0.1,0-0.2-0.1-0.3-0.3l-3-6.5c-0.1-0.2,0-0.5,0.2-0.6c0.2-0.1,0.5,0,0.6,0.2l3,6.5
		c0.1,0.2,0,0.5-0.2,0.6C121.2,70.6,121.1,70.6,121,70.6z"/>
	<path class="st0" d="M116.2,72.9c-0.1,0-0.2-0.1-0.3-0.2l-3.3-6.4c-0.1-0.2,0-0.5,0.2-0.7c0.2-0.1,0.5,0,0.7,0.2l3.3,6.4
		c0.1,0.2,0,0.5-0.2,0.7C116.4,73,116.3,73,116.2,72.9z"/>
	<path class="st0" d="M111.5,75.5c-0.1,0-0.2-0.1-0.3-0.2l-3.6-6.2c-0.1-0.2-0.1-0.5,0.2-0.7c0.2-0.1,0.5-0.1,0.7,0.2l3.6,6.2
		c0.1,0.2,0.1,0.5-0.2,0.7C111.8,75.6,111.6,75.6,111.5,75.5z"/>
	<path class="st0" d="M106.9,78.3c-0.1,0-0.2-0.1-0.2-0.2l-3.9-6c-0.1-0.2-0.1-0.5,0.1-0.7c0.2-0.1,0.5-0.1,0.7,0.1l3.9,6
		c0.1,0.2,0.1,0.5-0.1,0.7C107.2,78.4,107.1,78.4,106.9,78.3z"/>
	<path class="st0" d="M102.5,81.4c-0.1,0-0.2-0.1-0.2-0.2l-4.2-5.8c-0.2-0.2-0.1-0.5,0.1-0.7c0.2-0.2,0.5-0.1,0.7,0.1l4.2,5.8
		c0.2,0.2,0.1,0.5-0.1,0.7C102.9,81.4,102.7,81.4,102.5,81.4z"/>
	<path class="st0" d="M98.3,84.7c-0.1,0-0.2-0.1-0.2-0.2L93.6,79c-0.2-0.2-0.1-0.5,0.1-0.7c0.2-0.2,0.5-0.1,0.7,0.1l4.5,5.5
		c0.2,0.2,0.1,0.5-0.1,0.7C98.6,84.7,98.5,84.7,98.3,84.7z"/>
	<path class="st0" d="M94.3,88.2c-0.1,0-0.1-0.1-0.2-0.1l-4.8-5.3c-0.2-0.2-0.2-0.5,0-0.7c0.2-0.2,0.5-0.2,0.7,0l4.8,5.3
		c0.2,0.2,0.2,0.5,0,0.7C94.6,88.2,94.4,88.2,94.3,88.2z"/>
	<path class="st0" d="M90.4,91.9c-0.1,0-0.1-0.1-0.2-0.1l-5.1-5c-0.2-0.2-0.2-0.5,0-0.7c0.2-0.2,0.5-0.2,0.7,0l5.1,5
		c0.2,0.2,0.2,0.5,0,0.7C90.8,91.9,90.6,91.9,90.4,91.9z"/>
	<path class="st0" d="M86.7,95.8c-0.1,0-0.1-0.1-0.2-0.1l-5.3-4.8c-0.2-0.2-0.2-0.5,0-0.7c0.2-0.2,0.5-0.2,0.7,0l5.3,4.8
		c0.2,0.2,0.2,0.5,0,0.7C87.1,95.8,86.9,95.8,86.7,95.8z"/>
	<path class="st0" d="M83.3,99.9c-0.1,0-0.1,0-0.1-0.1l-5.6-4.5c-0.2-0.2-0.2-0.5-0.1-0.7c0.2-0.2,0.5-0.2,0.7-0.1l5.6,4.5
		c0.2,0.2,0.2,0.5,0.1,0.7C83.7,99.9,83.5,99.9,83.3,99.9z"/>
	<path class="st0" d="M80.1,104.1c0,0-0.1,0-0.1-0.1l-5.8-4.2c-0.2-0.2-0.3-0.5-0.1-0.7c0.2-0.2,0.5-0.3,0.7-0.1l5.8,4.2
		c0.2,0.2,0.3,0.5,0.1,0.7C80.5,104.1,80.3,104.2,80.1,104.1z"/>
	<path class="st0" d="M77.1,108.6c0,0-0.1,0-0.1-0.1l-6-3.9c-0.2-0.1-0.3-0.4-0.1-0.7c0.1-0.2,0.4-0.3,0.7-0.1l6,3.9
		c0.2,0.1,0.3,0.4,0.1,0.7C77.5,108.6,77.3,108.6,77.1,108.6z"/>
	<path class="st0" d="M74.3,113.1C74.3,113.1,74.2,113.1,74.3,113.1l-6.3-3.6c-0.2-0.1-0.3-0.4-0.2-0.7c0.1-0.2,0.4-0.3,0.7-0.2
		l6.2,3.5c0.2,0.1,0.3,0.4,0.2,0.7C74.8,113.1,74.5,113.2,74.3,113.1z"/>
	<path class="st0" d="M71.8,117.9C71.8,117.8,71.7,117.8,71.8,117.9l-6.5-3.2c-0.2-0.1-0.3-0.4-0.2-0.7c0.1-0.2,0.4-0.3,0.7-0.2
		l6.4,3.2c0.2,0.1,0.3,0.4,0.2,0.7C72.3,117.8,72,117.9,71.8,117.9z"/>
	<path class="st0" d="M69.5,122.7C69.5,122.7,69.5,122.7,69.5,122.7l-6.6-2.9c-0.2-0.1-0.4-0.4-0.3-0.6c0.1-0.2,0.4-0.4,0.6-0.3
		l6.6,2.9c0.2,0.1,0.4,0.4,0.3,0.6C70,122.7,69.7,122.8,69.5,122.7z"/>
	<path class="st0" d="M67.5,127.6C67.5,127.6,67.5,127.6,67.5,127.6l-6.7-2.5c-0.3-0.1-0.4-0.4-0.3-0.6c0.1-0.3,0.3-0.4,0.6-0.3
		l6.7,2.5c0.3,0.1,0.4,0.4,0.3,0.6C68,127.6,67.7,127.7,67.5,127.6z"/>
	<path class="st0" d="M58.9,130.5c-0.2-0.1-0.4-0.4-0.3-0.6c0.1-0.3,0.4-0.4,0.6-0.3l6.8,2.2c0.3,0.1,0.4,0.4,0.3,0.6
		c-0.1,0.3-0.4,0.4-0.6,0.3L58.9,130.5C58.9,130.5,58.9,130.5,58.9,130.5z"/>
	<path class="st0" d="M57.3,136c-0.2-0.1-0.4-0.3-0.3-0.6c0.1-0.3,0.3-0.4,0.6-0.3l6.9,1.8c0.3,0.1,0.4,0.3,0.3,0.6
		c-0.1,0.3-0.3,0.4-0.6,0.3L57.3,136C57.3,136,57.3,136,57.3,136z"/>
	<path class="st0" d="M56,141.6c-0.2-0.1-0.4-0.3-0.3-0.6c0.1-0.3,0.3-0.4,0.6-0.4l7,1.4c0.3,0.1,0.4,0.3,0.4,0.6
		c-0.1,0.3-0.3,0.4-0.6,0.4L56,141.6C56,141.6,56,141.6,56,141.6z"/>
	<path class="st0" d="M55,147.2c-0.2-0.1-0.4-0.3-0.3-0.5c0-0.3,0.3-0.4,0.6-0.4l7.1,1.1c0.3,0,0.4,0.3,0.4,0.6
		c0,0.3-0.3,0.4-0.6,0.4L55,147.2C55.1,147.2,55,147.2,55,147.2z"/>
	<path class="st0" d="M54.3,152.9c-0.2-0.1-0.3-0.3-0.3-0.5c0-0.3,0.3-0.5,0.5-0.4l7.1,0.7c0.3,0,0.5,0.3,0.4,0.5
		c0,0.3-0.3,0.5-0.5,0.4l-7.1-0.7C54.4,152.9,54.3,152.9,54.3,152.9z"/>
	<path class="st0" d="M53.9,158.6c-0.2-0.1-0.3-0.3-0.3-0.5c0-0.3,0.2-0.5,0.5-0.5l7.2,0.3c0.3,0,0.5,0.2,0.5,0.5
		c0,0.3-0.2,0.5-0.5,0.5l-7.2-0.3C54,158.6,53.9,158.6,53.9,158.6z"/>
	<path class="st0" d="M53.7,164.3c-0.2-0.1-0.3-0.2-0.3-0.5c0-0.3,0.2-0.5,0.5-0.5l7.2,0c0.3,0,0.5,0.2,0.5,0.5
		c0,0.3-0.2,0.5-0.5,0.5l-7.2,0C53.9,164.4,53.8,164.4,53.7,164.3z"/>
	<path class="st0" d="M53.9,170.1c-0.2-0.1-0.3-0.2-0.3-0.4c0-0.3,0.2-0.5,0.5-0.5l7.1-0.4c0.3,0,0.5,0.2,0.5,0.5
		c0,0.3-0.2,0.5-0.5,0.5l-7.1,0.4C54.1,170.1,54,170.1,53.9,170.1z"/>
	<path class="st0" d="M54.4,175.8c-0.2-0.1-0.3-0.2-0.3-0.4c0-0.3,0.2-0.5,0.4-0.5l7.1-0.8c0.3,0,0.5,0.2,0.5,0.4
		c0,0.3-0.2,0.5-0.4,0.5l-7.1,0.8C54.6,175.8,54.5,175.8,54.4,175.8z"/>
	<path class="st0" d="M55.2,181.4c-0.2-0.1-0.3-0.2-0.3-0.4c0-0.3,0.1-0.5,0.4-0.6l7.1-1.2c0.3,0,0.5,0.1,0.6,0.4
		c0,0.3-0.1,0.5-0.4,0.6l-7.1,1.2C55.3,181.5,55.3,181.5,55.2,181.4z"/>
	<path class="st0" d="M56.3,187.1c-0.2-0.1-0.3-0.2-0.3-0.4c-0.1-0.3,0.1-0.5,0.4-0.6l7-1.5c0.3-0.1,0.5,0.1,0.6,0.4
		c0.1,0.3-0.1,0.5-0.4,0.6l-7,1.5C56.4,187.1,56.4,187.1,56.3,187.1z"/>
	<path class="st0" d="M57.6,192.6c-0.1-0.1-0.3-0.2-0.3-0.3c-0.1-0.3,0.1-0.5,0.3-0.6l6.9-1.9c0.3-0.1,0.5,0.1,0.6,0.3
		c0.1,0.3-0.1,0.5-0.3,0.6l-6.9,1.9C57.8,192.6,57.7,192.6,57.6,192.6z"/>
	<path class="st0" d="M59.3,198.1c-0.1,0-0.3-0.2-0.3-0.3c-0.1-0.3,0.1-0.5,0.3-0.6l6.8-2.3c0.3-0.1,0.5,0.1,0.6,0.3
		c0.1,0.3-0.1,0.5-0.3,0.6l-6.8,2.3C59.5,198.1,59.4,198.1,59.3,198.1z"/>
	<path class="st0" d="M61.2,203.5c-0.1,0-0.2-0.1-0.3-0.3c-0.1-0.3,0-0.5,0.3-0.6l6.7-2.6c0.3-0.1,0.5,0,0.6,0.3
		c0.1,0.3,0,0.5-0.3,0.6l-6.7,2.6C61.5,203.5,61.3,203.5,61.2,203.5z"/>
	<path class="st0" d="M63.5,208.8c-0.1,0-0.2-0.1-0.3-0.3c-0.1-0.2,0-0.5,0.2-0.6l6.5-2.9c0.2-0.1,0.5,0,0.6,0.2
		c0.1,0.2,0,0.5-0.2,0.6l-6.5,2.9C63.7,208.8,63.6,208.8,63.5,208.8z"/>
	<path class="st0" d="M66,213.9c-0.1,0-0.2-0.1-0.3-0.2c-0.1-0.2,0-0.5,0.2-0.7l6.4-3.3c0.2-0.1,0.5,0,0.7,0.2
		c0.1,0.2,0,0.5-0.2,0.7l-6.4,3.3C66.2,213.9,66.1,213.9,66,213.9z"/>
	<path class="st0" d="M68.7,218.9c-0.1,0-0.2-0.1-0.3-0.2c-0.1-0.2-0.1-0.5,0.2-0.7l6.2-3.6c0.2-0.1,0.5-0.1,0.7,0.2
		c0.1,0.2,0.1,0.5-0.2,0.7l-6.2,3.6C69,219,68.8,219,68.7,218.9z"/>
	<path class="st0" d="M71.7,223.8c-0.1,0-0.2-0.1-0.2-0.2c-0.1-0.2-0.1-0.5,0.1-0.7l6-3.9c0.2-0.1,0.5-0.1,0.7,0.1
		c0.1,0.2,0.1,0.5-0.1,0.7l-6,3.9C72,223.8,71.9,223.8,71.7,223.8z"/>
	<path class="st0" d="M75,228.5c-0.1,0-0.2-0.1-0.2-0.2c-0.2-0.2-0.1-0.5,0.1-0.7l5.8-4.2c0.2-0.2,0.5-0.1,0.7,0.1
		c0.2,0.2,0.1,0.5-0.1,0.7l-5.8,4.2C75.3,228.5,75.1,228.5,75,228.5z"/>
	<path class="st0" d="M78.5,233c-0.1,0-0.2-0.1-0.2-0.2c-0.2-0.2-0.1-0.5,0.1-0.7l5.5-4.5c0.2-0.2,0.5-0.1,0.7,0.1
		c0.2,0.2,0.1,0.5-0.1,0.7l-5.5,4.5C78.8,233,78.7,233.1,78.5,233z"/>
	<path class="st0" d="M82.3,237.3c-0.1,0-0.1-0.1-0.2-0.1c-0.2-0.2-0.2-0.5,0-0.7l5.3-4.8c0.2-0.2,0.5-0.2,0.7,0
		c0.2,0.2,0.2,0.5,0,0.7l-5.3,4.8C82.6,237.4,82.4,237.4,82.3,237.3z"/>
	<path class="st0" d="M86.2,241.5c-0.1,0-0.1-0.1-0.2-0.1c-0.2-0.2-0.2-0.5,0-0.7l5-5.1c0.2-0.2,0.5-0.2,0.7,0
		c0.2,0.2,0.2,0.5,0,0.7l-5,5.1C86.6,241.5,86.4,241.5,86.2,241.5z"/>
	<path class="st0" d="M90.4,245.4c-0.1,0-0.1-0.1-0.2-0.1c-0.2-0.2-0.2-0.5,0-0.7l4.8-5.3c0.2-0.2,0.5-0.2,0.7,0
		c0.2,0.2,0.2,0.5,0,0.7l-4.8,5.3C90.8,245.4,90.6,245.4,90.4,245.4z"/>
	<path class="st0" d="M94.8,249.1c-0.1,0-0.1,0-0.1-0.1c-0.2-0.2-0.2-0.5-0.1-0.7l4.5-5.6c0.2-0.2,0.5-0.2,0.7-0.1
		c0.2,0.2,0.2,0.5,0.1,0.7l-4.5,5.6C95.2,249.1,95,249.1,94.8,249.1z"/>
	<path class="st0" d="M99.3,252.5c0,0-0.1,0-0.1-0.1c-0.2-0.2-0.3-0.5-0.1-0.7l4.2-5.8c0.2-0.2,0.5-0.3,0.7-0.1
		c0.2,0.2,0.3,0.5,0.1,0.7l-4.2,5.8C99.8,252.5,99.5,252.6,99.3,252.5z"/>
	<path class="st0" d="M104.1,255.7c0,0-0.1,0-0.1-0.1c-0.2-0.1-0.3-0.4-0.1-0.7l3.9-6c0.1-0.2,0.4-0.3,0.7-0.1
		c0.2,0.1,0.3,0.4,0.1,0.7l-3.9,6C104.5,255.7,104.3,255.8,104.1,255.7z"/>
	<path class="st0" d="M109,258.7C108.9,258.7,108.9,258.7,109,258.7c-0.3-0.2-0.4-0.5-0.3-0.7l3.5-6.2c0.1-0.2,0.4-0.3,0.7-0.2
		c0.2,0.1,0.3,0.4,0.2,0.7l-3.5,6.2C109.4,258.7,109.2,258.8,109,258.7z"/>
	<path class="st0" d="M114,261.4C114,261.4,114,261.4,114,261.4c-0.3-0.1-0.4-0.4-0.3-0.7l3.2-6.4c0.1-0.2,0.4-0.3,0.7-0.2
		c0.2,0.1,0.3,0.4,0.2,0.7l-3.2,6.4C114.5,261.4,114.2,261.5,114,261.4z"/>
	<path class="st0" d="M119.2,263.8C119.2,263.8,119.2,263.8,119.2,263.8c-0.3-0.1-0.4-0.4-0.3-0.7l2.9-6.6c0.1-0.2,0.4-0.4,0.6-0.3
		c0.2,0.1,0.4,0.4,0.3,0.6l-2.9,6.6C119.7,263.8,119.4,263.9,119.2,263.8z"/>
	<path class="st0" d="M124.5,266C124.5,266,124.5,266,124.5,266c-0.3-0.1-0.4-0.4-0.3-0.6l2.5-6.7c0.1-0.3,0.4-0.4,0.6-0.3
		c0.3,0.1,0.4,0.4,0.3,0.6l-2.5,6.7C125,266,124.7,266.1,124.5,266z"/>
	<path class="st0" d="M129.9,267.9c-0.2-0.1-0.4-0.4-0.3-0.6l2.2-6.8c0.1-0.3,0.4-0.4,0.6-0.3c0.3,0.1,0.4,0.4,0.3,0.6l-2.2,6.8
		C130.4,267.8,130.2,268,129.9,267.9C129.9,267.9,129.9,267.9,129.9,267.9z"/>
	<path class="st0" d="M135.4,269.5c-0.2-0.1-0.4-0.3-0.3-0.6l1.8-6.9c0.1-0.3,0.3-0.4,0.6-0.3c0.3,0.1,0.4,0.3,0.3,0.6l-1.8,6.9
		C136,269.4,135.7,269.5,135.4,269.5C135.4,269.5,135.4,269.5,135.4,269.5z"/>
	<path class="st0" d="M141,270.8c-0.2-0.1-0.4-0.3-0.3-0.6l1.5-7c0.1-0.3,0.3-0.4,0.6-0.4c0.3,0,0.4,0.3,0.4,0.6l-1.5,7
		C141.6,270.7,141.3,270.8,141,270.8C141,270.8,141,270.8,141,270.8z"/>
	<path class="st0" d="M146.6,271.8c-0.2-0.1-0.4-0.3-0.3-0.5l1.1-7.1c0-0.3,0.3-0.4,0.6-0.4c0.3,0,0.4,0.3,0.4,0.6l-1.1,7.1
		C147.2,271.7,147,271.8,146.6,271.8C146.7,271.8,146.6,271.8,146.6,271.8z"/>
	<path class="st0" d="M152.3,272.5c-0.2-0.1-0.3-0.3-0.3-0.5l0.7-7.1c0-0.3,0.3-0.5,0.5-0.4c0.3,0,0.5,0.3,0.4,0.5l-0.7,7.1
		c0,0.3-0.3,0.5-0.5,0.4C152.4,272.5,152.3,272.5,152.3,272.5z"/>
	<path class="st0" d="M158,272.9c-0.2-0.1-0.3-0.3-0.3-0.5l0.3-7.2c0-0.3,0.2-0.5,0.5-0.5c0.3,0,0.5,0.2,0.5,0.5l-0.3,7.2
		c0,0.3-0.2,0.5-0.5,0.5C158.1,272.9,158,272.9,158,272.9z"/>
	<path class="st0" d="M163.7,273c-0.2-0.1-0.3-0.2-0.3-0.5l0-7.2c0-0.3,0.2-0.5,0.5-0.5c0.3,0,0.5,0.2,0.5,0.5l0,7.2
		c0,0.3-0.2,0.5-0.5,0.5C163.8,273.1,163.8,273,163.7,273z"/>
	<path class="st0" d="M169.4,272.8c-0.2-0.1-0.3-0.2-0.3-0.4l-0.4-7.1c0-0.3,0.2-0.5,0.5-0.5c0.3,0,0.5,0.2,0.5,0.5l0.4,7.1
		c0,0.3-0.2,0.5-0.5,0.5C169.6,272.9,169.5,272.9,169.4,272.8z"/>
	<path class="st0" d="M175.1,272.4c-0.2-0.1-0.3-0.2-0.3-0.4l-0.8-7.1c0-0.3,0.2-0.5,0.4-0.5c0.3,0,0.5,0.2,0.5,0.4l0.8,7.1
		c0,0.3-0.2,0.5-0.4,0.5C175.3,272.4,175.2,272.4,175.1,272.4z"/>
	<path class="st0" d="M180.8,271.6c-0.2-0.1-0.3-0.2-0.3-0.4l-1.2-7.1c0-0.3,0.1-0.5,0.4-0.6c0.3,0,0.5,0.1,0.6,0.4l1.2,7.1
		c0,0.3-0.1,0.5-0.4,0.6C181,271.6,180.9,271.6,180.8,271.6z"/>
	<path class="st0" d="M186.4,270.5c-0.2-0.1-0.3-0.2-0.3-0.4l-1.5-7c-0.1-0.3,0.1-0.5,0.4-0.6c0.3-0.1,0.5,0.1,0.6,0.4l1.5,7
		c0.1,0.3-0.1,0.5-0.4,0.6C186.6,270.5,186.5,270.5,186.4,270.5z"/>
	<path class="st0" d="M192,269.1c-0.1-0.1-0.3-0.2-0.3-0.3l-1.9-6.9c-0.1-0.3,0.1-0.5,0.3-0.6c0.3-0.1,0.5,0.1,0.6,0.3l1.9,6.9
		c0.1,0.3-0.1,0.5-0.3,0.6C192.2,269.2,192.1,269.2,192,269.1z"/>
	<path class="st0" d="M197.5,267.5c-0.1,0-0.3-0.2-0.3-0.3l-2.2-6.8c-0.1-0.3,0.1-0.5,0.3-0.6c0.3-0.1,0.5,0.1,0.6,0.3l2.2,6.8
		c0.1,0.3-0.1,0.5-0.3,0.6C197.7,267.5,197.6,267.5,197.5,267.5z"/>
	<path class="st0" d="M202.8,265.5c-0.1,0-0.2-0.1-0.3-0.3l-2.6-6.7c-0.1-0.3,0-0.5,0.3-0.6c0.2-0.1,0.5,0,0.6,0.3l2.6,6.7
		c0.1,0.3,0,0.5-0.3,0.6C203.1,265.6,203,265.6,202.8,265.5z"/>
	<path class="st0" d="M208.1,263.3c-0.1,0-0.2-0.1-0.3-0.3l-2.9-6.5c-0.1-0.2,0-0.5,0.2-0.6c0.2-0.1,0.5,0,0.6,0.2l2.9,6.5
		c0.1,0.2,0,0.5-0.2,0.6C208.4,263.4,208.2,263.4,208.1,263.3z"/>
	<path class="st0" d="M213.3,260.8c-0.1,0-0.2-0.1-0.3-0.2l-3.3-6.4c-0.1-0.2,0-0.5,0.2-0.7c0.2-0.1,0.5,0,0.7,0.2l3.3,6.4
		c0.1,0.2,0,0.5-0.2,0.7C213.5,260.9,213.4,260.9,213.3,260.8z"/>
	<path class="st0" d="M218.3,258.1c-0.1,0-0.2-0.1-0.3-0.2l-3.6-6.2c-0.1-0.2-0.1-0.5,0.2-0.7c0.2-0.1,0.5-0.1,0.7,0.2l3.6,6.2
		c0.1,0.2,0.1,0.5-0.2,0.7C218.6,258.1,218.4,258.1,218.3,258.1z"/>
	<path class="st0" d="M223.2,255c-0.1,0-0.2-0.1-0.2-0.2l-3.9-6c-0.1-0.2-0.1-0.5,0.1-0.7c0.2-0.1,0.5-0.1,0.7,0.1l3.9,6
		c0.1,0.2,0.1,0.5-0.1,0.7C223.4,255.1,223.3,255.1,223.2,255z"/>
	<path class="st0" d="M227.9,251.8c-0.1,0-0.2-0.1-0.2-0.2l-4.2-5.8c-0.2-0.2-0.1-0.5,0.1-0.7c0.2-0.2,0.5-0.1,0.7,0.1l4.2,5.8
		c0.2,0.2,0.1,0.5-0.1,0.7C228.2,251.8,228,251.8,227.9,251.8z"/>
	<path class="st0" d="M232.4,248.3c-0.1,0-0.2-0.1-0.2-0.2l-4.5-5.5c-0.2-0.2-0.1-0.5,0.1-0.7c0.2-0.2,0.5-0.1,0.7,0.1l4.5,5.5
		c0.2,0.2,0.1,0.5-0.1,0.7C232.7,248.3,232.5,248.3,232.4,248.3z"/>
	<path class="st0" d="M236.7,244.5c-0.1,0-0.1-0.1-0.2-0.1l-4.8-5.3c-0.2-0.2-0.2-0.5,0-0.7c0.2-0.2,0.5-0.2,0.7,0l4.8,5.3
		c0.2,0.2,0.2,0.5,0,0.7C237.1,244.5,236.9,244.6,236.7,244.5z"/>
	<path class="st0" d="M240.8,240.6c-0.1,0-0.1-0.1-0.2-0.1l-5.1-5c-0.2-0.2-0.2-0.5,0-0.7c0.2-0.2,0.5-0.2,0.7,0l5.1,5
		c0.2,0.2,0.2,0.5,0,0.7C241.2,240.6,241,240.6,240.8,240.6z"/>
	<path class="st0" d="M244.7,236.4c-0.1,0-0.1-0.1-0.2-0.1l-5.3-4.8c-0.2-0.2-0.2-0.5,0-0.7c0.2-0.2,0.5-0.2,0.7,0l5.3,4.8
		c0.2,0.2,0.2,0.5,0,0.7C245.1,236.4,244.9,236.4,244.7,236.4z"/>
	<path class="st0" d="M248.4,232c-0.1,0-0.1,0-0.1-0.1l-5.6-4.5c-0.2-0.2-0.2-0.5-0.1-0.7c0.2-0.2,0.5-0.2,0.7-0.1l5.6,4.5
		c0.2,0.2,0.2,0.5,0.1,0.7C248.8,232,248.6,232.1,248.4,232z"/>
	<path class="st0" d="M251.9,227.4c0,0-0.1,0-0.1-0.1l-5.8-4.2c-0.2-0.2-0.3-0.5-0.1-0.7c0.2-0.2,0.5-0.3,0.7-0.1l5.8,4.2
		c0.2,0.2,0.3,0.5,0.1,0.7C252.3,227.4,252.1,227.5,251.9,227.4z"/>
	<path class="st0" d="M255.1,222.7c0,0-0.1,0-0.1-0.1l-6-3.9c-0.2-0.1-0.3-0.4-0.1-0.7c0.1-0.2,0.5-0.3,0.7-0.1l6,3.9
		c0.2,0.1,0.3,0.4,0.1,0.7C255.6,222.7,255.3,222.8,255.1,222.7z"/>
	<path class="st0" d="M258.1,217.8C258,217.8,258,217.8,258.1,217.8l-6.3-3.6c-0.2-0.1-0.3-0.4-0.2-0.7c0.1-0.2,0.4-0.3,0.7-0.2
		l6.2,3.5c0.2,0.1,0.3,0.4,0.2,0.7C258.5,217.8,258.3,217.9,258.1,217.8z"/>
	<path class="st0" d="M260.8,212.8C260.8,212.8,260.7,212.7,260.8,212.8l-6.5-3.2c-0.2-0.1-0.3-0.4-0.2-0.7c0.1-0.2,0.4-0.3,0.7-0.2
		l6.4,3.2c0.2,0.1,0.3,0.4,0.2,0.7C261.3,212.7,261,212.8,260.8,212.8z"/>
	<path class="st0" d="M263.2,207.6C263.2,207.6,263.2,207.6,263.2,207.6l-6.6-2.9c-0.2-0.1-0.4-0.4-0.3-0.6c0.1-0.2,0.4-0.4,0.6-0.3
		l6.6,2.9c0.2,0.1,0.4,0.4,0.3,0.6C263.7,207.6,263.4,207.7,263.2,207.6z"/>
	<path class="st0" d="M265.4,202.3C265.4,202.3,265.4,202.3,265.4,202.3l-6.7-2.5c-0.3-0.1-0.4-0.4-0.3-0.6c0.1-0.3,0.4-0.4,0.6-0.3
		l6.7,2.5c0.3,0.1,0.4,0.4,0.3,0.6C265.9,202.2,265.6,202.4,265.4,202.3z"/>
	<path class="st0" d="M260.4,194.7c-0.2-0.1-0.4-0.4-0.3-0.6c0.1-0.3,0.4-0.4,0.6-0.3l6.8,2.2c0.3,0.1,0.4,0.4,0.3,0.6
		c-0.1,0.3-0.4,0.4-0.6,0.3L260.4,194.7C260.4,194.7,260.4,194.7,260.4,194.7z"/>
	<path class="st0" d="M261.9,189.6c-0.2-0.1-0.4-0.3-0.3-0.6c0.1-0.3,0.3-0.4,0.6-0.3l6.9,1.8c0.3,0.1,0.4,0.3,0.3,0.6
		c-0.1,0.3-0.3,0.4-0.6,0.3L261.9,189.6C261.9,189.6,261.9,189.6,261.9,189.6z"/>
	<path class="st0" d="M263.1,184.4c-0.2-0.1-0.4-0.3-0.3-0.6c0.1-0.3,0.3-0.4,0.6-0.4l7,1.4c0.3,0,0.4,0.3,0.4,0.6
		c-0.1,0.3-0.3,0.4-0.6,0.4L263.1,184.4C263.2,184.4,263.2,184.4,263.1,184.4z"/>
	<path class="st0" d="M264.1,179.1c-0.2-0.1-0.4-0.3-0.3-0.5c0-0.3,0.3-0.4,0.6-0.4l7.1,1.1c0.3,0,0.4,0.3,0.4,0.6s-0.3,0.4-0.6,0.4
		L264.1,179.1C264.1,179.1,264.1,179.1,264.1,179.1z"/>
	<path class="st0" d="M264.7,173.8c-0.2-0.1-0.3-0.3-0.3-0.5c0-0.3,0.3-0.5,0.5-0.4l7.1,0.7c0.3,0,0.5,0.3,0.4,0.5
		c0,0.3-0.3,0.5-0.5,0.4l-7.1-0.7C264.8,173.8,264.8,173.8,264.7,173.8z"/>
	<path class="st0" d="M265.1,168.4c-0.2-0.1-0.3-0.3-0.3-0.5c0-0.3,0.2-0.5,0.5-0.5l7.2,0.3c0.3,0,0.5,0.2,0.5,0.5
		c0,0.3-0.2,0.5-0.5,0.5l-7.2-0.3C265.2,168.5,265.2,168.5,265.1,168.4z"/>
	<path class="st0" d="M265.2,163.1c-0.2-0.1-0.3-0.2-0.3-0.5c0-0.3,0.2-0.5,0.5-0.5l7.2,0c0.3,0,0.5,0.2,0.5,0.5
		c0,0.3-0.2,0.5-0.5,0.5l-7.2,0C265.3,163.1,265.3,163.1,265.2,163.1z"/>
	<path class="st0" d="M265.1,157.8c-0.2-0.1-0.3-0.2-0.3-0.4c0-0.3,0.2-0.5,0.5-0.5l7.1-0.4c0.3,0,0.5,0.2,0.5,0.5
		c0,0.3-0.2,0.5-0.5,0.5l-7.1,0.4C265.2,157.8,265.1,157.8,265.1,157.8z"/>
	<path class="st0" d="M264.6,152.4c-0.2-0.1-0.3-0.2-0.3-0.4c0-0.3,0.2-0.5,0.4-0.5l7.1-0.8c0.3,0,0.5,0.2,0.5,0.4
		c0,0.3-0.2,0.5-0.4,0.5l-7.1,0.8C264.8,152.5,264.7,152.4,264.6,152.4z"/>
	<path class="st0" d="M263.9,147.1c-0.2-0.1-0.3-0.2-0.3-0.4c0-0.3,0.1-0.5,0.4-0.6l7.1-1.2c0.3,0,0.5,0.1,0.6,0.4
		c0,0.3-0.1,0.5-0.4,0.6l-7.1,1.2C264,147.2,264,147.2,263.9,147.1z"/>
	<path class="st0" d="M262.9,141.9c-0.2-0.1-0.3-0.2-0.3-0.4c-0.1-0.3,0.1-0.5,0.4-0.6l7-1.5c0.3-0.1,0.5,0.1,0.6,0.4
		c0.1,0.3-0.1,0.5-0.4,0.6l-7,1.5C263.1,141.9,263,141.9,262.9,141.9z"/>
	<path class="st0" d="M261.6,136.7c-0.1-0.1-0.3-0.2-0.3-0.3c-0.1-0.3,0.1-0.5,0.3-0.6l6.9-1.9c0.3-0.1,0.5,0.1,0.6,0.3
		c0.1,0.3-0.1,0.5-0.3,0.6l-6.9,1.9C261.8,136.7,261.7,136.7,261.6,136.7z"/>
	<path class="st0" d="M260.1,131.6c-0.1,0-0.3-0.2-0.3-0.3c-0.1-0.3,0.1-0.5,0.3-0.6l6.8-2.3c0.3-0.1,0.5,0.1,0.6,0.3
		c0.1,0.3-0.1,0.5-0.3,0.6l-6.8,2.3C260.3,131.6,260.2,131.6,260.1,131.6z"/>
	<path class="st0" d="M258.2,126.5c-0.1,0-0.2-0.1-0.3-0.3c-0.1-0.3,0-0.5,0.3-0.6l6.7-2.6c0.3-0.1,0.5,0,0.6,0.3
		c0.1,0.3,0,0.5-0.3,0.6l-6.7,2.6C258.5,126.6,258.3,126.6,258.2,126.5z"/>
	<path class="st0" d="M256.2,121.6c-0.1,0-0.2-0.1-0.3-0.3c-0.1-0.2,0-0.5,0.2-0.6l6.5-2.9c0.2-0.1,0.5,0,0.6,0.2
		c0.1,0.2,0,0.5-0.2,0.6l-6.5,2.9C256.4,121.6,256.3,121.6,256.2,121.6z"/>
	<path class="st0" d="M253.8,116.8c-0.1,0-0.2-0.1-0.3-0.2c-0.1-0.2,0-0.5,0.2-0.7l6.4-3.3c0.2-0.1,0.5,0,0.7,0.2
		c0.1,0.2,0,0.5-0.2,0.7l-6.4,3.3C254.1,116.8,254,116.8,253.8,116.8z"/>
	<path class="st0" d="M251.3,112.1c-0.1,0-0.2-0.1-0.3-0.2c-0.1-0.2-0.1-0.5,0.2-0.7l6.2-3.6c0.2-0.1,0.5-0.1,0.7,0.2
		c0.1,0.2,0.1,0.5-0.2,0.7l-6.2,3.6C251.5,112.1,251.4,112.1,251.3,112.1z"/>
	<path class="st0" d="M248.4,107.6c-0.1,0-0.2-0.1-0.2-0.2c-0.1-0.2-0.1-0.5,0.1-0.7l6-3.9c0.2-0.1,0.5-0.1,0.7,0.1
		c0.1,0.2,0.1,0.5-0.1,0.7l-6,3.9C248.7,107.6,248.6,107.6,248.4,107.6z"/>
	<path class="st0" d="M245.4,103.2c-0.1,0-0.2-0.1-0.2-0.2c-0.2-0.2-0.1-0.5,0.1-0.7l5.8-4.2c0.2-0.2,0.5-0.1,0.7,0.1
		c0.2,0.2,0.1,0.5-0.1,0.7l-5.8,4.2C245.7,103.2,245.5,103.2,245.4,103.2z"/>
	<path class="st0" d="M242.1,98.9c-0.1,0-0.2-0.1-0.2-0.2c-0.2-0.2-0.1-0.5,0.1-0.7l5.5-4.5c0.2-0.2,0.5-0.1,0.7,0.1
		c0.2,0.2,0.1,0.5-0.1,0.7l-5.5,4.5C242.4,99,242.2,99,242.1,98.9z"/>
	<path class="st0" d="M238.6,94.9c-0.1,0-0.1-0.1-0.2-0.1c-0.2-0.2-0.2-0.5,0-0.7l5.3-4.8c0.2-0.2,0.5-0.2,0.7,0
		c0.2,0.2,0.2,0.5,0,0.7l-5.3,4.8C238.9,94.9,238.8,94.9,238.6,94.9z"/>
	<path class="st0" d="M234.9,91c-0.1,0-0.1-0.1-0.2-0.1c-0.2-0.2-0.2-0.5,0-0.7l5-5.1c0.2-0.2,0.5-0.2,0.7,0c0.2,0.2,0.2,0.5,0,0.7
		l-5,5.1C235.3,91.1,235.1,91.1,234.9,91z"/>
	<path class="st0" d="M231,87.4c-0.1,0-0.1-0.1-0.2-0.1c-0.2-0.2-0.2-0.5,0-0.7l4.8-5.3c0.2-0.2,0.5-0.2,0.7,0
		c0.2,0.2,0.2,0.5,0,0.7l-4.8,5.3C231.4,87.4,231.2,87.4,231,87.4z"/>
	<path class="st0" d="M226.9,83.9c-0.1,0-0.1,0-0.1-0.1c-0.2-0.2-0.2-0.5-0.1-0.7l4.5-5.6c0.2-0.2,0.5-0.2,0.7-0.1
		c0.2,0.2,0.2,0.5,0.1,0.7l-4.5,5.6C227.3,83.9,227.1,84,226.9,83.9z"/>
	<path class="st0" d="M222.6,80.7c0,0-0.1,0-0.1-0.1c-0.2-0.2-0.3-0.5-0.1-0.7l4.2-5.8c0.2-0.2,0.5-0.3,0.7-0.1
		c0.2,0.2,0.3,0.5,0.1,0.7l-4.2,5.8C223.1,80.7,222.8,80.8,222.6,80.7z"/>
	<path class="st0" d="M218.2,77.7c0,0-0.1,0-0.1-0.1c-0.2-0.1-0.3-0.4-0.1-0.7l3.9-6c0.1-0.2,0.5-0.3,0.7-0.1
		c0.2,0.1,0.3,0.4,0.1,0.7l-3.9,6C218.7,77.7,218.4,77.8,218.2,77.7z"/>
	<path class="st0" d="M213.6,74.9C213.6,74.9,213.6,74.9,213.6,74.9c-0.3-0.2-0.4-0.5-0.3-0.7l3.5-6.2c0.1-0.2,0.4-0.3,0.7-0.2
		c0.2,0.1,0.3,0.4,0.2,0.7l-3.5,6.2C214.1,74.9,213.9,75,213.6,74.9z"/>
	<path class="st0" d="M208.9,72.4C208.9,72.4,208.9,72.4,208.9,72.4c-0.3-0.1-0.4-0.4-0.3-0.7l3.2-6.4c0.1-0.2,0.4-0.3,0.7-0.2
		c0.2,0.1,0.3,0.4,0.2,0.7l-3.2,6.4C209.4,72.4,209.1,72.5,208.9,72.4z"/>
	<path class="st0" d="M204.1,70.1C204.1,70.1,204.1,70.1,204.1,70.1c-0.3-0.1-0.4-0.4-0.3-0.7l2.9-6.6c0.1-0.2,0.4-0.4,0.6-0.3
		c0.2,0.1,0.4,0.4,0.3,0.6l-2.9,6.6C204.6,70.1,204.3,70.2,204.1,70.1z"/>
	<path class="st0" d="M199.1,68.1C199.1,68.1,199.1,68.1,199.1,68.1c-0.3-0.1-0.4-0.4-0.3-0.6l2.5-6.7c0.1-0.2,0.4-0.4,0.6-0.3
		c0,0,0,0,0,0c0.3,0.1,0.4,0.4,0.3,0.6l-2.5,6.7C199.6,68.1,199.4,68.2,199.1,68.1z"/>
	<path class="st0" d="M194.1,66.3c-0.2-0.1-0.4-0.4-0.3-0.6l2.2-6.8c0.1-0.3,0.4-0.4,0.6-0.3c0.3,0.1,0.4,0.4,0.3,0.6l-2.2,6.8
		C194.6,66.3,194.3,66.4,194.1,66.3C194.1,66.4,194.1,66.3,194.1,66.3z"/>
	<path class="st0" d="M188.9,64.9c-0.2-0.1-0.4-0.3-0.3-0.6l1.8-6.9c0.1-0.3,0.3-0.4,0.6-0.3c0.3,0.1,0.4,0.3,0.3,0.6l-1.8,6.9
		C189.5,64.8,189.2,64.9,188.9,64.9C189,64.9,188.9,64.9,188.9,64.9z"/>
</g>
<path class="st0" d="M125.7,271.2c-59.5-20.7-91.1-85.9-70.4-145.4C76,66.2,141.2,34.6,200.7,55.3s91.1,85.9,70.4,145.4
	C250.5,260.2,185.2,291.8,125.7,271.2z M199.9,57.8C141.7,37.6,78,68.4,57.8,126.6c-20.2,58.1,10.7,121.9,68.8,142.1
	c58.1,20.2,121.9-10.7,142.1-68.8C288.9,141.7,258,78,199.9,57.8z"/>
<g>
	<rect x="198.8" y="50.9" transform="matrix(0.3283 -0.9446 0.9446 0.3283 84.8584 226.1157)" class="st0" width="5.3" height="5"/>
	<rect x="189.1" y="48" transform="matrix(0.2446 -0.9696 0.9696 0.2446 95.8444 224.0005)" class="st0" width="5.3" height="5"/>
	
		<rect x="179.1" y="45.9" transform="matrix(0.1593 -0.9872 0.9872 0.1593 104.9937 220.1561)" class="st0" width="5.3" height="5"/>
	
		<rect x="169" y="44.8" transform="matrix(7.257014e-02 -0.9974 0.9974 7.257014e-02 112.0886 215.0533)" class="st0" width="5.3" height="5"/>
	
		<rect x="159" y="44.3" transform="matrix(0.9999 -1.456461e-02 1.456461e-02 0.9999 -0.6668 2.3577)" class="st0" width="5" height="5.3"/>
	<rect x="148.9" y="44.9" transform="matrix(0.9948 -0.1017 0.1017 0.9948 -4.0497 15.6386)" class="st0" width="5" height="5.3"/>
	<rect x="138.9" y="46.4" transform="matrix(0.9821 -0.1882 0.1882 0.9821 -6.6989 27.4752)" class="st0" width="5" height="5.3"/>
	<rect x="129" y="48.7" transform="matrix(0.9621 -0.2729 0.2729 0.9621 -9.025 37.8316)" class="st0" width="5" height="5.3"/>
	<rect x="119.4" y="51.9" transform="matrix(0.9346 -0.3556 0.3556 0.9346 -11.4336 46.9019)" class="st0" width="5" height="5.3"/>
	<rect x="110.1" y="55.9" transform="matrix(0.9001 -0.4356 0.4356 0.9001 -14.2744 54.8834)" class="st0" width="5" height="5.3"/>
	<rect x="101.1" y="60.8" transform="matrix(0.8587 -0.5125 0.5125 0.8587 -17.8424 62.0703)" class="st0" width="5" height="5.3"/>
	<rect x="92.7" y="66.3" transform="matrix(0.8107 -0.5855 0.5855 0.8107 -22.363 68.7636)" class="st0" width="5" height="5.3"/>
	<rect x="84.7" y="72.6" transform="matrix(0.7565 -0.654 0.654 0.7565 -27.985 75.3546)" class="st0" width="5" height="5.3"/>
	<rect x="77.3" y="79.6" transform="matrix(0.6966 -0.7175 0.7175 0.6966 -34.7724 82.2085)" class="st0" width="5" height="5.3"/>
	<rect x="70.6" y="87.2" transform="matrix(0.6313 -0.7755 0.7755 0.6313 -42.7006 89.7702)" class="st0" width="5" height="5.3"/>
	<rect x="64.5" y="95.3" transform="matrix(0.5613 -0.8276 0.8276 0.5613 -51.6542 98.4158)" class="st0" width="5" height="5.3"/>
	<rect x="59.2" y="103.9" transform="matrix(0.487 -0.8734 0.8734 0.487 -61.4331 108.5529)" class="st0" width="5" height="5.3"/>
	<rect x="54.6" y="113" transform="matrix(0.4088 -0.9126 0.9126 0.4088 -71.7551 120.5045)" class="st0" width="5" height="5.3"/>
	
		<rect x="50.9" y="122.4" transform="matrix(0.3276 -0.9448 0.9448 0.3276 -82.2653 134.5266)" class="st0" width="5" height="5.3"/>
	<rect x="48" y="132.2" transform="matrix(0.244 -0.9698 0.9698 0.244 -92.5483 150.8416)" class="st0" width="5" height="5.3"/>
	<rect x="45.9" y="142.1" transform="matrix(0.1586 -0.9873 0.9873 0.1586 -102.14 169.5826)" class="st0" width="5" height="5.3"/>
	
		<rect x="44.8" y="152.2" transform="matrix(7.203919e-02 -0.9974 0.9974 7.203919e-02 -110.548 190.7696)" class="st0" width="5" height="5.3"/>
	
		<rect x="44.3" y="162.4" transform="matrix(0.9999 -1.509999e-02 1.509999e-02 0.9999 -2.4852 0.7278)" class="st0" width="5.3" height="5"/>
	<rect x="44.9" y="172.6" transform="matrix(0.9948 -0.1023 0.1023 0.9948 -17.6597 5.7822)" class="st0" width="5.3" height="5"/>
	<rect x="46.4" y="182.6" transform="matrix(0.982 -0.1886 0.1886 0.982 -34.0377 12.5694)" class="st0" width="5.3" height="5"/>
	<rect x="48.7" y="192.5" transform="matrix(0.9618 -0.2737 0.2737 0.9618 -51.395 21.496)" class="st0" width="5.3" height="5"/>
	<rect x="51.9" y="202.1" transform="matrix(0.9344 -0.3563 0.3563 0.9344 -69.3161 32.8595)" class="st0" width="5.3" height="5"/>
	<rect x="55.9" y="211.4" transform="matrix(0.8997 -0.4364 0.4364 0.8997 -87.4897 47.0084)" class="st0" width="5.3" height="5"/>
	
		<rect x="60.8" y="220.4" transform="matrix(0.8584 -0.5131 0.5131 0.8584 -105.3576 64.0844)" class="st0" width="5.3" height="5"/>
	
		<rect x="66.3" y="228.8" transform="matrix(0.8104 -0.5858 0.5858 0.8104 -122.4465 84.2493)" class="st0" width="5.3" height="5"/>
	
		<rect x="72.6" y="236.8" transform="matrix(0.7563 -0.6543 0.6543 0.7563 -138.2163 107.5576)" class="st0" width="5.3" height="5"/>
	
		<rect x="79.6" y="244.2" transform="matrix(0.6964 -0.7176 0.7176 0.6964 -152.055 133.8775)" class="st0" width="5.3" height="5"/>
	
		<rect x="87.2" y="250.9" transform="matrix(0.6311 -0.7757 0.7757 0.6311 -163.4465 163.138)" class="st0" width="5.3" height="5"/>
	<rect x="95.3" y="257" transform="matrix(0.561 -0.8278 0.8278 0.561 -171.8022 194.9857)" class="st0" width="5.3" height="5"/>
	
		<rect x="103.9" y="262.3" transform="matrix(0.4866 -0.8736 0.8736 0.4866 -176.6162 229.0221)" class="st0" width="5.3" height="5"/>
	<rect x="113" y="266.8" transform="matrix(0.4087 -0.9127 0.9127 0.4087 -177.45 264.7862)" class="st0" width="5.3" height="5"/>
	
		<rect x="122.4" y="270.6" transform="matrix(0.3275 -0.9448 0.9448 0.3275 -173.9276 301.8033)" class="st0" width="5.3" height="5"/>
	
		<rect x="132.1" y="273.5" transform="matrix(0.2439 -0.9698 0.9698 0.2439 -165.7567 339.3944)" class="st0" width="5.3" height="5"/>
	
		<rect x="142.1" y="275.6" transform="matrix(0.1584 -0.9874 0.9874 0.1584 -152.752 376.8819)" class="st0" width="5.3" height="5"/>
	
		<rect x="152.2" y="276.7" transform="matrix(7.174707e-02 -0.9974 0.9974 7.174707e-02 -134.824 413.582)" class="st0" width="5.3" height="5"/>
	
		<rect x="162.4" y="276.9" transform="matrix(0.9999 -1.544376e-02 1.544376e-02 0.9999 -4.2972 2.5805)" class="st0" width="5" height="5.3"/>
	
		<rect x="172.6" y="276.3" transform="matrix(0.9947 -0.1025 0.1025 0.9947 -27.6788 19.4206)" class="st0" width="5" height="5.3"/>
	<rect x="182.6" y="274.8" transform="matrix(0.982 -0.1888 0.1888 0.982 -49.0449 39.9254)" class="st0" width="5" height="5.3"/>
	
		<rect x="192.5" y="272.5" transform="matrix(0.9618 -0.2736 0.2736 0.9618 -67.8413 63.8503)" class="st0" width="5" height="5.3"/>
	
		<rect x="202.1" y="269.3" transform="matrix(0.9344 -0.3562 0.3562 0.9344 -83.4445 90.7184)" class="st0" width="5" height="5.3"/>
	
		<rect x="211.4" y="265.3" transform="matrix(0.8997 -0.4365 0.4365 0.8997 -95.4913 120.2496)" class="st0" width="5" height="5.3"/>
	
		<rect x="220.4" y="260.5" transform="matrix(0.8583 -0.5131 0.5131 0.8583 -103.4261 151.6208)" class="st0" width="5" height="5.3"/>
	
		<rect x="228.8" y="254.9" transform="matrix(0.8104 -0.5859 0.5859 0.8104 -107.0186 184.3584)" class="st0" width="5" height="5.3"/>
	
		<rect x="236.8" y="248.6" transform="matrix(0.7562 -0.6544 0.6544 0.7562 -106.0528 217.8225)" class="st0" width="5" height="5.3"/>
	
		<rect x="244.2" y="241.6" transform="matrix(0.6962 -0.7178 0.7178 0.6962 -100.4113 251.246)" class="st0" width="5" height="5.3"/>
	
		<rect x="250.9" y="234.1" transform="matrix(0.6311 -0.7757 0.7757 0.6311 -90.119 283.8673)" class="st0" width="5" height="5.3"/>
	<rect x="257" y="225.9" transform="matrix(0.5612 -0.8277 0.8277 0.5612 -75.3103 315.0498)" class="st0" width="5" height="5.3"/>
	
		<rect x="262.3" y="217.3" transform="matrix(0.4869 -0.8735 0.8735 0.4869 -56.2256 344.1099)" class="st0" width="5" height="5.3"/>
	
		<rect x="266.8" y="208.2" transform="matrix(0.4089 -0.9126 0.9126 0.4089 -33.2111 370.4184)" class="st0" width="5" height="5.3"/>
	
		<rect x="270.6" y="198.8" transform="matrix(0.3278 -0.9448 0.9448 0.3278 -6.7172 393.3948)" class="st0" width="5" height="5.3"/>
	<rect x="273.5" y="189.1" transform="matrix(0.2443 -0.9697 0.9697 0.2443 22.686 412.5052)" class="st0" width="5" height="5.3"/>
	<rect x="275.5" y="179.1" transform="matrix(0.1589 -0.9873 0.9873 0.1589 54.4155 427.397)" class="st0" width="5" height="5.3"/>
	
		<rect x="276.7" y="169.1" transform="matrix(7.222573e-02 -0.9974 0.9974 7.222573e-02 87.8157 437.7766)" class="st0" width="5" height="5.3"/>
	
		<rect x="276.9" y="159.1" transform="matrix(0.9999 -1.488794e-02 1.488794e-02 0.9999 -2.3741 4.1793)" class="st0" width="5.3" height="5"/>
	<rect x="276.3" y="148.9" transform="matrix(0.9948 -0.102 0.102 0.9948 -13.9887 29.2377)" class="st0" width="5.3" height="5"/>
	
		<rect x="274.8" y="138.9" transform="matrix(0.9821 -0.1883 0.1883 0.9821 -21.6575 54.7704)" class="st0" width="5.3" height="5"/>
	<rect x="272.5" y="129" transform="matrix(0.962 -0.2732 0.2732 0.962 -25.4611 80.1616)" class="st0" width="5.3" height="5"/>
	<rect x="269.3" y="119.4" transform="matrix(0.9345 -0.356 0.356 0.9345 -25.5726 104.7773)" class="st0" width="5.3" height="5"/>
	<rect x="265.3" y="110.1" transform="matrix(0.9 -0.4358 0.4358 0.9 -22.2753 128.0049)" class="st0" width="5.3" height="5"/>
	
		<rect x="260.5" y="101.1" transform="matrix(0.8587 -0.5125 0.5125 0.8587 -15.932 149.4852)" class="st0" width="5.3" height="5"/>
	<rect x="254.9" y="92.7" transform="matrix(0.8107 -0.5855 0.5855 0.8107 -6.9596 168.786)" class="st0" width="5.3" height="5"/>
	<polygon class="st0" points="250.9,90.8 247.6,87 251.6,83.6 254.8,87.4 	"/>
	<polygon class="st0" points="244.2,83.4 240.6,80 244.3,76.2 247.9,79.7 	"/>
	<polygon class="st0" points="237,76.7 233.1,73.5 236.4,69.5 240.3,72.6 	"/>
	<rect x="225.9" y="64.5" transform="matrix(0.5615 -0.8275 0.8275 0.5615 44.7611 218.4986)" class="st0" width="5.3" height="5"/>
	<polygon class="st0" points="220.8,65.2 216.4,62.8 219,58.2 223.4,60.6 	"/>
	<rect x="208.2" y="54.6" transform="matrix(0.4089 -0.9126 0.9126 0.4089 72.4823 226.1786)" class="st0" width="5.3" height="5"/>
</g>
<path class="st0" d="M122.2,281.4C57,258.7,22.5,187.3,45.1,122.2C67.7,57,139.2,22.5,204.3,45.1s99.7,94.1,77.1,159.2
	C258.7,269.4,187.3,304,122.2,281.4z M203.4,47.6C139.7,25.4,69.7,59.2,47.6,123C25.4,186.8,59.2,256.8,123,278.9
	c63.8,22.2,133.7-11.7,155.9-75.5C301.1,139.7,267.2,69.7,203.4,47.6z"/>
<path class="st0" d="M109.7,317.4C24.6,287.9-20.5,194.7,9.1,109.7S131.8-20.5,216.8,9.1S347,131.8,317.4,216.8
	C287.9,301.8,194.7,347,109.7,317.4z M216,11.5c-83.7-29.1-175.4,15.3-204.4,99c-29.1,83.7,15.3,175.4,99,204.4s175.4-15.3,204.4-99
	C344,132.3,299.6,40.6,216,11.5z"/>
<g>
	<ellipse transform="matrix(0.3283 -0.9446 0.9446 0.3283 60.6035 233.1875)" class="st1" cx="194.3" cy="74" rx="17.5" ry="17.5"/>
	<path class="st0" d="M188.1,91.7c-9.8-3.4-15-14.1-11.6-23.9c3.4-9.8,14.1-15,23.9-11.6c9.8,3.4,15,14.1,11.6,23.9
		C208.6,89.9,197.9,95.1,188.1,91.7z M199.6,58.7c-8.4-2.9-17.6,1.5-20.6,10c-2.9,8.4,1.5,17.6,10,20.6c8.4,2.9,17.6-1.5,20.6-10
		S208,61.6,199.6,58.7z"/>
</g>
<ellipse transform="matrix(0.3283 -0.9446 0.9446 0.3283 -152.5223 295.3269)" class="st1" cx="131.4" cy="254.9" rx="17.5" ry="17.5"/>
<path class="st0" d="M125.2,272.6c-9.8-3.4-15-14.1-11.6-23.9c3.4-9.8,14.1-15,23.9-11.6s15,14.1,11.6,23.9
	C145.7,270.8,135,276,125.2,272.6z M136.7,239.6c-8.4-2.9-17.6,1.5-20.6,10c-2.9,8.4,1.5,17.6,10,20.6c8.4,2.9,17.6-1.5,20.6-10
	C149.6,251.8,145.1,242.6,136.7,239.6z"/>
<path class="st0" d="M197.5,85.5l-4.8-7l-8.1,2.6l5.2-6.7l-5-6.9l8,2.9l5.1-6.8l-0.3,8.5l8.1,2.7l-8.2,2.4L197.5,85.5z M193.2,76.9
	l3,4.4l0-5.3l5.1-1.5l-5-1.7l0.2-5.3l-3.2,4.3l-5-1.8l3.1,4.3l-3.3,4.2L193.2,76.9z"/>
<g>
	<path class="st0" d="M59.7,248.1c1,1.2,1.4,2.4,1.2,3.5c-0.2,1.1-0.9,2.2-2.1,3.1l-1.9,1.5c-1.3,1-2.4,1.5-3.6,1.4
		c-1.1-0.1-2.2-0.7-3.2-2l-1.3-1.5l-6.2,5l-1.4-1.7l15.7-12.8L59.7,248.1z M51.6,254.4c0.5,0.7,1.1,1,1.7,1.1c0.6,0.1,1.2-0.2,2-0.9
		l2.1-1.7c0.7-0.6,1.1-1.2,1.3-1.7c0.1-0.6-0.1-1.2-0.6-1.8l-1.4-1.7l-6.3,5.2L51.6,254.4z"/>
	<path class="st0" d="M67,256.4c1.1,1.2,1.6,2.3,1.6,3.3c-0.1,1.1-0.7,2.1-1.7,3.2l-1.2,1.1c-0.8,0.8-1.6,1.3-2.4,1.5
		c-0.8,0.2-1.6,0.1-2.4-0.4c0.4,0.9,0.5,1.7,0.3,2.5c-0.3,0.8-0.8,1.6-1.6,2.3l-2.3,2.2c-0.3,0.3-0.6,0.6-0.9,0.9
		c-0.3,0.3-0.5,0.7-0.6,1l-1.6-1.6c0.1-0.3,0.3-0.6,0.5-0.9c0.2-0.3,0.5-0.6,1-1.1l2.3-2.2c0.8-0.8,1.2-1.5,1.2-2.2
		c0-0.7-0.4-1.3-1.1-2l-1.1-1.1l-6.2,6l-1.6-1.6l14.6-14.1L67,256.4z M59.8,262.6c0.6,0.7,1.3,1,1.9,1.1c0.6,0.1,1.3-0.2,2.1-1
		l1.4-1.3c0.7-0.6,1-1.3,1.1-1.8c0.1-0.6-0.2-1.2-0.8-1.8l-1.5-1.6l-5.4,5.2L59.8,262.6z"/>
	<path class="st0" d="M71.6,272.9l-1.3,1.5l-3.7-3.3l-4.7,5.4l4.6,4l-1.4,1.5l-6.3-5.5l13.3-15.3l6.3,5.5l-1.4,1.5l-4.6-4l-4.6,5.2
		L71.6,272.9z"/>
	<path class="st0" d="M74.3,289.1l-1.8-1.3l6.7-15.1l-9.4,13.1l-1.6-1.1L80,268.3l2.6,1.8l-6.7,15.1l12-11.3l2.6,1.8l-11.8,16.5
		l-1.7-1.2l9.5-13.2L74.3,289.1z"/>
	<path class="st0" d="M94.6,278.2l-10.5,17.3l-1.9-1.2L92.7,277L94.6,278.2z"/>
	<path class="st0" d="M91.7,294.4c-0.4,0.8-0.6,1.5-0.5,2.2c0.1,0.6,0.5,1.1,1.2,1.5c0.7,0.4,1.4,0.4,1.9,0.1
		c0.6-0.3,1.1-0.8,1.5-1.6l7.2-13.7l1.9,1l-7.1,13.6c-0.7,1.4-1.6,2.3-2.7,2.8c-1.1,0.5-2.3,0.4-3.7-0.4c-1.4-0.7-2.2-1.7-2.4-2.8
		c-0.2-1.2,0-2.4,0.8-3.8l7.1-13.6l2,1L91.7,294.4z"/>
	<path class="st0" d="M106.3,306.4l-2-0.8l2.9-16.2l-6.1,15l-1.8-0.7l7.6-18.8l2.9,1.2l-3,16.2l9-13.8l2.9,1.2l-7.6,18.8l-2-0.8
		l6.1-15.1L106.3,306.4z"/>
	<path class="st0" d="M130.4,292.8c1.5,0.4,2.5,1.1,3.1,2.2c0.5,1.1,0.6,2.4,0.2,3.9l-2.6,10.2c-0.3,1.3-0.8,2.2-1.5,2.9
		c0.1,0.3,0.2,0.5,0.3,0.6c0.2,0.1,0.4,0.2,0.7,0.3l0.3,0.1l-0.5,1.9l-0.4-0.1c-1.2-0.3-1.9-0.9-2.2-1.9c-0.4,0.1-0.8,0.2-1.2,0.2
		c-0.4,0-0.9-0.1-1.4-0.2c-1.5-0.4-2.5-1.1-3-2.2c-0.5-1.1-0.6-2.4-0.2-3.9l2.6-10.2c0.4-1.5,1.1-2.6,2-3.3
		C127.7,292.6,128.9,292.4,130.4,292.8z M129.9,294.8c-0.8-0.2-1.4-0.1-1.9,0.3c-0.5,0.4-0.9,1-1.1,1.9l-2.6,10.4
		c-0.2,0.9-0.2,1.6,0,2.2c0.3,0.6,0.8,1,1.6,1.2c0.8,0.2,1.5,0.1,2-0.3c0.5-0.4,0.9-1,1.1-1.9l2.6-10.4c0.2-0.9,0.2-1.6,0-2.2
		C131.2,295.4,130.7,295,129.9,294.8z"/>
	<path class="st0" d="M136.9,310.3c-0.2,0.9-0.1,1.7,0.2,2.2c0.3,0.6,0.8,0.9,1.7,1.1c0.8,0.1,1.4,0,1.9-0.5c0.5-0.4,0.8-1.1,0.9-2
		l2.5-15.3l2.1,0.3l-2.5,15.2c-0.3,1.5-0.8,2.7-1.7,3.5c-0.9,0.8-2.1,1.1-3.6,0.8c-1.5-0.3-2.6-0.9-3.1-1.9c-0.6-1-0.7-2.3-0.5-3.8
		l2.5-15.2l2.2,0.4L136.9,310.3z"/>
	<path class="st0" d="M149.6,312.7l-1.1,4l-2.1-0.2l5.4-19.9l3.3,0.2l2.4,20.5l-2.3-0.2l-0.5-4.1L149.6,312.7z M150,310.8l4.5,0.3
		l-1.4-11.8L150,310.8z"/>
	<path class="st0" d="M161.2,317.4l-0.2-20.3l2.3,0l0.2,18.2l5.8-0.1l0,2.1L161.2,317.4z"/>
	<path class="st0" d="M173.4,296.8l1.4,20.2l-2.3,0.2l-1.4-20.2L173.4,296.8z"/>
	<path class="st0" d="M181.6,316.3l-2.3-18.1l-3.7,0.5l-0.3-2l9.6-1.2l0.3,2l-3.7,0.5l2.3,18.1L181.6,316.3z"/>
	<path class="st0" d="M192.9,307.1l-6.9-11.8l2.3-0.5l5.2,9.1l1-10.4l2.1-0.5l-1.5,13.6l1.5,7.1l-2.2,0.5L192.9,307.1z"/>
</g>
<g>
	<path class="st0" d="M132.5,36l-4.3-19.8l2.2-0.5l3.9,17.8l5.7-1.2l0.4,2L132.5,36z"/>
	<path class="st0" d="M143.3,13.3l2.9,20.1l-2.2,0.3l-2.9-20.1L143.3,13.3z"/>
	<path class="st0" d="M157.8,32.3l-2.2,0.1l-4.2-15.9l0.9,16.1l-2,0.1l-1.1-20.2l3.2-0.2l4.2,16L159,12l3.2-0.2l1.1,20.2l-2.1,0.1
		l-0.9-16.3L157.8,32.3z"/>
	<path class="st0" d="M170.4,12.1l-0.8,20.2l-2.3-0.1l0.8-20.2L170.4,12.1z"/>
	<path class="st0" d="M176.8,32.9l2-18.1l-3.7-0.4l0.2-2l9.7,1.1l-0.2,2l-3.7-0.4l-2,18.1L176.8,32.9z"/>
	<path class="st0" d="M195.5,24.6l-0.4,2l-4.8-1l-1.5,7.1l5.9,1.2l-0.4,2l-8.2-1.7l4.2-19.8l8.2,1.7l-0.4,2l-5.9-1.2l-1.4,6.8
		L195.5,24.6z"/>
	<path class="st0" d="M208.7,18.9c1.5,0.5,2.5,1.3,2.9,2.3c0.4,1.1,0.4,2.4,0,3.9l-3.1,9.7c-0.5,1.5-1.2,2.5-2.2,3.2
		c-1,0.6-2.2,0.7-3.7,0.2l-4.5-1.4l6.1-19.3L208.7,18.9z M203.2,36.3c0.8,0.2,1.4,0.2,1.9-0.2c0.5-0.4,0.9-1,1.2-1.9l3.1-9.9
		c0.3-0.9,0.3-1.6,0.1-2.2c-0.2-0.6-0.7-1-1.5-1.3l-2.3-0.7l-4.9,15.4L203.2,36.3z"/>
	<path class="st0" d="M229.7,27.3c1.4,0.7,2.2,1.6,2.4,2.8c0.2,1.1,0,2.4-0.7,3.8l-0.2,0.5l-1.9-1l0.3-0.6c0.4-0.8,0.6-1.5,0.5-2.2
		c-0.1-0.6-0.5-1.1-1.2-1.5c-0.7-0.4-1.4-0.4-1.9-0.1c-0.6,0.3-1,0.8-1.4,1.6c-0.3,0.7-0.5,1.3-0.4,2c0,0.7,0.2,1.3,0.4,2
		c0.2,0.6,0.5,1.3,0.8,2c0.3,0.7,0.6,1.4,0.8,2.1c0.2,0.7,0.3,1.4,0.3,2.2c0,0.8-0.2,1.6-0.7,2.4c-0.7,1.4-1.6,2.3-2.7,2.8
		c-1.1,0.5-2.3,0.4-3.7-0.3c-1.4-0.7-2.2-1.6-2.4-2.8c-0.2-1.1,0-2.4,0.7-3.8l0.5-1l1.9,1l-0.6,1.1c-0.4,0.8-0.6,1.6-0.5,2.2
		c0.1,0.6,0.5,1.1,1.3,1.5c0.7,0.4,1.4,0.4,1.9,0.1c0.6-0.3,1.1-0.8,1.5-1.6c0.3-0.7,0.5-1.3,0.4-2c-0.1-0.6-0.2-1.3-0.4-1.9
		c-0.2-0.6-0.5-1.3-0.8-2c-0.3-0.7-0.6-1.4-0.8-2.1c-0.2-0.7-0.3-1.4-0.3-2.2c0-0.8,0.2-1.6,0.7-2.4c0.7-1.4,1.6-2.3,2.7-2.8
		C227.1,26.5,228.3,26.6,229.7,27.3z"/>
	<path class="st0" d="M239.9,43.8l-1.1,1.7l-4.2-2.6l-3.8,6.1l5.1,3.2l-1.1,1.7l-7.1-4.4l10.8-17.1l7.1,4.4l-1.1,1.7l-5.1-3.2
		l-3.7,5.9L239.9,43.8z"/>
	<path class="st0" d="M254,42.8c1.3,1,2,2,2,3c0.1,1.1-0.3,2.2-1.2,3.4l-1,1.3c-0.7,0.9-1.4,1.5-2.1,1.8c-0.7,0.3-1.5,0.3-2.4,0
		c0.6,0.8,0.8,1.6,0.7,2.4c-0.1,0.8-0.5,1.7-1.2,2.5l-1.9,2.5c-0.3,0.4-0.5,0.7-0.7,1.1c-0.2,0.4-0.4,0.7-0.4,1.1l-1.8-1.4
		c0.1-0.3,0.2-0.6,0.3-0.9c0.2-0.3,0.4-0.7,0.9-1.3l1.9-2.5c0.7-0.9,1-1.7,0.8-2.3c-0.1-0.7-0.6-1.3-1.3-1.8l-1.3-1l-5.2,6.9
		l-1.8-1.4l12.3-16.1L254,42.8z M247.7,50.1c0.7,0.5,1.4,0.8,2,0.8c0.6,0,1.3-0.4,1.9-1.3l1.2-1.5c0.6-0.7,0.8-1.4,0.8-2
		c0-0.6-0.3-1.1-1-1.6l-1.7-1.3l-4.5,6L247.7,50.1z"/>
	<path class="st0" d="M263.6,50.8L250.3,66l-1.7-1.5l13.3-15.2L263.6,50.8z"/>
	<path class="st0" d="M266.6,66l-1.4,1.4l-3.5-3.5l-5.1,5.1l4.3,4.3l-1.5,1.5l-5.9-5.9l14.3-14.3l5.9,5.9l-1.5,1.5l-4.3-4.3
		l-4.9,4.9L266.6,66z"/>
	<path class="st0" d="M280.5,68c1,1.2,1.4,2.4,1.1,3.5c-0.2,1.1-1,2.2-2.2,3.2l-0.4,0.3l-1.4-1.7l0.5-0.4c0.7-0.6,1.1-1.2,1.3-1.8
		c0.2-0.6,0-1.2-0.5-1.8c-0.5-0.6-1.1-0.9-1.7-0.9c-0.6,0-1.3,0.3-2,0.9c-0.6,0.5-1,1-1.2,1.6c-0.2,0.6-0.3,1.3-0.4,2
		c0,0.7-0.1,1.4,0,2.1c0,0.7,0,1.5-0.1,2.2c-0.1,0.7-0.3,1.4-0.6,2.1c-0.3,0.7-0.8,1.3-1.6,1.9c-1.2,1-2.4,1.5-3.6,1.5
		c-1.2,0-2.3-0.6-3.3-1.8c-1-1.2-1.4-2.4-1.1-3.5c0.2-1.1,1-2.2,2.2-3.2l0.9-0.7l1.3,1.6l-1,0.8c-0.7,0.6-1.1,1.2-1.3,1.8
		c-0.1,0.6,0,1.2,0.6,1.9c0.5,0.6,1.1,0.9,1.7,0.9c0.6,0,1.3-0.3,2-0.9c0.6-0.5,1-1,1.2-1.6c0.2-0.6,0.3-1.3,0.4-1.9
		c0-0.7,0.1-1.4,0-2.1c0-0.7,0-1.5,0.1-2.2c0.1-0.7,0.3-1.4,0.6-2.1c0.3-0.7,0.8-1.3,1.6-1.9c1.2-1,2.4-1.5,3.6-1.5
		C278.5,66.2,279.6,66.8,280.5,68z"/>
</g>
<g>
	<g>
		<path class="st0" d="M35.6,102l-2.3-1.1c16.4-34.4,45.3-60.4,81.4-73.4l0.9,2.5C80.1,42.7,51.7,68.3,35.6,102z"/>
		<path class="st0" d="M110.9,52.5l-1.1-2.3c4.3-2.1,7.5-5.7,9-10.1c3.2-9.2-1.7-19.3-10.9-22.5C103.6,16,99.1,16.2,95,18l-1-2.4
			c4.7-2,9.9-2.3,14.8-0.6c10.6,3.7,16.2,15.3,12.5,25.9C119.4,46,115.8,50.1,110.9,52.5z"/>
		
			<rect x="46.3" y="85.6" transform="matrix(0.1162 -0.9932 0.9932 0.1162 -53.2276 132.1488)" class="st0" width="2.6" height="20.8"/>
		
			<rect x="57.2" y="71" transform="matrix(0.1752 -0.9845 0.9845 0.1752 -31.7419 124.6466)" class="st0" width="2.6" height="20.6"/>
		
			<rect x="69.1" y="56.6" transform="matrix(0.211 -0.9775 0.9775 0.211 -10.5255 122.2136)" class="st0" width="2.6" height="22.1"/>
		<rect x="84.2" y="43.4" transform="matrix(0.262 -0.9651 0.9651 0.262 9.8374 123.232)" class="st0" width="2.6" height="23.5"/>
		
			<rect x="72.3" y="29.3" transform="matrix(0.9981 -6.241409e-02 6.241409e-02 0.9981 -2.3859 4.6738)" class="st0" width="2.6" height="22.5"/>
		
			<rect x="100.6" y="30.7" transform="matrix(0.2709 -0.9626 0.9626 0.2709 31.6961 130.3673)" class="st0" width="2.6" height="27.1"/>
		<rect x="89" y="19.2" transform="matrix(1 -8.874495e-03 8.874495e-03 1 -0.261 0.8029)" class="st0" width="2.6" height="21.1"/>
	</g>
	
		<rect x="31.6" y="73.3" transform="matrix(0.8732 -0.4873 0.4873 0.8732 -36.937 26.7497)" class="st0" width="2.6" height="22.1"/>
	<path class="st0" d="M50.9,79.3"/>
	<rect x="56.8" y="41.9" transform="matrix(0.9798 -0.1998 0.1998 0.9798 -9.427 12.6871)" class="st0" width="2.6" height="22.4"/>
	<rect x="43.5" y="56.8" transform="matrix(0.909 -0.4169 0.4169 0.909 -23.8364 24.7518)" class="st0" width="2.6" height="20.2"/>
</g>
<g>
	<g>
		<path class="st0" d="M40.8,239.5c-20.2-32.5-26.7-70.8-18.2-107.9l2.5,0.6c-8.3,36.4-1.9,74.1,17.9,105.9L40.8,239.5z"/>
		<path class="st0" d="M28.5,245.8c-4.8-1.7-8.8-5.1-11.2-9.6l2.3-1.2c2.1,3.9,5.6,6.9,9.8,8.4c9.2,3.2,19.3-1.7,22.5-10.9
			c1.6-4.5,1.3-9.3-0.8-13.5l2.3-1.1c2.4,4.9,2.7,10.4,0.9,15.5C50.7,243.9,39.1,249.5,28.5,245.8z"/>
		<path class="st0" d="M46.5,205.8"/>
	</g>
	
		<rect x="10.9" y="130.8" transform="matrix(0.6236 -0.7818 0.7818 0.6236 -106.2239 62.9364)" class="st0" width="2.6" height="21.9"/>
	
		<rect x="21.7" y="142.5" transform="matrix(0.9806 -0.1959 0.1959 0.9806 -27.5587 9.0098)" class="st0" width="20.1" height="2.6"/>
	
		<rect x="9.4" y="152.2" transform="matrix(0.4593 -0.8883 0.8883 0.4593 -139.1204 97.7501)" class="st0" width="2.6" height="21.8"/>
	<path class="st0" d="M20.2,166.5"/>
	
		<rect x="19.6" y="161.2" transform="matrix(0.9342 -0.3568 0.3568 0.9342 -56.0157 21.3602)" class="st0" width="20.6" height="2.6"/>
	
		<rect x="10.8" y="172.9" transform="matrix(0.3604 -0.9328 0.9328 0.3604 -163.3513 128.5367)" class="st0" width="2.6" height="21"/>
	
		<rect x="15.3" y="191.3" transform="matrix(0.2162 -0.9763 0.9763 0.2162 -184.1261 174.4994)" class="st0" width="2.6" height="21.2"/>
	<rect x="21" y="210.3" transform="matrix(0.1092 -0.994 0.994 0.1092 -199.6315 218.9031)" class="st0" width="2.6" height="21"/>
	
		<rect x="21.7" y="178.9" transform="matrix(0.8753 -0.4837 0.4837 0.8753 -83.2462 37.7165)" class="st0" width="19.6" height="2.6"/>
	
		<rect x="24.5" y="197.3" transform="matrix(0.7999 -0.6002 0.6002 0.7999 -112.2199 60.6653)" class="st0" width="20.6" height="2.6"/>
	
		<rect x="31.8" y="215.2" transform="matrix(0.7199 -0.6941 0.6941 0.7199 -138.5155 89.734)" class="st0" width="20.1" height="2.6"/>
</g>
<g>
	<g>
		<path class="st0" d="M301.5,194.4c8.3-36.5,1.9-74.2-18-106.1l2.2-1.4c20.3,32.5,26.8,70.9,18.3,108L301.5,194.4z"/>
		<path class="st0" d="M273.2,108.9c-2.4-4.9-2.7-10.4-0.9-15.5c3.7-10.6,15.3-16.2,25.9-12.5c4.8,1.7,8.8,5.1,11.2,9.6l-2.3,1.2
			c-2.1-3.9-5.6-6.9-9.8-8.4c-9.2-3.2-19.3,1.7-22.5,10.9c-1.6,4.5-1.3,9.3,0.8,13.5L273.2,108.9z"/>
		
			<rect x="294.5" y="171.8" transform="matrix(0.5247 -0.8513 0.8513 0.5247 -14.5232 338.4574)" class="st0" width="2.6" height="20.8"/>
		
			<rect x="295.1" y="153.6" transform="matrix(0.4733 -0.8809 0.8809 0.4733 11.7155 347.4795)" class="st0" width="2.6" height="20.6"/>
		
			<rect x="294.2" y="134.8" transform="matrix(0.4405 -0.8978 0.8978 0.4405 34.4129 346.9168)" class="st0" width="2.6" height="22.1"/>
		
			<rect x="290.1" y="115" transform="matrix(0.3928 -0.9196 0.9196 0.3928 60.3979 344.979)" class="st0" width="2.6" height="23.5"/>
		
			<rect x="298.6" y="121.3" transform="matrix(0.6679 -0.7442 0.7442 0.6679 11.6293 271.3033)" class="st0" width="22.5" height="2.6"/>
		
			<rect x="284" y="94.5" transform="matrix(0.3842 -0.9233 0.9233 0.3842 75.9956 329.9465)" class="st0" width="2.6" height="27.1"/>
		
			<rect x="292.8" y="102.5" transform="matrix(0.627 -0.779 0.779 0.627 32.2539 275.0621)" class="st0" width="21.1" height="2.6"/>
	</g>
	
		<rect x="303.5" y="180.9" transform="matrix(0.9238 -0.3829 0.3829 0.9238 -45.8048 134.3317)" class="st0" width="22.1" height="2.6"/>
	<path class="st0" d="M303.6,167.2"/>
	
		<rect x="303" y="140.7" transform="matrix(0.7643 -0.6448 0.6448 0.7643 -17.5414 236.081)" class="st0" width="22.4" height="2.6"/>
	
		<rect x="306" y="159.9" transform="matrix(0.8908 -0.4544 0.4544 0.8908 -38.7531 161.2264)" class="st0" width="20.2" height="2.6"/>
</g>
<g>
	<g>
		<path class="st0" d="M212.2,299.1l-0.9-2.4c35.3-12.7,63.6-38.3,79.8-72l2.3,1.1C277,260.1,248.1,286.1,212.2,299.1z"/>
		<path class="st0" d="M217.9,311.6c-10.6-3.7-16.2-15.3-12.5-25.9c1.8-5.1,5.4-9.2,10.3-11.6l1.1,2.3c-4.3,2.1-7.5,5.7-9,10.1
			c-3.2,9.2,1.7,19.3,10.9,22.5c4.2,1.5,8.8,1.3,12.9-0.5l1,2.4C228,313.1,222.8,313.3,217.9,311.6z"/>
		<path class="st0" d="M228.6,269.1"/>
	</g>
	
		<rect x="284.3" y="238.8" transform="matrix(1 -4.404177e-03 4.404177e-03 1 -1.0546 1.3025)" class="st0" width="21.9" height="2.6"/>
	
		<rect x="277.3" y="219.6" transform="matrix(0.7617 -0.6479 0.6479 0.7617 -82.3832 235.2195)" class="st0" width="2.6" height="20.1"/>
	
		<rect x="281.8" y="246.9" transform="matrix(0.1907 -0.9816 0.9816 0.1907 -23.9561 486.5759)" class="st0" width="2.6" height="21.8"/>
	<path class="st0" d="M273.6,254.6"/>
	
		<rect x="267.2" y="235.1" transform="matrix(0.8593 -0.5115 0.5115 0.8593 -87.7559 171.891)" class="st0" width="2.6" height="20.6"/>
	
		<rect x="268.2" y="262.4" transform="matrix(0.2958 -0.9553 0.9553 0.2958 -70.8431 449.6413)" class="st0" width="2.6" height="21"/>
	<rect x="253.2" y="274" transform="matrix(0.4359 -0.9 0.9 0.4359 -112.5836 389.5534)" class="st0" width="2.6" height="21.2"/>
	
		<rect x="237" y="285.4" transform="matrix(0.5308 -0.8475 0.8475 0.5308 -138.9625 340.7426)" class="st0" width="2.6" height="21"/>
	
		<rect x="254.9" y="248.5" transform="matrix(0.9221 -0.3869 0.3869 0.9221 -79.9981 119.2628)" class="st0" width="2.6" height="19.6"/>
	
		<rect x="240.9" y="260.4" transform="matrix(0.9668 -0.2554 0.2554 0.9668 -61.1038 70.8499)" class="st0" width="2.6" height="20.6"/>
	
		<rect x="224.3" y="270.2" transform="matrix(0.9909 -0.1345 0.1345 0.9909 -35.6445 32.8837)" class="st0" width="2.6" height="20.1"/>
</g>
<g>
	
		<ellipse transform="matrix(0.3283 -0.9446 0.9446 0.3283 -90.9126 104.7939)" class="st1" cx="28.2" cy="116.3" rx="18.9" ry="18.9"/>
	<path class="st0" d="M21.6,135.4c-10.5-3.7-16.1-15.2-12.5-25.7c3.7-10.5,15.2-16.1,25.7-12.5c10.5,3.7,16.1,15.2,12.5,25.7
		C43.7,133.5,32.1,139.1,21.6,135.4z M34,99.7c-9.2-3.2-19.2,1.7-22.4,10.9c-3.2,9.2,1.7,19.2,10.9,22.4c9.2,3.2,19.2-1.7,22.4-10.9
		C48.1,112.9,43.2,102.9,34,99.7z"/>
</g>
<g>
	
		<ellipse transform="matrix(0.3283 -0.9446 0.9446 0.3283 -90.8619 105.0296)" class="st1" cx="28.4" cy="116.4" rx="11.7" ry="11.7"/>
</g>
<g>
	
		<rect x="27.9" y="104.9" transform="matrix(0.3283 -0.9446 0.9446 0.3283 -79.2341 101.6404)" class="st0" width="7.9" height="3.2"/>
</g>
<g>
	<rect x="24.9" y="102.2" transform="matrix(0.9822 -0.1878 0.1878 0.9822 -19.4644 6.857)" class="st0" width="3.2" height="7.9"/>
</g>
<g>
	<rect x="20" y="104.5" transform="matrix(0.7567 -0.6537 0.6537 0.7567 -65.6759 40.5013)" class="st0" width="3.2" height="7.9"/>
</g>
<g>
	<rect x="17" y="109" transform="matrix(0.3288 -0.9444 0.9444 0.3288 -94.2405 93.3309)" class="st0" width="3.2" height="7.9"/>
</g>
<g>
	
		<rect x="14.2" y="116.8" transform="matrix(0.9822 -0.1879 0.1879 0.9822 -21.9167 5.5182)" class="st0" width="7.9" height="3.2"/>
</g>
<g>
	
		<rect x="16.5" y="121.6" transform="matrix(0.7567 -0.6537 0.6537 0.7567 -75.5733 43.386)" class="st0" width="7.9" height="3.2"/>
</g>
<g>
	<rect x="21" y="124.7" transform="matrix(0.329 -0.9443 0.9443 0.329 -102.4777 108.3151)" class="st0" width="7.9" height="3.2"/>
</g>
<g>
	
		<rect x="28.8" y="122.7" transform="matrix(0.9823 -0.1873 0.1873 0.9823 -23.1899 7.9329)" class="st0" width="3.2" height="7.9"/>
</g>
<g>
	<rect x="33.7" y="120.3" transform="matrix(0.7565 -0.654 0.654 0.7565 -72.7154 53.3226)" class="st0" width="3.2" height="7.9"/>
</g>
<g>
	
		<rect x="36.7" y="115.9" transform="matrix(0.329 -0.9443 0.9443 0.329 -87.4705 116.5555)" class="st0" width="3.2" height="7.9"/>
</g>
<g>
	
		<rect x="34.7" y="112.9" transform="matrix(0.9822 -0.1876 0.1876 0.9822 -20.7818 9.2879)" class="st0" width="7.9" height="3.2"/>
</g>
<g>
	<rect x="32.4" y="108" transform="matrix(0.757 -0.6534 0.6534 0.757 -62.7678 50.3588)" class="st0" width="7.9" height="3.2"/>
</g>
<g>
	<path class="st0" d="M25.6,125c-4.7-1.6-7.2-6.8-5.6-11.5c1.6-4.7,6.8-7.2,11.5-5.6c4.7,1.6,7.2,6.8,5.6,11.5
		C35.4,124.1,30.3,126.6,25.6,125z M30.7,110.4c-3.4-1.2-7,0.6-8.2,4c-1.2,3.4,0.6,7,4,8.2c3.4,1.2,7-0.6,8.2-4
		C35.8,115.2,34,111.5,30.7,110.4z"/>
</g>
<g>
	<ellipse transform="matrix(0.3283 -0.9446 0.9446 0.3283 -90.8211 105.172)" class="st0" cx="28.5" cy="116.4" rx="3.1" ry="3.1"/>
</g>
<g>
	
		<ellipse transform="matrix(0.3283 -0.9446 0.9446 0.3283 1.9018 423.1288)" class="st1" cx="298.5" cy="210.2" rx="18.9" ry="18.9"/>
	<path class="st0" d="M291.8,229.3c-10.5-3.7-16.1-15.2-12.5-25.7c3.7-10.5,15.2-16.1,25.7-12.5c10.5,3.7,16.1,15.2,12.5,25.7
		C313.9,227.4,302.3,233,291.8,229.3z M304.2,193.6c-9.2-3.2-19.2,1.7-22.4,10.9c-3.2,9.2,1.7,19.2,10.9,22.4s19.2-1.7,22.4-10.9
		C318.3,206.8,313.4,196.8,304.2,193.6z"/>
</g>
<g>
	
		<ellipse transform="matrix(0.3283 -0.9446 0.9446 0.3283 1.8179 422.9028)" class="st1" cx="298.2" cy="210.2" rx="11.7" ry="11.7"/>
</g>
<g>
	
		<rect x="297.7" y="198.7" transform="matrix(0.3283 -0.9446 0.9446 0.3283 13.4451 419.5118)" class="st0" width="7.9" height="3.2"/>
</g>
<g>
	
		<rect x="302.2" y="201.8" transform="matrix(0.7564 -0.6541 0.6541 0.7564 -58.4304 249.7682)" class="st0" width="7.9" height="3.2"/>
</g>
<g>
	
		<rect x="304.6" y="206.6" transform="matrix(0.9821 -0.1882 0.1882 0.9821 -33.6751 61.79)" class="st0" width="7.9" height="3.2"/>
</g>
<g>
	
		<rect x="306.5" y="209.6" transform="matrix(0.3277 -0.9448 0.9448 0.3277 5.3447 434.7187)" class="st0" width="3.2" height="7.9"/>
</g>
<g>
	
		<rect x="303.5" y="214.1" transform="matrix(0.7565 -0.654 0.654 0.7565 -68.3357 252.625)" class="st0" width="3.2" height="7.9"/>
</g>
<g>
	
		<rect x="298.6" y="216.5" transform="matrix(0.9821 -0.1882 0.1882 0.9821 -36.1285 60.4535)" class="st0" width="3.2" height="7.9"/>
</g>
<g>
	
		<rect x="290.9" y="218.5" transform="matrix(0.3275 -0.9449 0.9449 0.3275 -9.6425 426.5449)" class="st0" width="7.9" height="3.2"/>
</g>
<g>
	
		<rect x="286.4" y="215.4" transform="matrix(0.7561 -0.6544 0.6544 0.7561 -71.2084 242.9383)" class="st0" width="7.9" height="3.2"/>
</g>
<g>
	
		<rect x="284" y="210.6" transform="matrix(0.9822 -0.1879 0.1879 0.9822 -34.7259 57.8792)" class="st0" width="7.9" height="3.2"/>
</g>
<g>
	
		<rect x="286.8" y="202.8" transform="matrix(0.3275 -0.9448 0.9448 0.3275 -1.4145 411.5011)" class="st0" width="3.2" height="7.9"/>
</g>
<g>
	
		<rect x="289.8" y="198.3" transform="matrix(0.7563 -0.6542 0.6542 0.7563 -61.3103 239.9514)" class="st0" width="3.2" height="7.9"/>
</g>
<g>
	<rect x="294.7" y="196" transform="matrix(0.982 -0.1886 0.1886 0.982 -32.3924 59.4817)" class="st0" width="3.2" height="7.9"/>
</g>
<g>
	<path class="st0" d="M295.2,218.7c-4.7-1.6-7.2-6.8-5.6-11.5c1.6-4.7,6.8-7.2,11.5-5.6c4.7,1.6,7.2,6.8,5.6,11.5
		C305,217.8,299.9,220.3,295.2,218.7z M300.2,204c-3.4-1.2-7,0.6-8.2,4c-1.2,3.4,0.6,7,4,8.2c3.4,1.2,7-0.6,8.2-4
		C305.4,208.9,303.6,205.2,300.2,204z"/>
</g>
<g>
	<ellipse transform="matrix(0.3283 -0.9446 0.9446 0.3283 1.7757 422.7609)" class="st0" cx="298.1" cy="210.1" rx="3.1" ry="3.1"/>
</g>
<g>
	<g>
		<path class="st0" d="M122.2,247.7c-0.2,0.1-0.5,0.1-0.8,0.1c-0.3,0-0.6,0-0.9-0.1l0.3-1c0.3,0.1,0.6,0.1,0.8,0.1
			c0.2,0,0.4-0.1,0.6-0.1c0.2-0.1,0.4-0.2,0.5-0.3c0.2-0.1,0.3-0.3,0.4-0.4l0.8,0.3l-3.7,10.8l-1.2-0.4L122.2,247.7z"/>
		<path class="st0" d="M128.7,247.6c0.8,0.3,1.4,0.7,1.6,1.4c0.2,0.6,0.2,1.4-0.1,2.2l-1.9,5.5c-0.3,0.9-0.7,1.5-1.3,1.8
			s-1.3,0.4-2.2,0.1c-0.8-0.3-1.4-0.7-1.6-1.4c-0.2-0.6-0.2-1.4,0.1-2.2l0.1-0.2l1.1,0.4l-0.1,0.3c-0.2,0.5-0.2,0.9-0.1,1.2
			c0.1,0.3,0.4,0.6,0.8,0.7c0.5,0.2,0.8,0.1,1.2-0.1c0.3-0.2,0.6-0.6,0.8-1.2l0.8-2.4c-0.6,0.7-1.3,0.8-2.1,0.5
			c-0.7-0.2-1.1-0.6-1.3-1.2c-0.2-0.6-0.1-1.2,0.2-2l0.6-1.6c0.3-0.8,0.7-1.4,1.3-1.8C127.2,247.4,127.9,247.4,128.7,247.6z
			 M128.3,248.7c-0.4-0.1-0.8-0.1-1.1,0.1c-0.3,0.2-0.5,0.5-0.7,1l-0.6,1.6c-0.2,0.5-0.2,0.9-0.1,1.3c0.1,0.3,0.4,0.6,0.8,0.7
			c0.4,0.2,0.8,0.1,1.1-0.1c0.3-0.2,0.5-0.5,0.7-1l0.6-1.6c0.2-0.5,0.2-0.9,0.1-1.3C129,249.1,128.8,248.9,128.3,248.7z"/>
		<path class="st0" d="M135.2,249.9c0.8,0.3,1.4,0.7,1.6,1.4c0.3,0.6,0.3,1.3,0,2.2l-0.1,0.3c-0.2,0.6-0.5,1-0.8,1.3
			c-0.3,0.3-0.7,0.5-1.2,0.5c0.4,0.3,0.6,0.7,0.7,1.2c0,0.5,0,1-0.2,1.5l-0.3,0.8c-0.3,0.8-0.7,1.4-1.3,1.7
			c-0.6,0.3-1.3,0.4-2.2,0.1c-0.8-0.3-1.4-0.8-1.6-1.4c-0.3-0.6-0.2-1.4,0-2.2l0.3-0.8c0.2-0.6,0.4-1,0.8-1.3
			c0.3-0.3,0.7-0.5,1.3-0.5c-0.4-0.3-0.6-0.7-0.7-1.2c-0.1-0.4,0-0.9,0.2-1.5l0.1-0.3c0.3-0.8,0.7-1.4,1.3-1.7
			C133.7,249.6,134.4,249.6,135.2,249.9z M134.8,251c-0.4-0.1-0.8-0.1-1.1,0c-0.3,0.2-0.6,0.5-0.8,1.1l-0.2,0.5
			c-0.2,0.5-0.2,0.9,0,1.3c0.2,0.3,0.4,0.6,0.9,0.7c0.4,0.2,0.8,0.1,1.1,0c0.3-0.2,0.6-0.5,0.8-1l0.2-0.5c0.2-0.6,0.2-1,0.1-1.3
			C135.5,251.4,135.3,251.1,134.8,251z M133.2,255.7c-0.9-0.3-1.5,0-1.9,1.1l-0.3,0.9c-0.2,0.6-0.2,1-0.1,1.4
			c0.1,0.3,0.4,0.6,0.9,0.7c0.4,0.1,0.8,0.1,1.1-0.1c0.3-0.2,0.6-0.6,0.8-1.1l0.3-0.9C134.4,256.7,134.1,256,133.2,255.7z"/>
		<path class="st0" d="M141.7,252.1c0.8,0.3,1.4,0.7,1.6,1.4c0.2,0.6,0.2,1.4-0.1,2.2L143,256c-0.2,0.6-0.5,1-0.8,1.3
			c-0.4,0.3-0.8,0.5-1.3,0.5c0.4,0.3,0.6,0.7,0.7,1.2c0.1,0.5,0,1-0.2,1.5l-0.3,0.8c-0.3,0.8-0.7,1.4-1.3,1.8
			c-0.6,0.4-1.3,0.4-2.1,0.1c-0.8-0.3-1.3-0.7-1.6-1.4c-0.2-0.6-0.2-1.4,0.1-2.2l0.3-0.7l1.1,0.4l-0.3,0.8c-0.2,0.5-0.2,0.9-0.1,1.3
			s0.4,0.6,0.8,0.7c0.4,0.2,0.8,0.1,1.1-0.1c0.3-0.2,0.5-0.6,0.7-1.1l0.3-0.8c0.4-1,0.1-1.7-0.8-2.1l-0.6-0.2l0.4-1.1l0.7,0.2
			c0.4,0.1,0.8,0.1,1.1-0.1c0.3-0.2,0.6-0.5,0.7-1l0.2-0.5c0.2-0.6,0.2-1,0.1-1.4c-0.1-0.4-0.4-0.6-0.8-0.8
			c-0.4-0.1-0.8-0.1-1.1,0.1c-0.3,0.2-0.5,0.6-0.7,1l-0.2,0.6l-1.1-0.4l0.2-0.5c0.3-0.8,0.7-1.4,1.3-1.8
			C140.1,251.9,140.8,251.9,141.7,252.1z"/>
	</g>
</g>
<rect x="174" y="34.6" transform="matrix(0.3283 -0.9446 0.9446 0.3283 -6.7496 253.1688)" class="st2" width="1.3" height="193.5"/>
<rect x="151.8" y="98.4" transform="matrix(0.3283 -0.9446 0.9446 0.3283 -81.9218 275.0862)" class="st2" width="1.3" height="193.5"/>
</svg>
