<?xml version="1.0" encoding="utf-8"?>
<!-- Generator: Adobe Illustrator 21.1.0, SVG Export Plug-In . SVG Version: 6.00 Build 0)  -->
<svg version="1.1" id="Layer_5" xmlns="http://www.w3.org/2000/svg" xmlns:xlink="http://www.w3.org/1999/xlink" x="0px" y="0px"
	 viewBox="0 0 248.8 249.2" style="enable-background:new 0 0 248.8 249.2;" xml:space="preserve">
<style type="text/css">
	.st0{opacity:0.1;fill-rule:evenodd;clip-rule:evenodd;fill:#E4E4E5;}
	.st1{fill-rule:evenodd;clip-rule:evenodd;fill:none;}
	.st2{fill:#00AAFF;}
	.st3{font-family:'QuestaGrande-Bold';}
	.st4{font-size:48px;}
	.st5{fill:#FFFFFF;}
	.st6{font-family:'FranklinGothic-DemiCmpr';}
	.st7{font-size:16px;}
	.st8{letter-spacing:3;}
</style>
<g>
	<path class="st0" d="M122.3,249.2L122.3,249.2l-0.1-0.1L122,249c-1.3-2-0.5-18.3-0.4-20.7c0.2-9.1,0.3-20.2,0.9-21.3l0.2-0.3
		l0.3-0.1l0.3,0l0.2,0.1c0.5,0.5,0.7,2.5,0.7,3.4c0.1,8.2,0.1,31.9-0.5,36.7l0,0.1l-0.9,2.2L122.3,249.2z M86.6,238L86.6,238
		l-0.3-1.1c0-3.6,4.9-13.7,5-14.1c0.7-1.9,2.2-1.4,2,0.3c-0.2,1.7-3.8,12.3-4.6,13.9c-0.1,0.2-0.4,0.6-0.8,0.9L86.6,238z
		 M112.6,234.2c-0.5-0.2-0.8-0.9-0.7-2c0.2-2.3-0.3-5.3,0.9-7.3l0.4-0.4l0.3-0.1l0.2,0l0.2,0.1C114.2,224.6,115.7,235.3,112.6,234.2
		z M132.4,231.9c-5-8.6-1.4-43.3,0.5-21.1c0.2,2.4,0.4,4.9,0.6,7.3C133.8,223.1,135.4,228.9,132.4,231.9z M154.8,230.8l-0.5-0.2
		c-2-1.3-3.5-8.2-5.4-14.6c-0.8-2.8-3.3-10.5-3.3-12.4c-0.1-1.9,1.7-1.9,2.3-0.2c0.2,0.5,8.4,23.7,7.8,26.4
		c-0.1,0.3-0.2,0.7-0.4,0.9l-0.1,0.1l-0.2,0.1L154.8,230.8z M175.3,226.7l-0.5-0.2c-2.2-1.1-5.2-8.2-8.2-14.4
		c-2.8-5.9-5.5-11.6-5.7-12.4c-0.4-1.9,1.5-2,2.3-0.4c0.3,0.6,12.9,23.5,12.8,26.2c0,0.3-0.1,0.7-0.2,0.9l-0.1,0.1l-0.2,0.1
		L175.3,226.7z M44.9,223.8c-6.8-1.2,10.6-11.9,5.5-5.5C48.6,220.4,47.2,222.5,44.9,223.8z M82.5,223.7l-0.2-0.1l-0.2-0.2l-0.2-0.4
		c-0.2-0.7-0.1-1.6,0-2.2c0.6-2.2,10.1-22.8,11-23.9c0.9-1.2,2.7-0.7,1.9,1.3c-0.3,0.7-9.2,23.5-11.3,25.1l-0.7,0.3H82.5z
		 M112.5,215.3c0.3-4.5,0.5-9,1.3-13.3c0.1-0.7,3.2-8.4,3.2-2.5c0,5.1-0.8,10.2-2,15c-0.4,1.7-0.2,3.7-1.7,3.7
		C112.3,217.9,112.5,216.3,112.5,215.3z M93.8,213.2c0.3-1.3,1.1-2.6,1.6-3.9c2-4.7,1.5,2.9,1.3,3.5c-0.7,2.6-1.1,3-2.6,4.9
		C92.2,217.7,93.6,213.8,93.8,213.2z M141,216.6c-0.3-0.7-1.1-1.3-1.3-2c-0.2-0.8-0.4-1.6-0.5-2.5c-0.1-0.7,0.1-1.4,0.1-2.2
		c0.2-5,7.4,6,2.1,6.9C141.3,216.8,141,216.8,141,216.6z M159.1,215.8c-2-1.9-4.6-12.4-5.3-14c-0.8-2,0.8-2.3,1.7-1
		c1,1.5,5.2,11.8,5.6,13.5C161.4,215.2,160.9,217.4,159.1,215.8z M102.9,215.9l-0.2,0l-0.2-0.2l-0.3-0.4c-1-2.3,1.4-9.5,3.2-16.3
		c1.7-6.4,2.9-15.3,4.1-16l0.1-0.1c1.2-0.3,1.6,0.7,1.2,2c-0.1,0.4-5.3,28.6-7.2,30.5l-0.6,0.5L102.9,215.9z M65,214.2l-0.2,0
		l-0.2-0.1l-0.2-0.2l-0.1-0.3c0-0.6,0.2-1.5,0.5-2c1-2,13.7-20.2,14.7-21.1c0.8-0.8,1.3-0.7,1.6-0.3l-0.2,1.7
		C81.1,191.6,67.3,213.9,65,214.2z M52.2,214l-0.1-0.1l-0.1-0.2l-0.1-0.1c-0.2-0.3,0-0.8,0.3-1.3c0.8-1.5,17.4-22.8,19.4-24.7
		c0.1-0.1,3.7-2.6,2.9,0.5c-0.7,2.4-18.8,23.1-20.2,24.8C53.7,213.7,52.8,214.3,52.2,214z M180.5,212.2c-0.3-0.4-5.4-6-3.9-7.2
		l0.1-0.1c1.5-0.5,7.1,6.8,5.8,8.2l-0.1,0.1l-0.2,0.1C181.8,213.4,181.1,213.1,180.5,212.2z M78,210.8c-3.9-2.2,6.4-11,4-5.4
		C80.9,207.7,80.3,209.5,78,210.8z M215,204.4c-1.9-1.2-26-21.6-26.8-22.8c-1-1.2,0.1-2.4,1.6-1.2c1.4,1.2,26.9,21.3,27.8,23.4
		l0.1,0.7l-0.1,0.3l-0.1,0.2l-0.1,0.1C216.7,205.4,215.3,204.6,215,204.4z M138.7,204.7c-0.5-0.2-1-0.7-1.2-1.3
		c-0.6-1.7-2.8-12.7-2.8-14.4c0-1,0.4-1.4,0.8-1.4l1.1,1.3C136.4,188.2,142.4,206,138.7,204.7z M170.4,199.5
		c-0.1-0.2-11.4-14.5-9.8-16.3c0.8-0.9,2.5,0.8,2.7,1c0.6,0.8,10,14.4,9.3,16.2l-0.1,0.1l-0.2,0.1l-0.2,0.1
		C171.7,200.9,171,200.5,170.4,199.5z M195.6,200.3c-2.1-0.7-16.8-17.8-18.1-19.2c-1.4-1.5-0.2-2.5,1.2-1.6
		c1.2,0.8,16.9,16.8,18.3,18.6C197.3,198.7,198.1,201.3,195.6,200.3z M50.3,198.3c2.9-4.4,7.7-8.2,11.6-12c2.5-2.4,4.5-4.4,7-6.8
		c1.1-1,3.3-4,5.4-3.9c1,0.1-0.5,1.9-0.9,2.4c-4.8,5.2-9.7,10.4-14.9,15.3c-2.6,2.5-5.1,5.2-8.3,6.7C49.5,200.1,49.9,199,50.3,198.3
		z M83.6,199.6c-0.3-0.5-0.3-1.2-0.1-1.8c0.8-2.1,6.3-11.6,7.3-12.7c1-1.2,2.6-0.7,1.5,1.2C92.4,186.2,85.6,202.9,83.6,199.6z
		 M182.9,199.8c-6.5-5.9-11.5-13.2-16.8-19.9c-0.7-0.8-4-4.1-4.1-6c-0.1-1.6,3,1.4,3.1,1.5c5.9,6.7,11.7,13.5,17.2,20.4
		c0.4,0.5,0.8,1,1.2,1.6C184.9,199.7,184.6,200.3,182.9,199.8z M148.1,188.9c0-0.1-0.5-3.5,1.1-1.6c0.9,1.1,1.6,2,2.2,3.3
		c0.4,0.9,0.8,1.8,1.1,2.8c0.6,2.1,0.8,2.4-0.2,2.9C149.8,196.1,148.7,190.7,148.1,188.9z M34.2,184.6L34.2,184.6l-0.1-0.1l-0.1-0.2
		l0-0.2c0.4-2.4,26.4-17.4,27.4-18c0.7-0.5,1.5-0.7,1.9-0.4l0.1,0.1l0.1,0.2l0,0.1c0.1,0.4-0.2,0.9-0.7,1.4
		c-1.2,1.1-23.4,15.4-25.8,16.6C36.7,184.2,34.9,185,34.2,184.6z M55.4,180.8l-0.4-0.6l0.6-1.6c1.6-1.6,19.3-15.3,20.6-15.9
		c1.5-0.8,2.5,0.5,0.9,1.7c-0.8,0.6-17.9,16-20.6,16.5C56,180.9,55.6,180.9,55.4,180.8z M197.5,180.5c-0.9-0.8-2.1-1.4-2.9-2.3
		C188.6,171.6,207.5,182.9,197.5,180.5z M211.6,177.4c-2.1-0.9-24.6-13.8-25.7-14.8c-1-1-0.4-2.8,1.5-1.7
		c0.7,0.4,25.4,12.9,26.7,15.2C215.7,178.7,211.7,177.4,211.6,177.4z M188.1,174c-2-1-10.9-7.5-11.9-8.5c-1.1-1.1-0.4-2.6,1.4-1.4
		c-0.1-0.1,15.8,8.4,12.3,10C189.4,174.3,188.7,174.2,188.1,174z M37.4,172.4c-3-2.3,12.4-7.3,8.6-3.8
		C43.3,170.9,41.1,171.9,37.4,172.4z M10,171.2L10,171.2l-0.4-0.3l-0.1-0.2l0-0.2v-0.1c0.1-1.2,4.3-2.9,6.9-4l32.5-12.8
		c2-0.8,2.4,1.1,1.2,1.9c-1.2,0.8-35.5,15.2-37.8,15.7C11.6,171.4,10.7,171.4,10,171.2z M207.1,165.8L207.1,165.8l-10.7-5.7
		l-0.9-0.7c-0.5-0.7,0.2-1.5,1.5-1.2c1.7,0.4,11.9,5,13.4,6C212.8,165.8,210.8,167.5,207.1,165.8z M63.5,157
		c4.1-1.5,1.2,1.8-0.6,2.7c-3.6,1.9-7.1,3.8-10.8,5.4C45.3,164.7,62.6,157.3,63.5,157z M218.5,158.7c-1.8-0.4-24.5-8.9-26.1-10
		c-2.4-1.6,0.5-2.2,1.4-1.9c0.7,0.3,25.5,8.2,27.3,10.3c1.3,1.5-0.2,1.7-1.3,1.7C219.1,158.8,218.5,158.7,218.5,158.7z M184.7,155
		c-1.2-0.5-2.2-1.2-3.4-1.8c-5.2-4,8.6-0.3,8.2,2.2C189.3,157.4,185.6,155.4,184.7,155z M219.4,149.8c-5.7-2.8,7.9-1.8,8.5,0.5
		C228.6,152.8,219.7,149.9,219.4,149.8z M43.9,150.3L43.9,150.3c-0.4-1.6,4.3-2.5,6.8-3.3c1.7-0.5,8.8-3.1,8.6-0.5
		c-0.2,2.5-13.3,4.1-13.8,4.2C44.5,151,44.1,150.7,43.9,150.3z M24.1,146.8l-1.9-0.1l-1-0.8c0.1-0.9,2.5-1.8,2.5-1.8
		c0.6-0.1,24.5-4.5,27.6-4.2c2.7,0.2,0.7,2.1-0.3,2.3C50.7,142.2,30.7,146.5,24.1,146.8z M202.4,144.2c-1.7-0.4-9.2-1.7-7.7-3.9
		c1.4-2,13.6,3.1,14.1,3.2c1.4,0.4,1.8,2-0.1,1.9C208,145.4,205.4,144.9,202.4,144.2z M245.7,145.3c-8.6-1-33.4-6.2-38.5-7.2
		c-1.7-0.3-1.9-2.2,0-2.3c1.3,0,38.1,6.4,39.6,6.9C249.5,143.7,249.8,145.8,245.7,145.3z M34.5,134.7c-0.8-4.7,43.3-1.9,1.5,0.5
		C35.6,134.8,34.6,135.2,34.5,134.7z M55.8,133L55.8,133l-0.2-0.2l-0.1-0.2l0-0.2l0-0.1c0.4-0.9,3.4-1.4,3.7-1.4
		c0.6,0,3.9-0.3,4.5,0.3l0.1,0.2l0,0.1C64.1,133.4,57.2,134,55.8,133z M214.6,131.8c-3.2-0.2-6.5-0.1-9.7-0.4
		c-1.3-0.1-2.6-0.4-3.9-0.5c-1.4-0.2-2.7-2-1.3-2.1c3.8-0.5,8.2-0.2,11.9,0c5.1,0.2,10.7,0.5,15.8,1.5c1.5,0.3,3.1,1.6,0.3,1.9
		C223.3,132.6,218.8,131.9,214.6,131.8z M0.8,125.2c-2.5-1.5,1.5-2.4,1.6-2.4c2.9-0.4,40.4,0.2,42.1,0.7c1.8,0.5,1.3,2.2-0.5,2.2
		c-1.1,0-11.4,0.2-21.7,0.2C19.9,125.9,2.5,126.2,0.8,125.2z M185.2,123.7c-2.1-1,2.1-2.1,4.4-2.3c6.4-0.5,12.9-0.8,19.4-1.1
		c2.1-0.1,5.4-0.4,7.1,0.5c2.1,1.2-1.2,2.2-1.7,2.2C205.4,124.2,194.3,124.5,185.2,123.7z M50.3,119.4c-0.2,0-9.8,0-8.2-2.5
		c1-1.5,6.3-0.5,9.2-0.2c0.8,0.1,8.3,0.4,8,2.1l0,0.1l-0.1,0.2C58.4,119.9,52.7,119.5,50.3,119.4z M29.9,116.6c-1.9-1,2.9-1.9,5-1.3
		c0.7,0.2,1.4,0.5,2.1,0.8c2.4,1,0,1.7-0.9,1.7C32.7,117.8,32.4,117.6,29.9,116.6z M198.9,115.9c-5.1-1.3,12.2-3.4,14.3-3.7
		c1.1-0.1,2.1-0.4,3.2-0.2c3.3,0.7,1.9,2-0.4,2.8C211.2,116.5,204.1,116.2,198.9,115.9z M224,113.7c-3.6-0.9,4.6-2.6,8.2-2.7
		c1.1-0.1,2.6-0.3,2.9,0.8C235.7,114,226.1,113.8,224,113.7z M189.4,110.1c-2.5-2.5,16.4-5.5,21-6.5c1.7-0.4,3.5-0.8,5.2-1.2
		c1.4-0.3,2.8-0.5,4.3-0.7c1.2-0.2,5.3,0.4,2.1,1.7c-4.7,1.9-10.1,2.6-15.2,3.7c-1.7,0.4-3.4,0.7-5.2,1.1
		C197.7,109,193.3,110.6,189.4,110.1z M26,107.8c-0.9-0.1-13.1-1.8-13.7-3.5l0-0.1v-0.1l0-0.1l0.1-0.2c0.9-1.5,10.8,0.8,15.4,1.7
		c2.3,0.5,10.6,1.8,12.3,2.6c1.8,0.8,0.9,2.1-0.8,1.8C38.2,109.8,32.1,108.9,26,107.8z M47.8,104.8c-5.8-1.6-11.7-3.4-12.8-3.8
		c-2.9-1.2-1.1-3,1.7-2.3c5.9,1.3,19.9,6.4,23.6,7.5c2.1,0.6,1.3,2.1-0.2,2C59.4,108,54,106.5,47.8,104.8z M195.7,100.8L195.7,100.8
		l0-0.1c0-0.4,0.3-0.8,1.2-1.2c0.9-0.3,22-9,24.9-8.7c2.3,0.2,1.1,2.1,0.2,2.5c-1.5,0.7-23.3,7.9-24.8,8.1
		C196.4,101.5,195.9,101.2,195.7,100.8z M41.9,93.6c-1.5-0.6-2.9-1.1-4.4-1.7c-1.1-0.4-2.3-0.9-3.4-1.3c-1.6-0.7-4.3-1-3.8-2.7
		c0.9-2.9,5,0.5,7.8,1.5c7.1,2.4,14.1,5.6,21.1,8.5c0.4,0.2,0.8,0.3,1.2,0.5c3,1.3,2.5,1.8,0.3,2.1C54.3,98.4,48.1,96,41.9,93.6z
		 M193.4,94.6L193.4,94.6l-0.1-0.2l0-0.2c0.1-0.4,0.4-0.8,1.2-1.2c0.2-0.1,39.6-19.1,42.9-19.4c0.5,0,0.8,0,1.1,0.2l0.2,0.2l0,0.1
		l0,0.2l-0.1,0.2c-0.3,0.6-1.1,1.2-1.7,1.6c-2.2,1.3-40.1,18.2-41.8,18.7C194.3,95.1,193.7,95,193.4,94.6z M179.2,94.4
		c-0.3-0.6,1.4-2.1,1.6-2.2c1.3-1,2.6-1.8,3.9-2.7c1.4-0.9,2.8-1.5,4.2-2.4c0.5-0.3,1.1-0.6,1.6-0.8c3.2-1.7,4.5-0.8,1.9,1.4
		C189.2,90.4,183.5,96.4,179.2,94.4z M60.1,91.8c-1.8-1-7.7-3.8-7.6-5.2l0-0.1l0.1-0.2c0.3-0.3,0.8-0.4,1.4-0.2
		c1.6,0.5,10.1,3.8,12.3,5.4c0.8,0.6,2.3,2.1,1,2.7C66.6,94.7,64.4,94.1,60.1,91.8z M75.9,84.8C74.4,83.6,56.4,70,55.5,68.1
		c-1.1-2.5,1.5-1.8,2.1-1.4c1.9,1.2,18.9,15.7,19.8,16.9C78.5,84.9,77.4,86.1,75.9,84.8z M198.1,82.3c0.5-0.4,1-0.7,1.5-1.1
		c1-0.7,2.2-1.3,3.3-1.9c5.5-2.9-1.6,4-2.9,4.8c-0.9,0.6-1.8,0.5-3,0.8C196.1,84.2,197.7,82.6,198.1,82.3z M182.8,84.7L182.8,84.7
		l-0.2-0.1l-0.1-0.2c-0.1-0.4,0-1,0.6-1.6c1.1-1.2,21.6-17.4,23.9-18.7c0.6-0.3,1.5-0.8,2.2-0.8l0.2,0l0.2,0.1l0.1,0.1l-0.2,0.2
		l0.3,0l0,0.1c-0.1,2.5-24.3,19.5-25.4,20.3C183.6,84.7,183.1,84.8,182.8,84.7z M45.7,83.7c-1.2-0.5-2.2-1.2-3.4-1.8
		c-4.5-4,3.8-0.9,5.6-0.1c1,0.5,1.5,1.3,2.2,2.1C50.9,85.1,45.8,83.8,45.7,83.7z M173.7,81.2L173.7,81.2l-0.1-0.1
		c-0.3-0.3-0.3-1,0.2-1.6c0.8-1.1,17.3-16.3,19.2-17.6c0.5-0.4,3.2-1.1,2.1,1.4c-0.8,2.1-18.3,16.2-19.8,17.5
		C174.6,81.3,174.1,81.4,173.7,81.2z M56.8,79.6c-2.2-1.4-32.2-19.8-33.7-21.9c-0.2-0.3-0.4-0.7-0.4-0.9l0-0.2l0.2-0.2l0.1-0.1
		c0.6-0.3,2.1,0.4,2.5,0.6C27.8,58,56.8,77,58.1,78.2c0.5,0.5,0.9,1,0.8,1.5l-0.1,0.2L58.6,80l-0.1,0.1C58.1,80.2,57.5,80,56.8,79.6
		z M73.3,72.3c-6.1-5.5-12-11.7-17.7-17.7c-0.8-0.9-1.7-1.8-2.5-2.7c-1.3-1.4-3.8-3.4-2.1-4.4c0.7-0.4,2.1,0.9,2.5,1.3
		c2.2,2.1,4,3.9,6.1,6.1c4.2,4.3,11.4,10.5,14.7,15.7C75.9,73,75,72.8,73.3,72.3z M166.7,70.5c-0.1,0.1,8.9-15.5,10.5-12
		c0.2,0.5,0.1,1.3-0.2,1.8c-1.1,2-7.8,10.7-8.9,11.6C166.8,73,165.5,72.1,166.7,70.5z M83.5,71.6c-1.1-0.9-8.2-9.4-9.3-11.3
		C73.9,60,73.3,58,74.7,58c1,0,2.7,1.5,5.8,5.9c1.4,1.9,4.9,6.5,4.7,7.6l0,0.1l-0.1,0.1L85,71.9C84.6,72.2,84,72.1,83.5,71.6z
		 M142.3,60.9c0.5-2.1,1.3-4.2,1.9-6.3c0.5-1.6,0.8-3.2,1.3-4.8c3.1-8.9,1.5,5.1,0.8,7.7c-0.8,3.2-1.4,6.4-3.6,8.7
		C140.9,66.3,142.2,61.4,142.3,60.9z M156.3,66.2c-3-0.4,5.3-14.3,4.5-8.7C160.2,60.9,158.5,64,156.3,66.2z M181.2,63.6
		c-0.1,0.2,16.5-20.2,18.8-20.1l0.2,0.1l0.2,0.2l0.1,0.2l0,0.3c0,0.6-0.4,1.5-0.8,2c-1.3,1.8-16.3,18.2-17.4,19
		C180.6,66.4,180.2,64.7,181.2,63.6z M106.4,64.7c-0.3-0.8-0.8-1.5-1-2.3c-0.3-0.9-0.6-1.7-0.9-2.6c-0.2-0.7-0.3-1.5-0.5-2.3
		c-0.1-0.8,0.1-2,1-1.4C107.3,57.7,110.9,68.5,106.4,64.7z M92.6,63.8c-2-1.3-5.3-11.1-5.9-12.3c-0.7-1.3,0.3-2.6,1.5-1.2
		c1,1.2,5.7,10.2,6.2,11.8C94.7,62.8,94.5,65.1,92.6,63.8z M130.4,59.4c-0.5-3.3,0.8-25.4,0.9-26c0.5-3.1,2.6-1.8,2.7,1.1
		c0.2,6-1.5,20.9-1.7,24.7C132.3,60.6,130.7,61.5,130.4,59.4z M120.4,59.3l-0.2,0c-0.5-0.2-0.7-0.8-0.8-1.4
		c-0.1-0.8-3.6-14.4-1.4-15.9c2.6-1.8,3.2,11.9,3.3,13.4c0.2,2.3,0,3.5-0.5,3.8l-0.1,0L120.4,59.3z M95.3,54.7
		c-0.2-0.4-10.9-24.6-10.5-27.3c0.5-3.1,3,1.1,2.9,0.9c0.9,1.5,9.6,24.6,9.8,26.2C98.1,57.3,95.7,55.6,95.3,54.7z M152.2,52.6
		c0.3-0.7,9-25.3,11.2-27c2.4-1.9,1.4,2.9,1.5,2.7c-0.6,2.4-10,24.6-10.8,25.8C152.4,56.3,151.8,53.5,152.2,52.6z M179.3,54.8
		c-2.1-2.4,5.9-8.2,5.2-6.3C183.3,51.2,182.6,54.4,179.3,54.8z M70.2,54.2c-0.5-0.6-1.2-1.1-1.7-1.8c-0.6-0.7-1.2-1.4-1.7-2.2
		c-0.4-0.6-0.8-1.3-1.2-2C62,42,77.3,56.9,70.2,54.2z M161.5,51.5c0.4-1.4,5.1-11.3,6.4-13.2c1.6-2.4,3.3-0.4,1.5,3.3l-6,10.5
		C162.5,54,161.1,53.1,161.5,51.5z M138.8,53.1l-0.3,0l-0.2,0c-0.4-0.2-0.5-0.8-0.6-1.5c0-1.9,4-28.1,4.5-30
		c0.3-1.2,0.7-2.1,1.2-2.3l0.2,0l0.2,0l0.2,0.1c0.4,0.4,0.5,1.5,0.4,2.9c-0.6,7.1-4,24.8-4.8,29.3c-0.1,0.8-0.4,1.3-0.7,1.5
		L138.8,53.1z M101.8,51.3c-0.9-1.5-4.2-12.2-4.5-14c-0.5-2.8,2.1-2.6,3.4,1.4l2.8,11.7C104.1,52.2,102.6,52.8,101.8,51.3z
		 M171,49.8c1-1.7,17.7-29.1,19.4-30.1c2.6-1.4,1.2,2.5,1.2,2.6c-0.9,2.1-17.9,28-19,29C171.6,52.5,170,51.5,171,49.8z M79.5,51.3
		c-1-1-16.2-28.5-17.1-30.6c0,0-1.3-4.1,1.3-2.6c2.4,1.4,17.4,31.3,17.6,31.7C82.3,51.6,80.6,52.4,79.5,51.3z M108.5,45.7
		c-0.1-0.4-6.3-24.5-5.5-26.9c0.9-2.8,2.6,1,2.7,1.1c0,0,5.2,23.7,5.1,25.8C110.6,47.5,108.9,47.6,108.5,45.7z M148.9,42.9
		c-2.5-1.2,0.3-12.2,3.1-9.5C154,35.3,150.3,41.9,148.9,42.9z M124,37.5L124,37.5c-0.6-1.5-1.7-29.2-1.4-34.8
		c0.1-1.5,0.2-2.4,0.6-2.7l0.2-0.1l0.3,0l0.2,0c0.7,0.3,1.2,2.3,1.3,4.3c0.3,6.1,1,27.3,0.6,32.5C125.6,37.5,124.7,38.6,124,37.5z
		 M117.6,37.8c-3.4-1.1-1.4-12.9,0.8-5.9c0.2,0.5,0.2,1,0.3,1.5C118.9,34.3,119,37.7,117.6,37.8z"/>
	<rect x="39.5" y="42.5" class="st1" width="167.5" height="121.8"/>
	<text transform="matrix(1 0 0 1 90.6582 76.9634)"><tspan x="0" y="0" class="st2 st3 st4">get </tspan><tspan x="-44.9" y="43" class="st2 st3 st4">started </tspan><tspan x="-28.2" y="86" class="st2 st3 st4">today</tspan></text>
	<rect x="37.2" y="185.1" class="st1" width="167.5" height="12.1"/>
	<text transform="matrix(1 0 0 1 73.6084 195.7969)" class="st5 st6 st7 st8">CLICK HERE</text>
</g>
</svg>
