<svg id="Layer_5" data-name="Layer 5" xmlns="http://www.w3.org/2000/svg" viewBox="0 0 248.83 249.3"><defs><style>.cls-1{fill:#e4e4e5;opacity:0.1;}.cls-1,.cls-3,.cls-4,.cls-6{isolation:isolate;}.cls-2{fill:none;}.cls-4,.cls-6{font-size:48px;fill:#0af;font-family:QuestaGrande-Bold, Questa Grande;font-weight:700;}.cls-4{letter-spacing:-0.01em;}.cls-5{letter-spacing:0em;}.cls-7{letter-spacing:-0.02em;}.cls-8{letter-spacing:-0.02em;}</style></defs><title>get-started-slide-out-two</title><path class="cls-1" d="M122.3,249.2h0l-.1-.1-.2-.1c-1.3-2-.5-18.3-.4-20.7.2-9.1.3-20.2.9-21.3l.2-.3.3-.1h.3l.2.1c.5.5.7,2.5.7,3.4.1,8.2.1,31.9-.5,36.7v.1l-.9,2.2ZM86.6,238h0l-.3-1.1c0-3.6,4.9-13.7,5-14.1.7-1.9,2.2-1.4,2,.3s-3.8,12.3-4.6,13.9a3,3,0,0,1-.8.9Zm26-3.8c-.5-.2-.8-.9-.7-2,.2-2.3-.3-5.3.9-7.3l.4-.4.3-.1h.2l.2.1C114.2,224.6,115.7,235.3,112.6,234.2Zm19.8-2.3c-5-8.6-1.4-43.3.5-21.1.2,2.4.4,4.9.6,7.3C133.8,223.1,135.4,228.9,132.4,231.9Zm22.4-1.1-.5-.2c-2-1.3-3.5-8.2-5.4-14.6-.8-2.8-3.3-10.5-3.3-12.4s1.7-1.9,2.3-.2c.2.5,8.4,23.7,7.8,26.4a2.47,2.47,0,0,1-.4.9l-.1.1-.2.1Zm20.5-4.1-.5-.2c-2.2-1.1-5.2-8.2-8.2-14.4-2.8-5.9-5.5-11.6-5.7-12.4-.4-1.9,1.5-2,2.3-.4.3.6,12.9,23.5,12.8,26.2a2.39,2.39,0,0,1-.2.9l-.1.1-.2.1ZM44.9,223.8c-6.8-1.2,10.6-11.9,5.5-5.5C48.6,220.4,47.2,222.5,44.9,223.8Zm37.6-.1-.2-.1-.2-.2-.2-.4a5.43,5.43,0,0,1,0-2.2c.6-2.2,10.1-22.8,11-23.9s2.7-.7,1.9,1.3c-.3.7-9.2,23.5-11.3,25.1l-.7.3h-.3Zm30-8.4a115.21,115.21,0,0,1,1.3-13.3c.1-.7,3.2-8.4,3.2-2.5a62.33,62.33,0,0,1-2,15c-.4,1.7-.2,3.7-1.7,3.7C112.3,217.9,112.5,216.3,112.5,215.3Zm-18.7-2.1a32,32,0,0,1,1.6-3.9c2-4.7,1.5,2.9,1.3,3.5a10.1,10.1,0,0,1-2.6,4.9C92.2,217.7,93.6,213.8,93.8,213.2Zm47.2,3.4c-.3-.7-1.1-1.3-1.3-2a18.43,18.43,0,0,1-.5-2.5,17,17,0,0,1,.1-2.2c.2-5,7.4,6,2.1,6.9C141.3,216.8,141,216.8,141,216.6Zm18.1-.8c-2-1.9-4.6-12.4-5.3-14-.8-2,.8-2.3,1.7-1a113,113,0,0,1,5.6,13.5C161.4,215.2,160.9,217.4,159.1,215.8Zm-56.2.1h-.2l-.2-.2-.3-.4c-1-2.3,1.4-9.5,3.2-16.3,1.7-6.4,2.9-15.3,4.1-16l.1-.1c1.2-.3,1.6.7,1.2,2-.1.4-5.3,28.6-7.2,30.5l-.6.5ZM65,214.2h-.2l-.2-.1-.2-.2-.1-.3a4.55,4.55,0,0,1,.5-2c1-2,13.7-20.2,14.7-21.1.8-.8,1.3-.7,1.6-.3l-.2,1.7C81.1,191.6,67.3,213.9,65,214.2ZM52.2,214l-.1-.1-.1-.2-.1-.1c-.2-.3,0-.8.3-1.3.8-1.5,17.4-22.8,19.4-24.7.1-.1,3.7-2.6,2.9.5-.7,2.4-18.8,23.1-20.2,24.8C53.7,213.7,52.8,214.3,52.2,214Zm128.3-1.8c-.3-.4-5.4-6-3.9-7.2l.1-.1c1.5-.5,7.1,6.8,5.8,8.2l-.1.1-.2.1C181.8,213.4,181.1,213.1,180.5,212.2ZM78,210.8c-3.9-2.2,6.4-11,4-5.4C80.9,207.7,80.3,209.5,78,210.8Zm137-6.4c-1.9-1.2-26-21.6-26.8-22.8-1-1.2.1-2.4,1.6-1.2s26.9,21.3,27.8,23.4l.1.7-.1.3-.1.2-.1.1C216.7,205.4,215.3,204.6,215,204.4Zm-76.3.3a2.21,2.21,0,0,1-1.2-1.3,121.9,121.9,0,0,1-2.8-14.4c0-1,.4-1.4.8-1.4l1.1,1.3C136.4,188.2,142.4,206,138.7,204.7Zm31.7-5.2c-.1-.2-11.4-14.5-9.8-16.3.8-.9,2.5.8,2.7,1,.6.8,10,14.4,9.3,16.2l-.1.1-.2.1-.2.1C171.7,200.9,171,200.5,170.4,199.5Zm25.2.8c-2.1-.7-16.8-17.8-18.1-19.2s-.2-2.5,1.2-1.6c1.2.8,16.9,16.8,18.3,18.6C197.3,198.7,198.1,201.3,195.6,200.3Zm-145.3-2c2.9-4.4,7.7-8.2,11.6-12,2.5-2.4,4.5-4.4,7-6.8,1.1-1,3.3-4,5.4-3.9,1,.1-.5,1.9-.9,2.4-4.8,5.2-9.7,10.4-14.9,15.3-2.6,2.5-5.1,5.2-8.3,6.7C49.5,200.1,49.9,199,50.3,198.3Zm33.3,1.3a2.24,2.24,0,0,1-.1-1.8,106.44,106.44,0,0,1,7.3-12.7c1-1.2,2.6-.7,1.5,1.2C92.4,186.2,85.6,202.9,83.6,199.6Zm99.3.2c-6.5-5.9-11.5-13.2-16.8-19.9-.7-.8-4-4.1-4.1-6-.1-1.6,3,1.4,3.1,1.5,5.9,6.7,11.7,13.5,17.2,20.4.4.5.8,1,1.2,1.6C184.9,199.7,184.6,200.3,182.9,199.8Zm-34.8-10.9c0-.1-.5-3.5,1.1-1.6a14.61,14.61,0,0,1,2.2,3.3,23.29,23.29,0,0,1,1.1,2.8c.6,2.1.8,2.4-.2,2.9C149.8,196.1,148.7,190.7,148.1,188.9ZM34.2,184.6h0l-.1-.1-.1-.2v-.2c.4-2.4,26.4-17.4,27.4-18,.7-.5,1.5-.7,1.9-.4l.1.1.1.2v.1c.1.4-.2.9-.7,1.4-1.2,1.1-23.4,15.4-25.8,16.6C36.7,184.2,34.9,185,34.2,184.6Zm21.2-3.8-.4-.6.6-1.6c1.6-1.6,19.3-15.3,20.6-15.9,1.5-.8,2.5.5.9,1.7-.8.6-17.9,16-20.6,16.5A3.11,3.11,0,0,1,55.4,180.8Zm142.1-.3a32.53,32.53,0,0,1-2.9-2.3C188.6,171.6,207.5,182.9,197.5,180.5Zm14.1-3.1c-2.1-.9-24.6-13.8-25.7-14.8s-.4-2.8,1.5-1.7c.7.4,25.4,12.9,26.7,15.2C215.7,178.7,211.7,177.4,211.6,177.4ZM188.1,174a122.54,122.54,0,0,1-11.9-8.5c-1.1-1.1-.4-2.6,1.4-1.4-.1-.1,15.8,8.4,12.3,10A2.82,2.82,0,0,1,188.1,174ZM37.4,172.4c-3-2.3,12.4-7.3,8.6-3.8A14.75,14.75,0,0,1,37.4,172.4ZM10,171.2h0l-.4-.3-.1-.2v-.3c.1-1.2,4.3-2.9,6.9-4l32.5-12.8c2-.8,2.4,1.1,1.2,1.9s-35.5,15.2-37.8,15.7A4.48,4.48,0,0,1,10,171.2Zm197.1-5.4h0l-10.7-5.7-.9-.7c-.5-.7.2-1.5,1.5-1.2a114.29,114.29,0,0,1,13.4,6C212.8,165.8,210.8,167.5,207.1,165.8ZM63.5,157c4.1-1.5,1.2,1.8-.6,2.7-3.6,1.9-7.1,3.8-10.8,5.4C45.3,164.7,62.6,157.3,63.5,157Zm155,1.7c-1.8-.4-24.5-8.9-26.1-10-2.4-1.6.5-2.2,1.4-1.9.7.3,25.5,8.2,27.3,10.3,1.3,1.5-.2,1.7-1.3,1.7A8.87,8.87,0,0,1,218.5,158.7ZM184.7,155c-1.2-.5-2.2-1.2-3.4-1.8-5.2-4,8.6-.3,8.2,2.2C189.3,157.4,185.6,155.4,184.7,155Zm34.7-5.2c-5.7-2.8,7.9-1.8,8.5.5C228.6,152.8,219.7,149.9,219.4,149.8Zm-175.5.5h0c-.4-1.6,4.3-2.5,6.8-3.3,1.7-.5,8.8-3.1,8.6-.5s-13.3,4.1-13.8,4.2C44.5,151,44.1,150.7,43.9,150.3Zm-19.8-3.5-1.9-.1-1-.8c.1-.9,2.5-1.8,2.5-1.8.6-.1,24.5-4.5,27.6-4.2,2.7.2.7,2.1-.3,2.3C50.7,142.2,30.7,146.5,24.1,146.8Zm178.3-2.6c-1.7-.4-9.2-1.7-7.7-3.9,1.4-2,13.6,3.1,14.1,3.2,1.4.4,1.8,2-.1,1.9A49.18,49.18,0,0,1,202.4,144.2Zm43.3,1.1c-8.6-1-33.4-6.2-38.5-7.2-1.7-.3-1.9-2.2,0-2.3,1.3,0,38.1,6.4,39.6,6.9C249.5,143.7,249.8,145.8,245.7,145.3ZM34.5,134.7c-.8-4.7,43.3-1.9,1.5.5C35.6,134.8,34.6,135.2,34.5,134.7ZM55.8,133h0l-.2-.2-.1-.2v-.3c.4-.9,3.4-1.4,3.7-1.4.6,0,3.9-.3,4.5.3l.1.2v.1C64.1,133.4,57.2,134,55.8,133Zm158.8-1.2c-3.2-.2-6.5-.1-9.7-.4-1.3-.1-2.6-.4-3.9-.5s-2.7-2-1.3-2.1a67.56,67.56,0,0,1,11.9,0,105.57,105.57,0,0,1,15.8,1.5c1.5.3,3.1,1.6.3,1.9C223.3,132.6,218.8,131.9,214.6,131.8ZM.8,125.2c-2.5-1.5,1.5-2.4,1.6-2.4,2.9-.4,40.4.2,42.1.7s1.3,2.2-.5,2.2c-1.1,0-11.4.2-21.7.2C19.9,125.9,2.5,126.2.8,125.2Zm184.4-1.5c-2.1-1,2.1-2.1,4.4-2.3,6.4-.5,12.9-.8,19.4-1.1,2.1-.1,5.4-.4,7.1.5,2.1,1.2-1.2,2.2-1.7,2.2A142.43,142.43,0,0,1,185.2,123.7ZM50.3,119.4c-.2,0-9.8,0-8.2-2.5,1-1.5,6.3-.5,9.2-.2.8.1,8.3.4,8,2.1v.1l-.1.2C58.4,119.9,52.7,119.5,50.3,119.4Zm-20.4-2.8c-1.9-1,2.9-1.9,5-1.3a18,18,0,0,1,2.1.8c2.4,1,0,1.7-.9,1.7A11.67,11.67,0,0,1,29.9,116.6Zm169-.7c-5.1-1.3,12.2-3.4,14.3-3.7a11.5,11.5,0,0,1,3.2-.2c3.3.7,1.9,2-.4,2.8C211.2,116.5,204.1,116.2,198.9,115.9Zm25.1-2.2c-3.6-.9,4.6-2.6,8.2-2.7,1.1-.1,2.6-.3,2.9.8C235.7,114,226.1,113.8,224,113.7Zm-34.6-3.6c-2.5-2.5,16.4-5.5,21-6.5l5.2-1.2c1.4-.3,2.8-.5,4.3-.7,1.2-.2,5.3.4,2.1,1.7-4.7,1.9-10.1,2.6-15.2,3.7-1.7.4-3.4.7-5.2,1.1C197.7,109,193.3,110.6,189.4,110.1ZM26,107.8c-.9-.1-13.1-1.8-13.7-3.5V104l.1-.2c.9-1.5,10.8.8,15.4,1.7,2.3.5,10.6,1.8,12.3,2.6s.9,2.1-.8,1.8C38.2,109.8,32.1,108.9,26,107.8Zm21.8-3C42,103.2,36.1,101.4,35,101c-2.9-1.2-1.1-3,1.7-2.3,5.9,1.3,19.9,6.4,23.6,7.5,2.1.6,1.3,2.1-.2,2C59.4,108,54,106.5,47.8,104.8Zm147.9-4h0v-.1c0-.4.3-.8,1.2-1.2s22-9,24.9-8.7c2.3.2,1.1,2.1.2,2.5-1.5.7-23.3,7.9-24.8,8.1A1.36,1.36,0,0,1,195.7,100.8ZM41.9,93.6c-1.5-.6-2.9-1.1-4.4-1.7-1.1-.4-2.3-.9-3.4-1.3-1.6-.7-4.3-1-3.8-2.7.9-2.9,5,.5,7.8,1.5,7.1,2.4,14.1,5.6,21.1,8.5.4.2.8.3,1.2.5,3,1.3,2.5,1.8.3,2.1C54.3,98.4,48.1,96,41.9,93.6Zm151.5,1h0l-.1-.2v-.2c.1-.4.4-.8,1.2-1.2.2-.1,39.6-19.1,42.9-19.4a1.82,1.82,0,0,1,1.1.2l.2.2v.3l-.1.2a5.23,5.23,0,0,1-1.7,1.6c-2.2,1.3-40.1,18.2-41.8,18.7C194.3,95.1,193.7,95,193.4,94.6Zm-14.2-.2c-.3-.6,1.4-2.1,1.6-2.2,1.3-1,2.6-1.8,3.9-2.7s2.8-1.5,4.2-2.4a11.94,11.94,0,0,1,1.6-.8c3.2-1.7,4.5-.8,1.9,1.4C189.2,90.4,183.5,96.4,179.2,94.4ZM60.1,91.8c-1.8-1-7.7-3.8-7.6-5.2v-.1l.1-.2a1.33,1.33,0,0,1,1.4-.2c1.6.5,10.1,3.8,12.3,5.4.8.6,2.3,2.1,1,2.7C66.6,94.7,64.4,94.1,60.1,91.8Zm15.8-7C74.4,83.6,56.4,70,55.5,68.1c-1.1-2.5,1.5-1.8,2.1-1.4,1.9,1.2,18.9,15.7,19.8,16.9C78.5,84.9,77.4,86.1,75.9,84.8Zm122.2-2.5c.5-.4,1-.7,1.5-1.1a35.42,35.42,0,0,1,3.3-1.9c5.5-2.9-1.6,4-2.9,4.8-.9.6-1.8.5-3,.8C196.1,84.2,197.7,82.6,198.1,82.3Zm-15.3,2.4h0l-.2-.1-.1-.2a1.72,1.72,0,0,1,.6-1.6c1.1-1.2,21.6-17.4,23.9-18.7a5.84,5.84,0,0,1,2.2-.8h.2l.2.1.1.1-.2.2h.3v.1c-.1,2.5-24.3,19.5-25.4,20.3C183.6,84.7,183.1,84.8,182.8,84.7Zm-137.1-1c-1.2-.5-2.2-1.2-3.4-1.8-4.5-4,3.8-.9,5.6-.1a7.35,7.35,0,0,1,2.2,2.1C50.9,85.1,45.8,83.8,45.7,83.7Zm128-2.5h0l-.1-.1a1.26,1.26,0,0,1,.2-1.6c.8-1.1,17.3-16.3,19.2-17.6.5-.4,3.2-1.1,2.1,1.4-.8,2.1-18.3,16.2-19.8,17.5C174.6,81.3,174.1,81.4,173.7,81.2ZM56.8,79.6c-2.2-1.4-32.2-19.8-33.7-21.9a2.26,2.26,0,0,1-.4-.9v-.2l.2-.2.1-.1c.6-.3,2.1.4,2.5.6C27.8,58,56.8,77,58.1,78.2c.5.5.9,1,.8,1.5l-.1.2-.2.1-.1.1A2.64,2.64,0,0,1,56.8,79.6Zm16.5-7.3c-6.1-5.5-12-11.7-17.7-17.7-.8-.9-1.7-1.8-2.5-2.7-1.3-1.4-3.8-3.4-2.1-4.4.7-.4,2.1.9,2.5,1.3,2.2,2.1,4,3.9,6.1,6.1C63.8,59.2,71,65.4,74.3,70.6,75.9,73,75,72.8,73.3,72.3Zm93.4-1.8c-.1.1,8.9-15.5,10.5-12a2.29,2.29,0,0,1-.2,1.8,106.33,106.33,0,0,1-8.9,11.6C166.8,73,165.5,72.1,166.7,70.5ZM83.5,71.6a112.29,112.29,0,0,1-9.3-11.3c-.3-.3-.9-2.3.5-2.3,1,0,2.7,1.5,5.8,5.9,1.4,1.9,4.9,6.5,4.7,7.6v.1l-.1.1-.1.2A1.15,1.15,0,0,1,83.5,71.6Zm58.8-10.7c.5-2.1,1.3-4.2,1.9-6.3.5-1.6.8-3.2,1.3-4.8,3.1-8.9,1.5,5.1.8,7.7-.8,3.2-1.4,6.4-3.6,8.7C140.9,66.3,142.2,61.4,142.3,60.9Zm14,5.3c-3-.4,5.3-14.3,4.5-8.7A16.57,16.57,0,0,1,156.3,66.2Zm24.9-2.6c-.1.2,16.5-20.2,18.8-20.1l.2.1.2.2.1.2v.3a3.86,3.86,0,0,1-.8,2c-1.3,1.8-16.3,18.2-17.4,19C180.6,66.4,180.2,64.7,181.2,63.6Zm-74.8,1.1a22.88,22.88,0,0,1-1-2.3c-.3-.9-.6-1.7-.9-2.6-.2-.7-.3-1.5-.5-2.3s.1-2,1-1.4C107.3,57.7,110.9,68.5,106.4,64.7Zm-13.8-.9c-2-1.3-5.3-11.1-5.9-12.3s.3-2.6,1.5-1.2a94.32,94.32,0,0,1,6.2,11.8C94.7,62.8,94.5,65.1,92.6,63.8Zm37.8-4.4c-.5-3.3.8-25.4.9-26,.5-3.1,2.6-1.8,2.7,1.1.2,6-1.5,20.9-1.7,24.7C132.3,60.6,130.7,61.5,130.4,59.4Zm-10-.1h-.2a1.68,1.68,0,0,1-.8-1.4c-.1-.8-3.6-14.4-1.4-15.9,2.6-1.8,3.2,11.9,3.3,13.4.2,2.3,0,3.5-.5,3.8h-.1ZM95.3,54.7c-.2-.4-10.9-24.6-10.5-27.3.5-3.1,3,1.1,2.9.9.9,1.5,9.6,24.6,9.8,26.2C98.1,57.3,95.7,55.6,95.3,54.7Zm56.9-2.1c.3-.7,9-25.3,11.2-27,2.4-1.9,1.4,2.9,1.5,2.7-.6,2.4-10,24.6-10.8,25.8C152.4,56.3,151.8,53.5,152.2,52.6Zm27.1,2.2c-2.1-2.4,5.9-8.2,5.2-6.3C183.3,51.2,182.6,54.4,179.3,54.8ZM70.2,54.2c-.5-.6-1.2-1.1-1.7-1.8a18.39,18.39,0,0,1-1.7-2.2c-.4-.6-.8-1.3-1.2-2C62,42,77.3,56.9,70.2,54.2Zm91.3-2.7a121.12,121.12,0,0,1,6.4-13.2c1.6-2.4,3.3-.4,1.5,3.3l-6,10.5C162.5,54,161.1,53.1,161.5,51.5Zm-22.7,1.6h-.5c-.4-.2-.5-.8-.6-1.5,0-1.9,4-28.1,4.5-30,.3-1.2.7-2.1,1.2-2.3h.4l.2.1c.4.4.5,1.5.4,2.9-.6,7.1-4,24.8-4.8,29.3a2.1,2.1,0,0,1-.7,1.5Zm-37-1.8c-.9-1.5-4.2-12.2-4.5-14-.5-2.8,2.1-2.6,3.4,1.4l2.8,11.7C104.1,52.2,102.6,52.8,101.8,51.3ZM171,49.8c1-1.7,17.7-29.1,19.4-30.1,2.6-1.4,1.2,2.5,1.2,2.6-.9,2.1-17.9,28-19,29C171.6,52.5,170,51.5,171,49.8ZM79.5,51.3c-1-1-16.2-28.5-17.1-30.6,0,0-1.3-4.1,1.3-2.6,2.4,1.4,17.4,31.3,17.6,31.7C82.3,51.6,80.6,52.4,79.5,51.3Zm29-5.6c-.1-.4-6.3-24.5-5.5-26.9.9-2.8,2.6,1,2.7,1.1s5.2,23.7,5.1,25.8C110.6,47.5,108.9,47.6,108.5,45.7Zm40.4-2.8c-2.5-1.2.3-12.2,3.1-9.5C154,35.3,150.3,41.9,148.9,42.9ZM124,37.5h0c-.6-1.5-1.7-29.2-1.4-34.8.1-1.5.2-2.4.6-2.7l.2-.1h.5c.7.3,1.2,2.3,1.3,4.3.3,6.1,1,27.3.6,32.5C125.6,37.5,124.7,38.6,124,37.5Zm-6.4.3c-3.4-1.1-1.4-12.9.8-5.9a8,8,0,0,1,.3,1.5C118.9,34.3,119,37.7,117.6,37.8Z" transform="translate(0.02 0.1)"/><rect class="cls-2" x="39.52" y="42.6" width="167.5" height="121.8"/><g class="cls-3"><text class="cls-4" transform="translate(90.68 77.06)">g<tspan class="cls-5" x="24.1" y="0">et </tspan></text><text class="cls-6" transform="translate(45.78 120.06)">started </text><text class="cls-6" transform="translate(62.48 163.06)">tod<tspan class="cls-7" x="70.17" y="0">a</tspan><tspan class="cls-8" x="93.74" y="0">y</tspan></text></g><rect class="cls-2" x="37.22" y="185.2" width="167.5" height="12.1"/></svg>