<?xml version="1.0" encoding="utf-8"?>
<!-- Generator: Adobe Illustrator 21.1.0, SVG Export Plug-In . SVG Version: 6.00 Build 0)  -->
<svg version="1.1" id="Layer_1" xmlns="http://www.w3.org/2000/svg" xmlns:xlink="http://www.w3.org/1999/xlink" x="0px" y="0px"
	 viewBox="0 0 236.7 17.1" style="enable-background:new 0 0 236.7 17.1;" xml:space="preserve">
<style type="text/css">
	.st0{fill:#1B1D2D;}
</style>
<g>
	<path class="st0" d="M49.1,4.6v7.7c0,0.7,0.4,1.1,1.1,1.1h0.9V3.7h-0.9C49.5,3.6,49.1,4,49.1,4.6z"/>
	<path class="st0" d="M49.1,1.1v1H50c0.7,0,1.1-0.4,1.1-1.1V0h-0.9C49.5,0.1,49.1,0.5,49.1,1.1z"/>
	<path class="st0" d="M55.5,10.2V0.1h-0.9c-0.7,0-1.1,0.4-1.1,1.1v9.1c0,0.8,0.2,1.4,0.5,1.9c0.3,0.5,0.7,0.9,1.3,1.1
		c0.3,0.2,0.7,0.2,1,0.1c0.4-0.1,0.6-0.4,0.6-0.8v-0.9c-0.4,0-0.7-0.1-1-0.3C55.7,11.1,55.5,10.7,55.5,10.2z"/>
	<path class="st0" d="M65.8,4.4c-1-0.8-2-1.2-3.2-1.2c-1.3,0-2.3,0.4-3.2,1.2c-1,0.8-1.4,1.6-1.4,2.9v2.2c0,1.2,0.5,2.1,1.4,2.9
		c0.9,0.8,1.9,1.2,3.2,1.2c1.1,0,2.2-0.3,3-1.1c0.3,0.5,0.6,0.8,1.1,0.8h0.6v-6C67.3,6.2,66.8,5.2,65.8,4.4z M65.5,9.6
		c0,0.6-0.3,1.1-0.8,1.4c-0.6,0.5-1.3,0.7-2,0.7c-0.8,0-1.4-0.2-2-0.7c-0.6-0.4-0.9-0.9-0.9-1.4V7.3c0-0.6,0.3-1.1,0.8-1.4
		c0.6-0.5,1.3-0.7,2-0.7c0.8,0,1.4,0.2,2,0.7c0.5,0.4,0.8,0.9,0.8,1.4v2.3H65.5z"/>
	<path class="st0" d="M81.3,4.6L81.3,4.6v4.9c0,0.8-0.2,1.3-0.5,1.5c-0.3,0.3-0.8,0.5-1.4,0.5s-1.1-0.2-1.4-0.5
		c-0.4-0.4-0.6-0.9-0.6-1.5v-6h-0.9c-0.7,0-1.1,0.4-1.1,1.1v4.9c0,0.7-0.2,1.2-0.6,1.5c-0.4,0.4-0.9,0.5-1.4,0.5
		c-0.7,0-1.2-0.2-1.4-0.5c-0.2-0.3-0.5-0.9-0.5-1.5v-6h-0.9c-0.7,0-1.1,0.4-1.1,1.1v4.9c0,1.3,0.4,2.2,1.1,2.9
		c0.7,0.8,1.6,1.1,2.9,1.1c1.3,0,2.2-0.4,2.9-1.3c0.8,0.9,1.6,1.3,2.9,1.3c1.3,0,2.1-0.4,2.9-1.1C82.6,12,83,11,83,9.8v-6h-0.9
		C81.6,3.6,81.3,4,81.3,4.6z"/>
	<path class="st0" d="M91.6,4.3l-2.6,7.3l0,0l-2.9-8h-1.3c-0.3,0-0.5,0.1-0.6,0.3s-0.1,0.4,0,0.6l2.9,8c0.2,0.5,0.6,0.8,1.2,1
		l-0.4,1c-0.1,0.2-0.2,0.4-0.5,0.5c-0.2,0.1-0.4,0.2-0.7,0.2v0.8c0,0.5,0.2,0.7,0.6,0.8c0.3,0.1,0.7,0,1-0.1c0.5-0.2,0.9-0.6,1.1-1
		c0.1-0.2,0.2-0.4,0.3-0.7c0.1-0.3,0.2-0.5,0.3-0.8l3.8-10.7l0,0h-1.4C92.2,3.6,91.9,3.9,91.6,4.3z"/>
	<path class="st0" d="M101.6,10.9c-0.1,0.1-0.2,0.2-0.3,0.2c-0.3,0.2-0.6,0.3-1,0.4c-0.5,0.1-1,0.2-1.4,0.1c-0.5,0-1-0.2-1.4-0.4
		c-0.5-0.3-0.7-0.7-0.7-1.1V9.4c0.1,0.1,0.2,0.1,0.3,0.2c0.1,0,0.2,0,0.4,0h2.3c0.5,0,0.9-0.1,1.3-0.2c0.6-0.1,1-0.3,1.3-0.6
		c0.4-0.3,0.6-0.6,0.9-1c0.2-0.5,0.4-1,0.3-1.4c0-0.6-0.2-1.2-0.6-1.6c-0.3-0.4-0.8-0.8-1.3-1.1C100.8,3.1,100,3,99.1,3
		c-0.9,0-1.5,0.2-2.2,0.5c-0.8,0.6-1.4,1.1-1.6,1.6s-0.3,1-0.3,1.4v3.2c0,0.6,0.1,1.2,0.4,1.6c0.3,0.6,0.6,1,1.1,1.3
		c0.4,0.3,0.9,0.5,1.4,0.6c0.4,0.1,1,0.2,1.4,0.2c0.7,0,1.4-0.1,1.9-0.3c0.7-0.2,1.3-0.6,1.6-1c0.3-0.3,0.6-0.7,0.8-1.1l-1-0.5
		C102.3,10.5,102,10.6,101.6,10.9z M97,6.7c0-0.4,0.2-0.7,0.5-1c0.3-0.2,0.6-0.4,1-0.5c0.4-0.1,1-0.1,1.4-0.1
		c0.5,0.1,1.1,0.2,1.4,0.5c0.3,0.2,0.4,0.6,0.4,0.9c-0.3,0.4-0.4,0.7-0.8,0.8c-0.3,0.2-0.6,0.2-1,0.2h-3.1L97,6.7L97,6.7z"/>
	<path class="st0" d="M106.6,4.3c-0.8,0.6-1.2,1.5-1.2,2.6l0,0v5.3c0,0.7,0.4,1.1,1.1,1.1h0.9V7c0-0.5,0.2-0.9,0.5-1.2
		c0.3-0.2,0.6-0.3,1-0.3h0.3c0.7,0,1-0.4,1-1.1V3.6H109C107.8,3.6,107.2,3.9,106.6,4.3z"/>
	<path class="st0" d="M121.1,3.3c-1.1,0-1.9,0.3-2.6,0.9c-0.1,0.1-0.2,0.2-0.4,0.4c-0.2-0.2-0.3-0.3-0.4-0.4
		c-0.7-0.6-1.5-0.9-2.5-0.9c-1.3,0-2.2,0.4-2.9,1.2s-1.1,1.6-1.1,2.9v4.9c0,0.7,0.4,1.1,1.1,1.1h0.9v-6c0-0.7,0.2-1.3,0.5-1.6
		s0.8-0.5,1.4-0.5c0.6,0,1.1,0.2,1.4,0.6c0.4,0.4,0.6,1,0.6,1.5v4.9c0,0.7,0.4,1.1,1.1,1.1h0.9v-6c0-0.7,0.2-1.2,0.6-1.5
		c0.3-0.4,0.8-0.6,1.4-0.6c0.7,0,1.2,0.2,1.4,0.5c0.3,0.4,0.5,0.9,0.5,1.6v4.9c0,0.7,0.4,1.1,1.1,1.1h0.9v-6c0-1.3-0.4-2.2-1.1-2.9
		C123.3,3.7,122.4,3.3,121.1,3.3z"/>
	<path class="st0" d="M134.8,4.4c-1-0.8-2-1.2-3.2-1.2c-1.3,0-2.3,0.4-3.2,1.2c-1,0.8-1.4,1.6-1.4,2.9v2.2c0,1.2,0.5,2.1,1.4,2.9
		c0.9,0.8,1.9,1.2,3.2,1.2c1.1,0,2.2-0.3,3-1.1c0.3,0.5,0.6,0.8,1.1,0.8h0.6v-6C136.2,6.2,135.8,5.2,134.8,4.4z M134.3,9.6
		c0,0.6-0.3,1.1-0.8,1.4c-0.6,0.5-1.3,0.7-2,0.7c-0.8,0-1.4-0.2-2-0.7c-0.5-0.4-0.8-0.9-0.8-1.4V7.3c0-0.6,0.3-1.1,0.8-1.4
		c0.6-0.5,1.3-0.7,2-0.7c0.8,0,1.4,0.2,2,0.7c0.5,0.4,0.8,0.9,0.8,1.4V9.6z"/>
	<path class="st0" d="M139.5,4.3c-0.8,0.6-1.2,1.5-1.2,2.6v5.3c0,0.7,0.4,1.1,1.1,1.1h0.9V7c0-0.5,0.2-0.9,0.5-1.2
		c0.3-0.2,0.6-0.3,1-0.3h0.3c0.7,0,1-0.4,1-1.1V3.6h-1.3C140.9,3.6,140.1,3.9,139.5,4.3z"/>
	<path class="st0" d="M149.9,7.9c0.1-0.1,0.3-0.3,0.4-0.6l2.3-3.8H151c-0.5,0-0.9,0.2-1.2,0.7l-1.6,3c-0.2,0.4-0.6,0.4-1,0.4h-0.7
		V0.1h-0.9c-0.7,0-1.1,0.4-1.1,1.1l0,0v11.1c0,0.7,0.4,1.1,1.1,1.1h0.9V9.7h2.1c0.5,0,0.9,0.3,1.1,0.8l1.1,2.4
		c0.2,0.4,0.6,0.6,1.2,0.6h1.3l-1.6-3.8C151.1,8.8,150.6,8.1,149.9,7.9z"/>
	<path class="st0" d="M160.8,10.9c-0.1,0.1-0.2,0.2-0.3,0.2c-0.3,0.2-0.6,0.3-1,0.4c-0.5,0.1-1,0.2-1.4,0.1c-0.5,0-1-0.2-1.4-0.4
		c-0.5-0.3-0.7-0.7-0.7-1.1V9.4c0.1,0.1,0.2,0.1,0.3,0.2c0.1,0,0.2,0,0.4,0h2.3c0.5,0,0.9-0.1,1.3-0.2c0.5-0.1,0.9-0.3,1.2-0.6
		c0.4-0.3,0.6-0.6,0.9-1c0.2-0.5,0.4-1,0.3-1.4c0-0.6-0.2-1.2-0.6-1.6c-0.3-0.4-0.8-0.8-1.3-1.1c-0.8-0.4-1.6-0.5-2.6-0.5
		s-1.5,0.2-2.2,0.5c-0.7,0.6-1.3,1.1-1.5,1.6s-0.3,1-0.3,1.4v3.2c0,0.6,0.1,1.2,0.4,1.6c0.3,0.6,0.6,1,1.1,1.3
		c0.4,0.3,0.9,0.5,1.4,0.6c0.4,0.1,1,0.2,1.5,0.2c0.7,0,1.4-0.1,1.9-0.3c0.7-0.2,1.3-0.6,1.6-1c0.3-0.3,0.6-0.7,0.8-1.1l-1-0.5
		C161.4,10.5,161,10.6,160.8,10.9z M156.2,6.7c0-0.4,0.2-0.7,0.5-1c0.3-0.2,0.6-0.4,1-0.5c0.4-0.1,1-0.1,1.4-0.1
		c0.5,0.1,1.1,0.2,1.4,0.5c0.3,0.2,0.4,0.6,0.4,0.9c-0.1,0.4-0.2,0.7-0.6,0.8c-0.3,0.2-0.6,0.2-1,0.2h-3.2L156.2,6.7L156.2,6.7z"/>
	<path class="st0" d="M166.6,0.1h-0.8c-0.7,0-1.1,0.4-1.1,1.1v9.1c0,0.8,0.2,1.4,0.5,1.9c0.3,0.5,0.7,0.9,1.3,1.1
		c0.4,0.2,0.7,0.2,1,0.1c0.4-0.1,0.6-0.4,0.6-0.8v-0.9c-0.4,0-0.7-0.1-0.9-0.3c-0.3-0.3-0.5-0.7-0.5-1.2V5.6h1.3
		c0.7,0,1.1-0.4,1.1-1.1V3.7h-2.3V0.1H166.6z"/>
	<path class="st0" d="M170.5,4.6v7.7c0,0.7,0.4,1.1,1.1,1.1h0.9V3.7h-0.9C170.9,3.6,170.5,4,170.5,4.6z"/>
	<path class="st0" d="M170.5,1.1v1h0.9c0.7,0,1.1-0.4,1.1-1.1V0h-0.9C170.9,0.1,170.5,0.5,170.5,1.1z"/>
	<path class="st0" d="M179.3,3.3c-1.2,0-2.2,0.4-3.1,1.1c-1,0.8-1.4,1.6-1.4,2.8v5.1c0,0.7,0.4,1.1,1.1,1.1h0.9V7.1
		c0-0.5,0.2-1,0.7-1.4c0.5-0.4,1.2-0.7,1.8-0.7c0.8,0,1.4,0.2,1.8,0.7c0.5,0.4,0.7,0.8,0.7,1.4v5.1c0,0.7,0.4,1.1,1.1,1.1h0.9V7.1
		c0-1.1-0.5-2-1.4-2.8C181.4,3.7,180.4,3.3,179.3,3.3z"/>
	<path class="st0" d="M193.5,4.4c-1-0.8-2-1.2-3.2-1.2c-1.3,0-2.3,0.4-3.2,1.2c-1,0.8-1.4,1.6-1.4,2.9v2.2c0,1.2,0.5,2.1,1.4,2.9
		c0.9,0.8,1.9,1.2,3.2,1.2c1.1,0,1.9-0.3,2.7-0.8v0.4c0,0.9-0.5,1.4-1.4,1.6c-0.5,0.1-1.1,0.2-1.6,0.2c-0.7,0-1.3-0.1-1.6-0.3
		l-0.2,0.8c-0.1,0.4-0.1,0.6,0,0.8c0.2,0.2,0.5,0.4,0.9,0.5c0.5,0.1,1,0.2,1.5,0.2c0.6,0,1.2-0.1,1.6-0.2c1-0.3,1.9-1,2.4-1.9
		c0.3-0.5,0.4-1.1,0.4-1.6V7.3C194.8,6.2,194.3,5.2,193.5,4.4z M193,9.6c0,0.6-0.3,1.1-0.8,1.4c-0.6,0.5-1.3,0.7-2,0.7
		c-0.8,0-1.4-0.2-2-0.7c-0.5-0.4-0.8-0.9-0.8-1.4V7.3c0-0.6,0.3-1.1,0.8-1.4c0.6-0.5,1.3-0.7,2-0.7c0.8,0,1.4,0.2,2,0.7
		c0.5,0.4,0.8,0.9,0.8,1.4V9.6z"/>
	<path class="st0" d="M197.1,12.2v1.2h0.9c0.7,0,1.1-0.4,1.1-1.1V11h-0.9C197.5,11.1,197.1,11.4,197.1,12.2z"/>
	<path class="st0" d="M203.8,5.9c0.5-0.4,1.2-0.7,1.8-0.7c0.8,0,1.4,0.2,1.8,0.7c0.1,0.1,0.1,0.1,0.3,0.3c0.4,0.4,0.8,0.5,1.3,0.2
		l0.9-0.5c-0.2-0.6-0.6-1.1-1.2-1.5c-0.9-0.8-1.9-1.1-3.1-1.1s-2.2,0.4-3.1,1.1c-1,0.8-1.4,1.6-1.4,2.8v2.6c0,1.1,0.5,2,1.4,2.8
		c0.9,0.7,1.8,1.1,3.1,1.1s2.2-0.4,3.1-1.1c0.5-0.5,0.9-1,1.2-1.5l-0.9-0.5c-0.5-0.3-1-0.2-1.3,0.2c-0.1,0.1-0.2,0.2-0.3,0.3
		c-0.5,0.4-1.2,0.6-1.8,0.6c-0.8,0-1.4-0.2-1.8-0.6c-0.5-0.4-0.7-0.8-0.7-1.4V7C203.2,6.7,203.4,6.3,203.8,5.9z"/>
	<path class="st0" d="M219.3,4.4c-1-0.8-2-1.2-3.2-1.2c-1.3,0-2.3,0.4-3.2,1.2c-1,0.8-1.4,1.6-1.4,2.9v2.2c0,1.2,0.5,2.1,1.4,2.9
		c0.9,0.8,1.9,1.2,3.2,1.2c1.3,0,2.3-0.4,3.2-1.2c1-0.8,1.4-1.6,1.4-2.9V7.3C220.6,6.2,220.1,5.2,219.3,4.4z M218.8,9.6
		c0,0.6-0.3,1.1-0.8,1.4c-0.6,0.5-1.3,0.7-2,0.7c-0.8,0-1.4-0.2-2-0.7c-0.5-0.4-0.8-0.9-0.8-1.4V7.3c0-0.6,0.3-1.1,0.8-1.4
		c0.6-0.5,1.3-0.7,2-0.7c0.8,0,1.4,0.2,2,0.7c0.5,0.4,0.8,0.9,0.8,1.4V9.6z"/>
	<path class="st0" d="M235.3,4.3c-0.7-0.8-1.6-1.2-2.9-1.2c-1.1,0-1.9,0.3-2.6,0.9c-0.1,0.1-0.2,0.2-0.4,0.4
		c-0.2-0.2-0.3-0.3-0.4-0.4c-0.7-0.6-1.5-0.9-2.5-0.9c-1.3,0-2.2,0.4-2.9,1.2c-0.7,0.8-1.1,1.6-1.1,2.9v4.9c0,0.7,0.4,1.1,1.1,1.1
		h0.9v-6c0-0.7,0.2-1.3,0.5-1.6c0.3-0.3,0.8-0.5,1.4-0.5c0.6,0,1.1,0.2,1.4,0.6c0.4,0.4,0.6,1,0.6,1.5v4.9c0,0.7,0.4,1.1,1.1,1.1
		h0.9v-6c0-0.7,0.2-1.2,0.6-1.5c0.3-0.4,0.8-0.6,1.4-0.6s1.2,0.2,1.4,0.5c0.3,0.4,0.5,0.9,0.5,1.6v4.9c0,0.7,0.4,1.1,1.1,1.1h0.9v-6
		C236.2,6.1,235.9,5.1,235.3,4.3z"/>
	<path class="st0" d="M2.8,7.8c-0.6-0.4-1-0.6-1-1.4c0-0.7,0.4-0.9,1-0.9c1,0,1.1,0.9,1.1,1.6h1.6c0-1,0.1-3.1-2.7-3.1
		C1,4.2,0.1,4.9,0.1,6.7c0,0.5,0.2,1,0.5,1.4c0.7,1,1.8,1.4,2.8,2.1c0.5,0.3,0.7,0.7,0.7,1.2c0,0.7-0.4,1.1-1.1,1.1
		c-0.9,0-1.2-0.7-1.1-1.5v-0.6H0v0.7c0,1.6,0.8,2.8,2.8,2.8c1.6,0,2.9-1,2.9-2.7c0-0.8-0.2-1.4-0.8-1.9C4.4,8.9,3.4,8,2.8,7.8z"/>
	<rect x="7.7" y="4.4" class="st0" width="1.6" height="9.4"/>
	<polygon class="st0" points="11,5.8 13,5.8 13,13.7 14.7,13.7 14.7,5.8 16.8,5.8 16.8,4.4 11,4.4 	"/>
	<polygon class="st0" points="18.2,13.7 23.3,13.7 23.3,12.4 20.1,12.4 20.1,9.5 23,9.5 23,8 20.1,8 20.1,5.8 23.3,5.8 23.3,4.4 
		18.2,4.4 	"/>
	<path class="st0" d="M32.8,8.8L32.8,8.8c1-0.4,1.2-1.2,1.2-2s-0.1-1.2-0.5-1.6c-0.5-0.7-1.3-0.7-2-0.7h-2.8v9.4h3.1
		c1.3,0,1.9-0.5,2.3-1.6c0.1-0.4,0.1-0.8,0.1-1.2C34.1,9.8,33.7,8.9,32.8,8.8z M30.4,5.8h0.8c0.8,0,1,0.4,1,1.1c0,0.5,0,0.8-0.2,1
		c-0.3,0.4-0.9,0.3-1.3,0.3h-0.3C30.4,8.1,30.4,5.8,30.4,5.8z M31.9,12.3c-0.3,0.1-0.7,0.1-1.1,0.1l0,0h-0.4V9.6H31
		c1.1,0,1.3,0.4,1.3,1.4C32.4,11.4,32.3,12.1,31.9,12.3z"/>
	<path class="st0" d="M39.4,6.6c-0.2,0.5-0.5,1.1-0.6,1.6l0,0c-0.1-0.5-0.2-1-0.4-1.4l-1-2.4h-1.9l2.4,5.4v4h1.6V9.9L42,4.5h-1.9
		L39.4,6.6z"/>
</g>
</svg>
