<svg id="Layer_1" data-name="Layer 1" xmlns="http://www.w3.org/2000/svg" viewBox="0 0 321.15 93.5"><defs><style>.cls-1{fill:#fff;}.cls-2{fill:#003a78;}.cls-3{fill:none;stroke:#00abda;stroke-miterlimit:10;stroke-width:1.1px;}.cls-4{fill:#00abda;}.cls-5{fill:#2b97d3;}</style></defs><title>logo-two</title><circle class="cls-1" cx="46.75" cy="46.75" r="46.2"/><circle class="cls-2" cx="46.75" cy="46.75" r="42"/><circle class="cls-3" cx="46.75" cy="46.75" r="46.2"/><path class="cls-4" d="M62.4,35.6c-.7-8.9-7.9-11.2-16.3-11.2s-14.7,3.3-14.7,9.1c0,6.7,6.3,8.3,18.9,10.4,9.4,1.6,18.9,3.8,18.9,13.7C69.3,70.5,57.8,74,47.7,74,34.6,74,25,69.5,24.2,55.5h5.4C30.5,66.4,37.8,69,47.7,69c7.8,0,15.8-2.1,15.8-10.3,0-7.9-9.4-8.9-18.9-10.4-12.3-2-18.9-5.4-18.9-13.8,0-11.3,10.5-15,20.5-15,10.6,0,21.3,3.8,21.6,16.1Z" transform="translate(-0.05 -0.05)"/><path class="cls-5" d="M116.1,29.6V13.1h-7.8V10.4h18.8v2.7h-7.8V29.6Z" transform="translate(-0.05 -0.05)"/><path class="cls-5" d="M145.7,29.6V20.5H133.2v9.1h-3.1V10.4h3.1V18h12.5V10.3h3.1V29.5h-3.1Z" transform="translate(-0.05 -0.05)"/><path class="cls-5" d="M153.8,29.6V10.4h16.7v2.7H157v5.4h12.7v2.7H157V27h13.8v2.7h-17Z" transform="translate(-0.05 -0.05)"/><path class="cls-5" d="M124.4,44.2a2.69,2.69,0,0,0-1.3-2.4,7,7,0,0,0-4.4-1.2c-3.3,0-5.5,1.2-5.5,3a2.16,2.16,0,0,0,1.3,1.9,10.64,10.64,0,0,0,3.2.9l4.2.7c2.2.4,3.4.7,4.4,1.4a4.42,4.42,0,0,1,1.9,3.7,5.49,5.49,0,0,1-3.1,4.8,11.61,11.61,0,0,1-6,1.3c-3.9,0-6.7-.9-8.1-2.6a6.29,6.29,0,0,1-1.5-4.4h3.3a3.48,3.48,0,0,0,1.2,3c1.1,1,2.9,1.5,5.3,1.5,3.5,0,5.7-1.3,5.7-3.3,0-1.4-1.1-2.2-3.7-2.6l-3.9-.6a16.63,16.63,0,0,1-4.6-1.2,4.65,4.65,0,0,1-2.7-4.2c0-3.6,3.3-5.8,8.6-5.8,2.8,0,5,.5,6.4,1.5s2.1,2.2,2.3,4.6Z" transform="translate(-0.05 -0.05)"/><path class="cls-5" d="M152.8,50.2c-1,5.3-4.6,8.1-10.4,8.1-6.7,0-10.9-3.9-10.9-10.1s4.2-10.1,11-10.1c3.3,0,6,.9,7.8,2.7a7.87,7.87,0,0,1,2.4,4.7h-3.2c-.7-3.1-3.2-4.9-7-4.9-4.7,0-7.8,3-7.8,7.6s3.2,7.6,7.8,7.6a7.82,7.82,0,0,0,5.9-2.4,6.33,6.33,0,0,0,1.3-3.1h3.1Z" transform="translate(-0.05 -0.05)"/><path class="cls-5" d="M172.4,57.8V48.7H159.9v9.1h-3.1V38.6h3.1v7.7h12.5V38.6h3.1V57.8Z" transform="translate(-0.05 -0.05)"/><path class="cls-5" d="M180.5,57.8V38.6h3.1V55.1h12.7v2.7Z" transform="translate(-0.05 -0.05)"/><path class="cls-5" d="M199.6,57.8V38.6h16.7v2.7H202.8v5.4h12.7v2.7H202.8v5.8h13.8v2.7h-17Z" transform="translate(-0.05 -0.05)"/><path class="cls-5" d="M242.8,57.8V42l-8.2,15.8h-2.8l-8-15.8V57.8h-3.1V38.6h4.5l8.1,16.3,8.3-16.3H246V57.8Z" transform="translate(-0.05 -0.05)"/><path class="cls-5" d="M273.1,57.8V42l-8.2,15.8h-2.8l-8-15.8V57.8H251V38.6h4.5l8.1,16.3,8.3-16.3h4.4V57.8Z" transform="translate(-0.05 -0.05)"/><path class="cls-5" d="M281.2,57.8V38.6h16.7v2.7H284.4v5.4h12.7v2.7H284.4v5.8h13.8v2.7h-17Z" transform="translate(-0.05 -0.05)"/><path class="cls-5" d="M305.3,57.8h-3.1V38.6h11.2c4.5,0,6.8,1.8,6.8,5.4,0,2.1-.8,3.3-2.9,4.5,2.1,1,2.5,1.8,2.7,6.2.1,2.2.3,2.6,1.2,2.5v.6h-3.9a18.19,18.19,0,0,1-.5-3.8c-.2-3.2-1.1-4.2-4-4.3h-7.5v8.1Zm7.8-10.6a4.42,4.42,0,0,0,2.6-.5,3.25,3.25,0,0,0,0-5.2,5.68,5.68,0,0,0-2.6-.5h-7.8v6.1h7.8Z" transform="translate(-0.05 -0.05)"/><path class="cls-5" d="M110.6,86V66.8h15.8v2.7H113.7v5.4h11.1v2.7H113.7V86Z" transform="translate(-0.05 -0.05)"/><path class="cls-5" d="M129.5,86V66.8h3.1V86Z" transform="translate(-0.05 -0.05)"/><path class="cls-5" d="M140.8,86h-3.1V66.8h11.2c4.5,0,6.8,1.8,6.8,5.4,0,2.1-.8,3.3-2.9,4.5,2.1,1,2.5,1.8,2.7,6.2.1,2.2.3,2.6,1.2,2.5V86h-3.9a18.19,18.19,0,0,1-.5-3.8c-.2-3.2-1.1-4.2-4-4.3h-7.5Zm7.8-10.6a4.42,4.42,0,0,0,2.6-.5,3.25,3.25,0,0,0,0-5.2,5.68,5.68,0,0,0-2.6-.5h-7.8v6.1h7.8Z" transform="translate(-0.05 -0.05)"/><path class="cls-5" d="M183,86V70.2L174.8,86H172l-8-15.8V86h-3.1V66.8h4.5l8.1,16.3,8.3-16.3h4.4V86Z" transform="translate(-0.05 -0.05)"/><path class="cls-5" d="M199.3,86V74.5h1.9v9.9h7.6V86Z" transform="translate(-0.05 -0.05)"/><path class="cls-5" d="M210.7,86V74.5h1.9v9.9h7.6V86Z" transform="translate(-0.05 -0.05)"/><path class="cls-5" d="M234.1,81.5c-.6,3.2-2.8,4.8-6.3,4.8-4,0-6.5-2.3-6.5-6.1s2.5-6.1,6.6-6.1a6.84,6.84,0,0,1,4.7,1.6,4.43,4.43,0,0,1,1.4,2.8h-2c-.4-1.9-1.9-2.9-4.2-2.9a4.55,4.55,0,1,0,0,9.1,4.26,4.26,0,0,0,3.5-1.5,4.19,4.19,0,0,0,.8-1.9h2Z" transform="translate(-0.05 -0.05)"/></svg>