<svg id="bridge" data-name="Layer 1" xmlns="http://www.w3.org/2000/svg" viewBox="0 0 443.4 213.6"><defs><style>.bridge-{fill:#e0e0e0;}</style></defs><title>request-bridge-graphic</title><path class="bridge-" d="M208,11.5c1,2.4-.1,9.2,1,10.6a36.79,36.79,0,0,0,4.4-2.3c1.2-.8,2.4-1.6,3.5-2.4,1.5-1.1,3.6-2.7,5.5-2.8h1l-.1,20.3H211.5a28.1,28.1,0,0,1,.1,2.9h24a28.1,28.1,0,0,1,.1-2.9H224.4V0H224l-.2,1.6h-.1a65.17,65.17,0,0,0-7.2,4.3c-.6.5-1.2.9-1.8,1.4-.4.4-.9.8-1.3,1.2a14.4,14.4,0,0,1-5.4,3ZM230.1,132h3.3l.1-1.3h-1.9v-.1a48,48,0,0,1,.9-7.5,47.74,47.74,0,0,1,8.3-18.8,49.58,49.58,0,0,1,8.6-9.1l.1-.1.1.1a18.6,18.6,0,0,1,2.8,2.1c1.2,1,2.2,2.1,3.3,3.2a59.05,59.05,0,0,1,6.8,9c3.1,5,5.7,10.9,6.4,16.8.1,1.1.2,2.1.3,3.2,0,.5.1.9.1,1.4v.3l.7-1h.1a14.77,14.77,0,0,0,2.1-.1h.1V130c-.2-4.3-.3-8.8-1.4-13a27.59,27.59,0,0,0-.8-2.7v-.1l-.9-2.4a1.42,1.42,0,0,1-.2-.6,64.2,64.2,0,0,0-3.3-6.4h0a51.22,51.22,0,0,0-4.9-6.6c-1.4-1.6-2.9-3.2-4.5-4.7a31.91,31.91,0,0,0-5-3.9h-.2a67.1,67.1,0,0,0-15.6,18.7,56.3,56.3,0,0,0-3.6,7.9,28.51,28.51,0,0,0-1.4,5h0c-.3,1.2-.4,2.4-.7,3.6h0q.3,3.6.3,7.2Zm-16.2-2.2h0v.6h-2l-.1,1.3h3.6v-.2h0v-.9h0v-.1a42.24,42.24,0,0,0-2.1-12.7,22.5,22.5,0,0,0-.8-2.4c-.3-.9-.7-1.7-1-2.6h0c-.5-1.1-1-2.2-1.6-3.3a11.78,11.78,0,0,0-1.1-1.9l-.1-.2c-.9-1.6-2-3.2-3.1-4.8l-.1-.2c-.4-.6-.8-1.1-1.2-1.6l-2.4-3c-.4-.5-.9-1-1.3-1.5a63.14,63.14,0,0,0-7-6.7,28.83,28.83,0,0,0-3.9,3c-.9.8-1.7,1.6-2.6,2.4l-1.2,1.2c-.6.7-1.2,1.3-1.8,2a53.73,53.73,0,0,0-3.5,4.5c-.5.7-1,1.4-1.4,2.1h0a66.27,66.27,0,0,0-3.1,5.9c-.1.2-.1.3-.2.5-.4,1-.8,1.9-1.1,2.9v.1a1.85,1.85,0,0,0-.2.7c-.1.2-.1.5-.2.7a18470398700913.7,18470398700913.7,0,0,0-.4,1.4,51.81,51.81,0,0,0-1.4,13v.1h2.3l.7.9v-.3a6.6,6.6,0,0,1,.1-1.4c.1-1,.2-2.1.3-3.1.6-5.9,3.3-11.8,6.4-16.8a60.69,60.69,0,0,1,6.8-9,33.41,33.41,0,0,1,3.3-3.2,31.55,31.55,0,0,1,2.9-2.2,52.34,52.34,0,0,1,13.1,15.7c2.6,5.6,5.1,12.7,5.4,19.1Zm-47.5-11.4v.2h0l.1,1.2.8,10.4-.2,4.4-1.8,54.5,1.2,10.7-.1,7.9h-2.5l.1-9h0l-1.3-9.7,2.2-58.6h0l-.8-12.3,2.3-52.2,2,5.1-2,47.4Zm25.7-34,1.8,1.8.1.1.1-.1,1.7-1.8V81h-3.6v3.4Zm23.8,26.3v3.5l-2.7.7v-.1a10.84,10.84,0,0,0-.8-1.9v-.1l3.1-.9c-.1-.2-.1-.5-.2-.7l-3.2.9V112a11.94,11.94,0,0,0-.8-1.6v-.1l3.4-1.1c-.1-.2-.2-.5-.3-.7l-3.4,1.2v-.1c-.3-.6-.6-1.1-.9-1.7a36.46,36.46,0,0,1,3.5-1.4l-.3-.7-3.6,1.4-.9-1.5-.1-.2,3.5-1.8-.4-.7-3.5,1.8v-.1c-.3-.5-.7-1.1-1-1.6l-.1-.1,3.4-2c-.1-.2-.3-.4-.4-.6l-3.5,2-.2-.2a6.42,6.42,0,0,0-1-1.3l-.1-.1,3.4-2.2c-.1-.2-.3-.4-.4-.6l-3.4,2.2-.1-.1-1.2-1.5-.1-.1,3.5-2.3-.5-.6-3.5,2.3-.1-.1a1.79,1.79,0,0,1-.5-.7c-.3-.3-.5-.6-.8-.9l3.3-2.4.1-.1c-.1-.2-.3-.3-.4-.5l-3.5,2.5c-.5-.5-.9-1.1-1.4-1.6l-.1-.1,3.4-2.6c-.1-.2-.3-.3-.4-.5l-3.3,2.6-.1-.1a15.93,15.93,0,0,0-1.3-1.3l3.1-2.7c-.2-.2-.4-.3-.5-.5l-3.1,2.7c-.5-.4-.9-.9-1.4-1.3l2.9-2.8c-.2-.2-.4-.3-.6-.5a38.33,38.33,0,0,0-2.9,2.8,17.41,17.41,0,0,1-1.4-1.2l2.6-2.8c-.2-.1-.4-.3-.6-.4l-2.6,2.7L191.1,85a2.09,2.09,0,0,0-.6.4l2.5,3.2c-.5.4-1.1.7-1.6,1.1l-2.9-3.2-.6.4,2.9,3.1-.1.1a15,15,0,0,0-1.3,1.1l-.1.1-3.2-3.1c-.2.2-.4.3-.6.5l3.2,3.2a16.61,16.61,0,0,0-1.4,1.3l-3.5-3.1c-.2.2-.4.3-.6.5l3.5,3.1a9.27,9.27,0,0,0-1.4,1.4l-3.6-2.9c-.2.2-.3.4-.5.5l1.8,1.5c.3.3.7.5,1,.8a5.72,5.72,0,0,1,.8.7c-.4.5-.9,1-1.3,1.5l-3.8-2.8c-.2.2-.3.4-.5.6l3.9,2.8-1.2,1.5-.1.1-1.6-1-2.4-1.6c-.2.2-.3.4-.5.6l4,2.7-.1.1c-.4.5-.7,1-1.1,1.5l-.1.1-4-2.6-.1.1c-.1.2-.2.3-.3.5l-.1.1,4,2.6-.1.1c-.3.5-.7,1-1,1.5v.1l-4-2.4v.1c-.1.2-.2.3-.3.5v.1l4,2.5v.1c-.3.5-.6,1.1-.9,1.6v.1l-4.2-2.2a4.88,4.88,0,0,0-.3.7l4.2,2.2v.1c-.3.5-.5,1-.8,1.5v.1l-4.3-1.8c-.1.2-.2.5-.3.7l4.3,1.8v.1c-.2.5-.5,1-.7,1.5v.1l-4.3-1.5c-.1.2-.2.5-.3.7l4.2,1.5h.1v.1c-.2.5-.4,1-.6,1.6v.1l-4.4-1.3a1.85,1.85,0,0,0-.2.7l4.4,1.3v.1c0,.1-.1.2-.1.3s-.1.4-.2.6-.1.4-.2.6-.1.2-.1.3v.1l-4.4-1.2c-.1.2-.1.5-.2.7l4.3,1.2v.1a14.16,14.16,0,0,0-.4,2v.1l-4.3-1c-.1.3-.1.5-.2.8l4.4.9v.1c-.1.7-.2,1.4-.3,2v.1l-4.4-.9-.1.6,4.5.8v.1a10.87,10.87,0,0,0-.1,1.8v.1c-1.4-.1-2.9-.3-4.3-.4l-.5-5.7h0v-.1l2.3-47.4h47.5c-.7,12.8-.9,26-1.3,39.2ZM167.7,125l.2,1.9v.1l3.9.2v-.1c0-.5.1-1.1.1-1.6v-.1h-.1c-1.4-.2-2.8-.3-4.1-.4Zm48.6,3.5c0-17.2.9-41.9,2.2-63.9h10.4V73l.3,55.2c.1,20.7.2,41.3.3,62l1.5,9.9v7.3l-16.7.1.2-7.7,1.6-10,.2-61.3Zm-1.1,61.3c0-18.2.1-36.4.1-54.6h-1.4v.1l.1,61.9,1.2-7.4Zm-42.3,18c.5-23.5.3-47.1,2-70.4l-2-3.1h-5l-1.7,54.8,1.2,10.7-.1,7.9c2,0,3.6,0,5.6.1Zm41.2-90.2h0c-.2-.7-.4-1.3-.6-1.9v-.1l2.4-.6-.1,2.3h-.1l-1.5.3Zm-18.9-36v2.6L194,85.5l-1.3-1.3V81.6Zm18,53h2.1v-2h-3L212,134l1.2,2.1v-1.5Zm-39.9-1H168v-2.1h6.3l3,4.5-1.9.9-2.1-3.3Zm42.4-12.4-.1,3.9c-.2-1.3-.3-2.4-.6-3.7v-.1l.7-.1Zm-1.3-2.8a5,5,0,0,1,1.2-.2h.1l-.1,2.3-.8.1v-.1c-.2-.7-.3-1.3-.5-1.9l.1-.2Zm-42.7,9.7h0l-3.8-.3.2,2.3H168l3.7.1v-2.1Zm105-6.1c0-.2-.1-.5-.1-.7l-3.8.9-.3-2.1,4.5-.9c-.1-.3-.1-.6-.2-.9l-4.5,1.1c-.1-.7-.3-1.4-.4-2.1l4.4-1.2c-.1-.2-.1-.5-.2-.7l-4.4,1.2c-.2-.7-.4-1.4-.6-2v-.1l4.4-1.3v-.1c-.1-.2-.1-.4-.2-.5v-.1l-4.4,1.3v-.1c-.2-.6-.4-1.1-.6-1.7l4.4-1.6v-.1c-.1-.2-.1-.3-.2-.5v-.1l-4.4,1.6a13,13,0,0,0-.8-1.7l3.3-1.5,1-.4v-.1a1.69,1.69,0,0,1-.2-.5V107l-.9.4-3.4,1.4c-.3-.5-.5-1.1-.8-1.6l4.2-2.2v-.1c-.1-.2-.2-.3-.3-.5v-.1l-4.2,2.2c-.3-.6-.7-1.2-1-1.8l4.1-2.5v-.1c-.1-.2-.2-.3-.3-.5v-.1l-4.1,2.5a16.29,16.29,0,0,0-1.1-1.7l4-2.6-.1-.1c-.1-.2-.2-.3-.3-.5l-.1-.1-4,2.6c-.4-.6-.8-1.1-1.2-1.7l4-2.7a2.65,2.65,0,0,0-.5-.6l-2.5,1.7-1.6,1L262,97.7l3.9-2.9c-.2-.2-.3-.4-.5-.6l-3.9,2.9-1.3-1.4c1.2-1,2.5-2,3.7-3l-.5-.5-3.7,2.9-1.4-1.4,3.5-3.1c-.2-.2-.4-.3-.6-.5l-3.5,3.1c-.4-.4-.9-.8-1.4-1.3l3.3-3.2c-.2-.2-.4-.3-.6-.5l-3.3,3.1c-.5-.4-.9-.8-1.4-1.2l-.1-.1,3-3.2c-.2-.1-.4-.3-.6-.4l-2.9,3.2c-.5-.4-1.1-.7-1.6-1.1l2.6-3.3-.1-.1c-.2-.1-.3-.2-.5-.3H254l-2.4,3.1-2.9-3.1a2.65,2.65,0,0,0-.6.5l2.9,3.2a17.41,17.41,0,0,0-1.4,1.2c-1.1-1-2.1-2-3.2-3-.2.2-.4.3-.6.5l3.2,3-.1.1c-.4.4-.9.8-1.3,1.2l-3.3-2.9c-.2.2-.4.3-.5.5l3.3,2.9-1.4,1.4-3.4-2.7c-.2.2-.3.4-.5.6l3.4,2.7c-.4.5-.9.9-1.3,1.4l-.1.1L240.3,93c-.2.2-.3.4-.5.6,1.1.8,2.3,1.6,3.4,2.5l.1.1-.1.1L242,97.8l-.1.1-3.6-2.4c-.2.2-.3.4-.5.6l3.6,2.3-.1.1-1.2,1.5-3.6-2.3c-.1.2-.3.4-.4.6l3.6,2.3-.1.1c-.4.5-.7,1-1.1,1.5v.1l-3.6-2.1-.4.6,3.6,2.1a17.39,17.39,0,0,0-1.1,1.8l-3.6-1.8-.4.6,3.6,1.8c-.3.6-.7,1.1-1,1.7l-3.6-1.5-.3.8c1.2.5,2.4.9,3.6,1.4-.3.6-.6,1.2-.9,1.7l-3.4-1.2c-.1.2-.2.5-.3.7L234,110v.1c-.3.5-.5,1.1-.8,1.6v.1l-3-.8V99.6h0V71.1H276l1.9,48.3-.1,1.2c-.3,3.7-.4,5-.5,6.4l-3.8.2v-.1h0c0-.5-.1-1.1-.1-1.6v-.1c1.5-.2,2.4-.4,3.9-.5v-.7c-1.5.2-2.4.3-3.9.4,0-.6-.1-1.2-.1-1.9l3.4-.7Zm-.3-50.9,1.9,48.4-.6,7.8v.1l-.2,2.6,2.4,60.2-1.4,9.7.1,8h2.5l-.1-8.1,1.3-9.8L280,130.1h0l.8-11-2.3-53-2.1,5Zm.5,63.2,2.1,55.8-1.4,9.7.1,8.1-5.9-.1c-.4-22-.4-44.7-1.6-66.6h0l-.2-2.9h0l-.1-.7,2.1-3.2,4.9-.1Zm-45.3,61v-60h-1.5c.1,18.2.3,36.7.4,55l1.1,7.2v-2.2Zm.7-60.8V136l1-1.8-.4-1.5h-2.8v1.8Zm39.3-.9-2.1,3.3-1.9-.9,3-4.1h6.3v1.7Zm-39-20.7c-.3.6-.5,1.3-.8,1.9v.1l-1.8-.4v-2.4l2.6.8Zm-1.1,2.9c-.2.6-.4,1.3-.6,1.9v.1h-.1c-.2,0-.4-.1-.7-.1H230v-2.3l1.5.4Zm-1,2.6h0l.1.1c-.1.5-.9,4.1-.8,3.6l.2-3.8a.9.9,0,0,0,.5.1ZM276.7,130l-3.5.1V130a12.1,12.1,0,0,0-.1-1.9V128l3.7-.1-.1,2.1ZM249.4,81.1v3.4l1.8,1.8.1-.1c.6-.6,1.2-1.2,1.7-1.8h0V81h-.1l-3.5.1Zm3,.5H250v2.7l1.2,1.2,1.3-1.2V81.6ZM230.7,50.8h2.9l1.8-8.2,34.8-.1h.2l.1-.2,3.6-6.8,24.2-.1v2.2H274.1l-3.6,6.5-34.9.1-.5,2.1,36.2-.1,1,2.3H234.6l-.4,1.7H273l1.4,3.9.8,10.9-45.4-.1V55.5l.3-.4.1-.1.5-4.2ZM294,101.2l-1.8-33.5v-.1l6.6-12.1h-6.6l-2,4,3.8,41.7Zm-1.2-46.6h6.4V53.4h-6l-.4,1.2Zm-147,0h6.4l-.3-1.2h-6v1.2ZM292,53.9l6.2-13.6-23.7.1-2.8,5.3,1.2,2.8,2.9-5.4h18.5l.1,1.6L292,53.9Zm-73.4,6-.1,3.4h10V59.9Zm.1-3.9-.1,2.7h9.8V56Zm-.9-1.3,11.4-.1,1-8.2h-2.1l-.5,7.1h0l-.1.8h-3.2V54l.1-4.1h0l.1-3.5h-2l.1,3.5h0v.3l.1,4.1h-3.2l-.1-.8h0v-.3l-.5-6.8h-2.1l.4,3.5h0l.6,4.8Zm16.4-10h-21l1.6,5h1.4l-.5-4.2h15.6l-.5,4.2h2.1l1.3-5Zm.1-.3,1-4H211.9l1.2,3.8V43h21.2v1.4Zm-63.1-9.1,3.4,7.2,37.1.1c.9,2.7,1.7,5.4,2.6,8.1h2.1l.6,4.4h0v.1l.3.5-.2,9.4H169.9L173,50.3h40.6l-.6-1.7H173.4l.5-2.4,38.4.1-.7-2.1-37-.1-3.4-6.5H171c-8.1,0-16.1,0-24.2-.1V35.1l24.4.2Zm1.6,13.1L170,43.1H150.8v1.7h.1L154.4,57l-2.1-5.2h0l-5.5-11.1v-.3l23.9.1,2.8,5.5a9.51,9.51,0,0,0-.7,2.4Zm-5.1-3.6-1.5,11.8h0l-.1,2H155.8L152,44.8Zm-6.9,11.1v-.3c.2-1.6.4-3.3.6-4.9s.4-3.3.6-4.9v-.3l-5.1-.1.6,10.1v.3l3.3.1Zm2.4,142.9-1.3-9.8,2.2-58.7-.8-12.3,2.3-53.4H154.4l-2.7,33.8v.3h0l-1.3,16.8.1,2.9-2.4,9.6-.3,6.5-1.4,22.7-1.2,32.6-2.6,10.5-.1,7.9c4.3,0,8.5-.1,12.8-.2,2.6-.1,5.1-.1,7.7-.2l.2-9Zm2.6-135.4.1-3.4h-11l-.2,3.4Zm2.8-18.6-1.5,11.9-.1,2.2,2.4,6,3-14.8-2.7-5.3Zm-1.7,16.4-.1,2.6,2.1,5.2.2-2.2-2.2-5.6Zm2.8,5.2-.2,3.4h47.4l.1-3.4H169.7Zm105.9,3.4-.2-3.4H229.9v3.4ZM150.9,101.7l3.4-41.5-.1-1.2-1.5-3.5h-6.6l6.7,12.2-1.9,34ZM276,66.4l2.1-5.1.1,2.4-2.1,5.4-.1-2.7Zm-.1-2.1,2.2-5.4-.1-1.2-2.2-12.1-2.3,4.2,1.6,4.2v.1l.8,10.2ZM282,207.9l-.1-8.1,1.3-9.8-2.3-60,.8-11-2.4-54.4h11.1L293,98.5h.1l1.2,19.9h0l2.4,9.6,1.7,29.2,1.2,32.6,2.6,10.5.1,7.9-20.3-.3Zm8.2-144.6-.2-3.4H279l.1,3.4Zm-.5-4.7,3.7-13.7-16.8-.1,2.3,12.8v1.1l10.8-.1Zm-3.6-2.7v-.3c.2-1.6.4-3.1.6-4.7s.4-3.1.6-4.7v-.3l-5.1-.1.6,9.7v.3Z"/><path class="bridge-" d="M33.9,213.6H393.7l-100.4-7.1H135L33.9,213.6Zm0,0h0Z"/><path class="bridge-" d="M159.9,47.6a119.17,119.17,0,0,1-11.3,29.8l-2,122.2-.8-117.1c-2,3.6-4.2,7.1-6.5,10.7l-2,115.5-.8-111.2c-2.3,3.3-4.7,6.7-7.1,10l-2.1,101.3-.8-97.5q-3.45,4.5-7.2,9l-2,88.3-.8-84.9c-2.4,2.8-4.9,5.6-7.4,8.4L107,208.6l-.8-73.3c-2.6,2.8-5.2,5.6-7.9,8.3l-2,65.2-.8-62.3c-3.2,3.2-6.3,6.4-9.5,9.4l-2,52.8-.8-50.1c-3.6,3.4-7.2,6.7-10.7,9.9l-2,40.7L69.6,171c-4.1,3.6-8.1,7.1-12,10.3l-2.3,27.9L54.4,184c-4.3,3.6-8.5,6.8-12.5,9.8l-1.3,15.4L38.8,196c-10.9,8.1-19.8,13.8-25,16.1H0C66.2,173.2,134.2,115,158.5,47.6Z"/><path class="bridge-" d="M283.5,47.6a119.8,119.8,0,0,0,11.3,29.9l2,122.1.8-117c2,3.6,4.2,7.1,6.5,10.7l2,115.1.8-110.9c2.3,3.3,4.7,6.7,7.1,10l2.1,101,.8-97.3q3.45,4.5,7.2,9l2,88.3.8-84.9c2.4,2.8,4.9,5.6,7.4,8.4l2.1,76.5.8-73.4c2.6,2.8,5.2,5.6,7.9,8.3l2,64.8.8-61.9c3.2,3.2,6.4,6.4,9.5,9.4l2,52.7.8-50.1c3.6,3.4,7.2,6.7,10.7,9.9l2,40,.8-37.5c4.1,3.6,8.1,7.1,12,10.3l2,27.3,1.3-24.6c4.3,3.6,8.5,6.9,12.5,9.9l1.6,15.1,1.5-12.8c10.9,8.1,19.8,13.8,24.9,16.1h13.9c-66.2-38.8-134.2-97-158.5-164.4Z"/><path class="bridge-" d="M227.7,47.5c8.4,57.5,18.9,115.4,36.6,165.9H253.9C240,162.7,232.4,104.7,225.8,47.5h0C225.8,46,227.5,46,227.7,47.5Z"/><path class="bridge-" d="M219.2,47.5c-8.4,57.5-18.9,115.4-36.6,165.9H193c13.7-50,21.1-107.1,28.1-165.9h0C221.2,46.4,219.6,45.9,219.2,47.5Z"/><path class="bridge-" d="M245.4,172.1l.3,37.5h-.9l-.3-37.5Zm-45.9,0v37.5h.9V172.1Zm9.8-47.3v84.8h.9V124.8Zm-5,27.9v56.9h.9V152.7Zm31.3-35.6.3,92.5H235l-.3-92.5Zm5,29.5V154l.2,55.6h-.9l-.3-63Z"/></svg>