<svg id="brooklyn" data-name="Layer 1" xmlns="http://www.w3.org/2000/svg" viewBox="0 0 326.46 326.45"><defs><style></style></defs><title>brooklyn-seal</title><path class="brooklyn-cls-1" d="M129.3,261A103.48,103.48,0,1,1,261,197.2,103.6,103.6,0,0,1,129.3,261Zm67-193A100.84,100.84,0,0,0,68,130.1c-18.3,52.5,9.6,110.1,62.2,128.4A100.82,100.82,0,1,0,196.3,68Z" transform="translate(-0.01 -0.02)"/><path class="brooklyn-cls-1" d="M125.3,272.3a115.5,115.5,0,1,1,147-71.2A115.57,115.57,0,0,1,125.3,272.3Zm75-215.7C141.5,36.2,77,67.4,56.6,126.2a113.09,113.09,0,0,0,69.6,143.7c58.8,20.4,123.3-10.8,143.7-69.6S259.1,77,200.3,56.6Z" transform="translate(-0.01 -0.02)"/><path class="brooklyn-cls-1" d="M117,118.1c4,1.4,6.6,3.3,7.6,5.8s.9,5.7-.4,9.5l-.8,2.4a16.35,16.35,0,0,1-3.6,6.2,7.92,7.92,0,0,1-6,1.9,8.78,8.78,0,0,1,4,5.8,15.23,15.23,0,0,1-.9,7.7l-1.5,4.4c-1.4,3.9-3.3,6.5-6,8s-6,1.4-10,0l-11.9-4.1,17.9-51.6Zm-9,21.5a8.89,8.89,0,0,0,5.7.4c1.5-.5,2.7-2.2,3.6-4.9l1.1-3c.8-2.3,1-4.2.5-5.6s-1.7-2.5-3.8-3.2l-5.7-2L103.6,138Zm-6.8,25c4.1,1.4,6.9-.2,8.6-4.9l1.6-4.6c1-2.9,1.1-5.1.4-6.6s-2.4-2.7-4.9-3.6l-5-1.7-6.7,19.3Z" transform="translate(-0.01 -0.02)"/><path class="brooklyn-cls-1" d="M133,156.4l-4.8,4-6,17.3-5.8-2,17.9-51.6,5.8,2L131.4,151l22.4-20.2,5.8,2-21.2,19,3.7,32.8-5.9-2.1Z" transform="translate(-0.01 -0.02)"/><path class="brooklyn-cls-1" d="M146.6,186.3l17.9-51.6,5.8,2L154.2,183l14.8,5.1-1.8,5.2Z" transform="translate(-0.01 -0.02)"/><path class="brooklyn-cls-1" d="M182.5,178l.6-36.9,6,2.1-.8,28.2,16.9-22.6,5.5,1.9L188.1,180l-6.4,18.5-5.7-2Z" transform="translate(-0.01 -0.02)"/><path class="brooklyn-cls-1" d="M201.9,205.5l-5.2-1.8,17.9-51.6,7.3,2.5-1,41.5,13-37.3,5.1,1.8-17.9,51.6-6-2.1,1.3-46.3Z" transform="translate(-0.01 -0.02)"/><polygon class="brooklyn-cls-1" points="83.59 126.88 83.39 132.98 89.09 134.88 83.29 136.58 83.19 142.68 79.79 137.68 73.99 139.48 77.69 134.68 74.19 129.68 79.89 131.78 83.59 126.88"/><polygon class="brooklyn-cls-1" points="247.69 183.88 247.49 189.98 253.29 191.98 247.39 193.68 247.29 199.78 243.89 194.68 238.09 196.58 241.79 191.68 238.29 186.78 243.99 188.78 247.69 183.88"/><path class="brooklyn-cls-1" d="M62.1,78.8" transform="translate(-0.01 -0.02)"/><path class="brooklyn-cls-1" d="M161.2,106.6l-.4.4-.4.4h0a10.62,10.62,0,0,1-2.1,1.6,3.62,3.62,0,0,1-2.9.2,2,2,0,0,1-.8-.4,5.24,5.24,0,0,1-1-1.1l-1.5.9a8,8,0,0,1-6,.7,5.3,5.3,0,0,1-1.5-.8,4.09,4.09,0,0,1-1.7-3.1,7.81,7.81,0,0,1,.6-3.6,21.35,21.35,0,0,1,3.3-5.9q.45-.6,1.2-1.5a10.93,10.93,0,0,1-1.7-.5c-.1,0-.2-.1-.3-.1a7.57,7.57,0,0,1-3-2.2,3.77,3.77,0,0,1-.5-3.6h0v-.1h0a3.81,3.81,0,0,1,1.1-1.6h0a4.88,4.88,0,0,1,1.6-1,.6.6,0,0,1,.5,1.1,5.67,5.67,0,0,0-1.3.8h0a6.22,6.22,0,0,0-.8,1.2v.1a2.51,2.51,0,0,0,.4,2.4,5.64,5.64,0,0,0,2.4,1.8c.1,0,.2.1.3.1a15.45,15.45,0,0,0,2.3.6,12.78,12.78,0,0,1,3.2-2.4c1.7-1,3.5-1.5,5.1-.9a1.46,1.46,0,0,1,.9.6h0a1.18,1.18,0,0,1,.1,1,2.78,2.78,0,0,1-1.3,1.5,4.27,4.27,0,0,1-1.2.6,12.67,12.67,0,0,1-4.7.9,8.6,8.6,0,0,1-1.6-.1,15.4,15.4,0,0,0-1.8,2,23.77,23.77,0,0,0-3.1,5.6,7,7,0,0,0-.5,3.1,3.25,3.25,0,0,0,1.2,2.2,6.66,6.66,0,0,0,1.2.6,6.38,6.38,0,0,0,5-.6,15.05,15.05,0,0,0,1.7-1,3.64,3.64,0,0,1,.2-1.4,4.15,4.15,0,0,1,.7-1.3.65.65,0,0,1,1.1.7,3,3,0,0,0-.4.8,26.47,26.47,0,0,0,2.9-2.9,22,22,0,0,0,3.9-6.3,7.22,7.22,0,0,0,.6-3.4,2.56,2.56,0,0,0-1.4-2.1h0a4.06,4.06,0,0,0-2.1-.5.65.65,0,1,1,.1-1.3,6.17,6.17,0,0,1,2.6.7h0a4.06,4.06,0,0,1,2.1,3,9.75,9.75,0,0,1-.6,4,23.24,23.24,0,0,1-4.1,6.7,28.63,28.63,0,0,1-4,3.8,1.39,1.39,0,0,0,.7.8c.2.1.3.2.5.2a3.05,3.05,0,0,0,1.9-.1,10.15,10.15,0,0,0,1.8-1.3h0l.3-.3a.78.78,0,0,1,.4-.4.63.63,0,0,1,.9,0C161.4,105.9,161.4,106.3,161.2,106.6ZM150.9,93.3h.3a11.62,11.62,0,0,0,4.2-.8l1-.5a1.42,1.42,0,0,0,.8-.9h0a.35.35,0,0,0-.2-.1,5.29,5.29,0,0,0-4.1.8C152.2,92.3,151.5,92.8,150.9,93.3Z" transform="translate(-0.01 -0.02)"/><path class="brooklyn-cls-1" d="M171.6,110.1h0c-1.9,2.1-4.7,5-7.2,4.1h0a1.82,1.82,0,0,1-1.3-1.4,3.28,3.28,0,0,1,.1-1.7V111a8.94,8.94,0,0,1,.9-1.6,20.78,20.78,0,0,1,1.5-2,11.38,11.38,0,0,1,1.1-1.4c.3-.4.6-.8,1-1.3l-.4-.3c-.7-.6-1.6-1.2-2.3-1.9a2.65,2.65,0,0,0-.5.6h0l-4,4.2a.56.56,0,0,1-.9,0,.63.63,0,0,1,0-.9l4-4.1c.2-.2.4-.5.6-.7a3.1,3.1,0,0,1-.5-3.2,2,2,0,0,1,.9-.9h0a1.48,1.48,0,0,1,1.3,0c.2.1.3.1.5.2h0a1.22,1.22,0,0,1,.6,1,2.08,2.08,0,0,1-.1,1.1c-.1.3-.3.5-.4.8l-.6.9c.7.7,1.5,1.3,2.2,1.9.4.3.7.5,1,.7a.63.63,0,0,1,.1.9h0c-.6.8-.9,1.1-1.4,1.7-.3.4-.6.8-1.1,1.4s-1,1.3-1.4,1.9a11.47,11.47,0,0,0-.8,1.4v.1a1.73,1.73,0,0,0-.1,1,.82.82,0,0,0,.5.5c1.8.6,4.2-2,5.8-3.7l.1-.1a.56.56,0,0,1,.9,0C171.8,109.5,171.9,109.9,171.6,110.1Zm-5.9-10.6a.9.9,0,0,0,.1-.5.35.35,0,0,0-.1-.2h0a.1.1,0,0,1-.1-.1h-.4l-.3.3a1.87,1.87,0,0,0,.2,1.6c.2-.2.3-.4.5-.6A.44.44,0,0,1,165.7,99.5Z" transform="translate(-0.01 -0.02)"/><path class="brooklyn-cls-1" d="M176.8,111.9a18.33,18.33,0,0,1-3.2,3c-1.3,1-2.7,1.6-4.1,1.1h0a1.82,1.82,0,0,1-1.3-1.4,3.28,3.28,0,0,1,.1-1.7v-.1a8.94,8.94,0,0,1,.9-1.6,20.78,20.78,0,0,1,1.5-2,18.75,18.75,0,0,1,1.2-1.5c.6-.8,1.3-1.6,2-2.4a7.37,7.37,0,0,1,.5-.6l.9-1.1a.64.64,0,1,1,1,.8l-.9,1.2-.5.6c-.8,1-1.5,1.9-2,2.5s-.9,1.1-1.2,1.5a18.2,18.2,0,0,0-1.4,1.9,11.47,11.47,0,0,0-.8,1.4v.1a1.73,1.73,0,0,0-.1,1,.82.82,0,0,0,.5.5h0c.8.3,1.9-.2,2.9-.9a20.73,20.73,0,0,0,3-2.9.56.56,0,0,1,.9,0C177.1,111.2,177.1,111.7,176.8,111.9Zm.3-10.9a1,1,0,1,1,.6,1.3A1,1,0,0,1,177.1,101Z" transform="translate(-0.01 -0.02)"/><path class="brooklyn-cls-1" d="M188.5,116a15.63,15.63,0,0,1-4.8,3.8,11.88,11.88,0,0,1-4.6,1.3,4.85,4.85,0,0,1-1.7,0l-.7.9a16.32,16.32,0,0,1-2.5,2.7,3.67,3.67,0,0,1-3.5.7c-.2-.1-.4-.1-.6-.2a3.34,3.34,0,0,1-1.7-1.6,3,3,0,0,1-.1-2.1.76.76,0,0,1,.2-.4c1.1-2.4,3.2-2,6-1.6.8.1,1.5.2,2.4.3.6-.7,1.1-1.4,1.7-2.1a4.09,4.09,0,0,1-3.2.4,2,2,0,0,1-1.4-1.6,4.2,4.2,0,0,1,.3-2.4,18.64,18.64,0,0,1,4.7-6.3c1.6-1.4,3.5-2.2,5.1-1.7.1,0,.2.1.3.1a3,3,0,0,1,1.6,1.7,1.85,1.85,0,0,1,.2.7c.3-.4.6-.7.8-1h0a.64.64,0,1,1,1,.8h0c-1,1.1-2.7,3.3-4,4.8-.9,1.1-1.8,2.3-3,3.7l-2.4,3h.6a10.47,10.47,0,0,0,4-1.1,13.68,13.68,0,0,0,4.4-3.6.56.56,0,0,1,.9,0A.51.51,0,0,1,188.5,116ZM176,121a9.85,9.85,0,0,0-1.7-.2c-2.2-.4-4-.6-4.7.9,0,.1-.1.2-.1.3a2.44,2.44,0,0,0,0,1.2,2.18,2.18,0,0,0,1.1,1c.1.1.3.1.5.2a2.59,2.59,0,0,0,2.4-.5,13.94,13.94,0,0,0,2.3-2.5Zm7.4-9.4c.4-.5.9-1,1.2-1.4,0-.1,0-.1.1-.2a2.44,2.44,0,0,0,0-1.7,2.19,2.19,0,0,0-.9-1l-.1-.1c-1.1-.4-2.5.4-3.8,1.5a16.67,16.67,0,0,0-4.3,5.7,2.8,2.8,0,0,0-.3,1.7,1.2,1.2,0,0,0,.7.7C178.1,117.7,181.2,114.1,183.4,111.6Z" transform="translate(-0.01 -0.02)"/><path class="brooklyn-cls-1" d="M193.7,117.8a18.33,18.33,0,0,1-3.2,3c-1.3,1-2.7,1.6-4.1,1.1h0a1.82,1.82,0,0,1-1.3-1.4,3.28,3.28,0,0,1,.1-1.7v-.1a8.94,8.94,0,0,1,.9-1.6,20.78,20.78,0,0,1,1.5-2,18.75,18.75,0,0,1,1.2-1.5c.6-.8,1.3-1.6,2-2.4a7.37,7.37,0,0,1,.5-.6l.9-1.1a.64.64,0,1,1,1,.8l-.9,1.2-.5.6c-.8,1-1.5,1.9-2,2.5s-.9,1.1-1.2,1.5a18.2,18.2,0,0,0-1.4,1.9,11.47,11.47,0,0,0-.8,1.4v.1a1.73,1.73,0,0,0-.1,1,.82.82,0,0,0,.5.5h0c.8.3,1.9-.2,2.9-.9a20.73,20.73,0,0,0,3-2.9.56.56,0,0,1,.9,0C194,117.1,194,117.5,193.7,117.8Zm.3-10.9a1,1,0,1,1,.6,1.3A1,1,0,0,1,194,106.9Z" transform="translate(-0.01 -0.02)"/><path class="brooklyn-cls-1" d="M205,121.7h0c-2,2.1-4.7,5-7.2,4.1h0a1.82,1.82,0,0,1-1.3-1.4,3.28,3.28,0,0,1,.1-1.7v-.1a8.11,8.11,0,0,1,1-1.8A22,22,0,0,1,199,119a1.76,1.76,0,0,1,.4-.5,12.75,12.75,0,0,0,2.3-3.4,1.43,1.43,0,0,0-1-2,3.48,3.48,0,0,0-2.7.8,21.87,21.87,0,0,0-4.2,3.8c-1.9,2.3-3.5,4.4-3.9,4.9a.64.64,0,0,1-1-.8c.4-.5,2-2.6,3.9-4.9v-.1h0l.1-.1c1.4-1.7,3-3.7,4.6-5.6a.64.64,0,0,1,1,.8,1.76,1.76,0,0,0-.4.5,4,4,0,0,1,3.1-.5c2,.7,2.3,2.1,1.7,3.6a13.2,13.2,0,0,1-2.5,3.8,1.76,1.76,0,0,0-.4.5c-.5.6-.9,1.2-1.3,1.7a8.46,8.46,0,0,0-.9,1.5v.1a1.73,1.73,0,0,0-.1,1,.82.82,0,0,0,.5.5h0c1.8.6,4.2-2,5.8-3.7l.1-.1a.56.56,0,0,1,.9,0C205.2,121.1,205.3,121.5,205,121.7Z" transform="translate(-0.01 -0.02)"/><path class="brooklyn-cls-1" d="M216.4,125.7h0c-2,2.1-4.7,5-7.2,4.1h0a1.82,1.82,0,0,1-1.3-1.4,3.28,3.28,0,0,1,.1-1.7h0a4.69,4.69,0,0,1-4.4,1.1,1.92,1.92,0,0,1-1.4-1.6,3.5,3.5,0,0,1,.3-2.4,18.64,18.64,0,0,1,4.7-6.3c1.6-1.4,3.4-2.2,5.1-1.7.1,0,.2.1.3.1a3,3,0,0,1,1.6,1.7,6.37,6.37,0,0,1,.2.7c.3-.4.7-.8.9-1.1a.74.74,0,0,1,.9-.1.63.63,0,0,1,.1.9c-.6.7-1.6,2-2.7,3.3-.7.9-1.5,1.8-2,2.5a18.2,18.2,0,0,0-1.4,1.9,5.29,5.29,0,0,0-.8,1.4v.1a1.73,1.73,0,0,0-.1,1,.79.79,0,0,0,.6.5c1.8.6,4.2-2,5.8-3.7l.1-.1a.56.56,0,0,1,.9,0C216.6,125,216.7,125.4,216.4,125.7Zm-4.8-4.4a13,13,0,0,0,1.2-1.4c.1-.1.1-.1.1-.2a2.44,2.44,0,0,0,0-1.7,2.19,2.19,0,0,0-.9-1,.35.35,0,0,0-.2-.1c-1.1-.4-2.5.4-3.8,1.5a16.67,16.67,0,0,0-4.3,5.7,3.57,3.57,0,0,0-.2,1.7,1.34,1.34,0,0,0,.6.7C206.3,127.5,209.4,123.8,211.6,121.3Z" transform="translate(-0.01 -0.02)"/><path class="brooklyn-cls-1" d="M222.3,127.7a30.81,30.81,0,0,1-2.8,2.6,9.12,9.12,0,0,1-2.5,1.4,5.28,5.28,0,0,1-1.3.1,5.85,5.85,0,0,1-1.3-.2h0a2.37,2.37,0,0,1-1.3-1.1,3.37,3.37,0,0,1,0-2h0v-.1a8.94,8.94,0,0,1,.9-1.6,20.78,20.78,0,0,1,1.5-2c1.5-2,3.2-4,4.8-6.1l1.3-1.6.3-.4c.3-.4.8-1,1.4-1.8a.64.64,0,0,1,1,.8,17.91,17.91,0,0,0-1.4,1.8c-.1.2-.2.3-.3.5l-1.3,1.6c-1.6,2-3.2,4-4.8,6.1-.5.7-1,1.4-1.4,2a4.1,4.1,0,0,0-.8,1.4v.1c-.2.5-.2.8,0,1a1.21,1.21,0,0,0,.5.5h0a4.1,4.1,0,0,0,1.8,0,6.56,6.56,0,0,0,2.1-1.2,19.39,19.39,0,0,0,2.7-2.5.75.75,0,0,1,.9,0A.42.42,0,0,1,222.3,127.7Z" transform="translate(-0.01 -0.02)"/><path class="brooklyn-cls-1" d="M95.9,186.6a.67.67,0,0,1,.3.8c-.1.2-.1.4-.2.6a2.75,2.75,0,0,0,.2,2,3.89,3.89,0,0,0,1.6,1.5c.3.1.5.2.8.3,2.6.7,6.1-.4,8.9-1.2a12.09,12.09,0,0,1,1.8-.5.57.57,0,0,1,.7.4.44.44,0,0,1-.1.5l-3.4,4.4a20.13,20.13,0,0,1,4.8-2.5,4.4,4.4,0,0,1,1.6-.2,7.77,7.77,0,0,1,1.6.2c2.6.9,2.9,2.7,2.2,4.8-.8,2.3-2.9,5-4.7,7.3l-.2.2a21.12,21.12,0,0,0-1.5,1.9c-2.2,2.7-5.4,6.6-5.9,8v.1a3.53,3.53,0,0,0-.2,2,1.62,1.62,0,0,0,1.2,1.2h0c.3.1.5.5.4.7a.68.68,0,0,1-.8.4h-.1a2.87,2.87,0,0,1-2-2,4.7,4.7,0,0,1,.2-2.6v-.1c.6-1.6,3.9-5.6,6.1-8.3.6-.8,1.2-1.4,1.5-1.9l.2-.2c1.8-2.3,3.8-4.9,4.5-6.9.5-1.5.2-2.7-1.5-3.3a5,5,0,0,0-1.2-.2,5.85,5.85,0,0,0-1.3.2c-2.3.7-5.2,2.7-7.6,4.5l-4.4,5.7a4.23,4.23,0,0,0-.5.7c-1.3,1.8-3.5,4.8-5.8,4h0a1.76,1.76,0,0,1-.9-.8,1.93,1.93,0,0,1,0-1.3h0c.8-2,4.9-4.8,6.2-5.7a1.24,1.24,0,0,0,.3-.2c.4-.3,1-.8,1.7-1.4s1.5-1.2,2.4-1.8l4.6-6.1c-3,.9-6.6,2-9.5,1.2a3,3,0,0,1-1-.4,5,5,0,0,1-2.2-2.1,4.62,4.62,0,0,1-.3-2.9c.1-.3.2-.5.3-.8A1.88,1.88,0,0,1,95.9,186.6Zm4.4,15c-.2.2-.4.3-.5.4s-.2.1-.4.3c-1.2.8-5.2,3.5-5.8,5.1v.1a.45.45,0,0,0,0,.5c0,.1.1.1.2.2h0c1.4.5,3.2-2,4.4-3.6.2-.3.4-.5.5-.7Z" transform="translate(-0.01 -0.02)"/><path class="brooklyn-cls-1" d="M123.6,213a11.8,11.8,0,0,1-5.5,3.5,7.31,7.31,0,0,1-4.7-.4h-.1a3.8,3.8,0,0,1-2.2-1.9,3.92,3.92,0,0,1-.1-3.2v-.1h0a12,12,0,0,1,1.2-2.2h0a18.26,18.26,0,0,1,1.3-1.6,17.26,17.26,0,0,1,3.8-3,6.4,6.4,0,0,1,1.7-.5,2.86,2.86,0,0,1,1.6.1,2.15,2.15,0,0,1,1.4,1,1.67,1.67,0,0,1,.4,1.5,2.51,2.51,0,0,1-.6,1.4,4.08,4.08,0,0,1-2.1,1.5,8.53,8.53,0,0,1-3.1.6,21,21,0,0,1-3.6,0,7,7,0,0,0-.9,1.7v.1a2.78,2.78,0,0,0,0,2.2,2.67,2.67,0,0,0,1.6,1.3h.1a6.75,6.75,0,0,0,4,.3,9.52,9.52,0,0,0,4.8-3.1.63.63,0,0,1,.9,0A.53.53,0,0,1,123.6,213Zm-9.6-4.6a25.35,25.35,0,0,0,2.6-.1,8.75,8.75,0,0,0,2.8-.6,3.27,3.27,0,0,0,1.5-1.1,1.33,1.33,0,0,0,.3-.8.73.73,0,0,0-.2-.6,1.23,1.23,0,0,0-.8-.5,3.75,3.75,0,0,0-1.1-.1,6.47,6.47,0,0,0-1.3.4,13.91,13.91,0,0,0-3.4,2.7A.72.72,0,0,1,114,208.4Z" transform="translate(-0.01 -0.02)"/><path class="brooklyn-cls-1" d="M138.5,218.2c-.1.2-.3.3-.4.5l-.4.4a10.62,10.62,0,0,1-2.1,1.6,4.08,4.08,0,0,1-2.9.2,3,3,0,0,1-.8-.4,3.57,3.57,0,0,1-1-1.1c-.2.1-.4.3-.6.4a4.59,4.59,0,0,1-3.7,1h-.1a1.82,1.82,0,0,1-1.3-1.4,2.85,2.85,0,0,1,0-1.3,3.92,3.92,0,0,1-3.8.9h0a1.82,1.82,0,0,1-1.3-1.4,3.28,3.28,0,0,1,.1-1.7v-.1a8.94,8.94,0,0,1,.9-1.6,20.78,20.78,0,0,1,1.5-2c.3-.3.9-1.1,1.6-2,.9-1.2,2-2.5,3.1-3.7a.64.64,0,1,1,1,.8c-1.2,1.4-2.3,2.8-3,3.8s-1.3,1.6-1.6,2a18.2,18.2,0,0,0-1.4,1.9,11.47,11.47,0,0,0-.8,1.4v.1a1.73,1.73,0,0,0-.1,1,.79.79,0,0,0,.6.5c1.8.6,4.2-2,5.8-3.7h0v-.1c.3-.3.9-1.1,1.6-2,1-1.2,2-2.5,3.1-3.7a.64.64,0,1,1,1,.8c-1.2,1.4-2.3,2.8-3.1,3.7s-1.3,1.6-1.6,2h0a.1.1,0,0,1-.1.1,10.15,10.15,0,0,0-1.3,1.8,11.47,11.47,0,0,0-.8,1.4v.1a1.73,1.73,0,0,0-.1,1,.82.82,0,0,0,.5.5h.1a3.27,3.27,0,0,0,2.6-.8c.3-.2.6-.5.9-.7a7.84,7.84,0,0,1,.2-1.4,4.15,4.15,0,0,1,.7-1.3.65.65,0,0,1,1.1.7,2.09,2.09,0,0,0-.4.6,12,12,0,0,0,1.2-1.1c1-1,2-1.9,2.9-2.8l2.5-2.5a.75.75,0,0,1,.9,0c.3.2.2.7,0,.9l-2.5,2.5c-.9.9-1.9,1.8-3,2.8-.8.7-1.5,1.4-2.3,2.1a1.78,1.78,0,0,0,.7.8.76.76,0,0,0,.5.2,3.05,3.05,0,0,0,1.9-.1,7.49,7.49,0,0,0,1.8-1.3l.4-.4c.1-.1.2-.3.4-.4a.56.56,0,0,1,.9,0C138.8,217.5,138.8,218,138.5,218.2Z" transform="translate(-0.01 -0.02)"/><path class="brooklyn-cls-1" d="M164.8,227.4a14.55,14.55,0,0,1-4.8,3.8,9.79,9.79,0,0,1-4.5,1.2h-1.7l-.7.9a12.94,12.94,0,0,1-2.5,2.7,3.81,3.81,0,0,1-3.6.7c-.2-.1-.4-.1-.6-.2a3.34,3.34,0,0,1-1.7-1.6,3,3,0,0,1-.1-2.1.76.76,0,0,1,.2-.4c1.1-2.4,3.2-2,6-1.6a17.48,17.48,0,0,0,2.4.3c.9-1.1,2-2.5,3.1-3.9a6.11,6.11,0,0,1-5.5.9h-.1a2.81,2.81,0,0,1-2-2.1,5.06,5.06,0,0,1,.2-2.7h0l.1-.1a37.72,37.72,0,0,1,3.7-6c1.4-1.9,2.9-3.9,4.1-5.4-.6-.1-1.2-.2-1.9-.3-4-.7-8.4-1.5-9.9,1.4,0,.1-.1.2-.1.3a2.82,2.82,0,0,0-.1,1.8,2.69,2.69,0,0,0,1.2,1.4.37.37,0,0,0,.3.1.68.68,0,0,1,.4.8.55.55,0,0,1-.8.3.76.76,0,0,1-.4-.2,3.69,3.69,0,0,1-1.8-2.1,4.19,4.19,0,0,1,.1-2.7.76.76,0,0,1,.2-.4c1.9-3.7,6.8-2.8,11.2-2,.9.2,1.8.3,2.6.4.2-.3.5-.5.6-.7a8.35,8.35,0,0,1,1.6-1.2,3.4,3.4,0,0,1,2-.3,1.69,1.69,0,0,1,.5.2,1.47,1.47,0,0,1,.6.5,1.61,1.61,0,0,1,.3.9v.1a.37.37,0,0,1-.1.3c-.8,1.6-2.7,1.8-5,1.6-1.3,1.5-3,3.7-4.6,5.9a41.29,41.29,0,0,0-3.6,5.7v.1a3.53,3.53,0,0,0-.2,2,1.62,1.62,0,0,0,1.2,1.2h.1c1.7.6,3.4-.1,5.1-1.3a37.39,37.39,0,0,0,5.1-4.7c.5-.6,1.1-1.4,1.8-2.2,1.6-2,3.5-4.3,5.4-6.6a.64.64,0,0,1,1,.8c-2,2.5-4,4.9-5.4,6.6-.7.8-1.3,1.6-1.8,2.2h0c-.4.5-.8.9-1,1.2h0c-.8,1.1-1.6,2-2.3,2.9-1.4,1.8-3,3.7-4.2,5.2h.6a9.34,9.34,0,0,0,4.1-1.1,15.16,15.16,0,0,0,4.4-3.6.56.56,0,0,1,.9,0A1.38,1.38,0,0,1,164.8,227.4Zm-12.5,5c-.6-.1-1.2-.1-1.7-.2-2.3-.4-4-.6-4.7.9a.31.31,0,0,0-.1.2,2.44,2.44,0,0,0,0,1.2,2.18,2.18,0,0,0,1.1,1c.1.1.3.1.5.2a2.59,2.59,0,0,0,2.4-.5,13.94,13.94,0,0,0,2.3-2.5Zm7.1-21.5c1.4.1,2.4-.1,2.9-.9l-.2-.2h0c-.1,0-.1,0-.2-.1a1.39,1.39,0,0,0-1.1.2A5,5,0,0,0,159.4,210.9Z" transform="translate(-0.01 -0.02)"/><path class="brooklyn-cls-1" d="M175.9,231.2a1.76,1.76,0,0,0-.4.5l-.4.4a10.62,10.62,0,0,1-2.1,1.6,4.08,4.08,0,0,1-2.9.2,3,3,0,0,1-.8-.4,5.24,5.24,0,0,1-1-1.1c-1.5,1.1-3.4,1.7-4.7,1.2-4.6-1.6,1.1-8.4,3.6-10.4,1.6-1.4,3.5-2.2,5-1.6h0a3,3,0,0,1,1.8,1.7,3.14,3.14,0,0,1-.1,2.5,15.51,15.51,0,0,1-4.5,5.8,1.78,1.78,0,0,0,.7.8.76.76,0,0,0,.5.2,3.05,3.05,0,0,0,1.9-.1,7.49,7.49,0,0,0,1.8-1.3l.4-.4c.1-.1.2-.3.4-.4a.56.56,0,0,1,.9,0A.81.81,0,0,1,175.9,231.2Zm-6-2.2a2.09,2.09,0,0,0-.4.6,14.27,14.27,0,0,0,3.1-4.4,1.84,1.84,0,0,0,.1-1.6,2.17,2.17,0,0,0-1.1-1c-1.1-.4-2.5.3-3.8,1.4-1.7,1.4-6.8,7.3-4,8.2,1,.4,2.6-.4,4-1.4a6.75,6.75,0,0,1,.2-1.4,4.15,4.15,0,0,1,.7-1.3.65.65,0,0,1,.9-.2C170.1,228.4,170.1,228.7,169.9,229Z" transform="translate(-0.01 -0.02)"/><path class="brooklyn-cls-1" d="M186.3,234.8h0c-1.9,2.1-4.7,5-7.2,4.1h0a1.82,1.82,0,0,1-1.3-1.4,3.28,3.28,0,0,1,.1-1.7v-.1a8.94,8.94,0,0,1,.9-1.6,20.78,20.78,0,0,1,1.5-2,11.38,11.38,0,0,1,1.1-1.4c.3-.4.6-.8,1-1.3l-.4-.3c-.7-.6-1.6-1.2-2.3-1.9a2.65,2.65,0,0,0-.5.6h0l-4,4.2a.56.56,0,0,1-.9,0,.63.63,0,0,1,0-.9l4-4.1c.2-.2.4-.5.6-.7a3.1,3.1,0,0,1-.5-3.2,2,2,0,0,1,.9-.9h0a1.48,1.48,0,0,1,1.3,0c.2.1.3.1.5.2h0a1.22,1.22,0,0,1,.6,1,2.08,2.08,0,0,1-.1,1.1c-.1.3-.3.5-.4.8l-.6.9c.7.7,1.5,1.3,2.2,1.9.4.3.7.5,1,.7a.63.63,0,0,1,.1.9h0c-.6.8-.9,1.1-1.4,1.7-.3.4-.6.8-1.1,1.4s-1,1.3-1.4,1.9a11.47,11.47,0,0,0-.8,1.4v.1a1.73,1.73,0,0,0-.1,1,.82.82,0,0,0,.5.5c1.8.6,4.2-2,5.8-3.7l.1-.1a.56.56,0,0,1,.9,0A.94.94,0,0,1,186.3,234.8Zm-6-10.6a.9.9,0,0,0,.1-.5.35.35,0,0,0-.1-.2h0a.1.1,0,0,1-.1-.1h-.4l-.3.3a1.87,1.87,0,0,0,.2,1.6c.2-.2.3-.4.5-.6A4.33,4.33,0,0,1,180.3,224.2Z" transform="translate(-0.01 -0.02)"/><path class="brooklyn-cls-1" d="M190.4,229.9c-.6.7-2.3,2.8-4,4.9-1.6,1.9-3.2,4-3.9,4.9a.64.64,0,1,1-1-.8c.6-.8,2.3-2.9,3.9-4.9h0c1.7-2.1,3.4-4.2,4-4.9h0c.6-.7.8-1,1.1-1.3a9.18,9.18,0,0,0,1.1-1.5l.3-.4c.3-.4.8-1,1.4-1.8a.64.64,0,1,1,1,.8c-.5.6-1,1.3-1.4,1.7-.1.1-.2.3-.3.4-.5.7-.9,1.1-1.2,1.5l-1,1.4Zm7.1,8.8a18.33,18.33,0,0,1-3.2,3c-1.3,1-2.7,1.6-4,1.1a2.07,2.07,0,0,1-1.3-1.1,3.34,3.34,0,0,1-.1-1.7h0a14.17,14.17,0,0,1,.8-1.8,11.11,11.11,0,0,0,.7-1.6c.2-.7.2-1.4-.8-1.7a.85.85,0,0,0-.7,0,.37.37,0,0,0-.3.1l-.5.2a.45.45,0,0,1-.5,0h-.1a.35.35,0,0,1-.1-.2.63.63,0,0,1,.3-.8,1.42,1.42,0,0,1,.6-.2l8.3-3.6a.6.6,0,0,1,.8.4.63.63,0,0,1-.3.8l-6.2,2.7a2.27,2.27,0,0,1,.9,3,14.17,14.17,0,0,1-.8,1.8c-.3.6-.5,1.1-.7,1.6h0a1.38,1.38,0,0,0,0,.9.7.7,0,0,0,.5.4c.8.3,1.9-.2,2.9-.9a28.68,28.68,0,0,0,3.1-2.9.56.56,0,0,1,.9,0C197.8,238.1,197.8,238.5,197.5,238.7Z" transform="translate(-0.01 -0.02)"/><path id="SVGID" class="brooklyn-cls-1" d="M129.5,260.4A102.85,102.85,0,1,1,260.4,197C241.7,250.5,183,279,129.5,260.4ZM196.6,67.3C143.7,49,85.7,77,67.3,129.9S77,240.8,129.9,259.1a101.59,101.59,0,0,0,129.2-62.6C277.5,143.7,249.4,85.7,196.6,67.3Z" transform="translate(-0.01 -0.02)"/><path class="brooklyn-cls-1" d="M196.6,67.2a.45.45,0,0,1-.3-.6l2.3-6.8a.47.47,0,1,1,.9.3l-2.3,6.8A.49.49,0,0,1,196.6,67.2Z" transform="translate(-0.01 -0.02)"/><path class="brooklyn-cls-1" d="M191.5,65.6a.49.49,0,0,1-.3-.6l2-6.9a.42.42,0,0,1,.6-.3.49.49,0,0,1,.3.6l-2,6.9c0,.2-.3.4-.6.3Z" transform="translate(-0.01 -0.02)"/><path class="brooklyn-cls-1" d="M186.3,64.2a.49.49,0,0,1-.3-.6l1.6-7a.51.51,0,0,1,1,.2l-1.6,7a.53.53,0,0,1-.7.4Z" transform="translate(-0.01 -0.02)"/><path class="brooklyn-cls-1" d="M181.1,63.1c-.2-.1-.4-.3-.3-.5l1.3-7c0-.3.3-.4.6-.4a.55.55,0,0,1,.4.6l-1.3,7a.61.61,0,0,1-.7.3Z" transform="translate(-0.01 -0.02)"/><path class="brooklyn-cls-1" d="M175.8,62.3c-.2-.1-.4-.3-.3-.5l.9-7.1c0-.3.3-.5.5-.4s.5.3.4.5l-.9,7.1c0,.3-.3.5-.5.4Z" transform="translate(-0.01 -0.02)"/><path class="brooklyn-cls-1" d="M170.5,61.8a.55.55,0,0,1-.3-.5l.5-7.1a.5.5,0,1,1,1,0l-.5,7.1a.54.54,0,0,1-.5.5Z" transform="translate(-0.01 -0.02)"/><path class="brooklyn-cls-1" d="M165.2,61.6a.55.55,0,0,1-.3-.5l.1-7.2a.5.5,0,0,1,1,0l-.1,7.2a.47.47,0,0,1-.5.5Z" transform="translate(-0.01 -0.02)"/><path class="brooklyn-cls-1" d="M159.8,61.6c-.2-.1-.3-.2-.3-.4l-.2-7.2a.5.5,0,0,1,1,0l.2,7.2a.47.47,0,0,1-.5.5C159.9,61.6,159.9,61.6,159.8,61.6Z" transform="translate(-0.01 -0.02)"/><path class="brooklyn-cls-1" d="M154.5,61.9c-.2-.1-.3-.2-.3-.4l-.6-7.1a.45.45,0,0,1,.9-.1l.6,7.1a.46.46,0,0,1-.4.5Z" transform="translate(-0.01 -0.02)"/><path class="brooklyn-cls-1" d="M149.1,62.5c-.2-.1-.3-.2-.3-.4l-1-7.1a.55.55,0,0,1,.4-.6.68.68,0,0,1,.6.4l1,7.1a.55.55,0,0,1-.4.6Z" transform="translate(-0.01 -0.02)"/><path class="brooklyn-cls-1" d="M143.9,63.4c-.2-.1-.3-.2-.3-.4l-1.3-7c-.1-.3.1-.5.4-.6s.5.1.6.4l1.3,7c.1.3-.1.5-.4.6Z" transform="translate(-0.01 -0.02)"/><path class="brooklyn-cls-1" d="M138.6,64.5q-.3-.15-.3-.3l-1.7-6.9c-.1-.3.1-.5.4-.6s.5.1.6.4l1.7,6.9c.1.3-.1.5-.4.6A.37.37,0,0,0,138.6,64.5Z" transform="translate(-0.01 -0.02)"/><path class="brooklyn-cls-1" d="M133.5,65.9a.45.45,0,0,1-.3-.3l-2.1-6.9a.47.47,0,1,1,.9-.3l2.1,6.9a.49.49,0,0,1-.3.6Z" transform="translate(-0.01 -0.02)"/><path class="brooklyn-cls-1" d="M128.4,67.6c-.1,0-.2-.2-.3-.3l-2.4-6.7a.47.47,0,0,1,.9-.3L129,67a.42.42,0,0,1-.3.6Z" transform="translate(-0.01 -0.02)"/><path class="brooklyn-cls-1" d="M123.4,69.5q-.15,0-.3-.3l-2.8-6.6a.47.47,0,1,1,.9-.3l2.8,6.6a.45.45,0,0,1-.3.6C123.7,69.6,123.5,69.6,123.4,69.5Z" transform="translate(-0.01 -0.02)"/><path class="brooklyn-cls-1" d="M118.6,71.7c-.1,0-.2-.1-.3-.2l-3.1-6.4a.51.51,0,1,1,.9-.5l3.1,6.4a.66.66,0,0,1-.2.7C118.8,71.8,118.7,71.8,118.6,71.7Z" transform="translate(-0.01 -0.02)"/><path class="brooklyn-cls-1" d="M113.8,74.2c-.1,0-.2-.1-.3-.2L110,67.7a.51.51,0,0,1,.9-.5l3.5,6.3a.66.66,0,0,1-.2.7Z" transform="translate(-0.01 -0.02)"/><path class="brooklyn-cls-1" d="M109.2,76.9c-.1,0-.2-.1-.3-.2l-3.8-6.1a.51.51,0,1,1,.9-.5l3.8,6.1a.53.53,0,0,1-.2.7Z" transform="translate(-0.01 -0.02)"/><path class="brooklyn-cls-1" d="M104.7,79.8a.22.22,0,0,1-.2-.2l-4.1-5.9a.5.5,0,1,1,.8-.6l4.1,5.9a.49.49,0,0,1-.1.7C105,79.9,104.9,79.9,104.7,79.8Z" transform="translate(-0.01 -0.02)"/><path class="brooklyn-cls-1" d="M100.4,83a.22.22,0,0,1-.2-.2l-4.4-5.7a.5.5,0,1,1,.8-.6l4.4,5.7a.49.49,0,0,1-.1.7C100.7,83,100.6,83.1,100.4,83Z" transform="translate(-0.01 -0.02)"/><path class="brooklyn-cls-1" d="M96.3,86.4a.35.35,0,0,1-.2-.1l-4.7-5.4a.5.5,0,0,1,.8-.6l4.7,5.4a.43.43,0,0,1-.1.7C96.6,86.4,96.4,86.5,96.3,86.4Z" transform="translate(-0.01 -0.02)"/><path class="brooklyn-cls-1" d="M92.3,90c-.1,0-.1-.1-.2-.1l-5-5.2a.49.49,0,1,1,.7-.7l5,5.2a.48.48,0,0,1,0,.7A.44.44,0,0,1,92.3,90Z" transform="translate(-0.01 -0.02)"/><path class="brooklyn-cls-1" d="M88.6,93.8c-.1,0-.1-.1-.2-.1l-5.2-4.9a.49.49,0,0,1,.7-.7L89,93a.48.48,0,0,1,0,.7C88.9,93.8,88.7,93.9,88.6,93.8Z" transform="translate(-0.01 -0.02)"/><path class="brooklyn-cls-1" d="M85,97.8c-.1,0-.1,0-.2-.1l-5.5-4.6a.5.5,0,1,1,.6-.8l5.5,4.6a.62.62,0,0,1,.1.7A.37.37,0,0,1,85,97.8Z" transform="translate(-0.01 -0.02)"/><path class="brooklyn-cls-1" d="M81.7,102a.1.1,0,0,1-.1-.1l-5.7-4.3a.5.5,0,0,1,.6-.8l5.7,4.3a.49.49,0,0,1,.1.7A.73.73,0,0,1,81.7,102Z" transform="translate(-0.01 -0.02)"/><path class="brooklyn-cls-1" d="M78.5,106.3a.1.1,0,0,1-.1-.1l-5.9-4a.5.5,0,1,1,.6-.8l5.9,4a.49.49,0,0,1,.1.7A.48.48,0,0,1,78.5,106.3Z" transform="translate(-0.01 -0.02)"/><path class="brooklyn-cls-1" d="M75.7,110.8h0l-6.2-3.7a.57.57,0,0,1-.2-.7c.1-.3.4-.3.7-.2l6.1,3.7a.57.57,0,0,1,.2.7C76.1,110.8,75.9,110.9,75.7,110.8Z" transform="translate(-0.01 -0.02)"/><path class="brooklyn-cls-1" d="M73,115.5h0l-6.4-3.4a.51.51,0,1,1,.5-.9l6.3,3.4a.57.57,0,0,1,.2.7A.48.48,0,0,1,73,115.5Z" transform="translate(-0.01 -0.02)"/><path class="brooklyn-cls-1" d="M70.6,120.3h0l-6.5-3.1a.48.48,0,0,1-.2-.6c.1-.2.4-.4.6-.2l6.5,3a.48.48,0,0,1,.2.6A.71.71,0,0,1,70.6,120.3Z" transform="translate(-0.01 -0.02)"/><path class="brooklyn-cls-1" d="M68.5,125.2h0l-6.7-2.7c-.2-.1-.4-.4-.3-.6s.4-.4.6-.3l6.6,2.7c.2.1.4.4.3.6S68.7,125.2,68.5,125.2Z" transform="translate(-0.01 -0.02)"/><path class="brooklyn-cls-1" d="M66.6,130.2h0l-6.8-2.4a.47.47,0,1,1,.3-.9h0l6.8,2.4a.45.45,0,0,1,.3.6C67.1,130.1,66.8,130.3,66.6,130.2Z" transform="translate(-0.01 -0.02)"/><path class="brooklyn-cls-1" d="M58.1,133.3a.49.49,0,0,1-.3-.6.42.42,0,0,1,.6-.3l6.9,2a.47.47,0,0,1-.3.9l-6.9-2Z" transform="translate(-0.01 -0.02)"/><path class="brooklyn-cls-1" d="M56.6,138.8a.49.49,0,0,1-.3-.6.55.55,0,0,1,.6-.4l7,1.6a.51.51,0,1,1-.2,1l-7.1-1.6Z" transform="translate(-0.01 -0.02)"/><path class="brooklyn-cls-1" d="M55.5,144.4c-.2-.1-.4-.3-.3-.5s.3-.4.6-.4l7,1.3a.55.55,0,0,1,.4.6c0,.3-.3.4-.6.4l-7.1-1.4Z" transform="translate(-0.01 -0.02)"/><path class="brooklyn-cls-1" d="M54.6,150.1c-.2-.1-.4-.3-.3-.5s.3-.5.5-.4l7.1.9c.3,0,.5.3.4.5s-.3.5-.5.4l-7.2-.9Z" transform="translate(-0.01 -0.02)"/><path class="brooklyn-cls-1" d="M54,155.8a.55.55,0,0,1-.3-.5.54.54,0,0,1,.5-.5l7.1.5a.5.5,0,1,1,0,1l-7.1-.5Z" transform="translate(-0.01 -0.02)"/><path class="brooklyn-cls-1" d="M53.8,161.5a.55.55,0,0,1-.3-.5.47.47,0,0,1,.5-.5l7.2.1a.5.5,0,1,1,0,1l-7.2-.1Z" transform="translate(-0.01 -0.02)"/><path class="brooklyn-cls-1" d="M53.8,167.2c-.2-.1-.3-.2-.3-.4a.47.47,0,0,1,.5-.5l7.2-.2a.5.5,0,1,1,0,1l-7.2.2C53.9,167.2,53.9,167.2,53.8,167.2Z" transform="translate(-0.01 -0.02)"/><path class="brooklyn-cls-1" d="M54.1,172.9c-.2-.1-.3-.2-.3-.4a.46.46,0,0,1,.4-.5l7.1-.6a.45.45,0,1,1,.1.9l-7.1.6Z" transform="translate(-0.01 -0.02)"/><path class="brooklyn-cls-1" d="M54.8,178.6c-.2-.1-.3-.2-.3-.4a.46.46,0,0,1,.4-.5l7.1-1c.3,0,.5.1.5.4a.46.46,0,0,1-.4.5l-7.1,1Z" transform="translate(-0.01 -0.02)"/><path class="brooklyn-cls-1" d="M55.7,184.3c-.2-.1-.3-.2-.3-.4s.1-.5.4-.6l7-1.3c.3-.1.5.1.6.4s-.1.5-.4.6l-7,1.3Z" transform="translate(-0.01 -0.02)"/><path class="brooklyn-cls-1" d="M56.9,189.8q-.3-.15-.3-.3c-.1-.3.1-.5.4-.6l7-1.7c.3-.1.5.1.6.4s-.1.5-.4.6l-7,1.7A.37.37,0,0,1,56.9,189.8Z" transform="translate(-0.01 -0.02)"/><path class="brooklyn-cls-1" d="M58.4,195.4a.45.45,0,0,1-.3-.3.49.49,0,0,1,.3-.6l6.9-2.1a.47.47,0,1,1,.3.9l-6.9,2.1Z" transform="translate(-0.01 -0.02)"/><path class="brooklyn-cls-1" d="M60.2,200.8c-.1,0-.2-.2-.3-.3a.42.42,0,0,1,.3-.6l6.7-2.4a.47.47,0,1,1,.3.9l-6.7,2.4Z" transform="translate(-0.01 -0.02)"/><path class="brooklyn-cls-1" d="M62.3,206.1q-.15,0-.3-.3a.45.45,0,0,1,.3-.6l6.6-2.8a.47.47,0,0,1,.3.9l-6.6,2.8A.19.19,0,0,1,62.3,206.1Z" transform="translate(-0.01 -0.02)"/><path class="brooklyn-cls-1" d="M64.7,211.3c-.1,0-.2-.1-.3-.2a.66.66,0,0,1,.2-.7l6.4-3.1a.51.51,0,0,1,.5.9l-6.4,3.1C64.9,211.4,64.8,211.4,64.7,211.3Z" transform="translate(-0.01 -0.02)"/><path class="brooklyn-cls-1" d="M67.3,216.4c-.1,0-.2-.1-.3-.2a.66.66,0,0,1,.2-.7l6.3-3.5a.51.51,0,1,1,.5.9l-6.3,3.5A.3.3,0,0,1,67.3,216.4Z" transform="translate(-0.01 -0.02)"/><path class="brooklyn-cls-1" d="M70.2,221.4c-.1,0-.2-.1-.3-.2a.53.53,0,0,1,.2-.7l6.1-3.8a.51.51,0,0,1,.5.9l-6.1,3.8Z" transform="translate(-0.01 -0.02)"/><path class="brooklyn-cls-1" d="M73.3,226.1a.22.22,0,0,1-.2-.2.49.49,0,0,1,.1-.7l5.9-4.1a.5.5,0,0,1,.6.8L73.8,226C73.6,226.2,73.5,226.2,73.3,226.1Z" transform="translate(-0.01 -0.02)"/><path class="brooklyn-cls-1" d="M76.7,230.8a.22.22,0,0,1-.2-.2.49.49,0,0,1,.1-.7l5.7-4.4a.5.5,0,0,1,.6.8l-5.7,4.4A.75.75,0,0,1,76.7,230.8Z" transform="translate(-0.01 -0.02)"/><path class="brooklyn-cls-1" d="M80.4,235.2a.35.35,0,0,1-.2-.1.43.43,0,0,1,.1-.7l5.4-4.7a.5.5,0,0,1,.6.8l-5.4,4.7Z" transform="translate(-0.01 -0.02)"/><path class="brooklyn-cls-1" d="M84.2,239.4c-.1,0-.1-.1-.2-.1a.48.48,0,0,1,0-.7l5.2-5a.49.49,0,1,1,.7.7l-5.2,5A.44.44,0,0,1,84.2,239.4Z" transform="translate(-0.01 -0.02)"/><path class="brooklyn-cls-1" d="M88.3,243.4c-.1,0-.1-.1-.2-.1a.48.48,0,0,1,0-.7l4.9-5.2a.49.49,0,0,1,.7.7l-4.9,5.2C88.7,243.5,88.5,243.5,88.3,243.4Z" transform="translate(-0.01 -0.02)"/><path class="brooklyn-cls-1" d="M92.6,247.2c-.1,0-.1,0-.2-.1a.62.62,0,0,1-.1-.7L97,241a.5.5,0,1,1,.8.6l-4.6,5.5A.48.48,0,0,1,92.6,247.2Z" transform="translate(-0.01 -0.02)"/><path class="brooklyn-cls-1" d="M97,250.8a.1.1,0,0,1-.1-.1.49.49,0,0,1-.1-.7l4.3-5.7a.5.5,0,1,1,.8.6l-4.3,5.7C97.4,250.8,97.2,250.9,97,250.8Z" transform="translate(-0.01 -0.02)"/><path class="brooklyn-cls-1" d="M101.7,254.2a.1.1,0,0,1-.1-.1.49.49,0,0,1-.1-.7l4-5.9a.5.5,0,0,1,.8.6l-4,5.9A.73.73,0,0,1,101.7,254.2Z" transform="translate(-0.01 -0.02)"/><path class="brooklyn-cls-1" d="M106.5,257.2h0a.59.59,0,0,1-.3-.7l3.7-6.1a.51.51,0,0,1,.9.5l-3.7,6.1A.48.48,0,0,1,106.5,257.2Z" transform="translate(-0.01 -0.02)"/><path class="brooklyn-cls-1" d="M111.5,260.1h0a.59.59,0,0,1-.3-.7l3.4-6.3a.51.51,0,0,1,.9.5l-3.4,6.3C111.9,260.1,111.7,260.2,111.5,260.1Z" transform="translate(-0.01 -0.02)"/><path class="brooklyn-cls-1" d="M116.6,262.7h0a.52.52,0,0,1-.3-.7l3-6.5c.1-.2.4-.4.6-.2a.48.48,0,0,1,.2.6l-3,6.5C117.1,262.6,116.8,262.7,116.6,262.7Z" transform="translate(-0.01 -0.02)"/><path class="brooklyn-cls-1" d="M121.8,264.9h0a.45.45,0,0,1-.3-.6l2.7-6.6c.1-.2.4-.4.6-.3s.4.4.3.6l-2.7,6.6A.42.42,0,0,1,121.8,264.9Z" transform="translate(-0.01 -0.02)"/><path class="brooklyn-cls-1" d="M127.2,267h0a.45.45,0,0,1-.3-.6l2.4-6.8a.45.45,0,0,1,.6-.3h0a.45.45,0,0,1,.3.6l-2.4,6.8C127.7,266.9,127.4,267.1,127.2,267Z" transform="translate(-0.01 -0.02)"/><path class="brooklyn-cls-1" d="M132.6,268.7a.49.49,0,0,1-.3-.6l2-6.9a.47.47,0,0,1,.9.3l-2,6.9c0,.2-.3.4-.6.3Z" transform="translate(-0.01 -0.02)"/><path class="brooklyn-cls-1" d="M138.2,270.2a.49.49,0,0,1-.3-.6l1.6-7a.51.51,0,0,1,1,.2l-1.6,7a.75.75,0,0,1-.7.4Z" transform="translate(-0.01 -0.02)"/><path class="brooklyn-cls-1" d="M143.8,271.3c-.2-.1-.4-.3-.3-.5l1.3-7c0-.3.3-.4.6-.4s.4.3.4.6l-1.3,7a.61.61,0,0,1-.7.3Z" transform="translate(-0.01 -0.02)"/><path class="brooklyn-cls-1" d="M149.4,272.2c-.2-.1-.4-.3-.3-.5l.9-7.1c0-.3.3-.5.5-.4s.5.3.4.5l-.9,7.1c0,.2-.2.4-.6.4Z" transform="translate(-0.01 -0.02)"/><path class="brooklyn-cls-1" d="M155.1,272.7a.55.55,0,0,1-.3-.5l.5-7.1a.5.5,0,0,1,1,0l-.5,7.1a.54.54,0,0,1-.5.5C155.2,272.8,155.2,272.8,155.1,272.7Z" transform="translate(-0.01 -0.02)"/><path class="brooklyn-cls-1" d="M160.9,273a.55.55,0,0,1-.3-.5l.1-7.2a.5.5,0,0,1,1,0l-.1,7.2a.47.47,0,0,1-.5.5Z" transform="translate(-0.01 -0.02)"/><path class="brooklyn-cls-1" d="M166.6,273c-.2-.1-.3-.2-.3-.4l-.2-7.2a.5.5,0,0,1,1,0l.2,7.2a.47.47,0,0,1-.5.5A.31.31,0,0,0,166.6,273Z" transform="translate(-0.01 -0.02)"/><path class="brooklyn-cls-1" d="M172.3,272.6c-.2-.1-.3-.2-.3-.4l-.6-7.1a.45.45,0,0,1,.9-.1l.6,7.1a.46.46,0,0,1-.4.5C172.4,272.7,172.4,272.7,172.3,272.6Z" transform="translate(-0.01 -0.02)"/><path class="brooklyn-cls-1" d="M178,272c-.2-.1-.3-.2-.3-.4l-1-7.1a.46.46,0,0,1,.4-.5c.3,0,.5.1.5.4l1,7.1a.46.46,0,0,1-.4.5Z" transform="translate(-0.01 -0.02)"/><path class="brooklyn-cls-1" d="M183.6,271.1c-.2-.1-.3-.2-.3-.4l-1.3-7c-.1-.3.1-.5.4-.6s.5.1.6.4l1.3,7c.1.3-.1.5-.4.6Z" transform="translate(-0.01 -0.02)"/><path class="brooklyn-cls-1" d="M189.2,269.9q-.3-.15-.3-.3l-1.7-7c-.1-.3.1-.5.4-.6s.5.1.6.4l1.7,7c.1.3-.1.5-.4.6A.37.37,0,0,0,189.2,269.9Z" transform="translate(-0.01 -0.02)"/><path class="brooklyn-cls-1" d="M194.7,268.3a.45.45,0,0,1-.3-.3l-2.1-6.9a.47.47,0,1,1,.9-.3l2.1,6.9a.49.49,0,0,1-.3.6A.19.19,0,0,1,194.7,268.3Z" transform="translate(-0.01 -0.02)"/><path class="brooklyn-cls-1" d="M200.2,266.5c-.1,0-.2-.2-.3-.3l-2.4-6.7a.47.47,0,0,1,.9-.3l2.4,6.7a.42.42,0,0,1-.3.6A.19.19,0,0,1,200.2,266.5Z" transform="translate(-0.01 -0.02)"/><path class="brooklyn-cls-1" d="M205.5,264.5q-.15,0-.3-.3l-2.8-6.6a.47.47,0,1,1,.9-.3l2.8,6.6a.45.45,0,0,1-.3.6Z" transform="translate(-0.01 -0.02)"/><path class="brooklyn-cls-1" d="M210.7,262.1c-.1,0-.2-.1-.3-.2l-3.1-6.4a.51.51,0,0,1,.9-.5l3.1,6.4a.66.66,0,0,1-.2.7Z" transform="translate(-0.01 -0.02)"/><path class="brooklyn-cls-1" d="M215.8,259.5c-.1,0-.2-.1-.3-.2L212,253a.51.51,0,1,1,.9-.5l3.5,6.3a.66.66,0,0,1-.2.7Z" transform="translate(-0.01 -0.02)"/><path class="brooklyn-cls-1" d="M220.7,256.6c-.1,0-.2-.1-.3-.2l-3.8-6.1a.51.51,0,1,1,.9-.5l3.8,6.1a.53.53,0,0,1-.2.7Z" transform="translate(-0.01 -0.02)"/><path class="brooklyn-cls-1" d="M225.5,253.4a.22.22,0,0,1-.2-.2l-4.1-5.9a.5.5,0,0,1,.8-.6l4.1,5.9a.49.49,0,0,1-.1.7C225.8,253.5,225.7,253.5,225.5,253.4Z" transform="translate(-0.01 -0.02)"/><path class="brooklyn-cls-1" d="M230.1,250a.22.22,0,0,1-.2-.2l-4.4-5.7a.5.5,0,1,1,.8-.6l4.4,5.7a.49.49,0,0,1-.1.7C230.5,250.1,230.3,250.1,230.1,250Z" transform="translate(-0.01 -0.02)"/><path class="brooklyn-cls-1" d="M234.6,246.4a.35.35,0,0,1-.2-.1l-4.7-5.4a.5.5,0,1,1,.8-.6l4.7,5.4a.43.43,0,0,1-.1.7C234.9,246.4,234.7,246.5,234.6,246.4Z" transform="translate(-0.01 -0.02)"/><path class="brooklyn-cls-1" d="M238.8,242.6c-.1,0-.1-.1-.2-.1l-5-5.2a.49.49,0,1,1,.7-.7l5,5.2a.48.48,0,0,1,0,.7A.75.75,0,0,1,238.8,242.6Z" transform="translate(-0.01 -0.02)"/><path class="brooklyn-cls-1" d="M242.8,238.5c-.1,0-.1-.1-.2-.1l-5.2-4.9a.49.49,0,0,1,.7-.7l5.2,4.9a.48.48,0,0,1,0,.7A.44.44,0,0,1,242.8,238.5Z" transform="translate(-0.01 -0.02)"/><path class="brooklyn-cls-1" d="M246.6,234.2c-.1,0-.1,0-.2-.1l-5.5-4.6a.5.5,0,0,1,.6-.8l5.5,4.6a.62.62,0,0,1,.1.7A.37.37,0,0,1,246.6,234.2Z" transform="translate(-0.01 -0.02)"/><path class="brooklyn-cls-1" d="M250.2,229.7a.1.1,0,0,1-.1-.1l-5.7-4.3a.5.5,0,0,1,.6-.8l5.7,4.3a.49.49,0,0,1,.1.7C250.6,229.8,250.4,229.8,250.2,229.7Z" transform="translate(-0.01 -0.02)"/><path class="brooklyn-cls-1" d="M253.5,225.1a.1.1,0,0,1-.1-.1l-5.9-4a.5.5,0,0,1,.6-.8l5.9,4a.49.49,0,0,1,.1.7A.48.48,0,0,1,253.5,225.1Z" transform="translate(-0.01 -0.02)"/><path class="brooklyn-cls-1" d="M256.6,220.3h0l-6.2-3.8a.51.51,0,1,1,.5-.9l6.1,3.7a.57.57,0,0,1,.2.7A.45.45,0,0,1,256.6,220.3Z" transform="translate(-0.01 -0.02)"/><path class="brooklyn-cls-1" d="M259.5,215.3h0l-6.4-3.4a.51.51,0,1,1,.5-.9l6.3,3.4a.57.57,0,0,1,.2.7C259.9,215.3,259.7,215.4,259.5,215.3Z" transform="translate(-0.01 -0.02)"/><path class="brooklyn-cls-1" d="M262,210.2h0l-6.5-3.1a.45.45,0,0,1,.4-.8l6.5,3a.48.48,0,0,1,.2.6A.42.42,0,0,1,262,210.2Z" transform="translate(-0.01 -0.02)"/><path class="brooklyn-cls-1" d="M264.3,204.9h0l-6.7-2.7c-.2-.1-.4-.4-.3-.6s.4-.4.6-.3l6.6,2.7c.2.1.4.4.3.6S264.6,205,264.3,204.9Z" transform="translate(-0.01 -0.02)"/><path class="brooklyn-cls-1" d="M266.3,199.6h0l-6.8-2.4a.47.47,0,0,1,.3-.9h0l6.8,2.4a.45.45,0,0,1,.3.6C266.9,199.5,266.6,199.7,266.3,199.6Z" transform="translate(-0.01 -0.02)"/><path class="brooklyn-cls-1" d="M261.2,192.1a.49.49,0,0,1-.3-.6.42.42,0,0,1,.6-.3l6.9,2a.47.47,0,1,1-.3.9l-6.9-2Z" transform="translate(-0.01 -0.02)"/><path class="brooklyn-cls-1" d="M262.6,187a.49.49,0,0,1-.3-.6.55.55,0,0,1,.6-.4l7,1.6a.51.51,0,0,1-.2,1l-7.1-1.6Z" transform="translate(-0.01 -0.02)"/><path class="brooklyn-cls-1" d="M263.6,181.7c-.2-.1-.4-.3-.3-.5s.3-.4.6-.4l7,1.3a.55.55,0,0,1,.4.6c0,.3-.3.4-.6.4l-7.1-1.4Z" transform="translate(-0.01 -0.02)"/><path class="brooklyn-cls-1" d="M264.4,176.4c-.2-.1-.4-.3-.3-.5s.3-.5.5-.4l7.1.9c.3,0,.5.3.4.5s-.3.5-.5.4l-7.1-.9C264.5,176.5,264.5,176.5,264.4,176.4Z" transform="translate(-0.01 -0.02)"/><path class="brooklyn-cls-1" d="M265,171.1a.55.55,0,0,1-.3-.5.54.54,0,0,1,.5-.5l7.1.5a.5.5,0,0,1,0,1l-7.1-.5Z" transform="translate(-0.01 -0.02)"/><path class="brooklyn-cls-1" d="M265.2,165.8a.55.55,0,0,1-.3-.5.47.47,0,0,1,.5-.5l7.2.1a.5.5,0,0,1,0,1l-7.2-.1Z" transform="translate(-0.01 -0.02)"/><path class="brooklyn-cls-1" d="M265.2,160.4c-.2-.1-.3-.2-.3-.4a.47.47,0,0,1,.5-.5l7.2-.2a.5.5,0,0,1,0,1l-7.2.2A.35.35,0,0,1,265.2,160.4Z" transform="translate(-0.01 -0.02)"/><path class="brooklyn-cls-1" d="M264.9,155.1c-.2-.1-.3-.2-.3-.4a.46.46,0,0,1,.4-.5l7.1-.6a.45.45,0,0,1,.1.9l-7.1.6Z" transform="translate(-0.01 -0.02)"/><path class="brooklyn-cls-1" d="M264.3,149.8c-.2-.1-.3-.2-.3-.4a.68.68,0,0,1,.4-.6l7.1-1a.51.51,0,1,1,.2,1l-7.1,1Z" transform="translate(-0.01 -0.02)"/><path class="brooklyn-cls-1" d="M263.4,144.5c-.2-.1-.3-.2-.3-.4s.1-.5.4-.6l7-1.3c.3-.1.5.1.6.4s-.1.5-.4.6l-7,1.3Z" transform="translate(-0.01 -0.02)"/><path class="brooklyn-cls-1" d="M262.3,139.3q-.3-.15-.3-.3c-.1-.3.1-.5.4-.6l7-1.7c.3-.1.5.1.6.4s-.1.5-.4.6l-7,1.7A.37.37,0,0,0,262.3,139.3Z" transform="translate(-0.01 -0.02)"/><path class="brooklyn-cls-1" d="M260.9,134.1a.45.45,0,0,1-.3-.3.49.49,0,0,1,.3-.6l6.9-2.1a.47.47,0,1,1,.3.9l-6.9,2.1Z" transform="translate(-0.01 -0.02)"/><path class="brooklyn-cls-1" d="M259.2,129c-.1,0-.2-.2-.3-.3a.42.42,0,0,1,.3-.6l6.7-2.4a.47.47,0,0,1,.3.9l-6.7,2.4A.19.19,0,0,1,259.2,129Z" transform="translate(-0.01 -0.02)"/><path class="brooklyn-cls-1" d="M257.2,124q-.15,0-.3-.3a.45.45,0,0,1,.3-.6l6.6-2.8a.47.47,0,1,1,.3.9l-6.6,2.8C257.5,124.1,257.3,124.1,257.2,124Z" transform="translate(-0.01 -0.02)"/><path class="brooklyn-cls-1" d="M255,119.2c-.1,0-.2-.1-.3-.2a.66.66,0,0,1,.2-.7l6.4-3.1a.51.51,0,0,1,.5.9l-6.4,3.1Z" transform="translate(-0.01 -0.02)"/><path class="brooklyn-cls-1" d="M252.6,114.4c-.1,0-.2-.1-.3-.2a.66.66,0,0,1,.2-.7l6.3-3.5a.51.51,0,0,1,.5.9l-6.3,3.5C252.8,114.5,252.7,114.5,252.6,114.4Z" transform="translate(-0.01 -0.02)"/><path class="brooklyn-cls-1" d="M249.9,109.8c-.1,0-.2-.1-.3-.2a.53.53,0,0,1,.2-.7l6.1-3.8a.51.51,0,1,1,.5.9l-6.1,3.8C250.2,109.8,250,109.9,249.9,109.8Z" transform="translate(-0.01 -0.02)"/><path class="brooklyn-cls-1" d="M246.9,105.3a.22.22,0,0,1-.2-.2.49.49,0,0,1,.1-.7l5.9-4.1a.5.5,0,1,1,.6.8l-5.9,4.1C247.2,105.4,247.1,105.4,246.9,105.3Z" transform="translate(-0.01 -0.02)"/><path class="brooklyn-cls-1" d="M243.8,101a.22.22,0,0,1-.2-.2.49.49,0,0,1,.1-.7l5.7-4.4a.5.5,0,1,1,.6.8l-5.7,4.4C244.1,101.1,243.9,101.1,243.8,101Z" transform="translate(-0.01 -0.02)"/><path class="brooklyn-cls-1" d="M240.4,96.9a.35.35,0,0,1-.2-.1.43.43,0,0,1,.1-.7l5.4-4.7a.5.5,0,0,1,.6.8l-5.4,4.7Z" transform="translate(-0.01 -0.02)"/><path class="brooklyn-cls-1" d="M236.8,92.9c-.1,0-.1-.1-.2-.1a.48.48,0,0,1,0-.7l5.2-5a.49.49,0,1,1,.7.7l-5.2,5C237.1,93,236.9,93,236.8,92.9Z" transform="translate(-0.01 -0.02)"/><path class="brooklyn-cls-1" d="M233,89.2c-.1,0-.1-.1-.2-.1a.48.48,0,0,1,0-.7l4.9-5.2a.49.49,0,1,1,.7.7l-4.9,5.2A1.09,1.09,0,0,1,233,89.2Z" transform="translate(-0.01 -0.02)"/><path class="brooklyn-cls-1" d="M229,85.6c-.1,0-.1,0-.2-.1a.62.62,0,0,1-.1-.7l4.6-5.5a.5.5,0,1,1,.8.6l-4.6,5.5A.37.37,0,0,1,229,85.6Z" transform="translate(-0.01 -0.02)"/><path class="brooklyn-cls-1" d="M224.8,82.3a.1.1,0,0,1-.1-.1.49.49,0,0,1-.1-.7l4.3-5.7a.5.5,0,1,1,.8.6l-4.3,5.7A.73.73,0,0,1,224.8,82.3Z" transform="translate(-0.01 -0.02)"/><path class="brooklyn-cls-1" d="M220.4,79.2a.1.1,0,0,1-.1-.1.49.49,0,0,1-.1-.7l4-5.9a.5.5,0,0,1,.8.6L221,79C220.9,79.2,220.7,79.2,220.4,79.2Z" transform="translate(-0.01 -0.02)"/><path class="brooklyn-cls-1" d="M215.9,76.3h0a.59.59,0,0,1-.3-.7l3.7-6.1a.51.51,0,1,1,.9.5l-3.7,6.1C216.4,76.3,216.2,76.3,215.9,76.3Z" transform="translate(-0.01 -0.02)"/><path class="brooklyn-cls-1" d="M211.3,73.6h0a.59.59,0,0,1-.3-.7l3.4-6.3a.51.51,0,1,1,.9.5l-3.4,6.3A.48.48,0,0,1,211.3,73.6Z" transform="translate(-0.01 -0.02)"/><path class="brooklyn-cls-1" d="M206.5,71.2h0a.52.52,0,0,1-.3-.7l3-6.5a.45.45,0,0,1,.8.4l-3,6.5A.34.34,0,0,1,206.5,71.2Z" transform="translate(-0.01 -0.02)"/><path class="brooklyn-cls-1" d="M201.6,69.1h0a.45.45,0,0,1-.3-.6l2.7-6.6a.47.47,0,1,1,.9.3l-2.7,6.6A.49.49,0,0,1,201.6,69.1Z" transform="translate(-0.01 -0.02)"/><path class="brooklyn-cls-1" d="M183.7,63.6a.49.49,0,0,1-.3-.6l1.4-7a.55.55,0,0,1,.6-.4c.3,0,.4.3.4.6l-1.4,7a.53.53,0,0,1-.7.4Z" transform="translate(-0.01 -0.02)"/><path class="brooklyn-cls-1" d="M178.5,62.7c-.2-.1-.4-.3-.3-.5l1.1-7.1c0-.3.3-.4.6-.4s.4.3.4.6l-1.1,7.1a.61.61,0,0,1-.7.3Z" transform="translate(-0.01 -0.02)"/><path class="brooklyn-cls-1" d="M173.2,62a.55.55,0,0,1-.3-.5l.7-7.1c0-.3.3-.5.5-.4s.5.3.4.5l-.7,7.1c0,.3-.3.5-.5.4C173.2,62.1,173.2,62,173.2,62Z" transform="translate(-0.01 -0.02)"/><path class="brooklyn-cls-1" d="M167.8,61.6a.55.55,0,0,1-.3-.5l.3-7.2a.5.5,0,0,1,1,0l-.3,7.2a.47.47,0,0,1-.5.5C167.9,61.7,167.9,61.7,167.8,61.6Z" transform="translate(-0.01 -0.02)"/><path class="brooklyn-cls-1" d="M162.5,61.5a.46.46,0,0,1-.3-.5V53.8a.5.5,0,0,1,1,0V61a.47.47,0,0,1-.5.5C162.6,61.6,162.5,61.6,162.5,61.5Z" transform="translate(-0.01 -0.02)"/><path class="brooklyn-cls-1" d="M157.1,61.7c-.2-.1-.3-.2-.3-.4l-.4-7.1a.5.5,0,0,1,1,0l.4,7.1a.47.47,0,0,1-.5.5C157.3,61.7,157.2,61.7,157.1,61.7Z" transform="translate(-0.01 -0.02)"/><path class="brooklyn-cls-1" d="M151.8,62.2c-.2-.1-.3-.2-.3-.4l-.8-7.1a.45.45,0,0,1,.9-.1l.8,7.1a.46.46,0,0,1-.4.5Z" transform="translate(-0.01 -0.02)"/><path class="brooklyn-cls-1" d="M146.5,62.9c-.2-.1-.3-.2-.3-.4L145,55.4a.51.51,0,0,1,1-.2l1.2,7.1a.55.55,0,0,1-.4.6Z" transform="translate(-0.01 -0.02)"/><path class="brooklyn-cls-1" d="M141.2,63.9c-.2-.1-.3-.2-.3-.4l-1.5-7c-.1-.3.1-.5.4-.6s.5.1.6.4l1.5,7c.1.3-.1.5-.4.6Z" transform="translate(-0.01 -0.02)"/><path class="brooklyn-cls-1" d="M136.1,65.2c-.1-.1-.3-.2-.3-.3L133.9,58a.47.47,0,1,1,.9-.3l1.9,6.9a.49.49,0,0,1-.3.6Z" transform="translate(-0.01 -0.02)"/><path class="brooklyn-cls-1" d="M130.9,66.7a.45.45,0,0,1-.3-.3l-2.3-6.8a.47.47,0,1,1,.9-.3l2.3,6.8a.49.49,0,0,1-.3.6A.19.19,0,0,1,130.9,66.7Z" transform="translate(-0.01 -0.02)"/><path class="brooklyn-cls-1" d="M125.9,68.5q-.15,0-.3-.3L123,61.5a.47.47,0,0,1,.9-.3l2.6,6.7a.42.42,0,0,1-.3.6A.19.19,0,0,1,125.9,68.5Z" transform="translate(-0.01 -0.02)"/><path class="brooklyn-cls-1" d="M121,70.6q-.15,0-.3-.3l-3-6.5a.45.45,0,1,1,.8-.4l3,6.5a.48.48,0,0,1-.2.6A.37.37,0,0,1,121,70.6Z" transform="translate(-0.01 -0.02)"/><path class="brooklyn-cls-1" d="M116.2,72.9c-.1,0-.2-.1-.3-.2l-3.3-6.4a.51.51,0,0,1,.9-.5l3.3,6.4a.66.66,0,0,1-.2.7C116.4,73,116.3,73,116.2,72.9Z" transform="translate(-0.01 -0.02)"/><path class="brooklyn-cls-1" d="M111.5,75.5c-.1,0-.2-.1-.3-.2l-3.6-6.2a.51.51,0,1,1,.9-.5l3.6,6.2a.53.53,0,0,1-.2.7A.3.3,0,0,1,111.5,75.5Z" transform="translate(-0.01 -0.02)"/><path class="brooklyn-cls-1" d="M106.9,78.3a.22.22,0,0,1-.2-.2l-3.9-6a.5.5,0,0,1,.8-.6l3.9,6a.62.62,0,0,1-.1.7C107.2,78.4,107.1,78.4,106.9,78.3Z" transform="translate(-0.01 -0.02)"/><path class="brooklyn-cls-1" d="M102.5,81.4a.22.22,0,0,1-.2-.2l-4.2-5.8a.5.5,0,1,1,.8-.6l4.2,5.8a.49.49,0,0,1-.1.7A.75.75,0,0,1,102.5,81.4Z" transform="translate(-0.01 -0.02)"/><path class="brooklyn-cls-1" d="M98.3,84.7a.22.22,0,0,1-.2-.2L93.6,79a.5.5,0,1,1,.8-.6l4.5,5.5a.49.49,0,0,1-.1.7A.9.9,0,0,1,98.3,84.7Z" transform="translate(-0.01 -0.02)"/><path class="brooklyn-cls-1" d="M94.3,88.2c-.1,0-.1-.1-.2-.1l-4.8-5.3a.49.49,0,0,1,.7-.7l4.8,5.3a.48.48,0,0,1,0,.7A1.09,1.09,0,0,1,94.3,88.2Z" transform="translate(-0.01 -0.02)"/><path class="brooklyn-cls-1" d="M90.4,91.9c-.1,0-.1-.1-.2-.1l-5.1-5a.49.49,0,1,1,.7-.7l5.1,5a.48.48,0,0,1,0,.7A.75.75,0,0,1,90.4,91.9Z" transform="translate(-0.01 -0.02)"/><path class="brooklyn-cls-1" d="M86.7,95.8c-.1,0-.1-.1-.2-.1l-5.3-4.8a.49.49,0,0,1,.7-.7L87.2,95a.48.48,0,0,1,0,.7A.75.75,0,0,1,86.7,95.8Z" transform="translate(-0.01 -0.02)"/><path class="brooklyn-cls-1" d="M83.3,99.9c-.1,0-.1,0-.1-.1l-5.6-4.5a.5.5,0,1,1,.6-.8L83.8,99a.62.62,0,0,1,.1.7A.73.73,0,0,1,83.3,99.9Z" transform="translate(-0.01 -0.02)"/><path class="brooklyn-cls-1" d="M80.1,104.1a.1.1,0,0,1-.1-.1l-5.8-4.2a.5.5,0,0,1,.6-.8l5.8,4.2a.49.49,0,0,1,.1.7C80.5,104.1,80.3,104.2,80.1,104.1Z" transform="translate(-0.01 -0.02)"/><path class="brooklyn-cls-1" d="M77.1,108.6a.1.1,0,0,1-.1-.1l-6-3.9a.5.5,0,1,1,.6-.8l6,3.9a.47.47,0,0,1,.1.7A.73.73,0,0,1,77.1,108.6Z" transform="translate(-0.01 -0.02)"/><path class="brooklyn-cls-1" d="M74.3,113.1h0L68,109.5a.51.51,0,0,1,.5-.9l6.2,3.5a.57.57,0,0,1,.2.7A.45.45,0,0,1,74.3,113.1Z" transform="translate(-0.01 -0.02)"/><path class="brooklyn-cls-1" d="M71.8,117.9c0-.1-.1-.1,0,0l-6.5-3.2a.51.51,0,0,1,.5-.9l6.4,3.2a.57.57,0,0,1,.2.7A1.07,1.07,0,0,1,71.8,117.9Z" transform="translate(-0.01 -0.02)"/><path class="brooklyn-cls-1" d="M69.5,122.7h0l-6.6-2.9c-.2-.1-.4-.4-.3-.6s.4-.4.6-.3l6.6,2.9c.2.1.4.4.3.6A.45.45,0,0,1,69.5,122.7Z" transform="translate(-0.01 -0.02)"/><path class="brooklyn-cls-1" d="M67.5,127.6h0l-6.7-2.5a.45.45,0,0,1-.3-.6.42.42,0,0,1,.6-.3l6.7,2.5a.47.47,0,1,1-.3.9Z" transform="translate(-0.01 -0.02)"/><path class="brooklyn-cls-1" d="M58.9,130.5c-.2-.1-.4-.4-.3-.6a.45.45,0,0,1,.6-.3l6.8,2.2a.47.47,0,1,1-.3.9l-6.8-2.2Z" transform="translate(-0.01 -0.02)"/><path class="brooklyn-cls-1" d="M57.3,136a.49.49,0,0,1-.3-.6.42.42,0,0,1,.6-.3l6.9,1.8a.47.47,0,0,1-.3.9L57.3,136Z" transform="translate(-0.01 -0.02)"/><path class="brooklyn-cls-1" d="M56,141.6a.49.49,0,0,1-.3-.6.55.55,0,0,1,.6-.4l7,1.4a.51.51,0,0,1-.2,1L56,141.6Z" transform="translate(-0.01 -0.02)"/><path class="brooklyn-cls-1" d="M55,147.2c-.2-.1-.4-.3-.3-.5s.3-.4.6-.4l7.1,1.1c.3,0,.4.3.4.6s-.3.4-.6.4L55,147.2Z" transform="translate(-0.01 -0.02)"/><path class="brooklyn-cls-1" d="M54.3,152.9a.55.55,0,0,1-.3-.5c0-.3.3-.5.5-.4l7.1.7c.3,0,.5.3.4.5s-.3.5-.5.4l-7.1-.7Z" transform="translate(-0.01 -0.02)"/><path class="brooklyn-cls-1" d="M53.9,158.6a.55.55,0,0,1-.3-.5.47.47,0,0,1,.5-.5l7.2.3a.5.5,0,0,1,0,1l-7.2-.3Z" transform="translate(-0.01 -0.02)"/><path class="brooklyn-cls-1" d="M53.7,164.3a.46.46,0,0,1-.3-.5.47.47,0,0,1,.5-.5h7.2a.5.5,0,0,1,0,1H53.9C53.9,164.4,53.8,164.4,53.7,164.3Z" transform="translate(-0.01 -0.02)"/><path class="brooklyn-cls-1" d="M53.9,170.1c-.2-.1-.3-.2-.3-.4a.47.47,0,0,1,.5-.5l7.1-.4a.5.5,0,0,1,0,1l-7.1.4C54.1,170.1,54,170.1,53.9,170.1Z" transform="translate(-0.01 -0.02)"/><path class="brooklyn-cls-1" d="M54.4,175.8c-.2-.1-.3-.2-.3-.4a.46.46,0,0,1,.4-.5l7.1-.8a.45.45,0,1,1,.1.9l-7.1.8Z" transform="translate(-0.01 -0.02)"/><path class="brooklyn-cls-1" d="M55.2,181.4c-.2-.1-.3-.2-.3-.4a.55.55,0,0,1,.4-.6l7.1-1.2a.51.51,0,1,1,.2,1l-7.1,1.2C55.3,181.5,55.3,181.5,55.2,181.4Z" transform="translate(-0.01 -0.02)"/><path class="brooklyn-cls-1" d="M56.3,187.1c-.2-.1-.3-.2-.3-.4s.1-.5.4-.6l7-1.5c.3-.1.5.1.6.4s-.1.5-.4.6l-7,1.5Z" transform="translate(-0.01 -0.02)"/><path class="brooklyn-cls-1" d="M57.6,192.6c-.1-.1-.3-.2-.3-.3a.49.49,0,0,1,.3-.6l6.9-1.9a.47.47,0,0,1,.3.9l-6.9,1.9Z" transform="translate(-0.01 -0.02)"/><path class="brooklyn-cls-1" d="M59.3,198.1a.45.45,0,0,1-.3-.3.49.49,0,0,1,.3-.6l6.8-2.3a.47.47,0,1,1,.3.9l-6.8,2.3Z" transform="translate(-0.01 -0.02)"/><path class="brooklyn-cls-1" d="M61.2,203.5q-.15,0-.3-.3a.42.42,0,0,1,.3-.6l6.7-2.6a.47.47,0,1,1,.3.9l-6.7,2.6Z" transform="translate(-0.01 -0.02)"/><path class="brooklyn-cls-1" d="M63.5,208.8q-.15,0-.3-.3a.48.48,0,0,1,.2-.6l6.5-2.9a.45.45,0,1,1,.4.8l-6.5,2.9A.37.37,0,0,1,63.5,208.8Z" transform="translate(-0.01 -0.02)"/><path class="brooklyn-cls-1" d="M66,213.9c-.1,0-.2-.1-.3-.2a.66.66,0,0,1,.2-.7l6.4-3.3a.51.51,0,0,1,.5.9l-6.4,3.3Z" transform="translate(-0.01 -0.02)"/><path class="brooklyn-cls-1" d="M68.7,218.9c-.1,0-.2-.1-.3-.2a.53.53,0,0,1,.2-.7l6.2-3.6a.51.51,0,1,1,.5.9l-6.2,3.6A.3.3,0,0,1,68.7,218.9Z" transform="translate(-0.01 -0.02)"/><path class="brooklyn-cls-1" d="M71.7,223.8a.22.22,0,0,1-.2-.2.62.62,0,0,1,.1-.7l6-3.9a.5.5,0,0,1,.6.8l-6,3.9A.9.9,0,0,1,71.7,223.8Z" transform="translate(-0.01 -0.02)"/><path class="brooklyn-cls-1" d="M75,228.5a.22.22,0,0,1-.2-.2.49.49,0,0,1,.1-.7l5.8-4.2a.5.5,0,0,1,.6.8l-5.8,4.2A1.09,1.09,0,0,1,75,228.5Z" transform="translate(-0.01 -0.02)"/><path class="brooklyn-cls-1" d="M78.5,233a.22.22,0,0,1-.2-.2.49.49,0,0,1,.1-.7l5.5-4.5a.5.5,0,1,1,.6.8L79,232.9C78.8,233,78.7,233.1,78.5,233Z" transform="translate(-0.01 -0.02)"/><path class="brooklyn-cls-1" d="M82.3,237.3c-.1,0-.1-.1-.2-.1a.48.48,0,0,1,0-.7l5.3-4.8a.49.49,0,0,1,.7.7l-5.3,4.8C82.6,237.4,82.4,237.4,82.3,237.3Z" transform="translate(-0.01 -0.02)"/><path class="brooklyn-cls-1" d="M86.2,241.5c-.1,0-.1-.1-.2-.1a.48.48,0,0,1,0-.7l5-5.1a.49.49,0,1,1,.7.7l-5,5.1A.75.75,0,0,1,86.2,241.5Z" transform="translate(-0.01 -0.02)"/><path class="brooklyn-cls-1" d="M90.4,245.4c-.1,0-.1-.1-.2-.1a.48.48,0,0,1,0-.7l4.8-5.3a.49.49,0,0,1,.7.7l-4.8,5.3A.75.75,0,0,1,90.4,245.4Z" transform="translate(-0.01 -0.02)"/><path class="brooklyn-cls-1" d="M94.8,249.1c-.1,0-.1,0-.1-.1a.62.62,0,0,1-.1-.7l4.5-5.6a.5.5,0,1,1,.8.6l-4.5,5.6A.73.73,0,0,1,94.8,249.1Z" transform="translate(-0.01 -0.02)"/><path class="brooklyn-cls-1" d="M99.3,252.5a.1.1,0,0,1-.1-.1.49.49,0,0,1-.1-.7l4.2-5.8a.5.5,0,0,1,.8.6l-4.2,5.8A.48.48,0,0,1,99.3,252.5Z" transform="translate(-0.01 -0.02)"/><path class="brooklyn-cls-1" d="M104.1,255.7a.1.1,0,0,1-.1-.1.47.47,0,0,1-.1-.7l3.9-6a.5.5,0,0,1,.8.6l-3.9,6C104.5,255.7,104.3,255.8,104.1,255.7Z" transform="translate(-0.01 -0.02)"/><path class="brooklyn-cls-1" d="M109,258.7h0a.59.59,0,0,1-.3-.7l3.5-6.2a.51.51,0,1,1,.9.5l-3.5,6.2C109.4,258.7,109.2,258.8,109,258.7Z" transform="translate(-0.01 -0.02)"/><path class="brooklyn-cls-1" d="M114,261.4h0a.52.52,0,0,1-.3-.7l3.2-6.4a.51.51,0,0,1,.9.5l-3.2,6.4A.48.48,0,0,1,114,261.4Z" transform="translate(-0.01 -0.02)"/><path class="brooklyn-cls-1" d="M119.2,263.8h0a.52.52,0,0,1-.3-.7l2.9-6.6c.1-.2.4-.4.6-.3s.4.4.3.6l-2.9,6.6C119.7,263.8,119.4,263.9,119.2,263.8Z" transform="translate(-0.01 -0.02)"/><path class="brooklyn-cls-1" d="M124.5,266h0a.45.45,0,0,1-.3-.6l2.5-6.7a.47.47,0,1,1,.9.3l-2.5,6.7A.45.45,0,0,1,124.5,266Z" transform="translate(-0.01 -0.02)"/><path class="brooklyn-cls-1" d="M129.9,267.9c-.2-.1-.4-.4-.3-.6l2.2-6.8a.47.47,0,0,1,.9.3l-2.2,6.8a.49.49,0,0,1-.6.3Z" transform="translate(-0.01 -0.02)"/><path class="brooklyn-cls-1" d="M135.4,269.5a.49.49,0,0,1-.3-.6l1.8-6.9a.47.47,0,1,1,.9.3l-1.8,6.9c0,.2-.3.3-.6.3Z" transform="translate(-0.01 -0.02)"/><path class="brooklyn-cls-1" d="M141,270.8a.49.49,0,0,1-.3-.6l1.5-7a.55.55,0,0,1,.6-.4c.3,0,.4.3.4.6l-1.5,7a.67.67,0,0,1-.7.4Z" transform="translate(-0.01 -0.02)"/><path class="brooklyn-cls-1" d="M146.6,271.8c-.2-.1-.4-.3-.3-.5l1.1-7.1c0-.3.3-.4.6-.4s.4.3.4.6l-1.1,7.1c-.1.2-.3.3-.7.3Z" transform="translate(-0.01 -0.02)"/><path class="brooklyn-cls-1" d="M152.3,272.5a.55.55,0,0,1-.3-.5l.7-7.1c0-.3.3-.5.5-.4s.5.3.4.5l-.7,7.1c0,.3-.3.5-.5.4Z" transform="translate(-0.01 -0.02)"/><path class="brooklyn-cls-1" d="M158,272.9a.55.55,0,0,1-.3-.5l.3-7.2a.5.5,0,0,1,1,0l-.3,7.2a.47.47,0,0,1-.5.5Z" transform="translate(-0.01 -0.02)"/><path class="brooklyn-cls-1" d="M163.7,273a.46.46,0,0,1-.3-.5v-7.2a.5.5,0,0,1,1,0v7.2a.47.47,0,0,1-.5.5C163.8,273.1,163.8,273,163.7,273Z" transform="translate(-0.01 -0.02)"/><path class="brooklyn-cls-1" d="M169.4,272.8c-.2-.1-.3-.2-.3-.4l-.4-7.1a.5.5,0,0,1,1,0l.4,7.1a.47.47,0,0,1-.5.5A.31.31,0,0,1,169.4,272.8Z" transform="translate(-0.01 -0.02)"/><path class="brooklyn-cls-1" d="M175.1,272.4c-.2-.1-.3-.2-.3-.4l-.8-7.1a.45.45,0,0,1,.9-.1l.8,7.1a.46.46,0,0,1-.4.5Z" transform="translate(-0.01 -0.02)"/><path class="brooklyn-cls-1" d="M180.8,271.6c-.2-.1-.3-.2-.3-.4l-1.2-7.1a.51.51,0,0,1,1-.2l1.2,7.1a.55.55,0,0,1-.4.6Z" transform="translate(-0.01 -0.02)"/><path class="brooklyn-cls-1" d="M186.4,270.5c-.2-.1-.3-.2-.3-.4l-1.5-7c-.1-.3.1-.5.4-.6s.5.1.6.4l1.5,7c.1.3-.1.5-.4.6Z" transform="translate(-0.01 -0.02)"/><path class="brooklyn-cls-1" d="M192,269.1c-.1-.1-.3-.2-.3-.3l-1.9-6.9a.47.47,0,0,1,.9-.3l1.9,6.9a.49.49,0,0,1-.3.6A.19.19,0,0,1,192,269.1Z" transform="translate(-0.01 -0.02)"/><path class="brooklyn-cls-1" d="M197.5,267.5a.45.45,0,0,1-.3-.3l-2.2-6.8a.47.47,0,0,1,.9-.3l2.2,6.8a.49.49,0,0,1-.3.6Z" transform="translate(-0.01 -0.02)"/><path class="brooklyn-cls-1" d="M202.8,265.5q-.15,0-.3-.3l-2.6-6.7a.42.42,0,0,1,.3-.6.45.45,0,0,1,.6.3l2.6,6.7a.42.42,0,0,1-.3.6Q203.1,265.65,202.8,265.5Z" transform="translate(-0.01 -0.02)"/><path class="brooklyn-cls-1" d="M208.1,263.3q-.15,0-.3-.3l-2.9-6.5a.45.45,0,1,1,.8-.4l2.9,6.5a.48.48,0,0,1-.2.6C208.4,263.4,208.2,263.4,208.1,263.3Z" transform="translate(-0.01 -0.02)"/><path class="brooklyn-cls-1" d="M213.3,260.8c-.1,0-.2-.1-.3-.2l-3.3-6.4a.51.51,0,1,1,.9-.5l3.3,6.4a.66.66,0,0,1-.2.7C213.5,260.9,213.4,260.9,213.3,260.8Z" transform="translate(-0.01 -0.02)"/><path class="brooklyn-cls-1" d="M218.3,258.1c-.1,0-.2-.1-.3-.2l-3.6-6.2a.51.51,0,0,1,.9-.5l3.6,6.2a.53.53,0,0,1-.2.7Z" transform="translate(-0.01 -0.02)"/><path class="brooklyn-cls-1" d="M223.2,255a.22.22,0,0,1-.2-.2l-3.9-6a.5.5,0,0,1,.8-.6l3.9,6a.62.62,0,0,1-.1.7C223.4,255.1,223.3,255.1,223.2,255Z" transform="translate(-0.01 -0.02)"/><path class="brooklyn-cls-1" d="M227.9,251.8a.22.22,0,0,1-.2-.2l-4.2-5.8a.5.5,0,0,1,.8-.6l4.2,5.8a.49.49,0,0,1-.1.7A1.09,1.09,0,0,1,227.9,251.8Z" transform="translate(-0.01 -0.02)"/><path class="brooklyn-cls-1" d="M232.4,248.3a.22.22,0,0,1-.2-.2l-4.5-5.5a.5.5,0,1,1,.8-.6l4.5,5.5a.49.49,0,0,1-.1.7A1.09,1.09,0,0,1,232.4,248.3Z" transform="translate(-0.01 -0.02)"/><path class="brooklyn-cls-1" d="M236.7,244.5c-.1,0-.1-.1-.2-.1l-4.8-5.3a.49.49,0,0,1,.7-.7l4.8,5.3a.48.48,0,0,1,0,.7A.44.44,0,0,1,236.7,244.5Z" transform="translate(-0.01 -0.02)"/><path class="brooklyn-cls-1" d="M240.8,240.6c-.1,0-.1-.1-.2-.1l-5.1-5a.49.49,0,0,1,.7-.7l5.1,5a.48.48,0,0,1,0,.7A.75.75,0,0,1,240.8,240.6Z" transform="translate(-0.01 -0.02)"/><path class="brooklyn-cls-1" d="M244.7,236.4c-.1,0-.1-.1-.2-.1l-5.3-4.8a.49.49,0,0,1,.7-.7l5.3,4.8a.48.48,0,0,1,0,.7A.75.75,0,0,1,244.7,236.4Z" transform="translate(-0.01 -0.02)"/><path class="brooklyn-cls-1" d="M248.4,232c-.1,0-.1,0-.1-.1l-5.6-4.5a.5.5,0,0,1,.6-.8l5.6,4.5a.62.62,0,0,1,.1.7C248.8,232,248.6,232.1,248.4,232Z" transform="translate(-0.01 -0.02)"/><path class="brooklyn-cls-1" d="M251.9,227.4a.1.1,0,0,1-.1-.1l-5.8-4.2a.5.5,0,0,1,.6-.8l5.8,4.2a.49.49,0,0,1,.1.7C252.3,227.4,252.1,227.5,251.9,227.4Z" transform="translate(-0.01 -0.02)"/><path class="brooklyn-cls-1" d="M255.1,222.7a.1.1,0,0,1-.1-.1l-6-3.9a.47.47,0,0,1-.1-.7.48.48,0,0,1,.7-.1l6,3.9a.47.47,0,0,1,.1.7A.48.48,0,0,1,255.1,222.7Z" transform="translate(-0.01 -0.02)"/><path class="brooklyn-cls-1" d="M258.1,217.8h0l-6.3-3.6a.51.51,0,1,1,.5-.9l6.2,3.5a.57.57,0,0,1,.2.7Q258.4,218,258.1,217.8Z" transform="translate(-0.01 -0.02)"/><path class="brooklyn-cls-1" d="M260.8,212.8h0l-6.5-3.2a.51.51,0,1,1,.5-.9l6.4,3.2a.57.57,0,0,1,.2.7A1.07,1.07,0,0,1,260.8,212.8Z" transform="translate(-0.01 -0.02)"/><path class="brooklyn-cls-1" d="M263.2,207.6h0l-6.6-2.9c-.2-.1-.4-.4-.3-.6s.4-.4.6-.3l6.6,2.9c.2.1.4.4.3.6A.45.45,0,0,1,263.2,207.6Z" transform="translate(-0.01 -0.02)"/><path class="brooklyn-cls-1" d="M265.4,202.3h0l-6.7-2.5a.47.47,0,0,1,.3-.9l6.7,2.5a.45.45,0,0,1,.3.6C265.9,202.2,265.6,202.4,265.4,202.3Z" transform="translate(-0.01 -0.02)"/><path class="brooklyn-cls-1" d="M260.4,194.7c-.2-.1-.4-.4-.3-.6a.45.45,0,0,1,.6-.3l6.8,2.2a.47.47,0,1,1-.3.9l-6.8-2.2Z" transform="translate(-0.01 -0.02)"/><path class="brooklyn-cls-1" d="M261.9,189.6a.49.49,0,0,1-.3-.6.42.42,0,0,1,.6-.3l6.9,1.8a.47.47,0,0,1-.3.9l-6.9-1.8Z" transform="translate(-0.01 -0.02)"/><path class="brooklyn-cls-1" d="M263.1,184.4a.49.49,0,0,1-.3-.6.55.55,0,0,1,.6-.4l7,1.4c.3,0,.4.3.4.6a.55.55,0,0,1-.6.4l-7.1-1.4Z" transform="translate(-0.01 -0.02)"/><path class="brooklyn-cls-1" d="M264.1,179.1c-.2-.1-.4-.3-.3-.5s.3-.4.6-.4l7.1,1.1c.3,0,.4.3.4.6s-.3.4-.6.4l-7.2-1.2Z" transform="translate(-0.01 -0.02)"/><path class="brooklyn-cls-1" d="M264.7,173.8a.55.55,0,0,1-.3-.5c0-.3.3-.5.5-.4l7.1.7c.3,0,.5.3.4.5s-.3.5-.5.4l-7.1-.7Z" transform="translate(-0.01 -0.02)"/><path class="brooklyn-cls-1" d="M265.1,168.4a.55.55,0,0,1-.3-.5.47.47,0,0,1,.5-.5l7.2.3a.5.5,0,0,1,0,1l-7.2-.3C265.2,168.5,265.2,168.5,265.1,168.4Z" transform="translate(-0.01 -0.02)"/><path class="brooklyn-cls-1" d="M265.2,163.1a.46.46,0,0,1-.3-.5.47.47,0,0,1,.5-.5h7.2a.5.5,0,0,1,0,1h-7.4Z" transform="translate(-0.01 -0.02)"/><path class="brooklyn-cls-1" d="M265.1,157.8c-.2-.1-.3-.2-.3-.4a.47.47,0,0,1,.5-.5l7.1-.4a.5.5,0,0,1,0,1l-7.1.4A.31.31,0,0,0,265.1,157.8Z" transform="translate(-0.01 -0.02)"/><path class="brooklyn-cls-1" d="M264.6,152.4c-.2-.1-.3-.2-.3-.4a.46.46,0,0,1,.4-.5l7.1-.8a.45.45,0,0,1,.1.9l-7.1.8C264.8,152.5,264.7,152.4,264.6,152.4Z" transform="translate(-0.01 -0.02)"/><path class="brooklyn-cls-1" d="M263.9,147.1c-.2-.1-.3-.2-.3-.4a.55.55,0,0,1,.4-.6l7.1-1.2a.51.51,0,1,1,.2,1l-7.1,1.2C264,147.2,264,147.2,263.9,147.1Z" transform="translate(-0.01 -0.02)"/><path class="brooklyn-cls-1" d="M262.9,141.9c-.2-.1-.3-.2-.3-.4s.1-.5.4-.6l7-1.5c.3-.1.5.1.6.4s-.1.5-.4.6l-7,1.5Z" transform="translate(-0.01 -0.02)"/><path class="brooklyn-cls-1" d="M261.6,136.7c-.1-.1-.3-.2-.3-.3a.49.49,0,0,1,.3-.6l6.9-1.9a.47.47,0,0,1,.3.9l-6.9,1.9Z" transform="translate(-0.01 -0.02)"/><path class="brooklyn-cls-1" d="M260.1,131.6a.45.45,0,0,1-.3-.3.49.49,0,0,1,.3-.6l6.8-2.3a.47.47,0,0,1,.3.9l-6.8,2.3Z" transform="translate(-0.01 -0.02)"/><path class="brooklyn-cls-1" d="M258.2,126.5q-.15,0-.3-.3a.42.42,0,0,1,.3-.6l6.7-2.6a.47.47,0,0,1,.3.9l-6.7,2.6C258.5,126.6,258.3,126.6,258.2,126.5Z" transform="translate(-0.01 -0.02)"/><path class="brooklyn-cls-1" d="M256.2,121.6q-.15,0-.3-.3a.48.48,0,0,1,.2-.6l6.5-2.9a.45.45,0,1,1,.4.8l-6.5,2.9A.37.37,0,0,1,256.2,121.6Z" transform="translate(-0.01 -0.02)"/><path class="brooklyn-cls-1" d="M253.8,116.8c-.1,0-.2-.1-.3-.2a.66.66,0,0,1,.2-.7l6.4-3.3a.51.51,0,0,1,.5.9l-6.4,3.3Z" transform="translate(-0.01 -0.02)"/><path class="brooklyn-cls-1" d="M251.3,112.1c-.1,0-.2-.1-.3-.2a.53.53,0,0,1,.2-.7l6.2-3.6a.51.51,0,0,1,.5.9l-6.2,3.6Z" transform="translate(-0.01 -0.02)"/><path class="brooklyn-cls-1" d="M248.4,107.6a.22.22,0,0,1-.2-.2.62.62,0,0,1,.1-.7l6-3.9a.5.5,0,0,1,.6.8l-6,3.9A.9.9,0,0,1,248.4,107.6Z" transform="translate(-0.01 -0.02)"/><path class="brooklyn-cls-1" d="M245.4,103.2a.22.22,0,0,1-.2-.2.49.49,0,0,1,.1-.7l5.8-4.2a.5.5,0,1,1,.6.8l-5.8,4.2A1.09,1.09,0,0,1,245.4,103.2Z" transform="translate(-0.01 -0.02)"/><path class="brooklyn-cls-1" d="M242.1,98.9a.22.22,0,0,1-.2-.2.49.49,0,0,1,.1-.7l5.5-4.5a.5.5,0,1,1,.6.8l-5.5,4.5C242.4,99,242.2,99,242.1,98.9Z" transform="translate(-0.01 -0.02)"/><path class="brooklyn-cls-1" d="M238.6,94.9c-.1,0-.1-.1-.2-.1a.48.48,0,0,1,0-.7l5.3-4.8a.49.49,0,1,1,.7.7l-5.3,4.8A.9.9,0,0,1,238.6,94.9Z" transform="translate(-0.01 -0.02)"/><path class="brooklyn-cls-1" d="M234.9,91c-.1,0-.1-.1-.2-.1a.48.48,0,0,1,0-.7l5-5.1a.49.49,0,1,1,.7.7l-5,5.1C235.3,91.1,235.1,91.1,234.9,91Z" transform="translate(-0.01 -0.02)"/><path class="brooklyn-cls-1" d="M231,87.4c-.1,0-.1-.1-.2-.1a.48.48,0,0,1,0-.7l4.8-5.3a.49.49,0,0,1,.7.7l-4.8,5.3A.75.75,0,0,1,231,87.4Z" transform="translate(-0.01 -0.02)"/><path class="brooklyn-cls-1" d="M226.9,83.9c-.1,0-.1,0-.1-.1a.62.62,0,0,1-.1-.7l4.5-5.6a.5.5,0,0,1,.8.6l-4.5,5.6C227.3,83.9,227.1,84,226.9,83.9Z" transform="translate(-0.01 -0.02)"/><path class="brooklyn-cls-1" d="M222.6,80.7a.1.1,0,0,1-.1-.1.49.49,0,0,1-.1-.7l4.2-5.8a.5.5,0,1,1,.8.6l-4.2,5.8A.48.48,0,0,1,222.6,80.7Z" transform="translate(-0.01 -0.02)"/><path class="brooklyn-cls-1" d="M218.2,77.7a.1.1,0,0,1-.1-.1.47.47,0,0,1-.1-.7l3.9-6a.48.48,0,0,1,.7-.1.47.47,0,0,1,.1.7l-3.9,6A.48.48,0,0,1,218.2,77.7Z" transform="translate(-0.01 -0.02)"/><path class="brooklyn-cls-1" d="M213.6,74.9h0a.59.59,0,0,1-.3-.7l3.5-6.2a.51.51,0,1,1,.9.5l-3.5,6.2A.45.45,0,0,1,213.6,74.9Z" transform="translate(-0.01 -0.02)"/><path class="brooklyn-cls-1" d="M208.9,72.4h0a.52.52,0,0,1-.3-.7l3.2-6.4a.51.51,0,0,1,.9.5l-3.2,6.4A.48.48,0,0,1,208.9,72.4Z" transform="translate(-0.01 -0.02)"/><path class="brooklyn-cls-1" d="M204.1,70.1h0a.52.52,0,0,1-.3-.7l2.9-6.6c.1-.2.4-.4.6-.3s.4.4.3.6l-2.9,6.6C204.6,70.1,204.3,70.2,204.1,70.1Z" transform="translate(-0.01 -0.02)"/><path class="brooklyn-cls-1" d="M199.1,68.1h0a.45.45,0,0,1-.3-.6l2.5-6.7c.1-.2.4-.4.6-.3h0a.45.45,0,0,1,.3.6l-2.5,6.7A.42.42,0,0,1,199.1,68.1Z" transform="translate(-0.01 -0.02)"/><path class="brooklyn-cls-1" d="M194.1,66.3c-.2-.1-.4-.4-.3-.6l2.2-6.8a.47.47,0,1,1,.9.3L194.7,66a.45.45,0,0,1-.6.3Z" transform="translate(-0.01 -0.02)"/><path class="brooklyn-cls-1" d="M188.9,64.9a.49.49,0,0,1-.3-.6l1.8-6.9a.47.47,0,1,1,.9.3l-1.8,6.9c0,.2-.3.3-.6.3Z" transform="translate(-0.01 -0.02)"/><path class="brooklyn-cls-1" d="M125.7,271.2A114.35,114.35,0,0,1,55.3,125.8C76,66.2,141.2,34.6,200.7,55.3a114.35,114.35,0,0,1,70.4,145.4C250.5,260.2,185.2,291.8,125.7,271.2ZM199.9,57.8A111.7,111.7,0,0,0,57.8,126.6c-20.2,58.1,10.7,121.9,68.8,142.1S248.5,258,268.7,199.9A111.78,111.78,0,0,0,199.9,57.8Z" transform="translate(-0.01 -0.02)"/><rect class="brooklyn-cls-1" x="198.79" y="50.86" width="5.3" height="5" transform="translate(84.89 226.09) rotate(-70.83)"/><rect class="brooklyn-cls-1" x="189.06" y="47.93" width="5.3" height="5" transform="translate(95.9 223.96) rotate(-75.84)"/><rect class="brooklyn-cls-1" x="179.08" y="45.94" width="5.3" height="5" transform="translate(104.94 220.11) rotate(-80.83)"/><rect class="brooklyn-cls-1" x="169.07" y="44.78" width="5.3" height="5" transform="translate(112.09 215.1) rotate(-85.84)"/><rect class="brooklyn-cls-1" x="159" y="44.3" width="5" height="5.3" transform="translate(-0.68 2.33) rotate(-0.83)"/><rect class="brooklyn-cls-1" x="148.9" y="44.89" width="5" height="5.3" transform="translate(-4.06 15.62) rotate(-5.84)"/><rect class="brooklyn-cls-1" x="138.9" y="46.39" width="5" height="5.3" transform="translate(-6.71 27.47) rotate(-10.85)"/><rect class="brooklyn-cls-1" x="129" y="48.7" width="5" height="5.3" transform="translate(-9.03 37.81) rotate(-15.84)"/><rect class="brooklyn-cls-1" x="119.39" y="51.89" width="5" height="5.3" transform="translate(-11.44 46.89) rotate(-20.83)"/><rect class="brooklyn-cls-1" x="110.08" y="55.89" width="5" height="5.3" transform="translate(-14.27 54.86) rotate(-25.82)"/><rect class="brooklyn-cls-1" x="101.14" y="60.81" width="5" height="5.3" transform="translate(-17.89 62.06) rotate(-30.83)"/><rect class="brooklyn-cls-1" x="92.69" y="66.27" width="5" height="5.3" transform="translate(-22.35 68.76) rotate(-35.84)"/><rect class="brooklyn-cls-1" x="84.7" y="72.6" width="5" height="5.3" transform="translate(-28 75.33) rotate(-40.84)"/><rect class="brooklyn-cls-1" x="77.33" y="79.6" width="5" height="5.3" transform="translate(-34.8 82.21) rotate(-45.85)"/><rect class="brooklyn-cls-1" x="70.63" y="87.15" width="5" height="5.3" transform="translate(-42.7 89.8) rotate(-50.85)"/><rect class="brooklyn-cls-1" x="64.52" y="95.3" width="5" height="5.3" transform="translate(-51.67 98.41) rotate(-55.85)"/><rect class="brooklyn-cls-1" x="59.18" y="103.9" width="5" height="5.3" transform="translate(-61.44 108.51) rotate(-60.86)"/><rect class="brooklyn-cls-1" x="54.63" y="113.02" width="5" height="5.3" transform="translate(-71.8 120.5) rotate(-65.87)"/><rect class="brooklyn-cls-1" x="50.88" y="122.39" width="5" height="5.3" transform="translate(-82.26 134.48) rotate(-70.88)"/><rect class="brooklyn-cls-1" x="48.05" y="132.12" width="5" height="5.3" transform="translate(-92.49 150.89) rotate(-75.88)"/><rect class="brooklyn-cls-1" x="45.95" y="142.1" width="5" height="5.3" transform="translate(-102.17 169.61) rotate(-80.87)"/><rect class="brooklyn-cls-1" x="44.81" y="152.1" width="5" height="5.3" transform="translate(-110.46 190.76) rotate(-85.87)"/><rect class="brooklyn-cls-1" x="44.3" y="162.4" width="5.3" height="5" transform="translate(-2.5 0.7) rotate(-0.87)"/><rect class="brooklyn-cls-1" x="44.91" y="172.61" width="5.3" height="5" transform="translate(-17.68 5.76) rotate(-5.87)"/><rect class="brooklyn-cls-1" x="46.39" y="182.59" width="5.3" height="5" transform="translate(-34.04 12.55) rotate(-10.87)"/><rect class="brooklyn-cls-1" x="48.71" y="192.49" width="5.3" height="5" transform="translate(-51.42 21.48) rotate(-15.88)"/><rect class="brooklyn-cls-1" x="51.9" y="202.1" width="5.3" height="5" transform="translate(-69.33 32.84) rotate(-20.87)"/><rect class="brooklyn-cls-1" x="55.88" y="211.4" width="5.3" height="5" transform="translate(-87.5 46.97) rotate(-25.88)"/><rect class="brooklyn-cls-1" x="60.83" y="220.37" width="5.3" height="5" transform="matrix(0.86, -0.51, 0.51, 0.86, -105.37, 64.11)"/><rect class="brooklyn-cls-1" x="66.28" y="228.8" width="5.3" height="5" transform="translate(-122.45 84.2) rotate(-35.86)"/><rect class="brooklyn-cls-1" x="72.62" y="236.8" width="5.3" height="5" transform="translate(-138.24 107.55) rotate(-40.86)"/><rect class="brooklyn-cls-1" x="79.61" y="244.16" width="5.3" height="5" transform="translate(-152.05 133.88) rotate(-45.86)"/><rect class="brooklyn-cls-1" x="87.17" y="250.86" width="5.3" height="5" transform="translate(-163.41 163.12) rotate(-50.87)"/><rect class="brooklyn-cls-1" x="95.31" y="256.98" width="5.3" height="5" transform="translate(-171.81 194.98) rotate(-55.87)"/><rect class="brooklyn-cls-1" x="103.91" y="262.29" width="5.3" height="5" transform="translate(-176.63 229.01) rotate(-60.88)"/><rect class="brooklyn-cls-1" x="112.96" y="266.8" width="5.3" height="5" transform="translate(-177.43 264.73) rotate(-65.88)"/><rect class="brooklyn-cls-1" x="122.4" y="270.6" width="5.3" height="5" transform="translate(-173.95 301.78) rotate(-70.88)"/><rect class="brooklyn-cls-1" x="132.12" y="273.53" width="5.3" height="5" transform="translate(-165.8 339.39) rotate(-75.88)"/><rect class="brooklyn-cls-1" x="142.12" y="275.51" width="5.3" height="5" transform="translate(-152.67 376.89) rotate(-80.89)"/><rect class="brooklyn-cls-1" x="152.11" y="276.67" width="5.3" height="5" transform="translate(-134.8 413.47) rotate(-85.89)"/><rect class="brooklyn-cls-1" x="162.4" y="276.91" width="5" height="5.3" transform="translate(-4.31 2.56) rotate(-0.88)"/><rect class="brooklyn-cls-1" x="172.59" y="276.29" width="5" height="5.3" transform="translate(-27.68 19.39) rotate(-5.88)"/><rect class="brooklyn-cls-1" x="182.61" y="274.78" width="5" height="5.3" transform="translate(-49.06 39.92) rotate(-10.88)"/><rect class="brooklyn-cls-1" x="192.49" y="272.49" width="5" height="5.3" transform="translate(-67.85 63.83) rotate(-15.88)"/><rect class="brooklyn-cls-1" x="202.1" y="269.3" width="5" height="5.3" transform="translate(-83.46 90.69) rotate(-20.87)"/><rect class="brooklyn-cls-1" x="211.41" y="265.31" width="5" height="5.3" transform="translate(-95.52 120.23) rotate(-25.88)"/><rect class="brooklyn-cls-1" x="220.41" y="260.46" width="5" height="5.3" transform="translate(-103.44 151.63) rotate(-30.87)"/><rect class="brooklyn-cls-1" x="228.83" y="254.91" width="5" height="5.3" transform="translate(-107.05 184.34) rotate(-35.87)"/><rect class="brooklyn-cls-1" x="236.82" y="248.57" width="5" height="5.3" transform="translate(-106.05 217.84) rotate(-40.87)"/><rect class="brooklyn-cls-1" x="244.16" y="241.56" width="5" height="5.3" transform="translate(-100.38 251.22) rotate(-45.88)"/><rect class="brooklyn-cls-1" x="250.95" y="234.07" width="5" height="5.3" transform="translate(-90.14 283.9) rotate(-50.87)"/><rect class="brooklyn-cls-1" x="256.99" y="225.87" width="5" height="5.3" transform="translate(-75.29 315.03) rotate(-55.86)"/><rect class="brooklyn-cls-1" x="262.33" y="217.25" width="5" height="5.3" transform="translate(-56.2 344.13) rotate(-60.86)"/><rect class="brooklyn-cls-1" x="266.83" y="208.22" width="5" height="5.3" transform="translate(-33.25 370.41) rotate(-65.86)"/><rect class="brooklyn-cls-1" x="270.63" y="198.76" width="5" height="5.3" transform="translate(-6.69 393.41) rotate(-70.87)"/><rect class="brooklyn-cls-1" x="273.55" y="189.06" width="5" height="5.3" transform="translate(22.7 412.54) rotate(-75.86)"/><rect class="brooklyn-cls-1" x="275.53" y="179.16" width="5" height="5.3" transform="translate(54.34 427.39) rotate(-80.86)"/><rect class="brooklyn-cls-1" x="276.78" y="169.06" width="5" height="5.3" transform="translate(87.84 437.84) rotate(-85.86)"/><rect class="brooklyn-cls-1" x="276.9" y="159.1" width="5.3" height="5" transform="translate(-2.39 4.16) rotate(-0.85)"/><rect class="brooklyn-cls-1" x="276.3" y="148.9" width="5.3" height="5" transform="translate(-14 29.22) rotate(-5.85)"/><rect class="brooklyn-cls-1" x="274.8" y="138.9" width="5.3" height="5" transform="translate(-21.67 54.75) rotate(-10.85)"/><rect class="brooklyn-cls-1" x="272.51" y="128.99" width="5.3" height="5" transform="translate(-25.47 80.15) rotate(-15.85)"/><rect class="brooklyn-cls-1" x="269.31" y="119.38" width="5.3" height="5" transform="translate(-25.58 104.78) rotate(-20.85)"/><rect class="brooklyn-cls-1" x="265.3" y="110.07" width="5.3" height="5" transform="translate(-22.29 128.01) rotate(-25.84)"/><rect class="brooklyn-cls-1" x="260.48" y="101.08" width="5.3" height="5" transform="translate(-15.92 149.47) rotate(-30.83)"/><rect class="brooklyn-cls-1" x="254.93" y="92.67" width="5.3" height="5" transform="translate(-6.97 168.8) rotate(-35.84)"/><polygon class="brooklyn-cls-1" points="250.89 90.78 247.59 86.98 251.59 83.58 254.79 87.38 250.89 90.78"/><polygon class="brooklyn-cls-1" points="244.19 83.38 240.59 79.98 244.29 76.18 247.89 79.68 244.19 83.38"/><polygon class="brooklyn-cls-1" points="236.99 76.68 233.09 73.48 236.39 69.48 240.29 72.58 236.99 76.68"/><rect class="brooklyn-cls-1" x="225.88" y="64.49" width="5.3" height="5" transform="matrix(0.56, -0.83, 0.83, 0.56, 44.77, 218.46)"/><polygon class="brooklyn-cls-1" points="220.79 65.18 216.39 62.78 218.99 58.18 223.39 60.58 220.79 65.18"/><rect class="brooklyn-cls-1" x="208.16" y="54.61" width="5.3" height="5" transform="translate(72.48 226.11) rotate(-65.86)"/><path class="brooklyn-cls-1" d="M122.2,281.4A125.25,125.25,0,0,1,45.1,122.2C67.7,57,139.2,22.5,204.3,45.1s99.7,94.1,77.1,159.2S187.3,304,122.2,281.4ZM203.4,47.6C139.7,25.4,69.7,59.2,47.6,123S59.2,256.8,123,278.9s133.7-11.7,155.9-75.5S267.2,69.7,203.4,47.6Z" transform="translate(-0.01 -0.02)"/><path class="brooklyn-cls-1" d="M109.7,317.4C24.6,287.9-20.5,194.7,9.1,109.7S131.8-20.5,216.8,9.1,347,131.8,317.4,216.8,194.7,347,109.7,317.4ZM216,11.5c-83.7-29.1-175.4,15.3-204.4,99s15.3,175.4,99,204.4S286,299.6,315,215.9,299.6,40.6,216,11.5Z" transform="translate(-0.01 -0.02)"/><circle class="brooklyn-cls-2" cx="194.28" cy="73.92" r="17.5"/><path class="brooklyn-cls-1" d="M188.1,91.7A18.79,18.79,0,1,1,212,80.1,18.79,18.79,0,0,1,188.1,91.7Zm11.5-33a16.19,16.19,0,1,0,10,20.6A16.22,16.22,0,0,0,199.6,58.7Z" transform="translate(-0.01 -0.02)"/><circle class="brooklyn-cls-2" cx="131.38" cy="254.87" r="17.5"/><path class="brooklyn-cls-1" d="M125.2,272.6A18.79,18.79,0,1,1,149.1,261,18.79,18.79,0,0,1,125.2,272.6Zm11.5-33a16.19,16.19,0,1,0,10,20.6A16.22,16.22,0,0,0,136.7,239.6Z" transform="translate(-0.01 -0.02)"/><path class="brooklyn-cls-1" d="M197.5,85.5l-4.8-7-8.1,2.6,5.2-6.7-5-6.9,8,2.9,5.1-6.8-.3,8.5,8.1,2.7-8.2,2.4Zm-4.3-8.6,3,4.4V76l5.1-1.5-5-1.7.2-5.3-3.2,4.3-5-1.8,3.1,4.3-3.3,4.2Z" transform="translate(-0.01 -0.02)"/><path class="brooklyn-cls-1" d="M59.7,248.1a4.31,4.31,0,0,1,1.2,3.5,5.12,5.12,0,0,1-2.1,3.1l-1.9,1.5a5.17,5.17,0,0,1-3.6,1.4,4.59,4.59,0,0,1-3.2-2l-1.3-1.5-6.2,5-1.4-1.7,15.7-12.8Zm-8.1,6.3a2.54,2.54,0,0,0,1.7,1.1c.6.1,1.2-.2,2-.9l2.1-1.7a4.52,4.52,0,0,0,1.3-1.7,2.2,2.2,0,0,0-.6-1.8l-1.4-1.7-6.3,5.2Z" transform="translate(-0.01 -0.02)"/><path class="brooklyn-cls-1" d="M67,256.4a5.05,5.05,0,0,1,1.6,3.3,5.62,5.62,0,0,1-1.7,3.2L65.7,264a5.31,5.31,0,0,1-2.4,1.5,3,3,0,0,1-2.4-.4,3.72,3.72,0,0,1,.3,2.5,5.67,5.67,0,0,1-1.6,2.3l-2.3,2.2-.9.9a2.66,2.66,0,0,0-.6,1l-1.6-1.6a4.05,4.05,0,0,1,.5-.9,8.18,8.18,0,0,1,1-1.1l2.3-2.2a3.26,3.26,0,0,0,1.2-2.2,2.91,2.91,0,0,0-1.1-2L57,262.9l-6.2,6-1.6-1.6,14.6-14.1Zm-7.2,6.2a3.16,3.16,0,0,0,1.9,1.1,2.54,2.54,0,0,0,2.1-1l1.4-1.3a3.25,3.25,0,0,0,1.1-1.8,2.12,2.12,0,0,0-.8-1.8L64,256.2l-5.4,5.2Z" transform="translate(-0.01 -0.02)"/><path class="brooklyn-cls-1" d="M71.6,272.9l-1.3,1.5-3.7-3.3-4.7,5.4,4.6,4L65.1,282l-6.3-5.5,13.3-15.3,6.3,5.5L77,268.2l-4.6-4-4.6,5.2Z" transform="translate(-0.01 -0.02)"/><path class="brooklyn-cls-1" d="M74.3,289.1l-1.8-1.3,6.7-15.1-9.4,13.1-1.6-1.1L80,268.3l2.6,1.8-6.7,15.1,12-11.3,2.6,1.8L78.7,292.2,77,291l9.5-13.2Z" transform="translate(-0.01 -0.02)"/><path class="brooklyn-cls-1" d="M94.6,278.2,84.1,295.5l-1.9-1.2L92.7,277Z" transform="translate(-0.01 -0.02)"/><path class="brooklyn-cls-1" d="M91.7,294.4a3.72,3.72,0,0,0-.5,2.2,2.17,2.17,0,0,0,1.2,1.5,1.87,1.87,0,0,0,1.9.1,3.36,3.36,0,0,0,1.5-1.6l7.2-13.7,1.9,1-7.1,13.6a5.67,5.67,0,0,1-2.7,2.8,3.87,3.87,0,0,1-3.7-.4,4.06,4.06,0,0,1-2.4-2.8,5.51,5.51,0,0,1,.8-3.8l7.1-13.6,2,1Z" transform="translate(-0.01 -0.02)"/><path class="brooklyn-cls-1" d="M106.3,306.4l-2-.8,2.9-16.2-6.1,15-1.8-.7,7.6-18.8,2.9,1.2-3,16.2,9-13.8,2.9,1.2-7.6,18.8-2-.8,6.1-15.1Z" transform="translate(-0.01 -0.02)"/><path class="brooklyn-cls-1" d="M130.4,292.8a4.6,4.6,0,0,1,3.1,2.2,5.68,5.68,0,0,1,.2,3.9l-2.6,10.2a5.72,5.72,0,0,1-1.5,2.9,1.63,1.63,0,0,0,.3.6,4.88,4.88,0,0,0,.7.3l.3.1-.5,1.9-.4-.1a2.72,2.72,0,0,1-2.2-1.9,5,5,0,0,1-1.2.2,7.84,7.84,0,0,1-1.4-.2,4.19,4.19,0,0,1-3-2.2,5.68,5.68,0,0,1-.2-3.9l2.6-10.2a6,6,0,0,1,2-3.3A4.49,4.49,0,0,1,130.4,292.8Zm-.5,2a2,2,0,0,0-1.9.3,3.22,3.22,0,0,0-1.1,1.9l-2.6,10.4a4.07,4.07,0,0,0,0,2.2,2.61,2.61,0,0,0,3.6.9,3.22,3.22,0,0,0,1.1-1.9l2.6-10.4a4.07,4.07,0,0,0,0-2.2A2.69,2.69,0,0,0,129.9,294.8Z" transform="translate(-0.01 -0.02)"/><path class="brooklyn-cls-1" d="M136.9,310.3a3.1,3.1,0,0,0,.2,2.2,2.17,2.17,0,0,0,1.7,1.1,2.08,2.08,0,0,0,1.9-.5,2.89,2.89,0,0,0,.9-2l2.5-15.3,2.1.3-2.5,15.2a6.1,6.1,0,0,1-1.7,3.5,4,4,0,0,1-3.6.8,4.11,4.11,0,0,1-3.1-1.9,5.83,5.83,0,0,1-.5-3.8l2.5-15.2,2.2.4Z" transform="translate(-0.01 -0.02)"/><path class="brooklyn-cls-1" d="M149.6,312.7l-1.1,4-2.1-.2,5.4-19.9,3.3.2,2.4,20.5-2.3-.2-.5-4.1Zm.4-1.9,4.5.3-1.4-11.8Z" transform="translate(-0.01 -0.02)"/><path class="brooklyn-cls-1" d="M161.2,317.4l-.2-20.3h2.3l.2,18.2,5.8-.1v2.1Z" transform="translate(-0.01 -0.02)"/><path class="brooklyn-cls-1" d="M173.4,296.8l1.4,20.2-2.3.2L171.1,297Z" transform="translate(-0.01 -0.02)"/><path class="brooklyn-cls-1" d="M181.6,316.3l-2.3-18.1-3.7.5-.3-2,9.6-1.2.3,2-3.7.5,2.3,18.1Z" transform="translate(-0.01 -0.02)"/><path class="brooklyn-cls-1" d="M192.9,307.1,186,295.3l2.3-.5,5.2,9.1,1-10.4,2.1-.5-1.5,13.6,1.5,7.1-2.2.5Z" transform="translate(-0.01 -0.02)"/><path class="brooklyn-cls-1" d="M132.5,36l-4.3-19.8,2.2-.5,3.9,17.8,5.7-1.2.4,2Z" transform="translate(-0.01 -0.02)"/><path class="brooklyn-cls-1" d="M143.3,13.3l2.9,20.1-2.2.3-2.9-20.1Z" transform="translate(-0.01 -0.02)"/><path class="brooklyn-cls-1" d="M157.8,32.3l-2.2.1-4.2-15.9.9,16.1-2,.1-1.1-20.2,3.2-.2,4.2,16L159,12l3.2-.2L163.3,32l-2.1.1-.9-16.3Z" transform="translate(-0.01 -0.02)"/><path class="brooklyn-cls-1" d="M170.4,12.1l-.8,20.2-2.3-.1.8-20.2Z" transform="translate(-0.01 -0.02)"/><path class="brooklyn-cls-1" d="M176.8,32.9l2-18.1-3.7-.4.2-2,9.7,1.1-.2,2-3.7-.4-2,18.1Z" transform="translate(-0.01 -0.02)"/><path class="brooklyn-cls-1" d="M195.5,24.6l-.4,2-4.8-1-1.5,7.1,5.9,1.2-.4,2-8.2-1.7,4.2-19.8,8.2,1.7-.4,2-5.9-1.2-1.4,6.8Z" transform="translate(-0.01 -0.02)"/><path class="brooklyn-cls-1" d="M208.7,18.9a4.4,4.4,0,0,1,2.9,2.3,6.45,6.45,0,0,1,0,3.9l-3.1,9.7a5.94,5.94,0,0,1-2.2,3.2,4.25,4.25,0,0,1-3.7.2l-4.5-1.4,6.1-19.3Zm-5.5,17.4a2,2,0,0,0,1.9-.2,3.9,3.9,0,0,0,1.2-1.9l3.1-9.9a3.38,3.38,0,0,0,.1-2.2,2.22,2.22,0,0,0-1.5-1.3l-2.3-.7-4.9,15.4Z" transform="translate(-0.01 -0.02)"/><path class="brooklyn-cls-1" d="M229.7,27.3a3.88,3.88,0,0,1,2.4,2.8,6.1,6.1,0,0,1-.7,3.8l-.2.5-1.9-1,.3-.6a3.72,3.72,0,0,0,.5-2.2,2.17,2.17,0,0,0-1.2-1.5A1.87,1.87,0,0,0,227,29a3.21,3.21,0,0,0-1.4,1.6,3.61,3.61,0,0,0-.4,2,7.11,7.11,0,0,0,.4,2c.2.6.5,1.3.8,2a18,18,0,0,1,.8,2.1,7.8,7.8,0,0,1,.3,2.2,4.42,4.42,0,0,1-.7,2.4,5.67,5.67,0,0,1-2.7,2.8,4.12,4.12,0,0,1-3.7-.3A3.88,3.88,0,0,1,218,43a6.1,6.1,0,0,1,.7-3.8l.5-1,1.9,1-.6,1.1a3.87,3.87,0,0,0-.5,2.2,2.09,2.09,0,0,0,1.3,1.5,1.87,1.87,0,0,0,1.9.1,3.36,3.36,0,0,0,1.5-1.6,3.61,3.61,0,0,0,.4-2,12.86,12.86,0,0,0-.4-1.9c-.2-.6-.5-1.3-.8-2a18,18,0,0,1-.8-2.1,7.8,7.8,0,0,1-.3-2.2,4.42,4.42,0,0,1,.7-2.4,5.67,5.67,0,0,1,2.7-2.8C227.1,26.5,228.3,26.6,229.7,27.3Z" transform="translate(-0.01 -0.02)"/><path class="brooklyn-cls-1" d="M239.9,43.8l-1.1,1.7-4.2-2.6L230.8,49l5.1,3.2-1.1,1.7-7.1-4.4,10.8-17.1,7.1,4.4-1.1,1.7-5.1-3.2-3.7,5.9Z" transform="translate(-0.01 -0.02)"/><path class="brooklyn-cls-1" d="M254,42.8c1.3,1,2,2,2,3a4.9,4.9,0,0,1-1.2,3.4l-1,1.3a5.62,5.62,0,0,1-2.1,1.8,3.3,3.3,0,0,1-2.4,0,3.22,3.22,0,0,1,.7,2.4,4.82,4.82,0,0,1-1.2,2.5l-1.9,2.5a6.73,6.73,0,0,0-.7,1.1,2.46,2.46,0,0,0-.4,1.1L244,60.5l.3-.9a10.57,10.57,0,0,1,.9-1.3l1.9-2.5a2.7,2.7,0,0,0,.8-2.3,2.83,2.83,0,0,0-1.3-1.8l-1.3-1-5.2,6.9-1.8-1.4,12.3-16.1Zm-6.3,7.3a3.67,3.67,0,0,0,2,.8,2.46,2.46,0,0,0,1.9-1.3l1.2-1.5a3,3,0,0,0,.8-2,1.94,1.94,0,0,0-1-1.6l-1.7-1.3-4.5,6Z" transform="translate(-0.01 -0.02)"/><path class="brooklyn-cls-1" d="M263.6,50.8,250.3,66l-1.7-1.5,13.3-15.2Z" transform="translate(-0.01 -0.02)"/><path class="brooklyn-cls-1" d="M266.6,66l-1.4,1.4-3.5-3.5L256.6,69l4.3,4.3-1.5,1.5-5.9-5.9,14.3-14.3,5.9,5.9L272.2,62l-4.3-4.3L263,62.6Z" transform="translate(-0.01 -0.02)"/><path class="brooklyn-cls-1" d="M280.5,68a3.9,3.9,0,0,1,1.1,3.5,5.83,5.83,0,0,1-2.2,3.2l-.4.3-1.4-1.7.5-.4a4.09,4.09,0,0,0,1.3-1.8,1.84,1.84,0,0,0-.5-1.8,2.23,2.23,0,0,0-1.7-.9,3.22,3.22,0,0,0-2,.9,3.57,3.57,0,0,0-1.2,1.6,11.8,11.8,0,0,0-.4,2,14.72,14.72,0,0,0,0,2.1,16.2,16.2,0,0,1-.1,2.2,8.3,8.3,0,0,1-.6,2.1,4.66,4.66,0,0,1-1.6,1.9,5.64,5.64,0,0,1-3.6,1.5,4.29,4.29,0,0,1-3.3-1.8,3.9,3.9,0,0,1-1.1-3.5,5.83,5.83,0,0,1,2.2-3.2l.9-.7,1.3,1.6-1,.8a4.09,4.09,0,0,0-1.3,1.8,2.17,2.17,0,0,0,.6,1.9,2.23,2.23,0,0,0,1.7.9,3.22,3.22,0,0,0,2-.9,3.57,3.57,0,0,0,1.2-1.6,12.86,12.86,0,0,0,.4-1.9,14.72,14.72,0,0,0,0-2.1,16.2,16.2,0,0,1,.1-2.2,8.3,8.3,0,0,1,.6-2.1,4.66,4.66,0,0,1,1.6-1.9,5.64,5.64,0,0,1,3.6-1.5A3.67,3.67,0,0,1,280.5,68Z" transform="translate(-0.01 -0.02)"/><path class="brooklyn-cls-1" d="M35.6,102l-2.3-1.1a143.13,143.13,0,0,1,81.4-73.4l.9,2.5A140.43,140.43,0,0,0,35.6,102Z" transform="translate(-0.01 -0.02)"/><path class="brooklyn-cls-1" d="M110.9,52.5l-1.1-2.3a17.53,17.53,0,0,0,9-10.1,17.71,17.71,0,0,0-10.9-22.5A17,17,0,0,0,95,18l-1-2.4a20.28,20.28,0,0,1,27.3,25.3A20.8,20.8,0,0,1,110.9,52.5Z" transform="translate(-0.01 -0.02)"/><rect class="brooklyn-cls-1" x="46.35" y="85.63" width="2.6" height="20.8" transform="translate(-53.28 132.17) rotate(-83.33)"/><rect class="brooklyn-cls-1" x="57.25" y="71" width="2.6" height="20.6" transform="translate(-31.76 124.67) rotate(-79.91)"/><rect class="brooklyn-cls-1" x="69.16" y="56.62" width="2.6" height="22.1" transform="translate(-10.57 122.24) rotate(-77.82)"/><rect class="brooklyn-cls-1" x="84.16" y="43.41" width="2.6" height="23.5" transform="translate(9.82 123.17) rotate(-74.81)"/><rect class="brooklyn-cls-1" x="72.31" y="29.3" width="2.6" height="22.5" transform="translate(-2.4 4.65) rotate(-3.58)"/><rect class="brooklyn-cls-1" x="100.6" y="30.72" width="2.6" height="27.1" transform="translate(31.67 130.34) rotate(-74.28)"/><rect class="brooklyn-cls-1" x="89" y="19.2" width="2.6" height="21.1" transform="translate(-0.27 0.78) rotate(-0.51)"/><rect class="brooklyn-cls-1" x="31.6" y="73.32" width="2.6" height="22.1" transform="translate(-36.96 26.7) rotate(-29.16)"/><path class="brooklyn-cls-1" d="M50.9,79.3" transform="translate(-0.01 -0.02)"/><rect class="brooklyn-cls-1" x="56.81" y="41.91" width="2.6" height="22.4" transform="translate(-9.45 12.66) rotate(-11.53)"/><rect class="brooklyn-cls-1" x="43.48" y="56.79" width="2.6" height="20.2" transform="translate(-23.82 24.73) rotate(-24.64)"/><path class="brooklyn-cls-1" d="M40.8,239.5A142.77,142.77,0,0,1,22.6,131.6l2.5.6A140.38,140.38,0,0,0,43,238.1Z" transform="translate(-0.01 -0.02)"/><path class="brooklyn-cls-1" d="M28.5,245.8a20.36,20.36,0,0,1-11.2-9.6l2.3-1.2a18,18,0,0,0,9.8,8.4,17.71,17.71,0,0,0,22.5-10.9,17.12,17.12,0,0,0-.8-13.5l2.3-1.1a19.9,19.9,0,0,1,.9,15.5A20.22,20.22,0,0,1,28.5,245.8Z" transform="translate(-0.01 -0.02)"/><path class="brooklyn-cls-1" d="M46.5,205.8" transform="translate(-0.01 -0.02)"/><rect class="brooklyn-cls-1" x="10.9" y="130.84" width="2.6" height="21.9" transform="translate(-106.27 62.89) rotate(-51.42)"/><rect class="brooklyn-cls-1" x="21.7" y="142.5" width="20.1" height="2.6" transform="translate(-27.57 8.98) rotate(-11.3)"/><rect class="brooklyn-cls-1" x="9.38" y="152.26" width="2.6" height="21.8" transform="translate(-139.17 97.68) rotate(-62.66)"/><path class="brooklyn-cls-1" d="M20.2,166.5" transform="translate(-0.01 -0.02)"/><rect class="brooklyn-cls-1" x="19.6" y="161.2" width="20.6" height="2.6" transform="translate(-56.02 21.34) rotate(-20.9)"/><rect class="brooklyn-cls-1" x="10.79" y="172.85" width="2.6" height="21" transform="translate(-163.31 128.52) rotate(-68.88)"/><rect class="brooklyn-cls-1" x="15.28" y="191.34" width="2.6" height="21.2" transform="translate(-184.19 174.44) rotate(-77.51)"/><rect class="brooklyn-cls-1" x="20.98" y="210.35" width="2.6" height="21" transform="translate(-199.69 218.85) rotate(-83.73)"/><rect class="brooklyn-cls-1" x="21.69" y="178.91" width="19.6" height="2.6" transform="translate(-83.25 37.69) rotate(-28.93)"/><rect class="brooklyn-cls-1" x="24.52" y="197.34" width="20.6" height="2.6" transform="matrix(0.8, -0.6, 0.6, 0.8, -112.26, 60.63)"/><rect class="brooklyn-cls-1" x="31.83" y="215.24" width="20.1" height="2.6" transform="translate(-138.58 89.71) rotate(-43.95)"/><path class="brooklyn-cls-1" d="M301.5,194.4a140.47,140.47,0,0,0-18-106.1l2.2-1.4a142.61,142.61,0,0,1,18.3,108Z" transform="translate(-0.01 -0.02)"/><path class="brooklyn-cls-1" d="M273.2,108.9a19.9,19.9,0,0,1-.9-15.5,20.31,20.31,0,0,1,37.1-2.9l-2.3,1.2a18,18,0,0,0-9.8-8.4,17.71,17.71,0,0,0-22.5,10.9,17.12,17.12,0,0,0,.8,13.5Z" transform="translate(-0.01 -0.02)"/><rect class="brooklyn-cls-1" x="294.49" y="171.84" width="2.6" height="20.8" transform="matrix(0.52, -0.85, 0.85, 0.52, -14.56, 338.4)"/><rect class="brooklyn-cls-1" x="295.08" y="153.65" width="2.6" height="20.6" transform="translate(11.66 347.41) rotate(-61.75)"/><rect class="brooklyn-cls-1" x="294.22" y="134.81" width="2.6" height="22.1" transform="translate(34.39 346.9) rotate(-63.87)"/><rect class="brooklyn-cls-1" x="290.12" y="115.05" width="2.6" height="23.5" transform="translate(60.33 344.96) rotate(-66.87)"/><rect class="brooklyn-cls-1" x="298.57" y="121.3" width="22.5" height="2.6" transform="translate(11.63 271.26) rotate(-48.09)"/><rect class="brooklyn-cls-1" x="284.07" y="94.49" width="2.6" height="27.1" transform="translate(75.97 329.98) rotate(-67.41)"/><rect class="brooklyn-cls-1" x="292.76" y="102.54" width="21.1" height="2.6" transform="translate(32.23 274.99) rotate(-51.17)"/><rect class="brooklyn-cls-1" x="303.49" y="180.91" width="22.1" height="2.6" transform="translate(-45.81 134.3) rotate(-22.51)"/><path class="brooklyn-cls-1" d="M303.6,167.2" transform="translate(-0.01 -0.02)"/><rect class="brooklyn-cls-1" x="302.96" y="140.72" width="22.4" height="2.6" transform="translate(-17.55 236.03) rotate(-40.15)"/><rect class="brooklyn-cls-1" x="305.98" y="159.89" width="20.2" height="2.6" transform="translate(-38.74 161.2) rotate(-27.03)"/><path class="brooklyn-cls-1" d="M212.2,299.1l-.9-2.4a141,141,0,0,0,79.8-72l2.3,1.1A143.54,143.54,0,0,1,212.2,299.1Z" transform="translate(-0.01 -0.02)"/><path class="brooklyn-cls-1" d="M217.9,311.6a20.35,20.35,0,0,1-2.2-37.5l1.1,2.3a17.53,17.53,0,0,0-9,10.1A17.71,17.71,0,0,0,218.7,309a17.45,17.45,0,0,0,12.9-.5l1,2.4A19.2,19.2,0,0,1,217.9,311.6Z" transform="translate(-0.01 -0.02)"/><path class="brooklyn-cls-1" d="M228.6,269.1" transform="translate(-0.01 -0.02)"/><rect class="brooklyn-cls-1" x="284.3" y="238.8" width="21.9" height="2.6" transform="translate(-1.07 1.28) rotate(-0.25)"/><rect class="brooklyn-cls-1" x="277.32" y="219.59" width="2.6" height="20.1" transform="translate(-82.41 235.22) rotate(-40.38)"/><rect class="brooklyn-cls-1" x="281.79" y="246.95" width="2.6" height="21.8" transform="translate(-24.03 486.54) rotate(-79.01)"/><path class="brooklyn-cls-1" d="M273.6,254.6" transform="translate(-0.01 -0.02)"/><rect class="brooklyn-cls-1" x="267.19" y="235.13" width="2.6" height="20.6" transform="translate(-87.77 171.84) rotate(-30.76)"/><rect class="brooklyn-cls-1" x="268.28" y="262.41" width="2.6" height="21" transform="translate(-70.87 449.68) rotate(-72.8)"/><rect class="brooklyn-cls-1" x="253.19" y="273.96" width="2.6" height="21.2" transform="translate(-112.56 389.54) rotate(-64.16)"/><rect class="brooklyn-cls-1" x="237" y="285.35" width="2.6" height="21" transform="translate(-138.93 340.75) rotate(-57.94)"/><rect class="brooklyn-cls-1" x="254.88" y="248.52" width="2.6" height="19.6" transform="translate(-80.01 119.21) rotate(-22.76)"/><rect class="brooklyn-cls-1" x="240.89" y="260.41" width="2.6" height="20.6" transform="translate(-61.12 70.81) rotate(-14.8)"/><rect class="brooklyn-cls-1" x="224.3" y="270.19" width="2.6" height="20.1" transform="translate(-35.66 32.87) rotate(-7.73)"/><circle class="brooklyn-cls-2" cx="28.19" cy="116.31" r="18.9"/><path class="brooklyn-cls-1" d="M21.6,135.4A20.21,20.21,0,0,1,34.8,97.2a20.33,20.33,0,0,1,12.5,25.7A20.12,20.12,0,0,1,21.6,135.4ZM34,99.7a17.61,17.61,0,1,0,10.9,22.4A17.6,17.6,0,0,0,34,99.7Z" transform="translate(-0.01 -0.02)"/><circle class="brooklyn-cls-2" cx="28.4" cy="116.39" r="11.7"/><rect class="brooklyn-cls-1" x="27.87" y="104.92" width="7.9" height="3.2" transform="translate(-79.25 101.58) rotate(-70.83)"/><rect class="brooklyn-cls-1" x="24.9" y="102.19" width="3.2" height="7.9" transform="translate(-19.47 6.84) rotate(-10.82)"/><rect class="brooklyn-cls-1" x="19.96" y="104.5" width="3.2" height="7.9" transform="translate(-65.66 40.45) rotate(-40.82)"/><rect class="brooklyn-cls-1" x="16.95" y="108.95" width="3.2" height="7.9" transform="translate(-94.19 93.27) rotate(-70.8)"/><rect class="brooklyn-cls-1" x="14.21" y="116.8" width="7.9" height="3.2" transform="translate(-21.94 5.5) rotate(-10.83)"/><rect class="brooklyn-cls-1" x="16.49" y="121.64" width="7.9" height="3.2" transform="translate(-75.61 43.32) rotate(-40.82)"/><rect class="brooklyn-cls-1" x="21.05" y="124.71" width="7.9" height="3.2" transform="translate(-102.52 108.33) rotate(-70.79)"/><rect class="brooklyn-cls-1" x="28.79" y="122.7" width="3.2" height="7.9" transform="translate(-23.2 7.91) rotate(-10.8)"/><rect class="brooklyn-cls-1" x="33.65" y="120.28" width="3.2" height="7.9" transform="translate(-72.68 53.28) rotate(-40.84)"/><rect class="brooklyn-cls-1" x="36.7" y="115.87" width="3.2" height="7.9" transform="translate(-87.46 116.55) rotate(-70.79)"/><rect class="brooklyn-cls-1" x="34.71" y="112.9" width="7.9" height="3.2" transform="translate(-20.81 9.26) rotate(-10.81)"/><rect class="brooklyn-cls-1" x="32.41" y="107.97" width="7.9" height="3.2" transform="translate(-62.77 50.36) rotate(-40.8)"/><path class="brooklyn-cls-1" d="M25.6,125a9,9,0,1,1,11.5-5.6A9.08,9.08,0,0,1,25.6,125Zm5.1-14.6a6.45,6.45,0,1,0,4,8.2A6.52,6.52,0,0,0,30.7,110.4Z" transform="translate(-0.01 -0.02)"/><circle class="brooklyn-cls-1" cx="28.47" cy="116.44" r="3.1"/><circle class="brooklyn-cls-2" cx="298.44" cy="210.15" r="18.9"/><path class="brooklyn-cls-1" d="M291.8,229.3a20.21,20.21,0,1,1,25.7-12.5A20.12,20.12,0,0,1,291.8,229.3Zm12.4-35.7A17.61,17.61,0,1,0,315.1,216,17.6,17.6,0,0,0,304.2,193.6Z" transform="translate(-0.01 -0.02)"/><circle class="brooklyn-cls-2" cx="298.27" cy="210.23" r="11.7" transform="translate(1.76 422.93) rotate(-70.83)"/><rect class="brooklyn-cls-1" x="297.73" y="198.73" width="7.9" height="3.2" transform="translate(13.4 419.5) rotate(-70.83)"/><rect class="brooklyn-cls-1" x="302.24" y="201.77" width="7.9" height="3.2" transform="translate(-58.45 249.79) rotate(-40.85)"/><rect class="brooklyn-cls-1" x="304.59" y="206.59" width="7.9" height="3.2" transform="translate(-33.68 61.77) rotate(-10.85)"/><rect class="brooklyn-cls-1" x="306.47" y="209.66" width="3.2" height="7.9" transform="translate(5.29 434.65) rotate(-70.87)"/><rect class="brooklyn-cls-1" x="303.48" y="214.09" width="3.2" height="7.9" transform="translate(-68.33 252.59) rotate(-40.84)"/><rect class="brooklyn-cls-1" x="298.59" y="216.51" width="3.2" height="7.9" transform="translate(-36.14 60.41) rotate(-10.85)"/><rect class="brooklyn-cls-1" x="290.94" y="218.42" width="7.9" height="3.2" transform="translate(-9.58 426.58) rotate(-70.88)"/><rect class="brooklyn-cls-1" x="286.38" y="215.41" width="7.9" height="3.2" transform="translate(-71.22 242.9) rotate(-40.88)"/><rect class="brooklyn-cls-1" x="284.02" y="210.6" width="7.9" height="3.2" transform="translate(-34.75 57.87) rotate(-10.83)"/><rect class="brooklyn-cls-1" x="286.77" y="202.78" width="3.2" height="7.9" transform="translate(-1.42 411.47) rotate(-70.88)"/><rect class="brooklyn-cls-1" x="289.79" y="198.33" width="3.2" height="7.9" transform="translate(-61.34 239.9) rotate(-40.86)"/><rect class="brooklyn-cls-1" x="294.68" y="196" width="3.2" height="7.9" transform="translate(-32.41 59.45) rotate(-10.87)"/><path class="brooklyn-cls-1" d="M295.2,218.7a9,9,0,1,1,11.5-5.6A9.08,9.08,0,0,1,295.2,218.7Zm5-14.7a6.45,6.45,0,1,0,4,8.2A6.4,6.4,0,0,0,300.2,204Z" transform="translate(-0.01 -0.02)"/><circle class="brooklyn-cls-1" cx="298.09" cy="210.13" r="3.1"/><path class="brooklyn-cls-1" d="M122.2,247.7a2,2,0,0,1-.8.1,2.77,2.77,0,0,1-.9-.1l.3-1a2.49,2.49,0,0,0,.8.1c.2,0,.4-.1.6-.1a2.19,2.19,0,0,0,.5-.3c.2-.1.3-.3.4-.4l.8.3-3.7,10.8-1.2-.4Z" transform="translate(-0.01 -0.02)"/><path class="brooklyn-cls-1" d="M128.7,247.6a2.29,2.29,0,0,1,1.6,1.4,3.37,3.37,0,0,1-.1,2.2l-1.9,5.5a2.85,2.85,0,0,1-1.3,1.8,2.73,2.73,0,0,1-2.2.1,2.29,2.29,0,0,1-1.6-1.4,3.37,3.37,0,0,1,.1-2.2l.1-.2,1.1.4-.1.3a1.73,1.73,0,0,0-.1,1.2,1.14,1.14,0,0,0,.8.7,1.26,1.26,0,0,0,1.2-.1,2.28,2.28,0,0,0,.8-1.2l.8-2.4a1.72,1.72,0,0,1-2.1.5,1.76,1.76,0,0,1-1.3-1.2,2.89,2.89,0,0,1,.2-2l.6-1.6a3.52,3.52,0,0,1,1.3-1.8A3.73,3.73,0,0,1,128.7,247.6Zm-.4,1.1a1.38,1.38,0,0,0-1.1.1,2,2,0,0,0-.7,1l-.6,1.6a2,2,0,0,0-.1,1.3,1.14,1.14,0,0,0,.8.7,1.07,1.07,0,0,0,1.1-.1,2,2,0,0,0,.7-1l.6-1.6a2,2,0,0,0,.1-1.3C129,249.1,128.8,248.9,128.3,248.7Z" transform="translate(-0.01 -0.02)"/><path class="brooklyn-cls-1" d="M135.2,249.9a2.29,2.29,0,0,1,1.6,1.4,2.78,2.78,0,0,1,0,2.2l-.1.3a3.22,3.22,0,0,1-.8,1.3,1.66,1.66,0,0,1-1.2.5,1.85,1.85,0,0,1,.7,1.2,3.89,3.89,0,0,1-.2,1.5l-.3.8a2.9,2.9,0,0,1-1.3,1.7,2.73,2.73,0,0,1-2.2.1,2.53,2.53,0,0,1-1.6-1.4,3.31,3.31,0,0,1,0-2.2l.3-.8a2.42,2.42,0,0,1,.8-1.3,1.73,1.73,0,0,1,1.3-.5,1.85,1.85,0,0,1-.7-1.2,2.83,2.83,0,0,1,.2-1.5l.1-.3a2.9,2.9,0,0,1,1.3-1.7A2.21,2.21,0,0,1,135.2,249.9Zm-.4,1.1a2,2,0,0,0-1.1,0,2,2,0,0,0-.8,1.1l-.2.5a1.48,1.48,0,0,0,0,1.3,1.32,1.32,0,0,0,.9.7,1.39,1.39,0,0,0,1.1,0,2.09,2.09,0,0,0,.8-1l.2-.5a2,2,0,0,0,.1-1.3C135.5,251.4,135.3,251.1,134.8,251Zm-1.6,4.7c-.9-.3-1.5,0-1.9,1.1l-.3.9a2.33,2.33,0,0,0-.1,1.4,1.13,1.13,0,0,0,.9.7,1.38,1.38,0,0,0,1.1-.1,2.42,2.42,0,0,0,.8-1.1l.3-.9C134.4,256.7,134.1,256,133.2,255.7Z" transform="translate(-0.01 -0.02)"/><path class="brooklyn-cls-1" d="M141.7,252.1a2.29,2.29,0,0,1,1.6,1.4,3.37,3.37,0,0,1-.1,2.2l-.2.3a3.22,3.22,0,0,1-.8,1.3,2.11,2.11,0,0,1-1.3.5,1.85,1.85,0,0,1,.7,1.2,2.62,2.62,0,0,1-.2,1.5l-.3.8a3.52,3.52,0,0,1-1.3,1.8,2.21,2.21,0,0,1-2.1.1,2.51,2.51,0,0,1-1.6-1.4,3.37,3.37,0,0,1,.1-2.2l.3-.7,1.1.4-.3.8a2,2,0,0,0-.1,1.3,1,1,0,0,0,.8.7,1.07,1.07,0,0,0,1.1-.1,2.33,2.33,0,0,0,.7-1.1l.3-.8a1.45,1.45,0,0,0-.8-2.1l-.6-.2.4-1.1.7.2a1.38,1.38,0,0,0,1.1-.1,1.53,1.53,0,0,0,.7-1l.2-.5a2.33,2.33,0,0,0,.1-1.4c-.1-.4-.4-.6-.8-.8a1.38,1.38,0,0,0-1.1.1,2.55,2.55,0,0,0-.7,1l-.2.6-1.1-.4.2-.5a3.52,3.52,0,0,1,1.3-1.8A4.07,4.07,0,0,1,141.7,252.1Z" transform="translate(-0.01 -0.02)"/><rect class="brooklyn-cls-3" x="174.01" y="34.56" width="1.3" height="193.5" transform="translate(-6.73 253.16) rotate(-70.83)"/><rect class="brooklyn-cls-3" x="151.82" y="98.4" width="1.3" height="193.5" transform="translate(-81.93 275.08) rotate(-70.83)"/></svg>