<svg id="ny" data-name="Layer 1" xmlns="http://www.w3.org/2000/svg" viewBox="0 0 334.51 335"><defs><style>.ny-cls-1{fill:#4bbdf6;}</style></defs><title>test-ny-graphic</title><path class="ny-cls-1" d="M164.4,335.1h0l-.2-.1-.2-.2c-1.8-2.6-.7-24.6-.6-27.8.3-12.3.4-27.2,1.2-28.7l.3-.4.4-.2h.3l.2.1c.7.6.9,3.3,1,4.6.1,11.1.1,43-.6,49.3v.1l-1.2,3Zm-47.9-15.2h0l-.5-1.4c-.1-4.8,6.6-18.4,6.8-19,.9-2.5,2.9-1.9,2.6.5s-5.1,16.6-6.2,18.7a3.64,3.64,0,0,1-1.1,1.2Zm34.9-5c-.6-.2-1.1-1.2-.9-2.7.3-3.1-.5-7.2,1.2-9.9l.5-.6.4-.1h.3l.2.1C153.5,302,155.6,316.4,151.4,314.9Zm26.6-3c-6.7-11.6-1.9-58.2.7-28.4.3,3.2.5,6.6.8,9.8C179.9,300,182,307.7,178,311.9Zm30.1-1.6-.7-.2c-2.7-1.8-4.7-11.1-7.2-19.6-1.1-3.8-4.4-14.1-4.5-16.7s2.3-2.6,3-.3c.2.7,11.3,31.8,10.5,35.4a2.2,2.2,0,0,1-.5,1.2l-.1.1-.2.1Zm27.6-5.5-.7-.2c-3-1.5-7-11-11-19.4-3.7-7.9-7.4-15.7-7.6-16.7-.5-2.6,2-2.7,3.1-.5.4.8,17.4,31.6,17.2,35.3a2.13,2.13,0,0,1-.3,1.2l-.1.1-.2.1ZM60.3,300.9c-9.1-1.7,14.3-16,7.4-7.4C65.4,296.3,63.5,299.1,60.3,300.9Zm50.6-.1-.2-.1-.2-.2-.3-.6a4.73,4.73,0,0,1,.1-2.9c.8-3,13.5-30.7,14.7-32.2s3.6-.9,2.5,1.7c-.4.9-12.3,31.6-15.2,33.8l-1,.5Zm40.4-11.3c.4-6,.6-12.2,1.8-17.9.2-1,4.3-11.4,4.3-3.4a82.61,82.61,0,0,1-2.7,20.1c-.6,2.2-.2,4.9-2.3,4.9C150.9,293,151.2,290.8,151.3,289.5Zm-25.2-2.9a47.66,47.66,0,0,1,2.2-5.2c2.6-6.4,2,3.9,1.8,4.7-1,3.5-1.5,4-3.6,6.6C123.9,292.7,125.8,287.4,126.1,286.6Zm63.4,4.6c-.4-1-1.4-1.7-1.7-2.7s-.5-2.2-.7-3.3a28.1,28.1,0,0,1,.1-2.9c.2-6.7,9.9,8.1,2.9,9.3C190,291.5,189.6,291.4,189.5,291.2Zm24.5-1.1c-2.7-2.5-6.2-16.7-7.1-18.9-1-2.6,1.1-3.1,2.3-1.3,1.3,2,7,15.8,7.6,18.2C217,289.4,216.3,292.3,214,290.1Zm-75.6.2-.3-.1-.3-.2-.4-.6c-1.4-3.1,1.9-12.8,4.3-21.9,2.3-8.6,4-20.5,5.5-21.5l.2-.1c1.6-.4,2.1.9,1.7,2.6-.1.6-7.1,38.5-9.6,41l-.8.6Zm-51-2.4h-.3l-.3-.2-.2-.3-.1-.4a6.37,6.37,0,0,1,.7-2.7c1.4-2.7,18.4-27.1,19.8-28.4,1.1-1,1.8-1,2.1-.4l-.3,2.3C109,257.6,90.5,287.6,87.4,287.9Zm-17.2-.2-.1-.1-.2-.2-.1-.1a1.9,1.9,0,0,1,.4-1.7c1.1-2,23.4-30.6,26.1-33.2.2-.2,5-3.5,3.8.7-.9,3.2-25.2,31-27.2,33.3C72.1,287.3,71,288.1,70.2,287.7Zm172.4-2.4c-.4-.5-7.3-8.1-5.2-9.6l.2-.1c2-.7,9.5,9.2,7.8,11l-.1.1-.2.1C244.4,286.9,243.5,286.5,242.6,285.3Zm-137.7-1.9c-5.2-2.9,8.7-14.8,5.3-7.3C108.8,279.3,107.9,281.7,104.9,283.4Zm184.2-8.6c-2.5-1.6-34.9-29.1-36.1-30.6s.1-3.3,2.1-1.6,36.1,28.7,37.3,31.5l.2.9-.1.4-.2.2-.1.1C291.4,276.1,289.5,275.1,289.1,274.8Zm-102.7.4a2.7,2.7,0,0,1-1.6-1.7,184.6,184.6,0,0,1-3.8-19.4c0-1.3.5-1.9,1.1-1.9l1.5,1.7C183.4,253.1,191.5,276.9,186.4,275.2Zm42.7-6.9c-.2-.3-15.3-19.5-13.2-22,1.1-1.2,3.4,1.1,3.6,1.4.8,1,13.5,19.3,12.5,21.8l-.1.2-.2.2-.2.1C230.8,270.1,229.9,269.6,229.1,268.3Zm33.9,1c-2.8-1-22.6-24-24.4-25.8-1.9-2-.3-3.4,1.6-2.1,1.6,1.1,22.8,22.5,24.6,25C265.3,267.1,266.4,270.7,263,269.3ZM67.7,266.7c3.9-6,10.4-11,15.6-16.1,3.3-3.3,6.1-5.9,9.4-9.1,1.5-1.4,4.4-5.4,7.2-5.2,1.3.1-.6,2.5-1.2,3.2-6.4,7-13,14-20,20.6-3.5,3.4-6.9,6.9-11.1,9C66.6,269,67.1,267.5,67.7,266.7Zm44.7,1.7a2.86,2.86,0,0,1-.1-2.4c1.1-2.8,8.5-15.6,9.8-17.1s3.5-1,2.1,1.6C124.3,250.3,115.1,272.8,112.4,268.4Zm133.5.3c-8.7-7.9-15.4-17.8-22.5-26.8-.9-1.1-5.4-5.5-5.6-8.1-.2-2.2,4,1.8,4.1,2,7.9,9,15.8,18.1,23.1,27.5.5.7,1.1,1.4,1.6,2.1C248.6,268.5,248.2,269.3,245.9,268.7ZM199.2,254c0-.2-.7-4.7,1.5-2.1a19.62,19.62,0,0,1,3,4.5,27.92,27.92,0,0,1,1.4,3.7c.9,2.8,1,3.3-.3,3.9C201.4,263.7,199.9,256.3,199.2,254ZM46,248.3h0l-.2-.2-.1-.3v-.2c.6-3.2,35.5-23.4,36.9-24.2,1-.6,2-.9,2.6-.5l.1.1.2.2.1.1c.1.6-.3,1.2-1,1.8-1.6,1.5-31.5,20.7-34.7,22.3C49.4,247.7,46.9,248.8,46,248.3Zm28.4-5.2-.6-.9.8-2.2c2.1-2.2,26-20.5,27.7-21.4,2-1,3.4.6,1.2,2.3-1,.8-24,21.5-27.6,22.2A2.53,2.53,0,0,1,74.4,243.1Zm191.2-.4c-1.2-1.1-2.8-1.8-3.9-3C253.6,230.8,278.9,245.9,265.6,242.7Zm18.9-4.2c-2.9-1.2-33.1-18.5-34.5-19.9s-.5-3.7,2-2.3c.9.5,34.1,17.4,35.9,20.4C290,240.2,284.7,238.6,284.5,238.5ZM253,233.9a172.56,172.56,0,0,1-16.1-11.5c-1.5-1.5-.5-3.5,1.8-1.9-.1-.1,21.2,11.3,16.6,13.5A2.37,2.37,0,0,1,253,233.9ZM50.3,231.7c-4-3.1,16.7-9.8,11.6-5.2A18,18,0,0,1,50.3,231.7Zm-36.8-1.5h0l-.6-.4-.2-.3-.1-.2v-.1c.1-1.6,5.7-3.9,9.2-5.3l43.7-17.2c2.6-1,3.3,1.4,1.6,2.6s-47.8,20.4-50.8,21A5.39,5.39,0,0,1,13.5,230.2Zm264.9-7.3h0L264,215.3l-1.2-1c-.7-1,.3-2,2-1.6a170,170,0,0,1,18,8C286.1,222.9,283.4,225.2,278.4,222.9ZM85.3,211.1c5.5-2,1.6,2.4-.7,3.7-4.8,2.6-9.5,5.1-14.5,7.3C60.9,221.4,84.2,211.5,85.3,211.1Zm208.5,2.3c-2.5-.5-33-12-35.1-13.4-3.2-2.1.7-2.9,1.9-2.5,1,.4,34.3,11,36.7,13.8,1.7,2-.2,2.3-1.8,2.3C294.6,213.5,293.7,213.4,293.8,213.4Zm-45.4-4.9a38.83,38.83,0,0,1-4.5-2.4c-7-5.4,11.6-.4,11,2.9C254.5,211.6,249.5,208.9,248.4,208.5Zm46.5-7.1c-7.7-3.8,10.6-2.5,11.4.6C307.3,205.5,295.4,201.5,294.9,201.4ZM59,202.1h0c-.6-2.2,5.7-3.4,9.1-4.4,2.3-.6,11.9-4.1,11.6-.7s-17.9,5.4-18.5,5.6C59.9,203,59.3,202.6,59,202.1Zm-26.7-4.7-2.6-.2-1.3-1.1c.1-1.2,3.3-2.4,3.4-2.5.8-.2,33-6,37.1-5.7,3.7.3,1,2.9-.4,3.1C68.1,191.2,41.3,196.9,32.3,197.4Zm239.9-3.6c-2.3-.5-12.4-2.3-10.4-5.2,1.9-2.7,18.3,4.2,18.9,4.3,1.9.5,2.4,2.7-.2,2.6A61.49,61.49,0,0,1,272.2,193.8Zm58.1,1.6c-11.6-1.3-44.9-8.4-51.8-9.7-2.3-.5-2.5-3,0-3.1,1.8,0,51.2,8.6,53.2,9.3C335.5,193.2,335.9,196,330.3,195.4Zm-284-14.3c-1.1-6.3,58.2-2.6,2,.6C47.8,181.2,46.5,181.8,46.3,181.1ZM75,178.9h0l-.3-.3-.1-.3v-.5c.5-1.2,4.6-1.9,4.9-1.9.9,0,5.2-.5,6.1.5l.1.2v.1C86.2,179.3,76.9,180.1,75,178.9Zm213.5-1.7c-4.3-.3-8.7-.1-13-.5-1.8-.2-3.5-.5-5.3-.7s-3.7-2.7-1.8-2.9c5.1-.6,11-.2,16.1,0a153.42,153.42,0,0,1,21.3,2c2,.4,4.2,2.2.4,2.6C300.3,178.2,294.2,177.4,288.5,177.2ZM1.1,168.4c-3.3-2,2-3.2,2.2-3.2,3.9-.6,54.3.3,56.6.9s1.8,3-.6,3c-1.5,0-15.3.2-29.2.3C26.7,169.3,3.3,169.7,1.1,168.4ZM249,166.3c-2.8-1.4,2.8-2.9,5.9-3.1q12.9-.9,26.1-1.5c2.8-.1,7.2-.5,9.5.7,2.8,1.6-1.6,2.9-2.3,3A183.3,183.3,0,0,1,249,166.3ZM67.6,160.6c-.3,0-13.2,0-11-3.4,1.4-2,8.4-.7,12.4-.3,1,.1,11.1.5,10.8,2.9v.2l-.2.3C78.6,161.2,70.8,160.7,67.6,160.6Zm-27.4-3.8c-2.6-1.3,4-2.6,6.7-1.8a23.07,23.07,0,0,1,2.8,1c3.2,1.4,0,2.2-1.2,2.2C43.9,158.4,43.5,158.1,40.2,156.8Zm227.2-.9c-6.9-1.7,16.4-4.6,19.3-4.9a12.51,12.51,0,0,1,4.3-.3c4.5,1,2.6,2.7-.5,3.8C284,156.6,274.5,156.2,267.4,155.9Zm33.8-3.1c-4.8-1.2,6.1-3.5,11.1-3.7,1.5-.1,3.5-.4,3.9,1.1C316.9,153.2,304,153,301.2,152.8Zm-46.6-4.7c-3.3-3.3,22.1-7.4,28.3-8.7,2.3-.5,4.7-1.1,7-1.6,1.9-.4,3.8-.7,5.7-1,1.6-.2,7.1.5,2.8,2.3-6.3,2.5-13.6,3.5-20.5,4.9l-6.9,1.5C265.8,146.5,259.8,148.7,254.6,148.1ZM34.9,145c-1.2-.2-17.6-2.4-18.4-4.7v-.4l.1-.2c1.2-2,14.5,1,20.8,2.3,3.1.6,14.3,2.5,16.5,3.5,2.4,1.1,1.2,2.8-1,2.4C51.4,147.6,43.1,146.4,34.9,145Zm29.4-4.1c-7.8-2.2-15.8-4.6-17.1-5.2-3.9-1.7-1.5-4,2.3-3.2,7.9,1.7,26.8,8.6,31.7,10.1,2.8.8,1.7,2.8-.3,2.6C79.9,145.2,72.6,143.3,64.3,140.9Zm198.8-5.4h0v-.2c0-.5.4-1.1,1.6-1.6s29.6-12,33.5-11.6c3.1.3,1.5,2.8.2,3.4-2,1-31.3,10.6-33.3,10.8A1.65,1.65,0,0,1,263.1,135.5ZM56.3,125.9c-2-.7-3.9-1.5-5.9-2.2l-4.5-1.8c-2.2-.9-5.7-1.3-5.1-3.6,1.2-3.9,6.7.7,10.6,2,9.6,3.2,19,7.6,28.4,11.4.5.2,1,.4,1.6.6,4.1,1.7,3.3,2.4.4,2.8C73,132.3,64.7,129,56.3,125.9Zm203.8,1.4h0l-.1-.3v-.2c.1-.5.5-1,1.6-1.5.3-.1,53.2-25.7,57.7-26a3.2,3.2,0,0,1,1.5.2l.2.3v.3l-.1.3a7.81,7.81,0,0,1-2.3,2.1c-3,1.8-54,24.5-56.2,25.1C261.2,127.9,260.5,127.7,260.1,127.3Zm-19.2-.3c-.4-.9,1.9-2.8,2.1-3a61.78,61.78,0,0,1,5.3-3.6c1.8-1.2,3.8-2.1,5.7-3.2a21.16,21.16,0,0,1,2.1-1.1c4.3-2.2,6-1.1,2.6,1.9C254.4,121.6,246.7,129.6,240.9,127ZM80.8,123.4c-2.5-1.3-10.4-5.1-10.2-6.9v-.2l.1-.2a1.93,1.93,0,0,1,1.9-.3c2.1.7,13.5,5.2,16.6,7.3,1.1.7,3.1,2.8,1.4,3.6C89.6,127.3,86.6,126.5,80.8,123.4Zm21.3-9.4c-2-1.6-26.3-19.9-27.5-22.5-1.5-3.3,2-2.5,2.8-1.9,2.5,1.6,25.5,21.2,26.6,22.7C105.5,114.2,104.1,115.8,102.1,114Zm164.2-3.4,2.1-1.5a39.07,39.07,0,0,1,4.4-2.6c7.3-3.9-2.1,5.3-3.9,6.5-1.2.8-2.5.7-4,1C263.7,113.2,265.8,111,266.3,110.6Zm-20.5,3.3h0l-.2-.1-.2-.3a2.45,2.45,0,0,1,.7-2.2c1.5-1.7,29.1-23.3,32.1-25.2a7.91,7.91,0,0,1,2.9-1.1h.3l.2.1.2.2-.3.2h.4v.2c-.1,3.3-32.6,26.2-34.1,27.4C246.9,113.9,246.2,114.1,245.8,113.9ZM61.4,112.6c-1.6-.6-3-1.7-4.5-2.4-6.1-5.3,5.1-1.2,7.6-.1a7.35,7.35,0,0,1,2.9,2.9C68.4,114.5,61.5,112.6,61.4,112.6Zm172.2-3.4h0l-.2-.1a1.73,1.73,0,0,1,.3-2.1c1.1-1.5,23.3-22,25.8-23.7.7-.5,4.3-1.5,2.9,1.9-1.1,2.8-24.6,21.8-26.6,23.5A2.26,2.26,0,0,1,233.6,109.2ZM76.4,107C73.5,105.1,33.1,80.4,31,77.5a2.77,2.77,0,0,1-.5-1.2l.1-.2.2-.3.2-.1c.8-.4,2.8.5,3.3.8,3.1,1.6,42.1,27.1,43.8,28.7.7.6,1.2,1.4,1,2l-.1.2-.2.3-.2.1A3.47,3.47,0,0,1,76.4,107Zm22.1-9.8c-8.3-7.4-16.1-15.7-23.8-23.8-1.1-1.2-2.3-2.4-3.4-3.6-1.8-1.9-5.1-4.6-2.9-5.9.9-.5,2.8,1.2,3.4,1.8,3,2.8,5.4,5.2,8.2,8.1,5.7,5.8,15.3,14.1,19.8,21C102,98.1,100.8,97.8,98.5,97.2Zm125.6-2.5c-.1.2,12-20.8,14.1-16.1A2.9,2.9,0,0,1,238,81c-1.5,2.6-10.5,14.4-12,15.6C224.3,98.1,222.5,97,224.1,94.7ZM112.3,96.3c-1.5-1.2-11-12.6-12.6-15.2-.3-.5-1.1-3.1.7-3.1,1.3,0,3.6,2,7.8,8,1.8,2.6,6.6,8.7,6.4,10.2v.1l-.1.2-.2.2A1.78,1.78,0,0,1,112.3,96.3Zm79.1-14.4c.6-2.9,1.8-5.6,2.6-8.4.6-2.1,1.1-4.4,1.8-6.5,4.2-12,2,6.8,1.1,10.4-1.1,4.3-1.9,8.6-4.8,11.7C189.5,89.2,191.3,82.5,191.4,81.9Zm18.7,7.2c-4.1-.5,7.2-19.2,6-11.7A22,22,0,0,1,210.1,89.1Zm33.5-3.6c-.2.2,22.1-27.1,25.3-27l.2.1.3.2.2.3v.4a6.73,6.73,0,0,1-1,2.6c-1.7,2.5-21.9,24.4-23.4,25.5C242.8,89.3,242.3,87,243.6,85.5ZM143,86.9a29.17,29.17,0,0,1-1.4-3.1c-.4-1.2-.8-2.3-1.2-3.5a28.37,28.37,0,0,1-.6-3.1c-.2-1,.2-2.7,1.3-1.9C144.3,77.6,149.1,92.1,143,86.9Zm-18.5-1.1c-2.7-1.8-7.1-14.9-7.9-16.5-.9-1.8.4-3.5,2-1.6,1.4,1.7,7.7,13.8,8.3,15.8C127.3,84.4,127.1,87.6,124.5,85.8Zm50.8-6c-.7-4.5,1.1-34.1,1.2-35,.7-4.2,3.5-2.4,3.6,1.5.2,8-2,28.1-2.2,33.2C177.9,81.5,175.8,82.7,175.3,79.8Zm-13.5-.1h-.2a2,2,0,0,1-1-1.8c-.2-1.1-4.8-19.3-1.9-21.3,3.5-2.4,4.3,16.1,4.4,18,.2,3,0,4.7-.7,5.1l-.2.1Zm-33.6-6.2c-.2-.5-14.6-33.1-14.1-36.7.6-4.1,4.1,1.4,4,1.2,1.2,2.1,12.9,33,13.2,35.2C131.9,77.1,128.7,74.7,128.2,73.5Zm76.4-2.8c.4-1,12.1-34,15-36.3,3.3-2.6,1.9,3.9,2,3.6-.8,3.2-13.4,33-14.6,34.6C204.9,75.8,204.1,72,204.6,70.7Zm36.4,3c-2.8-3.2,8-11,7-8.5C246.5,68.8,245.6,73.2,241,73.7ZM94.3,72.8c-.7-.8-1.6-1.5-2.3-2.4s-1.6-1.9-2.2-2.9-1.1-1.8-1.6-2.7C83.3,56.5,103.9,76.5,94.3,72.8Zm122.9-3.5c.5-1.9,6.9-15.2,8.6-17.7,2.2-3.2,4.4-.5,2,4.5l-8.1,14.1C218.5,72.6,216.6,71.4,217.2,69.3Zm-30.6,2.1h-.3l-.2-.1c-.5-.3-.7-1.1-.8-2.1,0-2.5,5.3-37.8,6-40.3.4-1.6,1-2.8,1.6-3.1h.5l.2.1c.6.5.7,2,.6,4-.8,9.6-5.4,33.3-6.4,39.4a3.18,3.18,0,0,1-1,2.1Zm-49.7-2.5c-1.2-2-5.6-16.5-6-18.8-.6-3.8,2.9-3.5,4.5,1.9l3.8,15.8C139.9,70.2,138,71,136.9,68.9ZM230,67c1.4-2.2,23.8-39.1,26.1-40.4,3.5-1.9,1.7,3.4,1.6,3.5-1.3,2.8-24.1,37.6-25.5,39S228.6,69.3,230,67ZM107,69c-1.4-1.4-21.8-38.3-23-41.1,0,0-1.7-5.4,1.7-3.5C88.9,26.2,109,66.5,109.3,67,110.7,69.4,108.3,70.4,107,69Zm38.9-7.5c-.1-.5-8.5-33-7.4-36.2,1.3-3.7,3.6,1.3,3.6,1.5,0,0,7,31.8,6.8,34.7C148.8,63.9,146.4,64,145.9,61.5Zm54.3-3.8c-3.3-1.5.4-16.3,4.2-12.8C207.1,47.4,202.1,56.4,200.2,57.7Zm-33.5-7.2h0c-.9-2-2.2-39.3-1.9-46.7.1-2,.3-3.2.8-3.6l.2-.1h.5c.9.5,1.6,3.1,1.7,5.8.3,8.2,1.4,36.7.8,43.7C168.9,50.5,167.7,51.9,166.7,50.5Zm-8.5.4c-4.5-1.5-1.8-17.4,1-7.9.2.7.3,1.4.5,2.1C159.9,46.1,160,50.7,158.2,50.9Z" transform="translate(-0.02 -0.1)"/><path class="ny-cls-1" d="M56.1,237.7l-2.6-8.5H89l4-11.5,2.1,10.7-3.6,9.3Zm69.7,0-3.8-8.5h19.5V147.9c0-4.8.4-16.8,1.1-19.8a18,18,0,0,1,2.9-6.8,8.53,8.53,0,0,1,3.9-3.1,10.79,10.79,0,0,1,4.3-.5,13.82,13.82,0,0,1,4,1c1.2.5,2.2,1,3,1.4s1.2.6,1.2.7-.3-.3-1.2-1.1l-2.2-16.4,6,7.4,2,16.6a6.76,6.76,0,0,1-3.3-.4c-1.3-.5-2.6-1-4-1.5a37,37,0,0,0-4-1.3,5.88,5.88,0,0,0-3.5.1,4.19,4.19,0,0,0-2.3,2.8c-.5,1.4-.7,11.8-.5,14.7v96Zm77.7,0-2.6-8.5H249l4.7-13.8,3,10.3-2.8,12ZM51.2,221.3l-2.6-12a8.63,8.63,0,0,0,3.5,1.6,12,12,0,0,0,3.8.1,10.25,10.25,0,0,0,3.7-1.3,12.62,12.62,0,0,0,3.2-2.5,11.36,11.36,0,0,0,2.2-3.7,12.1,12.1,0,0,0,.8-4.8V124.4A12.75,12.75,0,0,0,59.6,113a11.57,11.57,0,0,0-5.7-1.5,10.11,10.11,0,0,0-5.7,1.8l4.4-16H85l42.1,98.1V122.5a12.32,12.32,0,0,0-.7-4.4,10.77,10.77,0,0,0-2-3.3,10.59,10.59,0,0,0-2.9-2.2,10.42,10.42,0,0,0-3.3-1,9.76,9.76,0,0,0-3.4.2,8.71,8.71,0,0,0-3.1,1.4l4.8-15.9h36.8l2.2,15.9q-3.6-2.25-6.3-2.1a8,8,0,0,0-4.9,2,15,15,0,0,0-3.6,5,36.42,36.42,0,0,0-2.4,6.8c-.6,2.4-1.1,13.1-1.3,15.6a60.78,60.78,0,0,0-.4,7.1v73.6H117L75.4,124v74.5a13.27,13.27,0,0,0,.7,4.5,12.89,12.89,0,0,0,1.9,3.7,11.53,11.53,0,0,0,2.7,2.7,8.06,8.06,0,0,0,3.3,1.4,6.92,6.92,0,0,0,3.5,0,8.65,8.65,0,0,0,3.4-1.8l-3.3,12.1H51.2Zm147.4,0-3.2-12.2a17.71,17.71,0,0,0,6.4,2.5,9.93,9.93,0,0,0,5.5-.5,8,8,0,0,0,3.9-3.4,12.13,12.13,0,0,0,1.5-6.4v-29l-20.3-49.7a21.3,21.3,0,0,0-5-7.4,15.88,15.88,0,0,0-5.9-3.5,13.46,13.46,0,0,0-6.3-.3,17.19,17.19,0,0,0-5.8,2.3c.1-.4.3-.8.4-1.3a5.64,5.64,0,0,1,.4-1.2s.1-.5.4-1.5.6-2.1,1.1-3.5.8-2.7,1.3-4.2.8-2.6,1.1-3.5a6.89,6.89,0,0,0,.3-.8,4.2,4.2,0,0,1,.2-.5h51.3l3,16.2a6.34,6.34,0,0,0-3-2.1,7.85,7.85,0,0,0-3.7-.4,7.71,7.71,0,0,0-3.6,1.2,8.7,8.7,0,0,0-2.7,2.7,6.93,6.93,0,0,0-.9,4.1,11.83,11.83,0,0,0,1.6,5.3l12.6,33.3,18.4-37.7a7.7,7.7,0,0,0,.2-4.2,5.29,5.29,0,0,0-1.6-2.7,6.9,6.9,0,0,0-2.8-1.5,9.61,9.61,0,0,0-3.4-.3,16.15,16.15,0,0,0-3.3.6,8,8,0,0,0-2.6,1.4l5.3-16h38.3l3.8,16a17.17,17.17,0,0,0-5.6-1.5,15.37,15.37,0,0,0-6,.6,17.08,17.08,0,0,0-5.6,2.7,14.91,14.91,0,0,0-4.4,4.9L234,172.9v28.3a15.25,15.25,0,0,0,1.9,6.8,7.52,7.52,0,0,0,3.7,3.4,7.82,7.82,0,0,0,4.8.3,13.74,13.74,0,0,0,5.1-2.6l-3.6,12.3H198.6Zm42.5-14.9a2.88,2.88,0,0,1-1.6-1.5,6.64,6.64,0,0,1-.7-3V173.6L262,125.2a23.18,23.18,0,0,1,5.2-5.2,12.83,12.83,0,0,1,5.4-2.3,20.76,20.76,0,0,1,6.1,0,53.93,53.93,0,0,1,7.4,1.9l-3.2-15.2,6.8,9.9,2.4,13c0,.3-.2.5-.7.4a12.44,12.44,0,0,1-1.6-.4,7.74,7.74,0,0,1-1.6-.7c-.5-.2-.8-.4-.9-.4a34,34,0,0,0-5.4-1.9,16.66,16.66,0,0,0-5.9-.4,13.41,13.41,0,0,0-5.9,2.6c-1.9,1.4-3.7,6.4-5.4,9.6l-19.9,40.7v28.5a3.6,3.6,0,0,1-1.8,1.2A4,4,0,0,1,241.1,206.4ZM81,202.6a18,18,0,0,1-1.7-7.1V139.4l5.8,12.1v53.7A4.3,4.3,0,0,1,81,202.6ZM92.3,102.4c-.3-.6-.5-1.1-.6-1.3a1.69,1.69,0,0,1-.2-.5l10.8,9.6,21.5,49.4v11.6C120,163.9,92.6,103,92.3,102.4Zm137.2,45.5-9.1-26.5a4.36,4.36,0,0,1,.4-3,3,3,0,0,1,1.7-1.2,5.34,5.34,0,0,1,2.2-.2,5.29,5.29,0,0,0,1.8,0h10.1a7,7,0,0,1,3.5.7,4.93,4.93,0,0,1,1.8,1.7,4.13,4.13,0,0,1,.4,2.2,5.45,5.45,0,0,1-.5,2.2,6.93,6.93,0,0,1-1,1.7,1.55,1.55,0,0,1-1.1.7H229.2l3.4,17.7ZM191.3,135c-.2-1.4-.3-2.8-.5-4.1a6.12,6.12,0,0,0-.3-1.4c-.5-.7-1.1-1.3-1.7-2a11.13,11.13,0,0,0-2.4-1.6,10.49,10.49,0,0,0-3.5-.9c-.3,0-.7.1-1.4.2s-1.4.3-2.2.4-1.5.3-2.2.5a4.86,4.86,0,0,1-1.4.2,23.61,23.61,0,0,1-1.3-2c-.5-.8-.9-1.6-1.4-2.4s-.9-1.6-1.2-2.4a15.87,15.87,0,0,1-.9-2,15.66,15.66,0,0,1,5.9-1.8,9.71,9.71,0,0,1,4.6.7A12.67,12.67,0,0,1,185,119a21.56,21.56,0,0,1,2.7,3.8,34.82,34.82,0,0,1,2.2,4.3,20.07,20.07,0,0,1,.7,3.7,16.72,16.72,0,0,1,.7,4.2c.3,2.2.5,4,.7,4.6A35,35,0,0,1,191.3,135ZM61.4,125.8a4.35,4.35,0,0,0-1.9-1,5.34,5.34,0,0,0-2.2-.2,5.45,5.45,0,0,0-2.2.5l-4.7-7.7a9.32,9.32,0,0,1,4.9-1.2,7.22,7.22,0,0,1,4,1.7,8.73,8.73,0,0,1,2.6,4,13.5,13.5,0,0,1,.6,5.8A3.68,3.68,0,0,0,61.4,125.8Zm59.5-.5a4.78,4.78,0,0,0-2.9,0l-4.2-7.9a12.73,12.73,0,0,1,3.9,0,5.75,5.75,0,0,1,3.1,1.3,6.78,6.78,0,0,1,2,3.2,16.1,16.1,0,0,1,.6,5.8C122.6,126.3,121.8,125.5,120.9,125.3Z" transform="translate(-0.02 -0.1)"/><path class="ny-cls-1" d="M164.6,226.3a10.7,10.7,0,0,0,6.6,2.2,10.93,10.93,0,0,0,10.9-10.9,8.6,8.6,0,0,0-.1-1.6,10.91,10.91,0,1,1-17.4,10.3Zm-9.9-17.2A10.9,10.9,0,1,1,165.6,220,10.93,10.93,0,0,1,154.7,209.1Z" transform="translate(-0.02 -0.1)"/><path class="ny-cls-1" d="M268.7,226.3a10.7,10.7,0,0,0,6.6,2.2,10.93,10.93,0,0,0,10.9-10.9,8.6,8.6,0,0,0-.1-1.6,10.91,10.91,0,1,1-17.4,10.3Zm-9.9-17.2A10.9,10.9,0,1,1,269.7,220,10.93,10.93,0,0,1,258.8,209.1Z" transform="translate(-0.02 -0.1)"/></svg>