<?xml version="1.0" encoding="utf-8"?>
<!-- Generator: Adobe Illustrator 21.1.0, SVG Export Plug-In . SVG Version: 6.00 Build 0)  -->
<svg version="1.1" id="Layer_1" xmlns="http://www.w3.org/2000/svg" xmlns:xlink="http://www.w3.org/1999/xlink" x="0px" y="0px"
	 viewBox="0 0 443.4 213.6" style="enable-background:new 0 0 443.4 213.6;" xml:space="preserve">
<style type="text/css">
	.st0{fill-rule:evenodd;clip-rule:evenodd;fill:#E0E0E0;}
</style>
<g>
	<path class="st0" d="M208,11.5c1,2.4-0.1,9.2,1,10.6c1.5-0.7,3-1.4,4.4-2.3c1.2-0.8,2.4-1.6,3.5-2.4c1.5-1.1,3.6-2.7,5.5-2.8
		c0.3,0,0.5,0,0.8,0l0.2,0l-0.1,20.3h-11.8c0.1,1,0.1,1.9,0.1,2.9h24c0-1,0-1.9,0.1-2.9h-11.3V0H224l-0.2,1.6l-0.1,0
		c-2.4,1.3-5,2.7-7.2,4.3c-0.6,0.5-1.2,0.9-1.8,1.4c-0.4,0.4-0.9,0.8-1.3,1.2C211.8,10,210,10.8,208,11.5L208,11.5z M230.1,132h3.3
		l0.1-1.3l-1.9,0v0h0l0-0.1c0.1-2.5,0.4-5,0.9-7.5c0.5-2.6,1.3-5.1,2.2-7.6c1.6-4,3.6-7.8,6.1-11.2c2.5-3.4,5.4-6.5,8.6-9.1l0.1-0.1
		l0.1,0.1c1,0.6,1.9,1.3,2.8,2.1c1.2,1,2.2,2.1,3.3,3.2c2.6,2.8,4.8,5.8,6.8,9c3.1,5,5.7,10.9,6.4,16.8c0.1,1.1,0.2,2.1,0.3,3.2
		c0,0.5,0.1,0.9,0.1,1.4l0,0.3l0.7-1h0.1c0.7,0,1.4,0,2.1-0.1l0.1,0l0-0.1c-0.2-4.3-0.3-8.8-1.4-13c-0.2-0.9-0.5-1.8-0.8-2.7l0-0.1
		c-0.3-0.8-0.6-1.6-0.9-2.4c-0.1-0.2-0.2-0.4-0.2-0.6c-1-2.2-2.1-4.4-3.3-6.4l0,0c-1.4-2.3-3.1-4.5-4.9-6.6
		c-1.4-1.6-2.9-3.2-4.5-4.7c-1.5-1.4-3.2-2.8-5-3.9l-0.1,0l-0.1,0c-6.1,5-11.7,11.7-15.6,18.7c-1.4,2.5-2.6,5.2-3.6,7.9
		c-0.6,1.6-1.1,3.3-1.4,5l0,0c-0.3,1.2-0.4,2.4-0.7,3.6l0,0C230,127.2,230.1,129.6,230.1,132L230.1,132z M213.9,129.8L213.9,129.8
		l0,0.6l-2,0l-0.1,1.3h0.1c1.1,0,2.3,0,3.4,0h0.1l0-0.2l0,0v0l0-0.9h0v0h0l0-0.1c0-4.2-0.8-8.7-2.1-12.7c-0.2-0.8-0.5-1.6-0.8-2.4
		c-0.3-0.9-0.7-1.7-1-2.6l0,0c-0.5-1.1-1-2.2-1.6-3.3c-0.3-0.7-0.7-1.3-1.1-1.9l-0.1-0.2c-0.9-1.6-2-3.2-3.1-4.8l-0.1-0.2
		c-0.4-0.6-0.8-1.1-1.2-1.6c-0.8-1-1.6-2-2.4-3c-0.4-0.5-0.9-1-1.3-1.5c-2.2-2.4-4.5-4.7-7-6.7c-1.3,0.8-2.8,2-3.9,3
		c-0.9,0.8-1.7,1.6-2.6,2.4c-0.4,0.4-0.8,0.8-1.2,1.2c-0.6,0.7-1.2,1.3-1.8,2c-1.2,1.4-2.4,2.9-3.5,4.5c-0.5,0.7-1,1.4-1.4,2.1l0,0
		c-1.1,1.9-2.2,3.9-3.1,5.9c-0.1,0.2-0.1,0.3-0.2,0.5c-0.4,1-0.8,1.9-1.1,2.9l0,0.1c-0.1,0.2-0.2,0.5-0.2,0.7
		c-0.1,0.2-0.1,0.5-0.2,0.7c-0.1,0.2-0.1,0.4-0.2,0.7c-0.1,0.2-0.1,0.4-0.2,0.7c-1.1,4.2-1.4,8.7-1.4,13l0,0.1h2.3l0.7,0.9l0-0.3
		c0-0.5,0-0.9,0.1-1.4c0.1-1,0.2-2.1,0.3-3.1c0.6-5.9,3.3-11.8,6.4-16.8c2-3.2,4.3-6.3,6.8-9c1-1.1,2.1-2.2,3.3-3.2
		c0.9-0.8,1.9-1.5,2.9-2.2c5.3,4.2,9.8,9.7,13.1,15.7C211.1,116.3,213.6,123.4,213.9,129.8L213.9,129.8z M166.4,118.4l0,0.2h0
		l0.1,1.2l0.8,10.4l-0.2,4.4l-1.8,54.5l1.2,10.7l-0.1,7.9c-0.6,0-1.9,0-2.5,0l0.1-9l0,0l-1.3-9.7l2.2-58.6v0l-0.8-12.3l2.3-52.2
		l2,5.1L166.4,118.4L166.4,118.4z M192.1,84.4l1.8,1.8l0.1,0.1l0.1-0.1l1.7-1.8V81c0.2,0-3.6,0-3.6,0V84.4L192.1,84.4z M215.9,110.7
		l0,3.5l-2.7,0.7l0-0.1c-0.2-0.7-0.5-1.3-0.8-1.9l0-0.1l3.1-0.9c-0.1-0.2-0.1-0.5-0.2-0.7l-3.2,0.9l0-0.1c-0.2-0.5-0.5-1.1-0.8-1.6
		l0-0.1l3.4-1.1c-0.1-0.2-0.2-0.5-0.3-0.7l-3.4,1.2l0-0.1c-0.3-0.6-0.6-1.1-0.9-1.7c1.1-0.5,2.3-1,3.5-1.4l-0.3-0.7l-3.6,1.4
		c-0.3-0.5-0.6-1-0.9-1.5l-0.1-0.2l3.5-1.8l-0.4-0.7l-3.5,1.8l0-0.1c-0.3-0.5-0.7-1.1-1-1.6l-0.1-0.1l3.4-2
		c-0.1-0.2-0.3-0.4-0.4-0.6l-3.5,2l-0.2-0.2c-0.3-0.5-0.6-0.9-1-1.3l-0.1-0.1l3.4-2.2c-0.1-0.2-0.3-0.4-0.4-0.6l-3.4,2.2l-0.1-0.1
		c-0.4-0.5-0.8-1-1.2-1.5l-0.1-0.1l3.5-2.3l-0.5-0.6l-3.5,2.3l-0.1-0.1c-0.2-0.2-0.4-0.4-0.5-0.7c-0.3-0.3-0.5-0.6-0.8-0.9
		c1.1-0.8,2.2-1.6,3.3-2.4l0.1-0.1c-0.1-0.2-0.3-0.3-0.4-0.5l-3.5,2.5c-0.5-0.5-0.9-1.1-1.4-1.6l-0.1-0.1l3.4-2.6
		c-0.1-0.2-0.3-0.3-0.4-0.5l-3.3,2.6l-0.1-0.1c-0.4-0.5-0.9-0.9-1.3-1.3l3.1-2.7c-0.2-0.2-0.4-0.3-0.5-0.5l-3.1,2.7
		c-0.5-0.4-0.9-0.9-1.4-1.3l2.9-2.8c-0.2-0.2-0.4-0.3-0.6-0.5c-1,0.9-2,1.8-2.9,2.8c-0.5-0.4-1-0.8-1.4-1.2l2.6-2.8
		c-0.2-0.1-0.4-0.3-0.6-0.4l-2.6,2.7l-2.4-3.1c-0.2,0.1-0.4,0.2-0.6,0.4l2.5,3.2c-0.5,0.4-1.1,0.7-1.6,1.1l-2.9-3.2l-0.6,0.4
		l2.9,3.1l-0.1,0.1c-0.5,0.4-0.9,0.7-1.3,1.1l-0.1,0.1l-3.2-3.1c-0.2,0.2-0.4,0.3-0.6,0.5l3.2,3.2c-0.5,0.4-0.9,0.8-1.4,1.3
		l-3.5-3.1c-0.2,0.2-0.4,0.3-0.6,0.5l3.5,3.1c-0.5,0.4-1,0.9-1.4,1.4l-3.6-2.9c-0.2,0.2-0.3,0.4-0.5,0.5l1.8,1.5
		c0.3,0.3,0.7,0.5,1,0.8c0.3,0.2,0.6,0.5,0.8,0.7c-0.4,0.5-0.9,1-1.3,1.5l-3.8-2.8c-0.2,0.2-0.3,0.4-0.5,0.6l3.9,2.8
		c-0.4,0.5-0.8,1-1.2,1.5l-0.1,0.1l-1.6-1l-2.4-1.6c-0.2,0.2-0.3,0.4-0.5,0.6l4,2.7l-0.1,0.1c-0.4,0.5-0.7,1-1.1,1.5l-0.1,0.1
		l-4-2.6l-0.1,0.1c-0.1,0.2-0.2,0.3-0.3,0.5l-0.1,0.1l4,2.6l-0.1,0.1c-0.3,0.5-0.7,1-1,1.5l0,0.1l-4-2.4l0,0.1
		c-0.1,0.2-0.2,0.3-0.3,0.5l0,0.1l4,2.5l0,0.1c-0.3,0.5-0.6,1.1-0.9,1.6l0,0.1l-4.2-2.2c-0.1,0.2-0.2,0.4-0.3,0.7l4.2,2.2l0,0.1
		c-0.3,0.5-0.5,1-0.8,1.5l0,0.1l-4.3-1.8c-0.1,0.2-0.2,0.5-0.3,0.7l4.3,1.8l0,0.1c-0.2,0.5-0.5,1-0.7,1.5l0,0.1l-4.3-1.5
		c-0.1,0.2-0.2,0.5-0.3,0.7c1.4,0.5,2.8,1,4.2,1.5l0.1,0l0,0.1c-0.2,0.5-0.4,1-0.6,1.6l0,0.1l-4.4-1.3c-0.1,0.2-0.2,0.5-0.2,0.7
		l4.4,1.3l0,0.1c0,0.1-0.1,0.2-0.1,0.3c-0.1,0.2-0.1,0.4-0.2,0.6c-0.1,0.2-0.1,0.4-0.2,0.6c0,0.1-0.1,0.2-0.1,0.3l0,0.1l-4.4-1.2
		c-0.1,0.2-0.1,0.5-0.2,0.7l4.3,1.2l0,0.1c-0.2,0.7-0.3,1.3-0.4,2l0,0.1l-4.3-1c-0.1,0.3-0.1,0.5-0.2,0.8l4.4,0.9l0,0.1
		c-0.1,0.7-0.2,1.4-0.3,2l0,0.1l-4.4-0.9l-0.1,0.6l4.5,0.8l0,0.1c-0.1,0.6-0.1,1.2-0.1,1.8l0,0.1c-1.4-0.1-2.9-0.3-4.3-0.4l-0.5-5.7
		l0,0l0-0.1l2.3-47.4c7.4,0,14.7,0,22.1,0c8.5,0,17,0,25.4,0C216.5,84.3,216.3,97.5,215.9,110.7L215.9,110.7z M167.7,125l0.2,1.9
		l0,0.1l3.9,0.2l0-0.1c0-0.5,0.1-1.1,0.1-1.6l0-0.1l-0.1,0C170.4,125.2,169,125.1,167.7,125L167.7,125z M216.3,128.5
		c0-17.2,0.9-41.9,2.2-63.9l10.4,0l0,8.4l0.3,55.2c0.1,20.7,0.2,41.3,0.3,62l1.5,9.9l0,7.3l-16.7,0.1l0.2-7.7l1.6-10L216.3,128.5
		L216.3,128.5z M215.2,189.8c0-18.2,0.1-36.4,0.1-54.6l-1.4,0l0,0.1l0.1,61.9L215.2,189.8L215.2,189.8z M172.9,207.8
		c0.5-23.5,0.3-47.1,2-70.4l-2-3.1h-5l-1.7,54.8l1.2,10.7l-0.1,7.9C169.3,207.7,170.9,207.7,172.9,207.8L172.9,207.8z M214.1,117.6
		L214.1,117.6c-0.2-0.7-0.4-1.3-0.6-1.9l0-0.1l2.4-0.6l-0.1,2.3l-0.1,0c-0.5,0.1-1,0.2-1.5,0.3l-0.1,0L214.1,117.6L214.1,117.6
		L214.1,117.6z M195.2,81.6l0,2.6l-1.2,1.3l-1.3-1.3v-2.6H195.2L195.2,81.6z M213.2,134.6l2.1,0l0-2l-3,0l-0.3,1.4l1.2,2.1
		L213.2,134.6L213.2,134.6z M173.3,133.6l-5.3,0l0-2.1h6.3l3,4.5l-1.9,0.9L173.3,133.6L173.3,133.6z M215.7,121.2l-0.1,3.9
		c-0.2-1.3-0.3-2.4-0.6-3.7l0-0.1L215.7,121.2L215.7,121.2z M214.4,118.4c0.4-0.1,0.8-0.2,1.2-0.2l0.1,0l-0.1,2.3l-0.8,0.1l0-0.1
		c-0.2-0.7-0.3-1.3-0.5-1.9L214.4,118.4L214.4,118.4L214.4,118.4z M171.7,128.1L171.7,128.1l-3.8-0.3l0.2,2.3l-0.1,0l0,0l3.7,0.1
		l0-0.1C171.7,129.5,171.7,128.8,171.7,128.1L171.7,128.1z M276.7,122c0-0.2-0.1-0.5-0.1-0.7l-3.8,0.9c-0.1-0.7-0.2-1.4-0.3-2.1
		l4.5-0.9c-0.1-0.3-0.1-0.6-0.2-0.9l-4.5,1.1c-0.1-0.7-0.3-1.4-0.4-2.1l4.4-1.2c-0.1-0.2-0.1-0.5-0.2-0.7l-4.4,1.2
		c-0.2-0.7-0.4-1.4-0.6-2l0-0.1l4.4-1.3l0-0.1c-0.1-0.2-0.1-0.4-0.2-0.5l0-0.1l-4.4,1.3l0-0.1c-0.2-0.6-0.4-1.1-0.6-1.7l4.4-1.6
		l0-0.1c-0.1-0.2-0.1-0.3-0.2-0.5l0-0.1l-4.4,1.6c-0.2-0.6-0.5-1.1-0.8-1.7l3.3-1.5l1-0.4l0-0.1c-0.1-0.2-0.2-0.4-0.2-0.5l0-0.1
		l-0.9,0.4l-3.4,1.4c-0.3-0.5-0.5-1.1-0.8-1.6l4.2-2.2l0-0.1c-0.1-0.2-0.2-0.3-0.3-0.5l0-0.1l-4.2,2.2c-0.3-0.6-0.7-1.2-1-1.8
		l4.1-2.5l0-0.1c-0.1-0.2-0.2-0.3-0.3-0.5l0-0.1l-4.1,2.5c-0.2-0.4-0.8-1.3-1.1-1.7l4-2.6l-0.1-0.1c-0.1-0.2-0.2-0.3-0.3-0.5
		l-0.1-0.1l-4,2.6c-0.4-0.6-0.8-1.1-1.2-1.7l4-2.7c-0.1-0.2-0.3-0.4-0.5-0.6l-2.5,1.7l-1.6,1c-0.4-0.5-0.9-1.1-1.3-1.6l3.9-2.9
		c-0.2-0.2-0.3-0.4-0.5-0.6l-3.9,2.9l-1.3-1.4c1.2-1,2.5-2,3.7-3l-0.5-0.5l-3.7,2.9c-0.5-0.5-0.9-0.9-1.4-1.4l3.5-3.1
		c-0.2-0.2-0.4-0.3-0.6-0.5l-3.5,3.1c-0.4-0.4-0.9-0.8-1.4-1.3l3.3-3.2c-0.2-0.2-0.4-0.3-0.6-0.5l-3.3,3.1c-0.5-0.4-0.9-0.8-1.4-1.2
		l-0.1-0.1l3-3.2c-0.2-0.1-0.4-0.3-0.6-0.4l-2.9,3.2c-0.5-0.4-1.1-0.7-1.6-1.1l2.6-3.3l-0.1-0.1c-0.2-0.1-0.3-0.2-0.5-0.3l-0.1,0
		l-2.4,3.1l-2.9-3.1c-0.2,0.1-0.4,0.3-0.6,0.5l2.9,3.2c-0.5,0.4-1,0.8-1.4,1.2c-1.1-1-2.1-2-3.2-3c-0.2,0.2-0.4,0.3-0.6,0.5l3.2,3
		l-0.1,0.1c-0.4,0.4-0.9,0.8-1.3,1.2l-3.3-2.9c-0.2,0.2-0.4,0.3-0.5,0.5l3.3,2.9c-0.5,0.5-0.9,0.9-1.4,1.4l-3.4-2.7
		c-0.2,0.2-0.3,0.4-0.5,0.6l3.4,2.7c-0.4,0.5-0.9,0.9-1.3,1.4l-0.1,0.1l-3.5-2.5c-0.2,0.2-0.3,0.4-0.5,0.6c1.1,0.8,2.3,1.6,3.4,2.5
		l0.1,0.1l-0.1,0.1c-0.4,0.5-0.8,1-1.2,1.5l-0.1,0.1l-3.6-2.4c-0.2,0.2-0.3,0.4-0.5,0.6l3.6,2.3l-0.1,0.1c-0.4,0.5-0.8,1-1.2,1.5
		l-3.6-2.3c-0.1,0.2-0.3,0.4-0.4,0.6l3.6,2.3l-0.1,0.1c-0.4,0.5-0.7,1-1.1,1.5l0,0.1l-3.6-2.1l-0.4,0.6l3.6,2.1
		c-0.4,0.6-0.8,1.2-1.1,1.8l-3.6-1.8l-0.4,0.6l3.6,1.8c-0.3,0.6-0.7,1.1-1,1.7c-1.2-0.5-2.4-1-3.6-1.5l-0.3,0.8
		c1.2,0.5,2.4,0.9,3.6,1.4c-0.3,0.6-0.6,1.2-0.9,1.7l-3.4-1.2c-0.1,0.2-0.2,0.5-0.3,0.7l3.3,1.1l0,0.1c-0.3,0.5-0.5,1.1-0.8,1.6
		l0,0.1l-3-0.8v-0.1c0-2.9,0-5.8,0-8.7l0-2.6l0,0l0-1.2V80.3l0-9.2c8.2,0,16.3,0,24.5,0c7.1,0,14.2,0,21.3,0l1.9,48.3l-0.1,1.2
		c-0.3,3.7-0.4,5-0.5,6.4l-3.8,0.2l0-0.1l0,0c0-0.5-0.1-1.1-0.1-1.6l0-0.1c1.5-0.2,2.4-0.4,3.9-0.5c0-0.2,0-0.4,0-0.6l0-0.1
		c-1.5,0.2-2.4,0.3-3.9,0.4c0-0.6-0.1-1.2-0.1-1.9L276.7,122L276.7,122z M276.4,71.1l1.9,48.4l-0.6,7.8l0,0.1l-0.2,2.6l2.4,60.2
		l-1.4,9.7l0.1,8l2.5,0l-0.1-8.1l1.3-9.8l-2.3-59.9v0l0.8-11l-2.3-53L276.4,71.1L276.4,71.1z M276.9,134.3l2.1,55.8l-1.4,9.7
		l0.1,8.1l-5.9-0.1c-0.4-22-0.4-44.7-1.6-66.6v0l-0.2-2.9H270l-0.1-0.7l2.1-3.2L276.9,134.3L276.9,134.3z M231.6,195.3l0-59.9l0-0.1
		l-1.5,0c0.1,18.2,0.3,36.7,0.4,55l1.1,7.2V195.3L231.6,195.3z M232.3,134.5l0,1.5l1-1.8l-0.4-1.5h-2.8l0,1.8L232.3,134.5
		L232.3,134.5z M271.6,133.6l-2.1,3.3l-1.9-0.9l3-4.1h6.3v1.7H271.6L271.6,133.6z M232.6,112.9c-0.3,0.6-0.5,1.3-0.8,1.9l0,0.1
		l-1.8-0.4l0-2.4L232.6,112.9L232.6,112.9L232.6,112.9z M231.5,115.8c-0.2,0.6-0.4,1.3-0.6,1.9l0,0.1l-0.1,0c-0.2,0-0.4-0.1-0.7-0.1
		l-0.1,0l0-2.3L231.5,115.8L231.5,115.8L231.5,115.8z M230.5,118.4L230.5,118.4l0.1,0.1c-0.1,0.5-0.9,4.1-0.8,3.6l0.2-3.8
		C230.2,118.4,230.3,118.4,230.5,118.4L230.5,118.4z M276.7,130l-3.5,0.1l0-0.1c0-0.6,0-1.3-0.1-1.9l0-0.1l3.7-0.1L276.7,130
		L276.7,130z M249.4,81.1c0,1.1,0,2.2,0,3.4l1.8,1.8l0.1-0.1c0.6-0.6,1.2-1.2,1.7-1.8l0,0v-3.4h-0.1L249.4,81.1L249.4,81.1z
		 M252.4,81.6H250v2.7l1.2,1.2l1.3-1.2V81.6L252.4,81.6z M230.7,50.8l2.9,0l1.8-8.2l34.8-0.1h0.2l0.1-0.2l3.6-6.8l24.2-0.1v2.2
		l-13.1,0l0,0l-11.1,0l-3.6,6.5l-34.9,0.1l-0.5,2.1l36.2-0.1l1,2.3h-37.7l-0.4,1.7H273l1.4,3.9l0.8,10.9l-45.4-0.1l0-9.4l0.3-0.4
		l0.1-0.1L230.7,50.8L230.7,50.8z M294,101.2l-1.8-33.5l0-0.1l6.6-12.1h-6.6l-2,4L294,101.2L294,101.2z M292.8,54.6h6.4v-1.2h-6
		L292.8,54.6L292.8,54.6z M145.8,54.6h6.4l-0.3-1.2h-6V54.6L145.8,54.6z M292,53.9l6.2-13.6l-23.7,0.1l-2.8,5.3l1.2,2.8l2.9-5.4
		h18.5l0.1,1.6L292,53.9L292,53.9z M218.6,59.9l-0.1,3.4l10,0l0-3.4L218.6,59.9L218.6,59.9z M218.7,56l-0.1,2.7l9.8,0l0-2.7H218.7
		L218.7,56z M217.8,54.7l11.4-0.1l1-8.2h-2.1l-0.5,7.1h0l-0.1,0.8h-3.2l0-0.3l0.1-4.1h0l0.1-3.5h-2l0.1,3.5h0l0,0.3l0.1,4.1h-3.2
		l-0.1-0.8h0l0-0.3l-0.5-6.8h-2.1l0.4,3.5h0L217.8,54.7L217.8,54.7z M234.2,44.7h-21l1.6,5l1.4,0l-0.5-4.2h0.3c1.7,0,3.3,0,5,0
		c3.4,0,6.7,0,10.1,0l0.2,0l-0.5,4.2l2.1,0L234.2,44.7L234.2,44.7z M234.3,44.4l1-4h-23.4l1.2,3.8c0-0.4,0-0.7,0-1.1V43h21.2V44.4
		L234.3,44.4z M171.2,35.3l3.4,7.2l37.1,0.1c0.9,2.7,1.7,5.4,2.6,8.1l2.1,0l0.6,4.4l0,0l0,0.1l0.3,0.5l-0.2,9.4h-47.2l3.1-14.8h40.6
		l-0.6-1.7h-39.6l0.5-2.4l38.4,0.1l-0.7-2.1l-37-0.1l-3.4-6.5h-0.2c-8.1,0-16.1,0-24.2-0.1v-2.4L171.2,35.3L171.2,35.3z M172.8,48.4
		l-2.8-5.3l-19.2,0l0,1.7h0.1l3.5,12.2l-2.1-5.2l0,0l-5.5-11.1v-0.3l23.9,0.1l2.8,5.5C173.2,46.7,172.9,47.6,172.8,48.4L172.8,48.4z
		 M167.7,44.8l-1.5,11.8l0,0l-0.1,2l-10.3,0l-3.8-13.8H167.7L167.7,44.8z M160.8,55.9l0-0.3c0.2-1.6,0.4-3.3,0.6-4.9
		c0.2-1.6,0.4-3.3,0.6-4.9l0-0.3l-5.1-0.1l0.6,10.1l0,0.3L160.8,55.9L160.8,55.9z M163.2,198.8l-1.3-9.8l2.2-58.7l-0.8-12.3
		l2.3-53.4l-11.2,0l-2.7,33.8l0,0.3v0l-1.3,16.8l0.1,2.9l-2.4,9.6l-0.3,6.5l-1.4,22.7l-1.2,32.6l-2.6,10.5l-0.1,7.9
		c4.3,0,8.5-0.1,12.8-0.2c2.6-0.1,5.1-0.1,7.7-0.2L163.2,198.8L163.2,198.8z M165.8,63.4l0.1-3.4l-11,0l-0.2,3.4L165.8,63.4
		L165.8,63.4z M168.6,44.8l-1.5,11.9l-0.1,2.2l2.4,6l3-14.8l-2.7-5.3H168.6L168.6,44.8z M166.9,61.2l-0.1,2.6l2.1,5.2l0.2-2.2
		L166.9,61.2L166.9,61.2z M169.7,66.4l-0.2,3.4h47.4l0.1-3.4c-8.5,0-17,0-25.5,0C184.2,66.4,177,66.4,169.7,66.4L169.7,66.4z
		 M275.6,69.8l-0.2-3.4c-7,0-14,0-20.9,0c-8.2,0-16.4,0-24.6,0l0,3.4L275.6,69.8L275.6,69.8z M150.9,101.7l3.4-41.5l-0.1-1.2
		l-1.5-3.5h-6.6l6.7,12.2L150.9,101.7L150.9,101.7z M276,66.4l2.1-5.1l0.1,2.4l-2.1,5.4L276,66.4L276,66.4z M275.9,64.3l2.2-5.4
		l-0.1-1.2l-2.2-12.1l-2.3,4.2l1.6,4.2l0,0.1L275.9,64.3L275.9,64.3z M282,207.9l-0.1-8.1l1.3-9.8l-2.3-60l0.8-11l-2.4-54.4l11.1,0
		l2.6,33.9l0.1,0l1.2,19.9l0,0l2.4,9.6l1.7,29.2l1.2,32.6l2.6,10.5l0.1,7.9L282,207.9L282,207.9z M290.2,63.3l-0.2-3.4l-11,0
		l0.1,3.4L290.2,63.3L290.2,63.3z M289.7,58.6l3.7-13.7l-16.8-0.1l2.3,12.8l0,1.1L289.7,58.6L289.7,58.6z M286.1,55.9l0-0.3
		c0.2-1.6,0.4-3.1,0.6-4.7c0.2-1.6,0.4-3.1,0.6-4.7l0-0.3l-5.1-0.1l0.6,9.7l0,0.3L286.1,55.9z"/>
	<path class="st0" d="M33.9,213.6h359.8l-100.4-7.1H135L33.9,213.6L33.9,213.6z M33.9,213.6h359.8H33.9z"/>
	<path class="st0" d="M159.9,47.6c-2.1,9.7-6,19.7-11.3,29.8l-2,122.2l-0.8-117.1c-2,3.6-4.2,7.1-6.5,10.7l-2,115.5l-0.8-111.2
		c-2.3,3.3-4.7,6.7-7.1,10l-2.1,101.3l-0.8-97.5c-2.3,3-4.7,6-7.2,9l-2,88.3l-0.8-84.9c-2.4,2.8-4.9,5.6-7.4,8.4l-2.1,76.5
		l-0.8-73.3c-2.6,2.8-5.2,5.6-7.9,8.3l-2,65.2l-0.8-62.3c-3.2,3.2-6.3,6.4-9.5,9.4l-2,52.8l-0.8-50.1c-3.6,3.4-7.2,6.7-10.7,9.9
		l-2,40.7L69.6,171c-4.1,3.6-8.1,7.1-12,10.3l-2.3,27.9l-0.9-25.2c-4.3,3.6-8.5,6.8-12.5,9.8l-1.3,15.4l-1.8-13.2
		c-10.9,8.1-19.8,13.8-25,16.1H0C66.2,173.2,134.2,115,158.5,47.6H159.9z"/>
	<path class="st0" d="M283.5,47.6c2.1,9.7,6,19.8,11.3,29.9l2,122.1l0.8-117c2,3.6,4.2,7.1,6.5,10.7l2,115.1l0.8-110.9
		c2.3,3.3,4.7,6.7,7.1,10l2.1,101l0.8-97.3c2.3,3,4.7,6,7.2,9l2,88.3l0.8-84.9c2.4,2.8,4.9,5.6,7.4,8.4l2.1,76.5l0.8-73.4
		c2.6,2.8,5.2,5.6,7.9,8.3l2,64.8l0.8-61.9c3.2,3.2,6.4,6.4,9.5,9.4l2,52.7l0.8-50.1c3.6,3.4,7.2,6.7,10.7,9.9l2,40l0.8-37.5
		c4.1,3.6,8.1,7.1,12,10.3l2,27.3l1.3-24.6c4.3,3.6,8.5,6.9,12.5,9.9l1.6,15.1l1.5-12.8c10.9,8.1,19.8,13.8,24.9,16.1h13.9
		C377.2,173.2,309.2,115,284.9,47.6H283.5z"/>
	<g>
		<path class="st0" d="M227.7,47.5c8.4,57.5,18.9,115.4,36.6,165.9h-10.4c-13.9-50.7-21.5-108.7-28.1-165.9l0,0
			C225.8,46,227.5,46,227.7,47.5z"/>
		<path class="st0" d="M219.2,47.5c-8.4,57.5-18.9,115.4-36.6,165.9h10.4c13.7-50,21.1-107.1,28.1-165.9l0,0
			C221.2,46.4,219.6,45.9,219.2,47.5z"/>
	</g>
	<path class="st0" d="M245.4,172.1l0.3,37.5h-0.9l-0.3-37.5H245.4L245.4,172.1z M199.5,172.1v37.5h0.9v-37.5H199.5L199.5,172.1z
		 M209.3,124.8v84.8h0.9v-84.8H209.3L209.3,124.8z M204.3,152.7v56.9h0.9v-56.9H204.3L204.3,152.7z M235.6,117.1l0.3,92.5h-0.9
		l-0.3-92.5H235.6L235.6,117.1z M240.6,146.6l0,7.4l0.2,55.6h-0.9l-0.3-63H240.6z"/>
</g>
</svg>
