<?xml version="1.0" encoding="utf-8"?>
<!-- Generator: Adobe Illustrator 21.1.0, SVG Export Plug-In . SVG Version: 6.00 Build 0)  -->
<svg version="1.1" id="Layer_1" xmlns="http://www.w3.org/2000/svg" xmlns:xlink="http://www.w3.org/1999/xlink" x="0px" y="0px"
	 viewBox="0 0 349.7 104.1" style="enable-background:new 0 0 349.7 104.1;" xml:space="preserve">
<style type="text/css">
	.st0{fill:#FFFFFF;}
	.st1{fill:#003A78;}
	.st2{fill:none;stroke:#00ABDA;stroke-width:1.1;stroke-miterlimit:10;}
	.st3{fill:#00ABDA;}
</style>
<circle class="st0" cx="46.8" cy="46.8" r="46.2"/>
<circle class="st1" cx="46.8" cy="46.8" r="42"/>
<circle class="st2" cx="46.8" cy="46.8" r="46.2"/>
<path class="st3" d="M62.4,35.6c-0.7-8.9-7.9-11.2-16.3-11.2c-8.3,0-14.7,3.3-14.7,9.1c0,6.7,6.3,8.3,18.9,10.4
	c9.4,1.6,18.9,3.8,18.9,13.7C69.3,70.5,57.8,74,47.7,74C34.6,74,25,69.5,24.2,55.5h5.4C30.5,66.4,37.8,69,47.7,69
	c7.8,0,15.8-2.1,15.8-10.3c0-7.9-9.4-8.9-18.9-10.4c-12.3-2-18.9-5.4-18.9-13.8c0-11.3,10.5-15,20.5-15c10.6,0,21.3,3.8,21.6,16.1
	H62.4z"/>
<g>
	<path class="st0" d="M116.1,29.6V13.1h-7.8v-2.7h18.8v2.7h-7.8v16.5H116.1z"/>
	<path class="st0" d="M145.7,29.6v-9.1h-12.5v9.1h-3.1V10.4h3.1V18h12.5v-7.7h3.1v19.2H145.7z"/>
	<path class="st0" d="M153.8,29.6V10.4h16.7v2.7h-13.5v5.4h12.7v2.7h-12.7v5.8h13.8v2.7H153.8z"/>
	<path class="st0" d="M124.4,44.2c-0.1-1.2-0.4-1.8-1.3-2.4c-1-0.8-2.5-1.2-4.4-1.2c-3.3,0-5.5,1.2-5.5,3c0,0.8,0.5,1.5,1.3,1.9
		c0.7,0.4,1.3,0.5,3.2,0.9l4.2,0.7c2.2,0.4,3.4,0.7,4.4,1.4c1.2,0.8,1.9,2.2,1.9,3.7c0,2-1.2,3.8-3.1,4.8c-1.6,0.9-3.4,1.3-6,1.3
		c-3.9,0-6.7-0.9-8.1-2.6c-1-1.2-1.4-2.2-1.5-4.4h3.3c0,1.4,0.3,2.2,1.2,3c1.1,1,2.9,1.5,5.3,1.5c3.5,0,5.7-1.3,5.7-3.3
		c0-1.4-1.1-2.2-3.7-2.6l-3.9-0.6c-2-0.3-3.6-0.7-4.6-1.2c-1.6-0.7-2.7-2.4-2.7-4.2c0-3.6,3.3-5.8,8.6-5.8c2.8,0,5,0.5,6.4,1.5
		c1.5,1.1,2.1,2.2,2.3,4.6H124.4z"/>
	<path class="st0" d="M152.8,50.2c-1,5.3-4.6,8.1-10.4,8.1c-6.7,0-10.9-3.9-10.9-10.1c0-6.2,4.2-10.1,11-10.1c3.3,0,6,0.9,7.8,2.7
		c1.3,1.2,2,2.6,2.4,4.7h-3.2c-0.7-3.1-3.2-4.9-7-4.9c-4.7,0-7.8,3-7.8,7.6c0,4.5,3.2,7.6,7.8,7.6c2.5,0,4.5-0.9,5.9-2.4
		c0.7-0.9,1-1.6,1.3-3.1H152.8z"/>
	<path class="st0" d="M172.4,57.8v-9.1h-12.5v9.1h-3.1V38.6h3.1v7.7h12.5v-7.7h3.1v19.2H172.4z"/>
	<path class="st0" d="M180.5,57.8V38.6h3.1v16.5h12.7v2.7H180.5z"/>
	<path class="st0" d="M199.6,57.8V38.6h16.7v2.7h-13.5v5.4h12.7v2.7h-12.7v5.8h13.8v2.7H199.6z"/>
	<path class="st0" d="M242.8,57.8V42l-8.2,15.8h-2.8l-8-15.8v15.8h-3.1V38.6h4.5l8.1,16.3l8.3-16.3h4.4v19.2H242.8z"/>
	<path class="st0" d="M273.1,57.8V42l-8.2,15.8h-2.8l-8-15.8v15.8h-3.1V38.6h4.5l8.1,16.3l8.3-16.3h4.4v19.2H273.1z"/>
	<path class="st0" d="M281.2,57.8V38.6h16.7v2.7h-13.5v5.4h12.7v2.7h-12.7v5.8h13.8v2.7H281.2z"/>
	<path class="st0" d="M305.3,57.8h-3.1V38.6h11.2c4.5,0,6.8,1.8,6.8,5.4c0,2.1-0.8,3.3-2.9,4.5c2.1,1,2.5,1.8,2.7,6.2
		c0.1,2.2,0.3,2.6,1.2,2.5v0.6h-3.9c-0.3-1.2-0.3-1.4-0.5-3.8c-0.2-3.2-1.1-4.2-4-4.3h-7.5V57.8z M313.1,47.2c1.3,0,2-0.1,2.6-0.5
		c0.8-0.5,1.3-1.4,1.3-2.6s-0.5-2.1-1.3-2.6c-0.6-0.3-1.4-0.5-2.6-0.5h-7.8v6.1H313.1z"/>
	<path class="st0" d="M110.6,86V66.8h15.8v2.7h-12.7v5.4h11.1v2.7h-11.1V86H110.6z"/>
	<path class="st0" d="M129.5,86V66.8h3.1V86H129.5z"/>
	<path class="st0" d="M140.8,86h-3.1V66.8h11.2c4.5,0,6.8,1.8,6.8,5.4c0,2.1-0.8,3.3-2.9,4.5c2.1,1,2.5,1.8,2.7,6.2
		c0.1,2.2,0.3,2.6,1.2,2.5V86h-3.9c-0.3-1.2-0.3-1.4-0.5-3.8c-0.2-3.2-1.1-4.2-4-4.3h-7.5V86z M148.6,75.4c1.3,0,2-0.1,2.6-0.5
		c0.8-0.5,1.3-1.4,1.3-2.6c0-1.2-0.5-2.1-1.3-2.6c-0.6-0.3-1.4-0.5-2.6-0.5h-7.8v6.1H148.6z"/>
	<path class="st0" d="M183,86V70.2L174.8,86H172l-8-15.8V86h-3.1V66.8h4.5l8.1,16.3l8.3-16.3h4.4V86H183z"/>
	<path class="st0" d="M199.3,86V74.5h1.9v9.9h7.6V86H199.3z"/>
	<path class="st0" d="M210.7,86V74.5h1.9v9.9h7.6V86H210.7z"/>
	<path class="st0" d="M234.1,81.5c-0.6,3.2-2.8,4.8-6.3,4.8c-4,0-6.5-2.3-6.5-6.1c0-3.7,2.5-6.1,6.6-6.1c2,0,3.6,0.6,4.7,1.6
		c0.8,0.7,1.2,1.6,1.4,2.8H232c-0.4-1.9-1.9-2.9-4.2-2.9c-2.8,0-4.7,1.8-4.7,4.6c0,2.7,1.9,4.5,4.7,4.5c1.5,0,2.7-0.5,3.5-1.5
		c0.4-0.5,0.6-1,0.8-1.9H234.1z"/>
</g>
</svg>
