<?xml version="1.0" encoding="utf-8"?>
<!-- Generator: Adobe Illustrator 21.1.0, SVG Export Plug-In . SVG Version: 6.00 Build 0)  -->
<svg version="1.1" id="Layer_1" xmlns="http://www.w3.org/2000/svg" xmlns:xlink="http://www.w3.org/1999/xlink" x="0px" y="0px"
	 viewBox="0 0 16 34.2" style="enable-background:new 0 0 16 34.2;" xml:space="preserve">
<style type="text/css">
	.st0{fill:#FFFFFF;}
</style>
<path id="Facebook_1_" class="st0" d="M3.4,6.6c0,0.9,0,4.7,0,4.7H0v5.8h3.4v17.1h7.1V17.1h4.8c0,0,0.4-2.8,0.7-5.8
	c-0.6,0-5.4,0-5.4,0s0-3.3,0-3.9c0-0.6,0.8-1.4,1.5-1.4c0.8,0,2.4,0,3.9,0c0-0.8,0-3.5,0-6c-2,0-4.2,0-5.2,0C3.3,0,3.4,5.8,3.4,6.6z
	"/>
</svg>
