<?xml version="1.0" encoding="utf-8"?>
<!-- Generator: Adobe Illustrator 21.1.0, SVG Export Plug-In . SVG Version: 6.00 Build 0)  -->
<svg version="1.1" id="Layer_1" xmlns="http://www.w3.org/2000/svg" xmlns:xlink="http://www.w3.org/1999/xlink" x="0px" y="0px"
	 viewBox="0 0 32.2 30.7" style="enable-background:new 0 0 32.2 30.7;" xml:space="preserve">
<style type="text/css">
	.st0{fill:#FFFFFF;}
</style>
<path id="LinkedIn_3_" class="st0" d="M32.2,18.8v11.9h-6.9V19.6c0-2.8-1-4.7-3.5-4.7c-1.9,0-3,1.3-3.5,2.5
	c-0.2,0.4-0.2,1.1-0.2,1.7v11.6h-6.9c0,0,0.1-18.8,0-20.7H18v2.9c0,0,0,0,0,0.1h0v-0.1c0.9-1.4,2.6-3.4,6.2-3.4
	C28.8,9.5,32.2,12.5,32.2,18.8z M3.9,0C1.5,0,0,1.5,0,3.6c0,2,1.5,3.6,3.8,3.6h0c2.4,0,3.9-1.6,3.9-3.6C7.7,1.5,6.3,0,3.9,0z
	 M0.4,30.7h6.9V10H0.4V30.7z"/>
</svg>
