<?xml version="1.0" encoding="utf-8"?>
<!-- Generator: Adobe Illustrator 21.1.0, SVG Export Plug-In . SVG Version: 6.00 Build 0)  -->
<svg version="1.1" id="Layer_1" xmlns="http://www.w3.org/2000/svg" xmlns:xlink="http://www.w3.org/1999/xlink" x="0px" y="0px"
	 viewBox="0 0 32.3 27.1" style="enable-background:new 0 0 32.3 27.1;" xml:space="preserve">
<style type="text/css">
	.st0{fill:#00AAFF;}
</style>
<path class="st0" d="M32.3,3.2c-1.2,0.5-2.5,0.9-3.8,1.1c1.4-0.8,2.4-2.2,2.9-3.8c-1.3,0.8-2.7,1.4-4.2,1.7C26,0.8,24.3,0,22.4,0
	c-3.7,0-6.6,3.1-6.6,6.8c0,0.5,0.1,1.1,0.2,1.6c-5.5-0.3-10.4-3-13.7-7.1c-0.6,1-0.9,2.2-0.9,3.4c0,2.4,1.2,4.5,2.9,5.7
	c-1.1,0-2.1-0.3-3-0.9c0,0,0,0.1,0,0.1c0,3.3,2.3,6.1,5.3,6.7c-0.6,0.2-1.1,0.2-1.7,0.2c-0.4,0-0.8,0-1.2-0.1
	c0.8,2.7,3.3,4.7,6.2,4.7c-2.3,1.8-5.1,2.9-8.2,2.9C1,24.1,0.5,24,0,24c2.9,1.9,6.4,3.1,10.2,3.1C22.4,27.1,29,16.6,29,7.6
	c0-0.3,0-0.6,0-0.9C30.3,5.8,31.4,4.6,32.3,3.2z"/>
</svg>
